M48
;GenerationSoftware,Autodesk,EAGLE,9.4.2*%
;CreationDate,2019-09-17T18:36:18Z*%
FMAT,2
ICI,OFF
METRIC,TZ,000.000
T7C0.500
T6C0.550
T5C0.914
T4C1.016
T3C1.300
T2C1.321
T1C2.800
%
G90
M71
T1
X18000Y99000
X67000Y41000
X67000Y99000
X18000Y41000
T2
X38608Y17526
X38608Y9144
T3
X59436Y9144
X46736Y29464
X54356Y9144
X67056Y29464
X56896Y29464
X46736Y9144
T4
X37846Y81788
X38862Y45212
X38862Y42672
X41402Y45212
X41402Y42672
X43942Y45212
X43942Y42672
X17526Y70104
X17526Y67564
X17526Y65024
X17526Y62484
X17526Y57404
X54610Y99822
X57150Y99822
X59690Y99822
X17526Y92456
X17526Y89916
X17526Y87376
X17526Y84836
X29464Y64262
X17526Y51054
X17526Y59944
X35306Y81788
X37846Y86868
X17526Y48514
X35306Y86868
X37846Y84328
X35306Y84328
X29464Y59182
X29464Y61722
T5
X65730Y91590
X65730Y94130
X68270Y94130
X65730Y63650
X65730Y45870
X68270Y45870
X65730Y48410
X65730Y50950
X68270Y89050
X68270Y50950
X65730Y53490
X68270Y53490
X65730Y56030
X68270Y56030
X65730Y58570
X68270Y58570
X65730Y61110
X68270Y61110
X68270Y63650
X65730Y66190
X68270Y66190
X65730Y68730
X68270Y68730
X65730Y71270
X68270Y71270
X65730Y73810
X68270Y73810
X65730Y76350
X65730Y78890
X68270Y76350
X68270Y78890
X65730Y81430
X68270Y81430
X65730Y83970
X68270Y83970
X65730Y86510
X68270Y86510
X65730Y89050
X68270Y48410
X68270Y91590
T6
X25908Y93218
T7
X59944Y81280
X51816Y38608
X49276Y94742
X31496Y49784
X32258Y53848
X24892Y90932
X24384Y92202
X36576Y96012
X36830Y91948
X26162Y88392
X59944Y42672
X30734Y53848
X24384Y53340
X25654Y55626
X31750Y83312
X26416Y82550
X21590Y72390
X19304Y82804
X26162Y95504
X60452Y90424
X48514Y38608
X52578Y75438
X59944Y82804
X59944Y79756
X59944Y78232
X23114Y39878
X19050Y45974
X17526Y53594
X61214Y53086
X52324Y99314
X45974Y50038
X40640Y56896
X48768Y54864
X53594Y52832
X59944Y39878
X38862Y52578
X52832Y59944
X58166Y60960
X52578Y65024
X45720Y65786
X42418Y65532
X59690Y65532
X59944Y73406
X34036Y51308
X42672Y46482
X24892Y60960
X27178Y63246
X26924Y60960
X31496Y66294
X39878Y90678
X45720Y80264
X41910Y80518
X43180Y53848
X39370Y80772
X46482Y87884
X46736Y89916
X27178Y46990
X27178Y51308
X27178Y53594
X54102Y48006
X25146Y80518
X40132Y48006
X46482Y58674
X57150Y45974
X39370Y78740
X59690Y38354
X63246Y57658
X57150Y55118
X61722Y83566
X61722Y93726
X24384Y82550
X22860Y82550
X56642Y86106
X37084Y68580
X55118Y85852
X37084Y71120
X53594Y85598
X37084Y73660
X52070Y85344
X37084Y76200
X18288Y80518
X18288Y77724
X18288Y74930
X21336Y82550
M30