G04 EAGLE Gerber RS-274X export*
G75*
%MOMM*%
%FSLAX34Y34*%
%LPD*%
%INSolderpaste Top*%
%IPPOS*%
%AMOC8*
5,1,8,0,0,1.08239X$1,22.5*%
G01*
%ADD10R,0.700000X1.925000*%
%ADD11R,0.450000X1.475000*%
%ADD12R,0.650000X1.575000*%
%ADD13R,1.200000X0.400000*%
%ADD14R,5.600000X2.100000*%
%ADD15R,1.800000X1.600000*%
%ADD16R,1.600000X1.800000*%
%ADD17R,1.803000X1.600000*%
%ADD18R,1.600000X1.803000*%
%ADD19R,1.400000X1.600000*%


D10*
X468630Y829180D03*
X481330Y829180D03*
X494030Y829180D03*
X506730Y829180D03*
X519430Y829180D03*
X532130Y829180D03*
X544830Y829180D03*
X557530Y829180D03*
X570230Y829180D03*
X582930Y829180D03*
X582930Y923420D03*
X570230Y923420D03*
X557530Y923420D03*
X544830Y923420D03*
X532130Y923420D03*
X519430Y923420D03*
X506730Y923420D03*
X494030Y923420D03*
X481330Y923420D03*
X468630Y923420D03*
X466090Y549780D03*
X478790Y549780D03*
X491490Y549780D03*
X504190Y549780D03*
X516890Y549780D03*
X529590Y549780D03*
X542290Y549780D03*
X554990Y549780D03*
X567690Y549780D03*
X580390Y549780D03*
X580390Y644020D03*
X567690Y644020D03*
X554990Y644020D03*
X542290Y644020D03*
X529590Y644020D03*
X516890Y644020D03*
X504190Y644020D03*
X491490Y644020D03*
X478790Y644020D03*
X466090Y644020D03*
D11*
X564700Y443060D03*
X571200Y443060D03*
X577700Y443060D03*
X584200Y443060D03*
X590700Y443060D03*
X597200Y443060D03*
X603700Y443060D03*
X603700Y501820D03*
X597200Y501820D03*
X590700Y501820D03*
X584200Y501820D03*
X577700Y501820D03*
X571200Y501820D03*
X564700Y501820D03*
D12*
X349250Y972260D03*
X336550Y972260D03*
X323850Y972260D03*
X311150Y972260D03*
X298450Y972260D03*
X285750Y972260D03*
X273050Y972260D03*
X260350Y972260D03*
X260350Y917500D03*
X273050Y917500D03*
X285750Y917500D03*
X298450Y917500D03*
X311150Y917500D03*
X323850Y917500D03*
X336550Y917500D03*
X349250Y917500D03*
D13*
X306680Y511660D03*
X306680Y518160D03*
X306680Y524660D03*
X287680Y524660D03*
X287680Y511660D03*
D14*
X478280Y756920D03*
X573280Y756920D03*
X397000Y469900D03*
X492000Y469900D03*
D15*
X436880Y928340D03*
X436880Y956340D03*
X538480Y481360D03*
X538480Y453360D03*
X477520Y709960D03*
X477520Y681960D03*
X574040Y709960D03*
X574040Y681960D03*
X396240Y425480D03*
X396240Y397480D03*
X492760Y425480D03*
X492760Y397480D03*
D16*
X283180Y439420D03*
X311180Y439420D03*
D15*
X436880Y654020D03*
X436880Y682020D03*
D13*
X306680Y471020D03*
X306680Y477520D03*
X306680Y484020D03*
X287680Y484020D03*
X287680Y471020D03*
D16*
X280640Y556260D03*
X308640Y556260D03*
D17*
X312420Y618740D03*
X312420Y590300D03*
X284480Y618740D03*
X284480Y590300D03*
X375920Y750320D03*
X375920Y778760D03*
X403860Y750320D03*
X403860Y778760D03*
D18*
X313440Y662940D03*
X341880Y662940D03*
X313440Y688340D03*
X341880Y688340D03*
X313440Y713740D03*
X341880Y713740D03*
X310900Y739140D03*
X339340Y739140D03*
D19*
X192340Y805180D03*
X162340Y805180D03*
D17*
X431800Y837180D03*
X431800Y808740D03*
X434340Y567940D03*
X434340Y539500D03*
D18*
X237240Y805180D03*
X265680Y805180D03*
D19*
X192340Y777240D03*
X162340Y777240D03*
D18*
X237240Y777240D03*
X265680Y777240D03*
D19*
X192340Y749300D03*
X162340Y749300D03*
D18*
X237240Y749300D03*
X265680Y749300D03*
X511560Y711200D03*
X540000Y711200D03*
X575560Y800100D03*
X547120Y800100D03*
X430280Y426720D03*
X458720Y426720D03*
X488700Y513080D03*
X517140Y513080D03*
D16*
X580420Y411480D03*
X552420Y411480D03*
D18*
X580640Y383540D03*
X552200Y383540D03*
M02*
