G04 EAGLE Gerber RS-274X export*
G75*
%MOMM*%
%FSLAX34Y34*%
%LPD*%
%INBottom Copper*%
%IPPOS*%
%AMOC8*
5,1,8,0,0,1.08239X$1,22.5*%
G01*
%ADD10C,1.422400*%
%ADD11P,1.539592X8X112.500000*%
%ADD12C,1.879600*%
%ADD13C,1.524000*%
%ADD14C,1.950000*%
%ADD15P,3.436588X8X202.500000*%
%ADD16R,1.400000X1.600000*%
%ADD17R,1.600000X1.400000*%
%ADD18R,2.540000X1.270000*%
%ADD19C,0.906400*%
%ADD20C,0.406400*%
%ADD21C,0.609600*%
%ADD22C,0.956400*%
%ADD23C,2.540000*%
%ADD24C,0.254000*%
%ADD25C,0.812800*%
%ADD26C,0.152400*%
%ADD27C,1.016000*%
%ADD28C,1.270000*%

G36*
X682521Y58423D02*
X682521Y58423D01*
X682583Y58423D01*
X684406Y58543D01*
X684450Y58551D01*
X684494Y58552D01*
X684652Y58583D01*
X688175Y59527D01*
X688254Y59560D01*
X688336Y59583D01*
X688459Y59643D01*
X688469Y59648D01*
X688473Y59650D01*
X688481Y59654D01*
X691639Y61478D01*
X691707Y61529D01*
X691781Y61573D01*
X691884Y61663D01*
X691892Y61670D01*
X691895Y61673D01*
X691902Y61679D01*
X694481Y64258D01*
X694533Y64326D01*
X694593Y64387D01*
X694669Y64501D01*
X694676Y64509D01*
X694677Y64514D01*
X694682Y64521D01*
X696506Y67679D01*
X696539Y67758D01*
X696581Y67833D01*
X696625Y67962D01*
X696629Y67972D01*
X696630Y67977D01*
X696633Y67985D01*
X697577Y71508D01*
X697583Y71552D01*
X697596Y71594D01*
X697617Y71754D01*
X697737Y73577D01*
X697735Y73598D01*
X697739Y73660D01*
X697739Y376269D01*
X697723Y376401D01*
X697712Y376533D01*
X697703Y376558D01*
X697699Y376585D01*
X697651Y376708D01*
X697607Y376833D01*
X697592Y376856D01*
X697582Y376881D01*
X697505Y376988D01*
X697431Y377098D01*
X697411Y377116D01*
X697396Y377138D01*
X697293Y377223D01*
X697195Y377311D01*
X697171Y377324D01*
X697151Y377341D01*
X697031Y377397D01*
X696914Y377459D01*
X696887Y377465D01*
X696863Y377476D01*
X696733Y377501D01*
X696604Y377532D01*
X696577Y377531D01*
X696551Y377536D01*
X696419Y377528D01*
X696286Y377525D01*
X696260Y377518D01*
X696233Y377516D01*
X696107Y377476D01*
X695980Y377440D01*
X695945Y377423D01*
X695931Y377418D01*
X695912Y377407D01*
X695835Y377369D01*
X685214Y371236D01*
X673112Y368474D01*
X660734Y369402D01*
X649179Y373937D01*
X642597Y379185D01*
X642539Y379221D01*
X642487Y379264D01*
X642404Y379303D01*
X642326Y379351D01*
X642261Y379371D01*
X642199Y379400D01*
X642109Y379417D01*
X642022Y379444D01*
X641953Y379447D01*
X641886Y379460D01*
X641795Y379454D01*
X641704Y379458D01*
X641637Y379444D01*
X641569Y379440D01*
X641482Y379412D01*
X641393Y379393D01*
X641331Y379363D01*
X641267Y379342D01*
X641189Y379293D01*
X641107Y379253D01*
X641056Y379208D01*
X640998Y379172D01*
X640935Y379105D01*
X640866Y379046D01*
X640827Y378990D01*
X640780Y378940D01*
X640736Y378860D01*
X640683Y378785D01*
X640659Y378721D01*
X640626Y378661D01*
X640604Y378573D01*
X640571Y378487D01*
X640564Y378420D01*
X640547Y378354D01*
X640537Y378193D01*
X640537Y351772D01*
X640549Y351673D01*
X640552Y351574D01*
X640569Y351516D01*
X640577Y351456D01*
X640613Y351364D01*
X640641Y351269D01*
X640671Y351217D01*
X640694Y351160D01*
X640752Y351080D01*
X640802Y350995D01*
X640868Y350920D01*
X640880Y350903D01*
X640890Y350895D01*
X640908Y350874D01*
X686495Y305287D01*
X689357Y298379D01*
X689357Y290901D01*
X686495Y283993D01*
X681207Y278705D01*
X674299Y275843D01*
X666821Y275843D01*
X659913Y278705D01*
X605805Y332813D01*
X602943Y339721D01*
X602943Y361790D01*
X605230Y361790D01*
X605348Y361805D01*
X605467Y361812D01*
X605505Y361825D01*
X605546Y361830D01*
X605656Y361874D01*
X605769Y361910D01*
X605804Y361932D01*
X605841Y361947D01*
X605937Y362017D01*
X606038Y362081D01*
X606066Y362110D01*
X606099Y362134D01*
X606175Y362225D01*
X606256Y362312D01*
X606276Y362348D01*
X606301Y362379D01*
X606352Y362486D01*
X606410Y362591D01*
X606420Y362630D01*
X606437Y362666D01*
X606459Y362783D01*
X606489Y362899D01*
X606493Y362959D01*
X606497Y362979D01*
X606495Y362999D01*
X606499Y363059D01*
X606499Y381852D01*
X606491Y381921D01*
X606492Y381991D01*
X606471Y382078D01*
X606459Y382167D01*
X606434Y382232D01*
X606417Y382300D01*
X606375Y382380D01*
X606342Y382463D01*
X606301Y382519D01*
X606269Y382581D01*
X606208Y382648D01*
X606156Y382720D01*
X606102Y382765D01*
X606055Y382817D01*
X605980Y382866D01*
X605911Y382923D01*
X605847Y382953D01*
X605789Y382991D01*
X605704Y383021D01*
X605623Y383059D01*
X605554Y383072D01*
X605488Y383095D01*
X605399Y383102D01*
X605311Y383119D01*
X605241Y383114D01*
X605171Y383120D01*
X605083Y383104D01*
X604993Y383099D01*
X604927Y383077D01*
X604858Y383065D01*
X604776Y383028D01*
X604691Y383001D01*
X604632Y382963D01*
X604568Y382935D01*
X604498Y382879D01*
X604422Y382831D01*
X604374Y382780D01*
X604320Y382736D01*
X604265Y382664D01*
X604204Y382599D01*
X604170Y382538D01*
X604128Y382482D01*
X604057Y382338D01*
X602896Y379534D01*
X600906Y377544D01*
X598307Y376467D01*
X595493Y376467D01*
X592894Y377544D01*
X590904Y379534D01*
X590533Y380430D01*
X590528Y380438D01*
X590525Y380447D01*
X590450Y380576D01*
X590375Y380706D01*
X590369Y380713D01*
X590364Y380721D01*
X590258Y380842D01*
X565901Y405199D01*
X564895Y407626D01*
X564895Y456951D01*
X564894Y456960D01*
X564895Y456969D01*
X564874Y457118D01*
X564855Y457266D01*
X564852Y457275D01*
X564851Y457284D01*
X564799Y457437D01*
X564427Y458333D01*
X564427Y461147D01*
X565504Y463746D01*
X567494Y465736D01*
X570093Y466813D01*
X572907Y466813D01*
X575506Y465736D01*
X577496Y463746D01*
X578573Y461147D01*
X578573Y458333D01*
X578201Y457437D01*
X578199Y457428D01*
X578194Y457419D01*
X578187Y457389D01*
X578181Y457377D01*
X578173Y457337D01*
X578157Y457274D01*
X578117Y457130D01*
X578117Y457121D01*
X578115Y457112D01*
X578105Y456951D01*
X578105Y412202D01*
X578117Y412103D01*
X578120Y412004D01*
X578137Y411946D01*
X578145Y411886D01*
X578181Y411794D01*
X578209Y411699D01*
X578239Y411647D01*
X578262Y411590D01*
X578320Y411510D01*
X578370Y411425D01*
X578436Y411349D01*
X578448Y411333D01*
X578458Y411325D01*
X578476Y411304D01*
X599598Y390182D01*
X599605Y390177D01*
X599611Y390169D01*
X599731Y390079D01*
X599849Y389988D01*
X599858Y389984D01*
X599865Y389978D01*
X600010Y389907D01*
X600906Y389536D01*
X602896Y387546D01*
X604057Y384742D01*
X604092Y384682D01*
X604118Y384617D01*
X604170Y384544D01*
X604215Y384466D01*
X604263Y384416D01*
X604304Y384360D01*
X604374Y384302D01*
X604436Y384238D01*
X604496Y384201D01*
X604549Y384157D01*
X604631Y384118D01*
X604707Y384072D01*
X604774Y384051D01*
X604837Y384021D01*
X604925Y384004D01*
X605011Y383978D01*
X605081Y383975D01*
X605150Y383961D01*
X605239Y383967D01*
X605329Y383963D01*
X605397Y383977D01*
X605467Y383981D01*
X605552Y384009D01*
X605640Y384027D01*
X605703Y384058D01*
X605769Y384079D01*
X605845Y384127D01*
X605926Y384167D01*
X605979Y384212D01*
X606038Y384249D01*
X606100Y384315D01*
X606168Y384373D01*
X606208Y384430D01*
X606256Y384481D01*
X606299Y384560D01*
X606351Y384633D01*
X606376Y384698D01*
X606410Y384760D01*
X606432Y384846D01*
X606464Y384931D01*
X606472Y385000D01*
X606489Y385067D01*
X606499Y385228D01*
X606499Y472146D01*
X606484Y472264D01*
X606477Y472383D01*
X606464Y472421D01*
X606459Y472462D01*
X606416Y472572D01*
X606379Y472685D01*
X606357Y472720D01*
X606342Y472757D01*
X606273Y472853D01*
X606209Y472954D01*
X606179Y472982D01*
X606156Y473015D01*
X606064Y473091D01*
X605977Y473172D01*
X605942Y473192D01*
X605911Y473217D01*
X605803Y473268D01*
X605699Y473326D01*
X605659Y473336D01*
X605623Y473353D01*
X605506Y473375D01*
X605391Y473405D01*
X605331Y473409D01*
X605311Y473413D01*
X605290Y473411D01*
X605230Y473415D01*
X516692Y473415D01*
X511091Y475736D01*
X460329Y526497D01*
X460235Y526570D01*
X460146Y526649D01*
X460110Y526667D01*
X460078Y526692D01*
X459969Y526739D01*
X459863Y526793D01*
X459823Y526802D01*
X459786Y526818D01*
X459668Y526837D01*
X459552Y526863D01*
X459512Y526862D01*
X459472Y526868D01*
X459353Y526857D01*
X459235Y526853D01*
X459196Y526842D01*
X459155Y526838D01*
X459043Y526798D01*
X458929Y526765D01*
X458894Y526744D01*
X458856Y526731D01*
X458758Y526664D01*
X458655Y526603D01*
X458610Y526564D01*
X458593Y526552D01*
X458580Y526537D01*
X458534Y526497D01*
X405637Y473599D01*
X402836Y472439D01*
X399804Y472439D01*
X397585Y473359D01*
X397576Y473361D01*
X397567Y473366D01*
X397422Y473403D01*
X397278Y473443D01*
X397269Y473443D01*
X397260Y473445D01*
X397099Y473455D01*
X389342Y473455D01*
X389243Y473443D01*
X389144Y473440D01*
X389086Y473423D01*
X389026Y473415D01*
X388934Y473379D01*
X388839Y473351D01*
X388787Y473321D01*
X388730Y473298D01*
X388650Y473240D01*
X388565Y473190D01*
X388489Y473124D01*
X388473Y473112D01*
X388465Y473102D01*
X388444Y473084D01*
X377816Y462456D01*
X377756Y462378D01*
X377688Y462306D01*
X377659Y462253D01*
X377622Y462205D01*
X377582Y462114D01*
X377534Y462027D01*
X377519Y461969D01*
X377495Y461913D01*
X377480Y461815D01*
X377455Y461719D01*
X377449Y461619D01*
X377445Y461599D01*
X377447Y461586D01*
X377445Y461558D01*
X377445Y460893D01*
X377462Y460755D01*
X377475Y460617D01*
X377482Y460597D01*
X377485Y460577D01*
X377536Y460448D01*
X377583Y460317D01*
X377594Y460300D01*
X377602Y460282D01*
X377683Y460169D01*
X377761Y460054D01*
X377777Y460041D01*
X377788Y460024D01*
X377896Y459936D01*
X378000Y459844D01*
X378018Y459834D01*
X378033Y459822D01*
X378159Y459762D01*
X378283Y459699D01*
X378303Y459695D01*
X378321Y459686D01*
X378457Y459660D01*
X378593Y459629D01*
X378614Y459630D01*
X378633Y459626D01*
X378772Y459635D01*
X378911Y459639D01*
X378931Y459645D01*
X378951Y459646D01*
X379083Y459689D01*
X379217Y459727D01*
X379234Y459738D01*
X379253Y459744D01*
X379371Y459819D01*
X379491Y459889D01*
X379512Y459908D01*
X379522Y459914D01*
X379536Y459929D01*
X379611Y459995D01*
X381857Y462241D01*
X386245Y464059D01*
X390995Y464059D01*
X395383Y462241D01*
X398741Y458883D01*
X400147Y455488D01*
X400216Y455367D01*
X400281Y455244D01*
X400295Y455229D01*
X400305Y455212D01*
X400402Y455112D01*
X400495Y455009D01*
X400512Y454998D01*
X400526Y454983D01*
X400644Y454911D01*
X400761Y454834D01*
X400780Y454828D01*
X400797Y454817D01*
X400930Y454776D01*
X401062Y454731D01*
X401082Y454729D01*
X401101Y454723D01*
X401240Y454717D01*
X401379Y454706D01*
X401399Y454709D01*
X401419Y454708D01*
X401555Y454736D01*
X401692Y454760D01*
X401711Y454768D01*
X401730Y454772D01*
X401855Y454834D01*
X401982Y454891D01*
X401998Y454903D01*
X402016Y454912D01*
X402122Y455003D01*
X402230Y455089D01*
X402243Y455105D01*
X402258Y455119D01*
X402338Y455232D01*
X402422Y455343D01*
X402434Y455369D01*
X402441Y455379D01*
X402448Y455398D01*
X402493Y455488D01*
X403899Y458883D01*
X407257Y462241D01*
X411645Y464059D01*
X416395Y464059D01*
X420783Y462241D01*
X424141Y458883D01*
X425547Y455488D01*
X425616Y455367D01*
X425681Y455244D01*
X425695Y455229D01*
X425705Y455212D01*
X425802Y455112D01*
X425895Y455009D01*
X425912Y454998D01*
X425926Y454983D01*
X426044Y454911D01*
X426161Y454834D01*
X426180Y454828D01*
X426197Y454817D01*
X426330Y454776D01*
X426462Y454731D01*
X426482Y454729D01*
X426501Y454723D01*
X426640Y454717D01*
X426779Y454706D01*
X426799Y454709D01*
X426819Y454708D01*
X426955Y454736D01*
X427092Y454760D01*
X427111Y454768D01*
X427130Y454772D01*
X427255Y454834D01*
X427382Y454891D01*
X427398Y454903D01*
X427416Y454912D01*
X427522Y455003D01*
X427630Y455089D01*
X427643Y455105D01*
X427658Y455119D01*
X427738Y455232D01*
X427822Y455343D01*
X427834Y455369D01*
X427841Y455379D01*
X427848Y455398D01*
X427893Y455488D01*
X429299Y458883D01*
X432657Y462241D01*
X437045Y464059D01*
X441795Y464059D01*
X446183Y462241D01*
X449541Y458883D01*
X451359Y454495D01*
X451359Y449745D01*
X449541Y445357D01*
X446183Y441999D01*
X441795Y440181D01*
X437045Y440181D01*
X432657Y441999D01*
X429299Y445357D01*
X427893Y448752D01*
X427824Y448873D01*
X427759Y448996D01*
X427745Y449011D01*
X427735Y449028D01*
X427638Y449128D01*
X427545Y449231D01*
X427528Y449242D01*
X427514Y449257D01*
X427395Y449329D01*
X427279Y449406D01*
X427260Y449412D01*
X427243Y449423D01*
X427110Y449464D01*
X426978Y449509D01*
X426958Y449511D01*
X426939Y449517D01*
X426800Y449523D01*
X426661Y449534D01*
X426641Y449531D01*
X426621Y449532D01*
X426485Y449504D01*
X426348Y449480D01*
X426329Y449472D01*
X426310Y449468D01*
X426184Y449406D01*
X426058Y449349D01*
X426042Y449337D01*
X426024Y449328D01*
X425918Y449237D01*
X425810Y449151D01*
X425797Y449135D01*
X425782Y449121D01*
X425702Y449008D01*
X425618Y448897D01*
X425606Y448871D01*
X425599Y448861D01*
X425592Y448842D01*
X425547Y448752D01*
X424141Y445357D01*
X420783Y441999D01*
X417388Y440593D01*
X417267Y440524D01*
X417144Y440459D01*
X417129Y440445D01*
X417112Y440435D01*
X417012Y440338D01*
X416909Y440245D01*
X416898Y440228D01*
X416883Y440214D01*
X416811Y440096D01*
X416734Y439979D01*
X416728Y439960D01*
X416717Y439943D01*
X416676Y439810D01*
X416631Y439678D01*
X416629Y439658D01*
X416623Y439639D01*
X416617Y439500D01*
X416606Y439361D01*
X416609Y439341D01*
X416608Y439321D01*
X416636Y439185D01*
X416660Y439048D01*
X416668Y439029D01*
X416672Y439010D01*
X416734Y438885D01*
X416791Y438758D01*
X416803Y438742D01*
X416812Y438724D01*
X416903Y438618D01*
X416989Y438510D01*
X417005Y438497D01*
X417019Y438482D01*
X417132Y438402D01*
X417243Y438318D01*
X417269Y438306D01*
X417279Y438299D01*
X417298Y438292D01*
X417388Y438247D01*
X420783Y436841D01*
X424141Y433483D01*
X425959Y429095D01*
X425959Y424345D01*
X424141Y419957D01*
X420783Y416599D01*
X416395Y414781D01*
X411645Y414781D01*
X407257Y416599D01*
X403899Y419957D01*
X402493Y423352D01*
X402424Y423473D01*
X402359Y423596D01*
X402345Y423611D01*
X402335Y423628D01*
X402238Y423728D01*
X402145Y423831D01*
X402128Y423842D01*
X402114Y423857D01*
X401995Y423929D01*
X401879Y424006D01*
X401860Y424012D01*
X401843Y424023D01*
X401710Y424064D01*
X401578Y424109D01*
X401558Y424111D01*
X401539Y424117D01*
X401400Y424123D01*
X401261Y424134D01*
X401241Y424131D01*
X401221Y424132D01*
X401085Y424104D01*
X400948Y424080D01*
X400929Y424072D01*
X400910Y424068D01*
X400784Y424006D01*
X400658Y423949D01*
X400642Y423937D01*
X400624Y423928D01*
X400518Y423837D01*
X400410Y423751D01*
X400397Y423735D01*
X400382Y423721D01*
X400302Y423608D01*
X400218Y423497D01*
X400206Y423471D01*
X400199Y423461D01*
X400192Y423442D01*
X400147Y423352D01*
X398741Y419957D01*
X395596Y416813D01*
X395536Y416734D01*
X395468Y416662D01*
X395439Y416609D01*
X395402Y416561D01*
X395362Y416470D01*
X395314Y416384D01*
X395299Y416325D01*
X395275Y416269D01*
X395260Y416171D01*
X395235Y416076D01*
X395229Y415976D01*
X395225Y415955D01*
X395227Y415943D01*
X395225Y415915D01*
X395225Y404582D01*
X395237Y404483D01*
X395240Y404384D01*
X395257Y404326D01*
X395265Y404266D01*
X395301Y404174D01*
X395329Y404079D01*
X395359Y404027D01*
X395382Y403970D01*
X395440Y403890D01*
X395490Y403805D01*
X395556Y403729D01*
X395568Y403713D01*
X395578Y403705D01*
X395596Y403684D01*
X411638Y387642D01*
X411645Y387637D01*
X411651Y387630D01*
X411770Y387540D01*
X411889Y387448D01*
X411898Y387444D01*
X411905Y387438D01*
X412050Y387367D01*
X412946Y386996D01*
X414936Y385006D01*
X416013Y382407D01*
X416013Y379593D01*
X414936Y376994D01*
X412946Y375004D01*
X410347Y373927D01*
X407533Y373927D01*
X404934Y375004D01*
X402944Y376994D01*
X402573Y377890D01*
X402568Y377898D01*
X402565Y377907D01*
X402489Y378036D01*
X402415Y378166D01*
X402409Y378173D01*
X402404Y378181D01*
X402298Y378302D01*
X383021Y397579D01*
X382015Y400006D01*
X382015Y415915D01*
X382003Y416013D01*
X382000Y416112D01*
X381983Y416171D01*
X381975Y416231D01*
X381939Y416323D01*
X381911Y416418D01*
X381881Y416470D01*
X381858Y416526D01*
X381800Y416606D01*
X381750Y416692D01*
X381684Y416767D01*
X381672Y416784D01*
X381662Y416791D01*
X381644Y416813D01*
X378499Y419957D01*
X376681Y424345D01*
X376681Y426252D01*
X376669Y426351D01*
X376666Y426450D01*
X376649Y426508D01*
X376641Y426568D01*
X376605Y426660D01*
X376577Y426755D01*
X376547Y426807D01*
X376524Y426864D01*
X376466Y426944D01*
X376416Y427029D01*
X376350Y427105D01*
X376338Y427121D01*
X376328Y427129D01*
X376310Y427150D01*
X365241Y438219D01*
X364235Y440646D01*
X364235Y466134D01*
X365241Y468561D01*
X380302Y483623D01*
X382339Y485659D01*
X384766Y486665D01*
X396622Y486665D01*
X396720Y486677D01*
X396819Y486680D01*
X396877Y486697D01*
X396937Y486705D01*
X397029Y486741D01*
X397124Y486769D01*
X397177Y486799D01*
X397233Y486822D01*
X397313Y486880D01*
X397398Y486930D01*
X397474Y486996D01*
X397490Y487008D01*
X397498Y487018D01*
X397519Y487036D01*
X447757Y537274D01*
X447830Y537369D01*
X447909Y537458D01*
X447927Y537494D01*
X447952Y537526D01*
X447999Y537635D01*
X448053Y537741D01*
X448062Y537780D01*
X448078Y537817D01*
X448097Y537935D01*
X448123Y538051D01*
X448122Y538092D01*
X448128Y538132D01*
X448117Y538250D01*
X448113Y538369D01*
X448102Y538408D01*
X448098Y538448D01*
X448058Y538560D01*
X448025Y538675D01*
X448004Y538709D01*
X447991Y538747D01*
X447924Y538846D01*
X447863Y538949D01*
X447824Y538994D01*
X447812Y539011D01*
X447797Y539024D01*
X447757Y539069D01*
X433505Y553321D01*
X367619Y619207D01*
X367525Y619280D01*
X367436Y619359D01*
X367400Y619377D01*
X367368Y619402D01*
X367259Y619449D01*
X367153Y619503D01*
X367113Y619512D01*
X367076Y619528D01*
X366959Y619547D01*
X366843Y619573D01*
X366802Y619572D01*
X366762Y619578D01*
X366644Y619567D01*
X366525Y619563D01*
X366486Y619552D01*
X366446Y619548D01*
X366333Y619508D01*
X366219Y619475D01*
X366184Y619454D01*
X366146Y619441D01*
X366048Y619374D01*
X365945Y619313D01*
X365900Y619274D01*
X365883Y619262D01*
X365870Y619247D01*
X365824Y619207D01*
X279772Y533155D01*
X279712Y533077D01*
X279644Y533005D01*
X279615Y532952D01*
X279578Y532904D01*
X279538Y532813D01*
X279490Y532726D01*
X279475Y532668D01*
X279451Y532612D01*
X279436Y532514D01*
X279411Y532418D01*
X279405Y532318D01*
X279401Y532298D01*
X279403Y532286D01*
X279401Y532258D01*
X279401Y468384D01*
X278241Y465583D01*
X276097Y463439D01*
X273296Y462279D01*
X270264Y462279D01*
X267463Y463439D01*
X265319Y465583D01*
X264159Y468384D01*
X264159Y537456D01*
X265319Y540257D01*
X306544Y581481D01*
X306617Y581575D01*
X306695Y581664D01*
X306714Y581700D01*
X306739Y581732D01*
X306786Y581842D01*
X306840Y581947D01*
X306849Y581987D01*
X306865Y582024D01*
X306884Y582142D01*
X306910Y582258D01*
X306908Y582298D01*
X306915Y582338D01*
X306904Y582457D01*
X306900Y582576D01*
X306889Y582614D01*
X306885Y582655D01*
X306845Y582767D01*
X306812Y582881D01*
X306791Y582916D01*
X306777Y582954D01*
X306710Y583053D01*
X306650Y583155D01*
X306610Y583200D01*
X306599Y583217D01*
X306583Y583231D01*
X306544Y583276D01*
X299642Y590178D01*
X299564Y590238D01*
X299492Y590306D01*
X299439Y590335D01*
X299391Y590372D01*
X299300Y590412D01*
X299213Y590460D01*
X299155Y590475D01*
X299099Y590499D01*
X299001Y590514D01*
X298905Y590539D01*
X298805Y590545D01*
X298785Y590549D01*
X298772Y590547D01*
X298744Y590549D01*
X283428Y590549D01*
X281939Y592038D01*
X281939Y606842D01*
X282529Y607432D01*
X282602Y607526D01*
X282681Y607616D01*
X282700Y607652D01*
X282724Y607684D01*
X282772Y607793D01*
X282826Y607899D01*
X282835Y607938D01*
X282851Y607976D01*
X282869Y608093D01*
X282895Y608209D01*
X282894Y608250D01*
X282900Y608290D01*
X282889Y608408D01*
X282886Y608527D01*
X282874Y608566D01*
X282871Y608606D01*
X282830Y608719D01*
X282797Y608833D01*
X282777Y608867D01*
X282763Y608906D01*
X282696Y609004D01*
X282636Y609107D01*
X282596Y609152D01*
X282584Y609169D01*
X282569Y609182D01*
X282529Y609227D01*
X281939Y609818D01*
X281939Y624622D01*
X283428Y626111D01*
X310932Y626111D01*
X312623Y624420D01*
X312647Y624387D01*
X312711Y624286D01*
X312741Y624258D01*
X312764Y624225D01*
X312856Y624149D01*
X312943Y624068D01*
X312978Y624048D01*
X313009Y624023D01*
X313117Y623972D01*
X313221Y623914D01*
X313261Y623904D01*
X313297Y623887D01*
X313414Y623865D01*
X313529Y623835D01*
X313589Y623831D01*
X313609Y623827D01*
X313630Y623829D01*
X313690Y623825D01*
X319318Y623825D01*
X319417Y623837D01*
X319516Y623840D01*
X319574Y623857D01*
X319634Y623865D01*
X319726Y623901D01*
X319821Y623929D01*
X319873Y623959D01*
X319930Y623982D01*
X320010Y624040D01*
X320095Y624090D01*
X320171Y624156D01*
X320187Y624168D01*
X320195Y624178D01*
X320216Y624196D01*
X326098Y630078D01*
X326103Y630085D01*
X326110Y630091D01*
X326200Y630210D01*
X326292Y630329D01*
X326296Y630338D01*
X326302Y630345D01*
X326373Y630490D01*
X326744Y631386D01*
X328734Y633376D01*
X331333Y634453D01*
X334147Y634453D01*
X336746Y633376D01*
X338736Y631386D01*
X339813Y628787D01*
X339813Y625973D01*
X338736Y623374D01*
X336746Y621384D01*
X335850Y621013D01*
X335842Y621008D01*
X335833Y621005D01*
X335704Y620929D01*
X335574Y620855D01*
X335567Y620849D01*
X335559Y620844D01*
X335438Y620738D01*
X326321Y611621D01*
X323894Y610615D01*
X313690Y610615D01*
X313572Y610600D01*
X313453Y610593D01*
X313415Y610580D01*
X313374Y610575D01*
X313264Y610532D01*
X313151Y610495D01*
X313116Y610473D01*
X313079Y610458D01*
X312983Y610389D01*
X312882Y610325D01*
X312854Y610295D01*
X312821Y610272D01*
X312745Y610180D01*
X312664Y610093D01*
X312644Y610058D01*
X312619Y610027D01*
X312609Y610006D01*
X311831Y609227D01*
X311758Y609133D01*
X311679Y609044D01*
X311661Y609008D01*
X311636Y608976D01*
X311588Y608867D01*
X311534Y608761D01*
X311525Y608722D01*
X311509Y608684D01*
X311491Y608567D01*
X311465Y608451D01*
X311466Y608410D01*
X311460Y608370D01*
X311471Y608252D01*
X311474Y608133D01*
X311486Y608094D01*
X311489Y608054D01*
X311530Y607942D01*
X311563Y607827D01*
X311583Y607792D01*
X311597Y607754D01*
X311664Y607656D01*
X311724Y607553D01*
X311764Y607508D01*
X311776Y607491D01*
X311791Y607478D01*
X311831Y607432D01*
X312421Y606842D01*
X312421Y596606D01*
X312433Y596507D01*
X312436Y596408D01*
X312447Y596371D01*
X312447Y596364D01*
X312454Y596345D01*
X312461Y596290D01*
X312497Y596198D01*
X312525Y596103D01*
X312541Y596075D01*
X312545Y596062D01*
X312560Y596038D01*
X312578Y595994D01*
X312636Y595914D01*
X312686Y595829D01*
X312710Y595801D01*
X312715Y595793D01*
X312727Y595782D01*
X312752Y595753D01*
X312764Y595737D01*
X312774Y595729D01*
X312792Y595708D01*
X315884Y592616D01*
X315978Y592543D01*
X316067Y592465D01*
X316103Y592446D01*
X316135Y592421D01*
X316245Y592374D01*
X316351Y592320D01*
X316390Y592311D01*
X316427Y592295D01*
X316545Y592276D01*
X316661Y592250D01*
X316701Y592252D01*
X316741Y592245D01*
X316860Y592256D01*
X316979Y592260D01*
X317018Y592271D01*
X317058Y592275D01*
X317170Y592315D01*
X317284Y592348D01*
X317319Y592369D01*
X317357Y592383D01*
X317456Y592450D01*
X317558Y592510D01*
X317604Y592550D01*
X317620Y592561D01*
X317634Y592577D01*
X317679Y592616D01*
X355047Y629984D01*
X355120Y630079D01*
X355199Y630168D01*
X355217Y630204D01*
X355242Y630236D01*
X355289Y630345D01*
X355343Y630451D01*
X355352Y630490D01*
X355368Y630527D01*
X355387Y630645D01*
X355413Y630761D01*
X355412Y630802D01*
X355418Y630842D01*
X355407Y630960D01*
X355403Y631079D01*
X355392Y631118D01*
X355388Y631158D01*
X355348Y631270D01*
X355315Y631385D01*
X355294Y631419D01*
X355281Y631457D01*
X355214Y631556D01*
X355153Y631659D01*
X355114Y631704D01*
X355102Y631721D01*
X355087Y631734D01*
X355047Y631779D01*
X334445Y652381D01*
X329980Y656847D01*
X327659Y662448D01*
X327659Y770401D01*
X327647Y770500D01*
X327644Y770599D01*
X327627Y770657D01*
X327619Y770717D01*
X327583Y770809D01*
X327555Y770904D01*
X327525Y770956D01*
X327502Y771013D01*
X327444Y771093D01*
X327394Y771178D01*
X327328Y771253D01*
X327316Y771270D01*
X327306Y771278D01*
X327288Y771299D01*
X288879Y809707D01*
X288785Y809780D01*
X288696Y809859D01*
X288660Y809877D01*
X288628Y809902D01*
X288519Y809949D01*
X288413Y810003D01*
X288373Y810012D01*
X288336Y810028D01*
X288219Y810047D01*
X288103Y810073D01*
X288062Y810072D01*
X288022Y810078D01*
X287904Y810067D01*
X287785Y810063D01*
X287746Y810052D01*
X287706Y810048D01*
X287593Y810008D01*
X287479Y809975D01*
X287444Y809954D01*
X287406Y809941D01*
X287308Y809874D01*
X287205Y809813D01*
X287160Y809774D01*
X287143Y809762D01*
X287130Y809747D01*
X287084Y809707D01*
X276097Y798719D01*
X273296Y797559D01*
X252484Y797559D01*
X249683Y798719D01*
X247539Y800863D01*
X246379Y803664D01*
X246379Y806696D01*
X247539Y809497D01*
X249683Y811641D01*
X252484Y812801D01*
X268098Y812801D01*
X268196Y812813D01*
X268295Y812816D01*
X268353Y812833D01*
X268413Y812841D01*
X268505Y812877D01*
X268600Y812905D01*
X268653Y812935D01*
X268709Y812958D01*
X268789Y813016D01*
X268874Y813066D01*
X268950Y813132D01*
X268966Y813144D01*
X268974Y813154D01*
X268995Y813172D01*
X280592Y824769D01*
X280652Y824847D01*
X280720Y824919D01*
X280749Y824972D01*
X280786Y825020D01*
X280826Y825111D01*
X280874Y825198D01*
X280889Y825256D01*
X280913Y825312D01*
X280928Y825410D01*
X280953Y825506D01*
X280959Y825606D01*
X280963Y825626D01*
X280961Y825638D01*
X280963Y825666D01*
X280963Y838200D01*
X280948Y838318D01*
X280941Y838437D01*
X280928Y838475D01*
X280923Y838516D01*
X280880Y838626D01*
X280843Y838739D01*
X280821Y838774D01*
X280806Y838811D01*
X280737Y838907D01*
X280673Y839008D01*
X280643Y839036D01*
X280620Y839069D01*
X280528Y839145D01*
X280441Y839226D01*
X280406Y839246D01*
X280375Y839271D01*
X280267Y839322D01*
X280163Y839380D01*
X280123Y839390D01*
X280087Y839407D01*
X279970Y839429D01*
X279855Y839459D01*
X279795Y839463D01*
X279775Y839467D01*
X279754Y839465D01*
X279694Y839469D01*
X188220Y839469D01*
X188210Y839468D01*
X188201Y839469D01*
X188052Y839448D01*
X187904Y839429D01*
X187895Y839426D01*
X187886Y839425D01*
X187734Y839373D01*
X184901Y838199D01*
X165619Y838199D01*
X161884Y839746D01*
X159026Y842604D01*
X157479Y846339D01*
X157479Y850381D01*
X159026Y854116D01*
X161884Y856974D01*
X165619Y858521D01*
X184901Y858521D01*
X187734Y857347D01*
X187743Y857345D01*
X187751Y857340D01*
X187896Y857303D01*
X188041Y857263D01*
X188050Y857263D01*
X188059Y857261D01*
X188220Y857251D01*
X287314Y857251D01*
X287432Y857266D01*
X287551Y857273D01*
X287589Y857286D01*
X287630Y857291D01*
X287740Y857334D01*
X287853Y857371D01*
X287888Y857393D01*
X287925Y857408D01*
X288021Y857477D01*
X288122Y857541D01*
X288150Y857571D01*
X288183Y857594D01*
X288259Y857686D01*
X288340Y857773D01*
X288360Y857808D01*
X288385Y857839D01*
X288436Y857947D01*
X288494Y858051D01*
X288504Y858091D01*
X288521Y858127D01*
X288543Y858244D01*
X288573Y858359D01*
X288577Y858419D01*
X288581Y858439D01*
X288579Y858460D01*
X288583Y858520D01*
X288583Y891374D01*
X288571Y891472D01*
X288568Y891571D01*
X288551Y891629D01*
X288543Y891689D01*
X288507Y891781D01*
X288479Y891876D01*
X288449Y891929D01*
X288426Y891985D01*
X288368Y892065D01*
X288318Y892150D01*
X288252Y892226D01*
X288240Y892242D01*
X288230Y892250D01*
X288212Y892271D01*
X252619Y927863D01*
X251459Y930664D01*
X251459Y933696D01*
X252619Y936497D01*
X254763Y938641D01*
X257564Y939801D01*
X260596Y939801D01*
X263397Y938641D01*
X302665Y899373D01*
X303825Y896572D01*
X303825Y857468D01*
X303828Y857439D01*
X303826Y857409D01*
X303848Y857281D01*
X303865Y857152D01*
X303875Y857125D01*
X303880Y857096D01*
X303934Y856977D01*
X303982Y856857D01*
X303999Y856833D01*
X304011Y856806D01*
X304092Y856704D01*
X304168Y856599D01*
X304191Y856581D01*
X304210Y856557D01*
X304313Y856479D01*
X304413Y856397D01*
X304440Y856384D01*
X304464Y856366D01*
X304608Y856295D01*
X304931Y856161D01*
X304936Y856158D01*
X305027Y856118D01*
X305114Y856070D01*
X305173Y856055D01*
X305228Y856031D01*
X305326Y856016D01*
X305422Y855991D01*
X305522Y855985D01*
X305542Y855981D01*
X305555Y855983D01*
X305583Y855981D01*
X329058Y855981D01*
X329156Y855993D01*
X329255Y855996D01*
X329313Y856013D01*
X329373Y856021D01*
X329465Y856057D01*
X329560Y856085D01*
X329613Y856115D01*
X329669Y856138D01*
X329749Y856196D01*
X329834Y856246D01*
X329910Y856312D01*
X329926Y856324D01*
X329934Y856334D01*
X329955Y856352D01*
X340750Y867147D01*
X340810Y867225D01*
X340878Y867297D01*
X340907Y867350D01*
X340944Y867398D01*
X340984Y867489D01*
X341032Y867576D01*
X341047Y867634D01*
X341071Y867690D01*
X341086Y867788D01*
X341111Y867884D01*
X341117Y867984D01*
X341121Y868004D01*
X341119Y868016D01*
X341121Y868044D01*
X341121Y871055D01*
X342939Y875443D01*
X346297Y878801D01*
X350685Y880619D01*
X355435Y880619D01*
X359823Y878801D01*
X363181Y875443D01*
X364587Y872048D01*
X364656Y871927D01*
X364721Y871804D01*
X364735Y871789D01*
X364745Y871772D01*
X364842Y871672D01*
X364935Y871569D01*
X364952Y871558D01*
X364966Y871543D01*
X365085Y871470D01*
X365201Y871394D01*
X365220Y871388D01*
X365237Y871377D01*
X365370Y871336D01*
X365502Y871291D01*
X365522Y871289D01*
X365541Y871283D01*
X365680Y871277D01*
X365819Y871266D01*
X365839Y871269D01*
X365859Y871268D01*
X365995Y871296D01*
X366132Y871320D01*
X366151Y871328D01*
X366170Y871333D01*
X366296Y871394D01*
X366422Y871451D01*
X366438Y871463D01*
X366456Y871472D01*
X366562Y871563D01*
X366670Y871649D01*
X366683Y871665D01*
X366698Y871679D01*
X366778Y871792D01*
X366862Y871903D01*
X366874Y871929D01*
X366881Y871939D01*
X366888Y871958D01*
X366933Y872048D01*
X368339Y875443D01*
X371697Y878801D01*
X376085Y880619D01*
X380835Y880619D01*
X385223Y878801D01*
X388581Y875443D01*
X390399Y871055D01*
X390399Y866305D01*
X388581Y861917D01*
X385223Y858559D01*
X381828Y857153D01*
X381707Y857084D01*
X381584Y857019D01*
X381569Y857005D01*
X381552Y856995D01*
X381452Y856898D01*
X381349Y856805D01*
X381338Y856788D01*
X381323Y856774D01*
X381251Y856656D01*
X381174Y856539D01*
X381168Y856520D01*
X381157Y856503D01*
X381116Y856370D01*
X381071Y856238D01*
X381069Y856218D01*
X381063Y856199D01*
X381057Y856060D01*
X381046Y855921D01*
X381049Y855901D01*
X381048Y855881D01*
X381076Y855745D01*
X381100Y855608D01*
X381108Y855589D01*
X381113Y855570D01*
X381174Y855445D01*
X381231Y855318D01*
X381243Y855302D01*
X381252Y855284D01*
X381343Y855178D01*
X381429Y855070D01*
X381445Y855057D01*
X381459Y855042D01*
X381572Y854962D01*
X381683Y854878D01*
X381709Y854866D01*
X381719Y854859D01*
X381738Y854852D01*
X381828Y854807D01*
X385223Y853401D01*
X388581Y850043D01*
X388743Y849652D01*
X388758Y849627D01*
X388767Y849599D01*
X388836Y849489D01*
X388901Y849376D01*
X388921Y849355D01*
X388937Y849330D01*
X389032Y849241D01*
X389122Y849148D01*
X389147Y849132D01*
X389168Y849112D01*
X389282Y849049D01*
X389393Y848981D01*
X389421Y848973D01*
X389447Y848958D01*
X389573Y848926D01*
X389697Y848888D01*
X389726Y848886D01*
X389755Y848879D01*
X389916Y848869D01*
X408639Y848869D01*
X408738Y848881D01*
X408837Y848884D01*
X408895Y848901D01*
X408955Y848909D01*
X409047Y848945D01*
X409142Y848973D01*
X409194Y849003D01*
X409251Y849026D01*
X409331Y849084D01*
X409416Y849134D01*
X409491Y849200D01*
X409508Y849212D01*
X409516Y849222D01*
X409537Y849240D01*
X459916Y899619D01*
X459976Y899697D01*
X460044Y899770D01*
X460073Y899823D01*
X460110Y899870D01*
X460150Y899961D01*
X460198Y900048D01*
X460213Y900107D01*
X460237Y900162D01*
X460252Y900260D01*
X460277Y900356D01*
X460283Y900456D01*
X460287Y900476D01*
X460285Y900489D01*
X460287Y900517D01*
X460287Y900567D01*
X461364Y903166D01*
X463354Y905156D01*
X465953Y906233D01*
X468767Y906233D01*
X471366Y905156D01*
X473356Y903166D01*
X474433Y900567D01*
X474433Y897753D01*
X473356Y895154D01*
X471366Y893164D01*
X468767Y892087D01*
X468717Y892087D01*
X468618Y892075D01*
X468519Y892072D01*
X468461Y892055D01*
X468401Y892047D01*
X468309Y892011D01*
X468214Y891983D01*
X468162Y891953D01*
X468105Y891930D01*
X468025Y891872D01*
X467940Y891822D01*
X467865Y891756D01*
X467848Y891744D01*
X467840Y891734D01*
X467819Y891716D01*
X464183Y888079D01*
X464098Y887970D01*
X464009Y887863D01*
X464001Y887844D01*
X463988Y887828D01*
X463933Y887700D01*
X463874Y887575D01*
X463870Y887555D01*
X463862Y887536D01*
X463840Y887398D01*
X463814Y887262D01*
X463815Y887242D01*
X463812Y887222D01*
X463825Y887083D01*
X463834Y886945D01*
X463840Y886926D01*
X463842Y886906D01*
X463889Y886774D01*
X463932Y886643D01*
X463943Y886625D01*
X463949Y886606D01*
X464027Y886491D01*
X464102Y886374D01*
X464117Y886360D01*
X464128Y886343D01*
X464232Y886251D01*
X464333Y886156D01*
X464351Y886146D01*
X464366Y886133D01*
X464491Y886069D01*
X464612Y886002D01*
X464632Y885997D01*
X464650Y885988D01*
X464785Y885958D01*
X464920Y885923D01*
X464948Y885921D01*
X464960Y885918D01*
X464980Y885919D01*
X465081Y885913D01*
X466227Y885913D01*
X468826Y884836D01*
X470816Y882846D01*
X471893Y880247D01*
X471893Y877433D01*
X470816Y874834D01*
X470780Y874798D01*
X470720Y874720D01*
X470652Y874648D01*
X470623Y874595D01*
X470586Y874547D01*
X470546Y874456D01*
X470498Y874369D01*
X470483Y874311D01*
X470459Y874255D01*
X470444Y874157D01*
X470419Y874061D01*
X470413Y873961D01*
X470409Y873941D01*
X470411Y873929D01*
X470409Y873901D01*
X470409Y870108D01*
X469558Y868054D01*
X408764Y807261D01*
X408704Y807183D01*
X408636Y807110D01*
X408607Y807057D01*
X408570Y807010D01*
X408530Y806919D01*
X408482Y806832D01*
X408467Y806773D01*
X408443Y806718D01*
X408428Y806620D01*
X408403Y806524D01*
X408397Y806424D01*
X408393Y806404D01*
X408395Y806391D01*
X408393Y806363D01*
X408393Y806313D01*
X407316Y803714D01*
X405326Y801724D01*
X402727Y800647D01*
X399913Y800647D01*
X397314Y801724D01*
X395324Y803714D01*
X394247Y806313D01*
X394247Y809127D01*
X395324Y811726D01*
X397314Y813716D01*
X399913Y814793D01*
X399963Y814793D01*
X400062Y814805D01*
X400161Y814808D01*
X400219Y814825D01*
X400279Y814833D01*
X400371Y814869D01*
X400466Y814897D01*
X400518Y814927D01*
X400575Y814950D01*
X400655Y815008D01*
X400740Y815058D01*
X400815Y815124D01*
X400832Y815136D01*
X400840Y815146D01*
X400861Y815164D01*
X458780Y873083D01*
X458853Y873177D01*
X458931Y873266D01*
X458950Y873302D01*
X458974Y873334D01*
X459022Y873444D01*
X459076Y873550D01*
X459085Y873589D01*
X459101Y873626D01*
X459119Y873744D01*
X459146Y873860D01*
X459144Y873900D01*
X459151Y873940D01*
X459139Y874059D01*
X459136Y874178D01*
X459125Y874217D01*
X459121Y874257D01*
X459081Y874369D01*
X459047Y874483D01*
X459027Y874518D01*
X459013Y874556D01*
X458946Y874655D01*
X458886Y874757D01*
X458846Y874803D01*
X458835Y874819D01*
X458827Y874826D01*
X457747Y877433D01*
X457747Y878579D01*
X457730Y878717D01*
X457717Y878856D01*
X457710Y878875D01*
X457707Y878895D01*
X457656Y879024D01*
X457609Y879155D01*
X457598Y879172D01*
X457590Y879191D01*
X457509Y879303D01*
X457431Y879418D01*
X457415Y879432D01*
X457404Y879448D01*
X457296Y879537D01*
X457192Y879629D01*
X457174Y879638D01*
X457159Y879651D01*
X457033Y879710D01*
X456909Y879773D01*
X456889Y879778D01*
X456871Y879786D01*
X456735Y879812D01*
X456599Y879843D01*
X456578Y879842D01*
X456559Y879846D01*
X456420Y879837D01*
X456281Y879833D01*
X456261Y879828D01*
X456241Y879826D01*
X456109Y879784D01*
X455975Y879745D01*
X455958Y879735D01*
X455939Y879728D01*
X455821Y879654D01*
X455701Y879583D01*
X455680Y879565D01*
X455670Y879558D01*
X455656Y879543D01*
X455581Y879477D01*
X414646Y838542D01*
X412592Y837691D01*
X389916Y837691D01*
X389886Y837688D01*
X389857Y837690D01*
X389729Y837668D01*
X389600Y837651D01*
X389573Y837641D01*
X389544Y837636D01*
X389425Y837582D01*
X389304Y837534D01*
X389281Y837517D01*
X389254Y837505D01*
X389152Y837424D01*
X389047Y837348D01*
X389028Y837325D01*
X389005Y837306D01*
X388927Y837203D01*
X388844Y837103D01*
X388832Y837076D01*
X388814Y837052D01*
X388743Y836908D01*
X388581Y836517D01*
X385223Y833159D01*
X381828Y831753D01*
X381707Y831684D01*
X381584Y831619D01*
X381569Y831605D01*
X381552Y831595D01*
X381452Y831498D01*
X381349Y831405D01*
X381338Y831388D01*
X381323Y831374D01*
X381251Y831255D01*
X381174Y831139D01*
X381168Y831120D01*
X381157Y831103D01*
X381116Y830970D01*
X381071Y830838D01*
X381069Y830818D01*
X381063Y830799D01*
X381057Y830660D01*
X381046Y830521D01*
X381049Y830501D01*
X381048Y830481D01*
X381076Y830345D01*
X381100Y830208D01*
X381108Y830189D01*
X381112Y830170D01*
X381174Y830044D01*
X381231Y829918D01*
X381243Y829902D01*
X381252Y829884D01*
X381343Y829778D01*
X381429Y829670D01*
X381445Y829657D01*
X381459Y829642D01*
X381572Y829562D01*
X381683Y829478D01*
X381709Y829466D01*
X381719Y829459D01*
X381738Y829452D01*
X381828Y829407D01*
X385223Y828001D01*
X388581Y824643D01*
X390399Y820255D01*
X390399Y815505D01*
X388581Y811117D01*
X385223Y807759D01*
X380835Y805941D01*
X376085Y805941D01*
X371697Y807759D01*
X368339Y811117D01*
X366521Y815505D01*
X366521Y820255D01*
X368339Y824643D01*
X371697Y828001D01*
X375092Y829407D01*
X375213Y829476D01*
X375336Y829541D01*
X375351Y829555D01*
X375368Y829565D01*
X375468Y829662D01*
X375571Y829755D01*
X375582Y829772D01*
X375597Y829786D01*
X375669Y829904D01*
X375746Y830021D01*
X375752Y830040D01*
X375763Y830057D01*
X375804Y830190D01*
X375849Y830322D01*
X375851Y830342D01*
X375857Y830361D01*
X375863Y830500D01*
X375874Y830639D01*
X375871Y830659D01*
X375872Y830679D01*
X375844Y830815D01*
X375820Y830952D01*
X375812Y830971D01*
X375808Y830990D01*
X375746Y831115D01*
X375689Y831242D01*
X375677Y831258D01*
X375668Y831276D01*
X375577Y831382D01*
X375491Y831490D01*
X375475Y831503D01*
X375461Y831518D01*
X375348Y831598D01*
X375237Y831682D01*
X375211Y831694D01*
X375201Y831701D01*
X375182Y831708D01*
X375092Y831753D01*
X371697Y833159D01*
X368339Y836517D01*
X366933Y839912D01*
X366864Y840033D01*
X366799Y840156D01*
X366785Y840171D01*
X366775Y840188D01*
X366678Y840288D01*
X366585Y840391D01*
X366568Y840402D01*
X366554Y840417D01*
X366435Y840489D01*
X366319Y840566D01*
X366300Y840572D01*
X366283Y840583D01*
X366150Y840624D01*
X366018Y840669D01*
X365998Y840671D01*
X365979Y840677D01*
X365840Y840683D01*
X365701Y840694D01*
X365681Y840691D01*
X365661Y840692D01*
X365525Y840664D01*
X365388Y840640D01*
X365369Y840632D01*
X365350Y840628D01*
X365224Y840566D01*
X365098Y840509D01*
X365082Y840497D01*
X365064Y840488D01*
X364958Y840397D01*
X364850Y840311D01*
X364837Y840295D01*
X364822Y840281D01*
X364742Y840168D01*
X364658Y840057D01*
X364646Y840031D01*
X364639Y840021D01*
X364632Y840002D01*
X364587Y839912D01*
X363181Y836517D01*
X359823Y833159D01*
X355435Y831341D01*
X350685Y831341D01*
X346297Y833159D01*
X342939Y836517D01*
X341121Y840905D01*
X341121Y842900D01*
X341104Y843037D01*
X341091Y843176D01*
X341084Y843195D01*
X341081Y843215D01*
X341030Y843344D01*
X340983Y843475D01*
X340972Y843492D01*
X340964Y843511D01*
X340883Y843623D01*
X340805Y843738D01*
X340789Y843752D01*
X340778Y843768D01*
X340670Y843857D01*
X340566Y843949D01*
X340548Y843958D01*
X340533Y843971D01*
X340407Y844030D01*
X340283Y844094D01*
X340263Y844098D01*
X340245Y844107D01*
X340109Y844133D01*
X339973Y844163D01*
X339952Y844163D01*
X339933Y844166D01*
X339794Y844158D01*
X339655Y844154D01*
X339635Y844148D01*
X339615Y844147D01*
X339483Y844104D01*
X339349Y844065D01*
X339332Y844055D01*
X339313Y844049D01*
X339195Y843974D01*
X339075Y843904D01*
X339054Y843885D01*
X339044Y843878D01*
X339030Y843863D01*
X338955Y843797D01*
X337057Y841899D01*
X334256Y840739D01*
X312785Y840739D01*
X312735Y840733D01*
X312686Y840735D01*
X312578Y840713D01*
X312469Y840699D01*
X312423Y840681D01*
X312374Y840671D01*
X312276Y840623D01*
X312174Y840582D01*
X312133Y840553D01*
X312089Y840531D01*
X312005Y840460D01*
X311916Y840396D01*
X311885Y840357D01*
X311847Y840325D01*
X311784Y840235D01*
X311713Y840151D01*
X311692Y840106D01*
X311664Y840065D01*
X311625Y839962D01*
X311578Y839863D01*
X311569Y839814D01*
X311551Y839768D01*
X311539Y839658D01*
X311518Y839551D01*
X311521Y839501D01*
X311516Y839452D01*
X311531Y839343D01*
X311538Y839233D01*
X311553Y839186D01*
X311560Y839137D01*
X311612Y838984D01*
X311933Y838210D01*
X311933Y834673D01*
X311541Y833729D01*
X311539Y833720D01*
X311534Y833712D01*
X311497Y833566D01*
X311457Y833422D01*
X311457Y833413D01*
X311455Y833404D01*
X311445Y833243D01*
X311445Y830775D01*
X311457Y830676D01*
X311460Y830577D01*
X311477Y830519D01*
X311485Y830459D01*
X311521Y830367D01*
X311549Y830272D01*
X311579Y830220D01*
X311602Y830163D01*
X311660Y830083D01*
X311710Y829998D01*
X311776Y829923D01*
X311788Y829906D01*
X311798Y829898D01*
X311816Y829877D01*
X351355Y790339D01*
X351919Y789775D01*
X352013Y789702D01*
X352102Y789623D01*
X352138Y789604D01*
X352170Y789580D01*
X352280Y789532D01*
X352386Y789478D01*
X352425Y789469D01*
X352462Y789453D01*
X352580Y789435D01*
X352696Y789409D01*
X352736Y789410D01*
X352776Y789403D01*
X352895Y789415D01*
X353014Y789418D01*
X353053Y789429D01*
X353093Y789433D01*
X353205Y789474D01*
X353319Y789507D01*
X353354Y789527D01*
X353392Y789541D01*
X353491Y789608D01*
X353593Y789668D01*
X353638Y789708D01*
X353655Y789719D01*
X353669Y789735D01*
X353714Y789775D01*
X356939Y792999D01*
X359366Y794005D01*
X390911Y794005D01*
X390920Y794006D01*
X390929Y794005D01*
X391078Y794026D01*
X391226Y794045D01*
X391235Y794048D01*
X391244Y794049D01*
X391397Y794101D01*
X392293Y794473D01*
X395107Y794473D01*
X397706Y793396D01*
X399696Y791406D01*
X400773Y788807D01*
X400773Y785993D01*
X399696Y783394D01*
X397706Y781404D01*
X395107Y780327D01*
X392293Y780327D01*
X391397Y780699D01*
X391388Y780701D01*
X391379Y780706D01*
X391234Y780743D01*
X391090Y780783D01*
X391081Y780783D01*
X391072Y780785D01*
X390911Y780795D01*
X363942Y780795D01*
X363843Y780783D01*
X363744Y780780D01*
X363686Y780763D01*
X363626Y780755D01*
X363534Y780719D01*
X363439Y780691D01*
X363387Y780661D01*
X363330Y780638D01*
X363250Y780580D01*
X363165Y780530D01*
X363089Y780464D01*
X363073Y780452D01*
X363065Y780442D01*
X363044Y780424D01*
X358512Y775892D01*
X358452Y775814D01*
X358384Y775742D01*
X358355Y775689D01*
X358318Y775641D01*
X358278Y775550D01*
X358230Y775463D01*
X358215Y775405D01*
X358191Y775349D01*
X358176Y775251D01*
X358151Y775155D01*
X358145Y775055D01*
X358141Y775035D01*
X358143Y775023D01*
X358141Y774995D01*
X358141Y672319D01*
X358153Y672220D01*
X358156Y672121D01*
X358173Y672063D01*
X358181Y672003D01*
X358217Y671911D01*
X358245Y671816D01*
X358275Y671764D01*
X358298Y671707D01*
X358356Y671627D01*
X358406Y671542D01*
X358472Y671467D01*
X358484Y671450D01*
X358494Y671442D01*
X358512Y671421D01*
X386479Y643455D01*
X446451Y583483D01*
X446545Y583410D01*
X446634Y583331D01*
X446670Y583313D01*
X446702Y583288D01*
X446811Y583241D01*
X446917Y583187D01*
X446957Y583178D01*
X446994Y583162D01*
X447111Y583143D01*
X447227Y583117D01*
X447268Y583118D01*
X447308Y583112D01*
X447426Y583123D01*
X447545Y583127D01*
X447584Y583138D01*
X447624Y583142D01*
X447737Y583182D01*
X447851Y583215D01*
X447886Y583236D01*
X447924Y583249D01*
X448022Y583316D01*
X448125Y583377D01*
X448170Y583416D01*
X448187Y583428D01*
X448200Y583443D01*
X448246Y583483D01*
X457963Y593201D01*
X460764Y594361D01*
X463796Y594361D01*
X466597Y593201D01*
X468741Y591057D01*
X469901Y588256D01*
X469901Y585224D01*
X468741Y582423D01*
X459023Y572706D01*
X458950Y572611D01*
X458871Y572522D01*
X458853Y572486D01*
X458828Y572454D01*
X458781Y572345D01*
X458727Y572239D01*
X458718Y572200D01*
X458702Y572163D01*
X458683Y572045D01*
X458657Y571929D01*
X458658Y571888D01*
X458652Y571848D01*
X458663Y571730D01*
X458667Y571611D01*
X458678Y571572D01*
X458682Y571532D01*
X458722Y571420D01*
X458755Y571305D01*
X458776Y571271D01*
X458789Y571233D01*
X458856Y571134D01*
X458917Y571031D01*
X458956Y570986D01*
X458968Y570969D01*
X458983Y570956D01*
X459023Y570911D01*
X473275Y556659D01*
X525665Y504268D01*
X525743Y504208D01*
X525816Y504140D01*
X525869Y504111D01*
X525916Y504074D01*
X526007Y504034D01*
X526094Y503986D01*
X526153Y503971D01*
X526208Y503947D01*
X526306Y503932D01*
X526402Y503907D01*
X526502Y503901D01*
X526522Y503897D01*
X526535Y503899D01*
X526563Y503897D01*
X619760Y503897D01*
X619878Y503912D01*
X619997Y503919D01*
X620035Y503932D01*
X620076Y503937D01*
X620186Y503980D01*
X620299Y504017D01*
X620334Y504039D01*
X620371Y504054D01*
X620467Y504123D01*
X620568Y504187D01*
X620571Y504191D01*
X646378Y504191D01*
X646496Y504206D01*
X646615Y504213D01*
X646653Y504226D01*
X646694Y504231D01*
X646804Y504274D01*
X646917Y504311D01*
X646952Y504333D01*
X646989Y504348D01*
X647085Y504418D01*
X647186Y504481D01*
X647214Y504511D01*
X647247Y504534D01*
X647323Y504626D01*
X647404Y504713D01*
X647424Y504748D01*
X647449Y504779D01*
X647500Y504887D01*
X647558Y504991D01*
X647568Y505031D01*
X647585Y505067D01*
X647607Y505184D01*
X647637Y505299D01*
X647641Y505360D01*
X647645Y505380D01*
X647643Y505400D01*
X647647Y505460D01*
X647647Y513498D01*
X653302Y519153D01*
X661298Y519153D01*
X666953Y513498D01*
X666953Y505460D01*
X666968Y505342D01*
X666975Y505223D01*
X666988Y505185D01*
X666993Y505144D01*
X667036Y505034D01*
X667073Y504921D01*
X667095Y504886D01*
X667110Y504849D01*
X667179Y504753D01*
X667243Y504652D01*
X667273Y504624D01*
X667296Y504591D01*
X667388Y504516D01*
X667475Y504434D01*
X667510Y504414D01*
X667541Y504389D01*
X667649Y504338D01*
X667753Y504280D01*
X667793Y504270D01*
X667829Y504253D01*
X667946Y504231D01*
X668061Y504201D01*
X668121Y504197D01*
X668141Y504193D01*
X668162Y504195D01*
X668222Y504191D01*
X696470Y504191D01*
X696588Y504206D01*
X696707Y504213D01*
X696745Y504226D01*
X696786Y504231D01*
X696896Y504274D01*
X697009Y504311D01*
X697044Y504333D01*
X697081Y504348D01*
X697177Y504418D01*
X697278Y504481D01*
X697306Y504511D01*
X697339Y504534D01*
X697415Y504626D01*
X697496Y504713D01*
X697516Y504748D01*
X697541Y504779D01*
X697592Y504887D01*
X697650Y504991D01*
X697660Y505031D01*
X697677Y505067D01*
X697699Y505184D01*
X697729Y505299D01*
X697733Y505360D01*
X697737Y505380D01*
X697735Y505400D01*
X697739Y505460D01*
X697739Y961478D01*
X697722Y961615D01*
X697709Y961754D01*
X697702Y961773D01*
X697699Y961793D01*
X697648Y961922D01*
X697601Y962054D01*
X697590Y962070D01*
X697582Y962089D01*
X697501Y962202D01*
X697423Y962317D01*
X697407Y962330D01*
X697396Y962347D01*
X697288Y962435D01*
X697184Y962527D01*
X697166Y962536D01*
X697151Y962549D01*
X697025Y962609D01*
X696901Y962672D01*
X696881Y962676D01*
X696863Y962685D01*
X696727Y962711D01*
X696591Y962741D01*
X696570Y962741D01*
X696551Y962745D01*
X696412Y962736D01*
X696273Y962732D01*
X696253Y962726D01*
X696233Y962725D01*
X696101Y962682D01*
X695967Y962643D01*
X695950Y962633D01*
X695931Y962627D01*
X695813Y962552D01*
X695693Y962482D01*
X695672Y962463D01*
X695662Y962457D01*
X695648Y962442D01*
X695573Y962375D01*
X692386Y959189D01*
X681769Y953779D01*
X679853Y953476D01*
X679795Y953459D01*
X679736Y953451D01*
X679643Y953415D01*
X679547Y953387D01*
X679496Y953356D01*
X679440Y953334D01*
X679359Y953276D01*
X679273Y953225D01*
X679231Y953183D01*
X679183Y953148D01*
X679119Y953071D01*
X679049Y953000D01*
X679018Y952949D01*
X678980Y952903D01*
X678937Y952812D01*
X678887Y952727D01*
X678870Y952669D01*
X678844Y952615D01*
X678821Y952642D01*
X678776Y952708D01*
X678716Y952761D01*
X678663Y952820D01*
X678597Y952865D01*
X678537Y952918D01*
X678466Y952955D01*
X678401Y952999D01*
X678325Y953027D01*
X678254Y953063D01*
X678176Y953080D01*
X678101Y953107D01*
X678022Y953115D01*
X677944Y953133D01*
X677864Y953130D01*
X677785Y953138D01*
X677627Y953123D01*
X677626Y953123D01*
X677625Y953123D01*
X670000Y951915D01*
X658231Y953779D01*
X647614Y959189D01*
X639189Y967614D01*
X633779Y978231D01*
X631915Y990000D01*
X633779Y1001769D01*
X639189Y1012386D01*
X643075Y1016273D01*
X643161Y1016382D01*
X643249Y1016489D01*
X643258Y1016508D01*
X643270Y1016524D01*
X643326Y1016652D01*
X643385Y1016777D01*
X643389Y1016797D01*
X643397Y1016816D01*
X643419Y1016954D01*
X643445Y1017090D01*
X643443Y1017110D01*
X643447Y1017130D01*
X643433Y1017269D01*
X643425Y1017407D01*
X643419Y1017426D01*
X643417Y1017446D01*
X643370Y1017578D01*
X643327Y1017709D01*
X643316Y1017727D01*
X643309Y1017746D01*
X643231Y1017861D01*
X643157Y1017978D01*
X643142Y1017992D01*
X643131Y1018009D01*
X643026Y1018101D01*
X642925Y1018196D01*
X642907Y1018206D01*
X642892Y1018219D01*
X642768Y1018283D01*
X642647Y1018350D01*
X642627Y1018355D01*
X642609Y1018364D01*
X642473Y1018394D01*
X642339Y1018429D01*
X642311Y1018431D01*
X642299Y1018434D01*
X642278Y1018433D01*
X642178Y1018439D01*
X574015Y1018439D01*
X573946Y1018431D01*
X573876Y1018432D01*
X573788Y1018411D01*
X573699Y1018399D01*
X573634Y1018374D01*
X573567Y1018357D01*
X573487Y1018315D01*
X573404Y1018282D01*
X573347Y1018241D01*
X573285Y1018209D01*
X573219Y1018148D01*
X573146Y1018096D01*
X573102Y1018042D01*
X573050Y1017995D01*
X573001Y1017920D01*
X572943Y1017851D01*
X572914Y1017787D01*
X572875Y1017729D01*
X572846Y1017644D01*
X572808Y1017563D01*
X572795Y1017494D01*
X572772Y1017428D01*
X572765Y1017339D01*
X572748Y1017251D01*
X572753Y1017181D01*
X572747Y1017111D01*
X572762Y1017023D01*
X572768Y1016933D01*
X572789Y1016867D01*
X572801Y1016798D01*
X572838Y1016716D01*
X572866Y1016631D01*
X572903Y1016572D01*
X572932Y1016508D01*
X572988Y1016438D01*
X573036Y1016362D01*
X573087Y1016314D01*
X573131Y1016260D01*
X573202Y1016205D01*
X573268Y1016144D01*
X573329Y1016110D01*
X573385Y1016068D01*
X573529Y1015997D01*
X577256Y1014454D01*
X580114Y1011596D01*
X581661Y1007861D01*
X581661Y988579D01*
X580114Y984844D01*
X577256Y981986D01*
X573521Y980439D01*
X569479Y980439D01*
X565744Y981986D01*
X562886Y984844D01*
X561339Y988579D01*
X561339Y1007861D01*
X562886Y1011596D01*
X565744Y1014454D01*
X569471Y1015997D01*
X569531Y1016032D01*
X569596Y1016058D01*
X569669Y1016110D01*
X569747Y1016155D01*
X569797Y1016203D01*
X569854Y1016244D01*
X569911Y1016314D01*
X569976Y1016376D01*
X570012Y1016436D01*
X570057Y1016489D01*
X570095Y1016571D01*
X570142Y1016647D01*
X570162Y1016714D01*
X570192Y1016777D01*
X570209Y1016865D01*
X570235Y1016951D01*
X570239Y1017021D01*
X570252Y1017090D01*
X570246Y1017179D01*
X570251Y1017269D01*
X570236Y1017337D01*
X570232Y1017407D01*
X570204Y1017492D01*
X570186Y1017580D01*
X570156Y1017643D01*
X570134Y1017709D01*
X570086Y1017785D01*
X570047Y1017866D01*
X570001Y1017919D01*
X569964Y1017978D01*
X569898Y1018040D01*
X569840Y1018108D01*
X569783Y1018148D01*
X569732Y1018196D01*
X569654Y1018239D01*
X569580Y1018291D01*
X569515Y1018316D01*
X569454Y1018350D01*
X569367Y1018372D01*
X569283Y1018404D01*
X569213Y1018412D01*
X569146Y1018429D01*
X568985Y1018439D01*
X548615Y1018439D01*
X548546Y1018431D01*
X548476Y1018432D01*
X548388Y1018411D01*
X548299Y1018399D01*
X548234Y1018374D01*
X548167Y1018357D01*
X548087Y1018315D01*
X548004Y1018282D01*
X547947Y1018241D01*
X547885Y1018209D01*
X547819Y1018148D01*
X547746Y1018096D01*
X547702Y1018042D01*
X547650Y1017995D01*
X547601Y1017920D01*
X547543Y1017851D01*
X547514Y1017787D01*
X547475Y1017729D01*
X547446Y1017644D01*
X547408Y1017563D01*
X547395Y1017494D01*
X547372Y1017428D01*
X547365Y1017339D01*
X547348Y1017251D01*
X547353Y1017181D01*
X547347Y1017111D01*
X547362Y1017023D01*
X547368Y1016933D01*
X547389Y1016867D01*
X547401Y1016798D01*
X547438Y1016716D01*
X547466Y1016631D01*
X547503Y1016572D01*
X547532Y1016508D01*
X547588Y1016438D01*
X547636Y1016362D01*
X547687Y1016314D01*
X547731Y1016260D01*
X547802Y1016205D01*
X547868Y1016144D01*
X547929Y1016110D01*
X547985Y1016068D01*
X548129Y1015997D01*
X551856Y1014454D01*
X554714Y1011596D01*
X556261Y1007861D01*
X556261Y988579D01*
X554714Y984844D01*
X551856Y981986D01*
X548121Y980439D01*
X544079Y980439D01*
X540344Y981986D01*
X537486Y984844D01*
X535939Y988579D01*
X535939Y1007861D01*
X537486Y1011596D01*
X540344Y1014454D01*
X544071Y1015997D01*
X544131Y1016032D01*
X544196Y1016058D01*
X544269Y1016110D01*
X544347Y1016155D01*
X544397Y1016203D01*
X544454Y1016244D01*
X544511Y1016314D01*
X544576Y1016376D01*
X544612Y1016436D01*
X544657Y1016489D01*
X544695Y1016571D01*
X544742Y1016647D01*
X544762Y1016714D01*
X544792Y1016777D01*
X544809Y1016865D01*
X544835Y1016951D01*
X544839Y1017021D01*
X544852Y1017090D01*
X544846Y1017179D01*
X544851Y1017269D01*
X544836Y1017337D01*
X544832Y1017407D01*
X544804Y1017492D01*
X544786Y1017580D01*
X544756Y1017643D01*
X544734Y1017709D01*
X544686Y1017785D01*
X544647Y1017866D01*
X544601Y1017919D01*
X544564Y1017978D01*
X544498Y1018040D01*
X544440Y1018108D01*
X544383Y1018148D01*
X544332Y1018196D01*
X544254Y1018239D01*
X544180Y1018291D01*
X544115Y1018316D01*
X544054Y1018350D01*
X543967Y1018372D01*
X543883Y1018404D01*
X543813Y1018412D01*
X543746Y1018429D01*
X543585Y1018439D01*
X207822Y1018439D01*
X207684Y1018422D01*
X207546Y1018409D01*
X207527Y1018402D01*
X207507Y1018399D01*
X207377Y1018348D01*
X207246Y1018301D01*
X207230Y1018290D01*
X207211Y1018282D01*
X207098Y1018201D01*
X206983Y1018123D01*
X206970Y1018107D01*
X206953Y1018096D01*
X206865Y1017988D01*
X206773Y1017884D01*
X206764Y1017866D01*
X206751Y1017851D01*
X206691Y1017725D01*
X206628Y1017601D01*
X206624Y1017581D01*
X206615Y1017563D01*
X206589Y1017427D01*
X206559Y1017291D01*
X206559Y1017270D01*
X206555Y1017251D01*
X206564Y1017112D01*
X206568Y1016973D01*
X206574Y1016953D01*
X206575Y1016933D01*
X206618Y1016801D01*
X206657Y1016667D01*
X206667Y1016650D01*
X206673Y1016631D01*
X206748Y1016513D01*
X206818Y1016393D01*
X206837Y1016372D01*
X206843Y1016362D01*
X206858Y1016348D01*
X206925Y1016273D01*
X210811Y1012386D01*
X216221Y1001769D01*
X218085Y990000D01*
X216221Y978231D01*
X210811Y967614D01*
X202386Y959189D01*
X191769Y953779D01*
X180000Y951915D01*
X168231Y953779D01*
X157614Y959189D01*
X152027Y964775D01*
X151918Y964861D01*
X151811Y964949D01*
X151792Y964958D01*
X151776Y964970D01*
X151648Y965026D01*
X151523Y965085D01*
X151503Y965089D01*
X151484Y965097D01*
X151346Y965119D01*
X151210Y965145D01*
X151190Y965143D01*
X151170Y965147D01*
X151031Y965133D01*
X150893Y965125D01*
X150874Y965119D01*
X150854Y965117D01*
X150722Y965070D01*
X150591Y965027D01*
X150573Y965016D01*
X150554Y965009D01*
X150439Y964931D01*
X150322Y964857D01*
X150308Y964842D01*
X150291Y964831D01*
X150199Y964726D01*
X150104Y964625D01*
X150094Y964607D01*
X150081Y964592D01*
X150017Y964468D01*
X149950Y964347D01*
X149945Y964327D01*
X149936Y964309D01*
X149906Y964173D01*
X149871Y964039D01*
X149869Y964011D01*
X149866Y963999D01*
X149867Y963978D01*
X149861Y963878D01*
X149861Y436122D01*
X149878Y435984D01*
X149891Y435846D01*
X149898Y435827D01*
X149901Y435807D01*
X149952Y435677D01*
X149999Y435546D01*
X150010Y435530D01*
X150018Y435511D01*
X150099Y435398D01*
X150177Y435283D01*
X150193Y435270D01*
X150204Y435253D01*
X150312Y435165D01*
X150416Y435073D01*
X150434Y435064D01*
X150449Y435051D01*
X150575Y434991D01*
X150699Y434928D01*
X150719Y434924D01*
X150737Y434915D01*
X150873Y434889D01*
X151009Y434859D01*
X151030Y434859D01*
X151049Y434855D01*
X151188Y434864D01*
X151327Y434868D01*
X151347Y434874D01*
X151367Y434875D01*
X151499Y434918D01*
X151633Y434957D01*
X151650Y434967D01*
X151669Y434973D01*
X151787Y435048D01*
X151907Y435118D01*
X151928Y435137D01*
X151938Y435143D01*
X151952Y435158D01*
X152027Y435225D01*
X157614Y440811D01*
X168231Y446221D01*
X180000Y448085D01*
X191769Y446221D01*
X202386Y440811D01*
X210811Y432386D01*
X216221Y421769D01*
X218085Y410000D01*
X216221Y398231D01*
X210811Y387614D01*
X206365Y383167D01*
X206279Y383057D01*
X206191Y382951D01*
X206182Y382932D01*
X206170Y382916D01*
X206114Y382788D01*
X206055Y382663D01*
X206051Y382643D01*
X206043Y382624D01*
X206021Y382486D01*
X205995Y382350D01*
X205997Y382330D01*
X205993Y382310D01*
X206007Y382171D01*
X206015Y382033D01*
X206021Y382014D01*
X206023Y381994D01*
X206070Y381862D01*
X206113Y381731D01*
X206124Y381713D01*
X206131Y381694D01*
X206209Y381579D01*
X206283Y381462D01*
X206298Y381448D01*
X206309Y381431D01*
X206414Y381339D01*
X206515Y381244D01*
X206533Y381234D01*
X206548Y381221D01*
X206672Y381157D01*
X206793Y381090D01*
X206813Y381085D01*
X206831Y381076D01*
X206967Y381046D01*
X207101Y381011D01*
X207129Y381009D01*
X207141Y381006D01*
X207162Y381007D01*
X207262Y381001D01*
X307447Y381001D01*
X322514Y377562D01*
X334861Y371616D01*
X334961Y371582D01*
X335058Y371540D01*
X335112Y371532D01*
X335163Y371515D01*
X335268Y371507D01*
X335372Y371491D01*
X335426Y371496D01*
X335480Y371492D01*
X335584Y371510D01*
X335689Y371520D01*
X335740Y371539D01*
X335793Y371548D01*
X335889Y371592D01*
X335988Y371628D01*
X336033Y371659D01*
X336082Y371681D01*
X336164Y371747D01*
X336251Y371807D01*
X336287Y371847D01*
X336329Y371882D01*
X336392Y371966D01*
X336461Y372045D01*
X336486Y372093D01*
X336519Y372137D01*
X336558Y372234D01*
X336606Y372328D01*
X336618Y372381D01*
X336638Y372432D01*
X336653Y372536D01*
X336676Y372639D01*
X336674Y372693D01*
X336681Y372747D01*
X336669Y372851D01*
X336666Y372956D01*
X336651Y373009D01*
X336645Y373063D01*
X336607Y373161D01*
X336578Y373262D01*
X336550Y373309D01*
X336531Y373359D01*
X336470Y373445D01*
X336416Y373536D01*
X336359Y373601D01*
X336346Y373619D01*
X336335Y373628D01*
X336310Y373657D01*
X325235Y384732D01*
X325157Y384792D01*
X325084Y384860D01*
X325031Y384889D01*
X324984Y384926D01*
X324893Y384966D01*
X324806Y385014D01*
X324747Y385029D01*
X324692Y385053D01*
X324594Y385068D01*
X324498Y385093D01*
X324398Y385099D01*
X324378Y385103D01*
X324365Y385101D01*
X324337Y385103D01*
X268599Y385103D01*
X262998Y387424D01*
X202004Y448418D01*
X199683Y454019D01*
X199683Y530077D01*
X199671Y530176D01*
X199668Y530275D01*
X199651Y530333D01*
X199643Y530393D01*
X199607Y530485D01*
X199579Y530580D01*
X199549Y530632D01*
X199526Y530689D01*
X199468Y530769D01*
X199418Y530854D01*
X199352Y530929D01*
X199340Y530946D01*
X199330Y530954D01*
X199312Y530975D01*
X171141Y559145D01*
X171134Y559151D01*
X171128Y559158D01*
X171009Y559248D01*
X170890Y559340D01*
X170882Y559344D01*
X170874Y559349D01*
X170730Y559420D01*
X166627Y561120D01*
X162807Y564939D01*
X162800Y564945D01*
X162794Y564952D01*
X162674Y565042D01*
X162556Y565134D01*
X162547Y565138D01*
X162540Y565144D01*
X162395Y565215D01*
X161884Y565426D01*
X159026Y568284D01*
X157479Y572019D01*
X157479Y576061D01*
X159026Y579796D01*
X161884Y582654D01*
X162395Y582865D01*
X162403Y582870D01*
X162412Y582873D01*
X162540Y582948D01*
X162671Y583023D01*
X162678Y583029D01*
X162686Y583034D01*
X162807Y583141D01*
X166627Y586960D01*
X172228Y589281D01*
X180832Y589281D01*
X186433Y586960D01*
X227844Y545549D01*
X230165Y539948D01*
X230165Y463890D01*
X230177Y463791D01*
X230180Y463692D01*
X230197Y463634D01*
X230205Y463574D01*
X230241Y463482D01*
X230269Y463387D01*
X230299Y463335D01*
X230322Y463278D01*
X230380Y463198D01*
X230430Y463113D01*
X230496Y463038D01*
X230508Y463021D01*
X230518Y463013D01*
X230536Y462992D01*
X277572Y415956D01*
X277650Y415896D01*
X277723Y415828D01*
X277776Y415799D01*
X277823Y415762D01*
X277914Y415722D01*
X278001Y415674D01*
X278060Y415659D01*
X278115Y415635D01*
X278213Y415620D01*
X278309Y415595D01*
X278409Y415589D01*
X278429Y415585D01*
X278442Y415587D01*
X278470Y415585D01*
X334208Y415585D01*
X339809Y413264D01*
X344275Y408799D01*
X390912Y362162D01*
X390990Y362101D01*
X391062Y362033D01*
X391115Y362004D01*
X391163Y361967D01*
X391254Y361927D01*
X391341Y361880D01*
X391399Y361865D01*
X391455Y361840D01*
X391553Y361825D01*
X391649Y361800D01*
X391749Y361794D01*
X391769Y361791D01*
X391781Y361792D01*
X391809Y361790D01*
X396313Y361790D01*
X396549Y361554D01*
X402015Y356087D01*
X404877Y349179D01*
X404877Y188062D01*
X404889Y187964D01*
X404892Y187865D01*
X404909Y187806D01*
X404917Y187746D01*
X404953Y187654D01*
X404981Y187559D01*
X405011Y187507D01*
X405034Y187451D01*
X405092Y187370D01*
X405142Y187285D01*
X405208Y187210D01*
X405220Y187193D01*
X405230Y187185D01*
X405248Y187164D01*
X408052Y184361D01*
X408052Y166159D01*
X395181Y153288D01*
X376979Y153288D01*
X370467Y159800D01*
X370358Y159885D01*
X370251Y159974D01*
X370232Y159982D01*
X370216Y159995D01*
X370088Y160050D01*
X369963Y160109D01*
X369943Y160113D01*
X369924Y160121D01*
X369786Y160143D01*
X369650Y160169D01*
X369630Y160168D01*
X369610Y160171D01*
X369471Y160158D01*
X369333Y160149D01*
X369314Y160143D01*
X369294Y160141D01*
X369162Y160094D01*
X369031Y160051D01*
X369013Y160040D01*
X368994Y160034D01*
X368879Y159955D01*
X368762Y159881D01*
X368748Y159866D01*
X368731Y159855D01*
X368639Y159751D01*
X368544Y159649D01*
X368534Y159632D01*
X368521Y159617D01*
X368457Y159492D01*
X368390Y159371D01*
X368385Y159351D01*
X368376Y159333D01*
X368346Y159197D01*
X368311Y159063D01*
X368309Y159035D01*
X368306Y159023D01*
X368307Y159003D01*
X368301Y158902D01*
X368301Y81280D01*
X368303Y81259D01*
X368303Y81197D01*
X368488Y78379D01*
X368497Y78336D01*
X368497Y78291D01*
X368529Y78133D01*
X369987Y72689D01*
X370020Y72610D01*
X370043Y72528D01*
X370103Y72405D01*
X370108Y72395D01*
X370110Y72391D01*
X370114Y72383D01*
X372932Y67502D01*
X372984Y67434D01*
X373028Y67360D01*
X373118Y67257D01*
X373125Y67249D01*
X373128Y67246D01*
X373134Y67239D01*
X377119Y63254D01*
X377187Y63202D01*
X377248Y63141D01*
X377362Y63066D01*
X377371Y63059D01*
X377375Y63057D01*
X377382Y63052D01*
X382263Y60234D01*
X382342Y60201D01*
X382417Y60159D01*
X382546Y60115D01*
X382556Y60111D01*
X382561Y60110D01*
X382569Y60107D01*
X388013Y58649D01*
X388057Y58643D01*
X388099Y58629D01*
X388259Y58608D01*
X391077Y58423D01*
X391098Y58425D01*
X391160Y58421D01*
X682500Y58421D01*
X682521Y58423D01*
G37*
%LPC*%
G36*
X369433Y678727D02*
X369433Y678727D01*
X366834Y679804D01*
X364844Y681794D01*
X363767Y684393D01*
X363767Y687207D01*
X364844Y689806D01*
X366834Y691796D01*
X369433Y692873D01*
X372247Y692873D01*
X374846Y691796D01*
X374882Y691760D01*
X374960Y691700D01*
X375032Y691632D01*
X375085Y691603D01*
X375133Y691566D01*
X375224Y691526D01*
X375311Y691478D01*
X375369Y691463D01*
X375425Y691439D01*
X375523Y691424D01*
X375619Y691399D01*
X375719Y691393D01*
X375739Y691389D01*
X375751Y691391D01*
X375779Y691389D01*
X411354Y691389D01*
X411453Y691401D01*
X411552Y691404D01*
X411610Y691421D01*
X411670Y691429D01*
X411762Y691465D01*
X411857Y691493D01*
X411909Y691523D01*
X411966Y691546D01*
X412046Y691604D01*
X412131Y691654D01*
X412206Y691720D01*
X412223Y691732D01*
X412231Y691742D01*
X412252Y691760D01*
X423936Y703445D01*
X424021Y703554D01*
X424110Y703661D01*
X424118Y703680D01*
X424131Y703696D01*
X424186Y703824D01*
X424245Y703949D01*
X424249Y703969D01*
X424257Y703988D01*
X424279Y704126D01*
X424305Y704262D01*
X424304Y704282D01*
X424307Y704302D01*
X424294Y704441D01*
X424285Y704579D01*
X424279Y704598D01*
X424277Y704618D01*
X424230Y704750D01*
X424187Y704881D01*
X424177Y704899D01*
X424170Y704918D01*
X424092Y705033D01*
X424017Y705150D01*
X424002Y705164D01*
X423991Y705181D01*
X423887Y705273D01*
X423786Y705368D01*
X423768Y705378D01*
X423753Y705391D01*
X423629Y705455D01*
X423507Y705522D01*
X423488Y705527D01*
X423469Y705536D01*
X423334Y705566D01*
X423199Y705601D01*
X423171Y705603D01*
X423159Y705606D01*
X423139Y705605D01*
X423038Y705611D01*
X375779Y705611D01*
X375681Y705599D01*
X375582Y705596D01*
X375524Y705579D01*
X375464Y705571D01*
X375372Y705535D01*
X375277Y705507D01*
X375224Y705477D01*
X375168Y705454D01*
X375088Y705396D01*
X375003Y705346D01*
X374927Y705280D01*
X374911Y705268D01*
X374903Y705258D01*
X374882Y705239D01*
X374846Y705204D01*
X372247Y704127D01*
X369433Y704127D01*
X366834Y705204D01*
X364844Y707194D01*
X363767Y709793D01*
X363767Y712607D01*
X364844Y715206D01*
X366834Y717196D01*
X369433Y718273D01*
X372247Y718273D01*
X374846Y717196D01*
X374882Y717161D01*
X374960Y717100D01*
X375032Y717032D01*
X375085Y717003D01*
X375133Y716966D01*
X375224Y716926D01*
X375311Y716878D01*
X375369Y716863D01*
X375425Y716839D01*
X375523Y716824D01*
X375619Y716799D01*
X375719Y716793D01*
X375739Y716789D01*
X375751Y716791D01*
X375779Y716789D01*
X421339Y716789D01*
X421438Y716801D01*
X421537Y716804D01*
X421595Y716821D01*
X421655Y716829D01*
X421747Y716865D01*
X421842Y716893D01*
X421894Y716923D01*
X421951Y716946D01*
X422031Y717004D01*
X422116Y717054D01*
X422191Y717120D01*
X422208Y717132D01*
X422216Y717142D01*
X422237Y717160D01*
X433921Y728845D01*
X434006Y728954D01*
X434095Y729061D01*
X434103Y729080D01*
X434116Y729096D01*
X434171Y729224D01*
X434230Y729349D01*
X434234Y729369D01*
X434242Y729388D01*
X434264Y729526D01*
X434290Y729662D01*
X434289Y729682D01*
X434292Y729702D01*
X434279Y729841D01*
X434270Y729979D01*
X434264Y729998D01*
X434262Y730018D01*
X434215Y730150D01*
X434172Y730281D01*
X434161Y730299D01*
X434155Y730318D01*
X434077Y730433D01*
X434002Y730550D01*
X433987Y730564D01*
X433976Y730581D01*
X433872Y730673D01*
X433771Y730768D01*
X433753Y730778D01*
X433738Y730791D01*
X433613Y730855D01*
X433492Y730922D01*
X433472Y730927D01*
X433454Y730936D01*
X433319Y730966D01*
X433184Y731001D01*
X433156Y731003D01*
X433144Y731006D01*
X433124Y731005D01*
X433023Y731011D01*
X375779Y731011D01*
X375681Y730999D01*
X375582Y730996D01*
X375524Y730979D01*
X375464Y730971D01*
X375372Y730935D01*
X375277Y730907D01*
X375224Y730877D01*
X375168Y730854D01*
X375088Y730796D01*
X375003Y730746D01*
X374927Y730680D01*
X374911Y730668D01*
X374903Y730658D01*
X374882Y730639D01*
X374846Y730604D01*
X372247Y729527D01*
X369433Y729527D01*
X366834Y730604D01*
X364844Y732594D01*
X363767Y735193D01*
X363767Y738007D01*
X364844Y740606D01*
X366834Y742596D01*
X369433Y743673D01*
X372247Y743673D01*
X374846Y742596D01*
X374882Y742561D01*
X374960Y742500D01*
X375032Y742432D01*
X375085Y742403D01*
X375133Y742366D01*
X375224Y742326D01*
X375311Y742278D01*
X375369Y742263D01*
X375425Y742239D01*
X375523Y742224D01*
X375619Y742199D01*
X375719Y742193D01*
X375739Y742189D01*
X375751Y742191D01*
X375779Y742189D01*
X431499Y742189D01*
X431598Y742201D01*
X431697Y742204D01*
X431755Y742221D01*
X431815Y742229D01*
X431907Y742265D01*
X432002Y742293D01*
X432054Y742323D01*
X432111Y742346D01*
X432191Y742404D01*
X432276Y742454D01*
X432351Y742520D01*
X432368Y742532D01*
X432376Y742542D01*
X432397Y742560D01*
X444081Y754245D01*
X444166Y754354D01*
X444255Y754461D01*
X444263Y754480D01*
X444276Y754496D01*
X444331Y754624D01*
X444390Y754749D01*
X444394Y754769D01*
X444402Y754788D01*
X444424Y754926D01*
X444450Y755062D01*
X444449Y755082D01*
X444452Y755102D01*
X444439Y755241D01*
X444430Y755379D01*
X444424Y755398D01*
X444422Y755418D01*
X444375Y755550D01*
X444332Y755681D01*
X444321Y755699D01*
X444315Y755718D01*
X444237Y755833D01*
X444162Y755950D01*
X444147Y755964D01*
X444136Y755981D01*
X444032Y756073D01*
X443931Y756168D01*
X443913Y756178D01*
X443898Y756191D01*
X443773Y756255D01*
X443652Y756322D01*
X443632Y756327D01*
X443614Y756336D01*
X443479Y756366D01*
X443344Y756401D01*
X443316Y756403D01*
X443304Y756406D01*
X443284Y756405D01*
X443183Y756411D01*
X375779Y756411D01*
X375681Y756399D01*
X375582Y756396D01*
X375524Y756379D01*
X375464Y756371D01*
X375372Y756335D01*
X375277Y756307D01*
X375224Y756277D01*
X375168Y756254D01*
X375088Y756196D01*
X375003Y756146D01*
X374927Y756080D01*
X374911Y756068D01*
X374903Y756058D01*
X374882Y756040D01*
X374846Y756004D01*
X372247Y754927D01*
X369433Y754927D01*
X366834Y756004D01*
X364844Y757994D01*
X363767Y760593D01*
X363767Y763407D01*
X364844Y766006D01*
X366834Y767996D01*
X369433Y769073D01*
X372247Y769073D01*
X374846Y767996D01*
X374882Y767960D01*
X374960Y767900D01*
X375032Y767832D01*
X375085Y767803D01*
X375133Y767766D01*
X375224Y767726D01*
X375311Y767678D01*
X375369Y767663D01*
X375425Y767639D01*
X375523Y767624D01*
X375619Y767599D01*
X375719Y767593D01*
X375739Y767589D01*
X375751Y767591D01*
X375779Y767589D01*
X441659Y767589D01*
X441758Y767601D01*
X441857Y767604D01*
X441915Y767621D01*
X441975Y767629D01*
X442067Y767665D01*
X442162Y767693D01*
X442214Y767723D01*
X442271Y767746D01*
X442351Y767804D01*
X442436Y767854D01*
X442511Y767920D01*
X442528Y767932D01*
X442536Y767942D01*
X442557Y767960D01*
X514740Y840143D01*
X514800Y840221D01*
X514868Y840294D01*
X514897Y840347D01*
X514934Y840394D01*
X514974Y840485D01*
X515022Y840572D01*
X515037Y840631D01*
X515061Y840686D01*
X515076Y840784D01*
X515101Y840880D01*
X515107Y840980D01*
X515111Y841000D01*
X515109Y841013D01*
X515111Y841041D01*
X515111Y848501D01*
X515099Y848599D01*
X515096Y848698D01*
X515079Y848756D01*
X515071Y848816D01*
X515035Y848908D01*
X515007Y849003D01*
X514977Y849056D01*
X514954Y849112D01*
X514896Y849192D01*
X514846Y849277D01*
X514780Y849353D01*
X514768Y849369D01*
X514758Y849377D01*
X514740Y849398D01*
X514704Y849434D01*
X513627Y852033D01*
X513627Y854847D01*
X514704Y857446D01*
X516694Y859436D01*
X519293Y860513D01*
X522107Y860513D01*
X524706Y859436D01*
X526750Y857392D01*
X526755Y857383D01*
X526769Y857368D01*
X526779Y857350D01*
X526875Y857251D01*
X526969Y857148D01*
X526986Y857136D01*
X527000Y857122D01*
X527118Y857049D01*
X527235Y856973D01*
X527254Y856966D01*
X527271Y856956D01*
X527404Y856915D01*
X527536Y856870D01*
X527556Y856868D01*
X527575Y856862D01*
X527714Y856855D01*
X527853Y856844D01*
X527873Y856848D01*
X527893Y856847D01*
X528029Y856875D01*
X528166Y856899D01*
X528184Y856907D01*
X528204Y856911D01*
X528329Y856972D01*
X528456Y857029D01*
X528472Y857042D01*
X528490Y857051D01*
X528596Y857141D01*
X528704Y857228D01*
X528717Y857244D01*
X528732Y857257D01*
X528812Y857371D01*
X528896Y857482D01*
X528908Y857507D01*
X528915Y857517D01*
X528922Y857536D01*
X528967Y857627D01*
X529944Y859986D01*
X531934Y861976D01*
X534533Y863053D01*
X537347Y863053D01*
X539946Y861976D01*
X541990Y859932D01*
X541995Y859923D01*
X542009Y859908D01*
X542019Y859890D01*
X542115Y859791D01*
X542209Y859688D01*
X542226Y859676D01*
X542240Y859662D01*
X542358Y859589D01*
X542475Y859513D01*
X542494Y859506D01*
X542511Y859496D01*
X542644Y859455D01*
X542776Y859410D01*
X542796Y859408D01*
X542815Y859402D01*
X542954Y859395D01*
X543093Y859384D01*
X543113Y859388D01*
X543133Y859387D01*
X543269Y859415D01*
X543406Y859439D01*
X543424Y859447D01*
X543444Y859451D01*
X543569Y859512D01*
X543696Y859569D01*
X543712Y859582D01*
X543730Y859591D01*
X543836Y859681D01*
X543944Y859768D01*
X543957Y859784D01*
X543972Y859797D01*
X544052Y859911D01*
X544136Y860022D01*
X544148Y860047D01*
X544155Y860057D01*
X544162Y860076D01*
X544207Y860167D01*
X545184Y862526D01*
X547174Y864516D01*
X549773Y865593D01*
X552587Y865593D01*
X555186Y864516D01*
X557230Y862472D01*
X557235Y862463D01*
X557249Y862448D01*
X557259Y862430D01*
X557356Y862330D01*
X557449Y862228D01*
X557466Y862216D01*
X557480Y862202D01*
X557599Y862129D01*
X557715Y862053D01*
X557734Y862046D01*
X557751Y862036D01*
X557884Y861995D01*
X558016Y861950D01*
X558036Y861948D01*
X558055Y861942D01*
X558194Y861935D01*
X558333Y861924D01*
X558353Y861928D01*
X558373Y861927D01*
X558509Y861955D01*
X558646Y861979D01*
X558665Y861987D01*
X558684Y861991D01*
X558809Y862052D01*
X558936Y862109D01*
X558952Y862122D01*
X558970Y862131D01*
X559076Y862221D01*
X559184Y862308D01*
X559197Y862324D01*
X559212Y862337D01*
X559292Y862451D01*
X559376Y862562D01*
X559388Y862587D01*
X559395Y862597D01*
X559402Y862617D01*
X559447Y862707D01*
X560424Y865066D01*
X562414Y867056D01*
X565013Y868133D01*
X567827Y868133D01*
X570426Y867056D01*
X572416Y865066D01*
X573493Y862467D01*
X573493Y859653D01*
X572380Y856967D01*
X572361Y856942D01*
X572321Y856851D01*
X572273Y856764D01*
X572258Y856706D01*
X572234Y856650D01*
X572219Y856552D01*
X572194Y856456D01*
X572188Y856356D01*
X572184Y856336D01*
X572186Y856324D01*
X572184Y856296D01*
X572184Y837088D01*
X571333Y835034D01*
X417361Y681062D01*
X415307Y680211D01*
X375779Y680211D01*
X375681Y680199D01*
X375582Y680196D01*
X375524Y680179D01*
X375464Y680171D01*
X375372Y680135D01*
X375277Y680107D01*
X375224Y680077D01*
X375168Y680054D01*
X375088Y679996D01*
X375003Y679946D01*
X374927Y679880D01*
X374911Y679868D01*
X374903Y679858D01*
X374882Y679840D01*
X374846Y679804D01*
X372247Y678727D01*
X369433Y678727D01*
G37*
%LPD*%
G36*
X634228Y415293D02*
X634228Y415293D01*
X634248Y415291D01*
X634386Y415313D01*
X634525Y415331D01*
X634543Y415338D01*
X634562Y415341D01*
X634691Y415396D01*
X634820Y415448D01*
X634836Y415459D01*
X634854Y415467D01*
X634965Y415552D01*
X635078Y415634D01*
X635090Y415650D01*
X635106Y415662D01*
X635191Y415772D01*
X635280Y415879D01*
X635289Y415897D01*
X635301Y415913D01*
X635357Y416041D01*
X635416Y416167D01*
X635420Y416186D01*
X635427Y416204D01*
X635463Y416361D01*
X636195Y420984D01*
X641244Y430893D01*
X649107Y438756D01*
X659016Y443805D01*
X670000Y445545D01*
X680984Y443805D01*
X690893Y438756D01*
X695573Y434077D01*
X695682Y433991D01*
X695789Y433903D01*
X695808Y433894D01*
X695824Y433882D01*
X695952Y433826D01*
X696077Y433767D01*
X696097Y433763D01*
X696116Y433755D01*
X696254Y433733D01*
X696390Y433707D01*
X696410Y433709D01*
X696430Y433706D01*
X696569Y433719D01*
X696707Y433727D01*
X696726Y433733D01*
X696746Y433735D01*
X696878Y433783D01*
X697009Y433825D01*
X697027Y433836D01*
X697046Y433843D01*
X697161Y433921D01*
X697278Y433995D01*
X697292Y434010D01*
X697309Y434022D01*
X697401Y434126D01*
X697496Y434227D01*
X697506Y434245D01*
X697519Y434260D01*
X697583Y434384D01*
X697650Y434506D01*
X697655Y434525D01*
X697664Y434543D01*
X697694Y434679D01*
X697729Y434813D01*
X697731Y434842D01*
X697734Y434854D01*
X697733Y434874D01*
X697739Y434974D01*
X697739Y500380D01*
X697724Y500498D01*
X697717Y500617D01*
X697704Y500655D01*
X697699Y500696D01*
X697656Y500806D01*
X697619Y500919D01*
X697597Y500954D01*
X697582Y500991D01*
X697513Y501087D01*
X697449Y501188D01*
X697419Y501216D01*
X697396Y501249D01*
X697304Y501324D01*
X697217Y501406D01*
X697182Y501426D01*
X697151Y501451D01*
X697043Y501502D01*
X696939Y501560D01*
X696899Y501570D01*
X696863Y501587D01*
X696746Y501609D01*
X696631Y501639D01*
X696571Y501643D01*
X696551Y501647D01*
X696530Y501645D01*
X696470Y501649D01*
X687589Y501649D01*
X687491Y501637D01*
X687392Y501634D01*
X687334Y501617D01*
X687274Y501609D01*
X687182Y501573D01*
X687086Y501545D01*
X687034Y501515D01*
X686978Y501492D01*
X686898Y501434D01*
X686812Y501384D01*
X686737Y501318D01*
X686721Y501306D01*
X686713Y501296D01*
X686692Y501277D01*
X686277Y500863D01*
X679123Y500863D01*
X678708Y501277D01*
X678630Y501338D01*
X678558Y501406D01*
X678505Y501435D01*
X678457Y501472D01*
X678366Y501512D01*
X678279Y501560D01*
X678221Y501575D01*
X678165Y501599D01*
X678067Y501614D01*
X677972Y501639D01*
X677872Y501645D01*
X677851Y501649D01*
X677839Y501647D01*
X677811Y501649D01*
X662189Y501649D01*
X662091Y501637D01*
X661992Y501634D01*
X661934Y501617D01*
X661874Y501609D01*
X661782Y501573D01*
X661686Y501545D01*
X661634Y501515D01*
X661578Y501492D01*
X661498Y501434D01*
X661412Y501384D01*
X661337Y501318D01*
X661321Y501306D01*
X661313Y501296D01*
X661292Y501277D01*
X660877Y500863D01*
X653723Y500863D01*
X653308Y501277D01*
X653230Y501338D01*
X653158Y501406D01*
X653105Y501435D01*
X653057Y501472D01*
X652966Y501512D01*
X652879Y501560D01*
X652821Y501575D01*
X652765Y501599D01*
X652667Y501614D01*
X652572Y501639D01*
X652472Y501645D01*
X652451Y501649D01*
X652439Y501647D01*
X652411Y501649D01*
X624840Y501649D01*
X624722Y501634D01*
X624603Y501627D01*
X624565Y501614D01*
X624524Y501609D01*
X624414Y501566D01*
X624301Y501529D01*
X624266Y501507D01*
X624229Y501492D01*
X624133Y501423D01*
X624032Y501359D01*
X624004Y501329D01*
X623971Y501306D01*
X623896Y501214D01*
X623814Y501127D01*
X623794Y501092D01*
X623769Y501061D01*
X623718Y500953D01*
X623660Y500849D01*
X623650Y500809D01*
X623633Y500773D01*
X623611Y500656D01*
X623581Y500541D01*
X623577Y500481D01*
X623573Y500461D01*
X623575Y500440D01*
X623571Y500380D01*
X623571Y416560D01*
X623586Y416442D01*
X623593Y416323D01*
X623606Y416285D01*
X623611Y416244D01*
X623654Y416134D01*
X623691Y416021D01*
X623713Y415986D01*
X623728Y415949D01*
X623798Y415853D01*
X623861Y415752D01*
X623891Y415724D01*
X623914Y415691D01*
X624006Y415616D01*
X624093Y415534D01*
X624128Y415514D01*
X624159Y415489D01*
X624267Y415438D01*
X624371Y415380D01*
X624411Y415370D01*
X624447Y415353D01*
X624564Y415331D01*
X624679Y415301D01*
X624740Y415297D01*
X624760Y415293D01*
X624780Y415295D01*
X624840Y415291D01*
X634209Y415291D01*
X634228Y415293D01*
G37*
%LPC*%
G36*
X160288Y738759D02*
X160288Y738759D01*
X158799Y740248D01*
X158799Y758352D01*
X160288Y759841D01*
X176392Y759841D01*
X177881Y758352D01*
X177881Y756784D01*
X177887Y756735D01*
X177885Y756685D01*
X177907Y756578D01*
X177921Y756469D01*
X177939Y756422D01*
X177949Y756374D01*
X177997Y756275D01*
X178038Y756173D01*
X178067Y756133D01*
X178089Y756088D01*
X178160Y756005D01*
X178224Y755916D01*
X178263Y755884D01*
X178295Y755846D01*
X178385Y755783D01*
X178469Y755713D01*
X178514Y755692D01*
X178555Y755663D01*
X178658Y755624D01*
X178757Y755577D01*
X178806Y755568D01*
X178852Y755550D01*
X178962Y755538D01*
X179069Y755518D01*
X179119Y755521D01*
X179168Y755515D01*
X179277Y755531D01*
X179387Y755537D01*
X179434Y755553D01*
X179483Y755560D01*
X179636Y755612D01*
X181473Y756373D01*
X184287Y756373D01*
X187044Y755231D01*
X187092Y755217D01*
X187137Y755196D01*
X187245Y755176D01*
X187351Y755147D01*
X187401Y755146D01*
X187450Y755136D01*
X187559Y755143D01*
X187669Y755142D01*
X187717Y755153D01*
X187767Y755156D01*
X187871Y755190D01*
X187978Y755216D01*
X188022Y755239D01*
X188069Y755254D01*
X188162Y755313D01*
X188259Y755364D01*
X188296Y755398D01*
X188338Y755424D01*
X188413Y755504D01*
X188495Y755578D01*
X188522Y755620D01*
X188556Y755656D01*
X188609Y755752D01*
X188669Y755844D01*
X188686Y755891D01*
X188710Y755935D01*
X188737Y756041D01*
X188773Y756145D01*
X188777Y756194D01*
X188789Y756242D01*
X188799Y756403D01*
X188799Y758352D01*
X190288Y759841D01*
X206392Y759841D01*
X207881Y758352D01*
X207881Y757329D01*
X207898Y757191D01*
X207911Y757052D01*
X207918Y757033D01*
X207921Y757013D01*
X207972Y756884D01*
X208019Y756753D01*
X208030Y756736D01*
X208038Y756717D01*
X208119Y756605D01*
X208197Y756490D01*
X208213Y756476D01*
X208224Y756460D01*
X208332Y756371D01*
X208436Y756279D01*
X208454Y756270D01*
X208469Y756257D01*
X208595Y756198D01*
X208719Y756135D01*
X208739Y756130D01*
X208757Y756122D01*
X208893Y756096D01*
X209029Y756065D01*
X209050Y756066D01*
X209069Y756062D01*
X209208Y756071D01*
X209347Y756075D01*
X209367Y756080D01*
X209387Y756082D01*
X209519Y756124D01*
X209653Y756163D01*
X209670Y756173D01*
X209689Y756180D01*
X209807Y756254D01*
X209927Y756325D01*
X209948Y756343D01*
X209958Y756350D01*
X209972Y756365D01*
X210047Y756431D01*
X217560Y763943D01*
X217620Y764021D01*
X217688Y764094D01*
X217717Y764147D01*
X217754Y764194D01*
X217794Y764285D01*
X217842Y764372D01*
X217857Y764431D01*
X217881Y764486D01*
X217896Y764584D01*
X217921Y764680D01*
X217927Y764780D01*
X217931Y764800D01*
X217929Y764813D01*
X217931Y764841D01*
X217931Y781003D01*
X217914Y781141D01*
X217901Y781280D01*
X217894Y781299D01*
X217891Y781319D01*
X217840Y781448D01*
X217793Y781579D01*
X217782Y781596D01*
X217774Y781615D01*
X217693Y781727D01*
X217615Y781842D01*
X217599Y781856D01*
X217588Y781872D01*
X217480Y781961D01*
X217376Y782053D01*
X217358Y782062D01*
X217343Y782075D01*
X217217Y782134D01*
X217093Y782197D01*
X217073Y782202D01*
X217055Y782210D01*
X216919Y782236D01*
X216783Y782267D01*
X216762Y782266D01*
X216743Y782270D01*
X216604Y782261D01*
X216465Y782257D01*
X216445Y782252D01*
X216425Y782250D01*
X216293Y782208D01*
X216159Y782169D01*
X216142Y782159D01*
X216123Y782152D01*
X216005Y782078D01*
X215885Y782007D01*
X215864Y781989D01*
X215854Y781982D01*
X215840Y781967D01*
X215765Y781901D01*
X208252Y774389D01*
X208192Y774311D01*
X208124Y774238D01*
X208095Y774185D01*
X208058Y774138D01*
X208018Y774047D01*
X207970Y773960D01*
X207955Y773901D01*
X207931Y773846D01*
X207916Y773748D01*
X207891Y773652D01*
X207885Y773552D01*
X207881Y773532D01*
X207883Y773519D01*
X207881Y773491D01*
X207881Y768188D01*
X206392Y766699D01*
X190288Y766699D01*
X188799Y768188D01*
X188799Y770137D01*
X188793Y770186D01*
X188795Y770236D01*
X188773Y770343D01*
X188759Y770452D01*
X188741Y770499D01*
X188731Y770547D01*
X188683Y770646D01*
X188642Y770748D01*
X188613Y770788D01*
X188591Y770833D01*
X188520Y770916D01*
X188456Y771005D01*
X188417Y771037D01*
X188385Y771075D01*
X188295Y771138D01*
X188211Y771208D01*
X188166Y771229D01*
X188125Y771258D01*
X188022Y771297D01*
X187923Y771344D01*
X187874Y771353D01*
X187828Y771371D01*
X187718Y771383D01*
X187611Y771404D01*
X187561Y771400D01*
X187512Y771406D01*
X187403Y771391D01*
X187293Y771384D01*
X187246Y771368D01*
X187197Y771362D01*
X187044Y771309D01*
X184287Y770167D01*
X181473Y770167D01*
X179636Y770928D01*
X179588Y770941D01*
X179543Y770963D01*
X179435Y770983D01*
X179329Y771012D01*
X179279Y771013D01*
X179230Y771022D01*
X179121Y771016D01*
X179011Y771017D01*
X178963Y771006D01*
X178913Y771003D01*
X178809Y770969D01*
X178702Y770943D01*
X178658Y770920D01*
X178611Y770905D01*
X178518Y770846D01*
X178421Y770794D01*
X178384Y770761D01*
X178342Y770734D01*
X178267Y770654D01*
X178185Y770581D01*
X178158Y770539D01*
X178124Y770503D01*
X178071Y770407D01*
X178011Y770315D01*
X177994Y770268D01*
X177970Y770224D01*
X177943Y770118D01*
X177907Y770014D01*
X177903Y769964D01*
X177891Y769916D01*
X177881Y769756D01*
X177881Y768188D01*
X176392Y766699D01*
X160288Y766699D01*
X158799Y768188D01*
X158799Y786292D01*
X160288Y787781D01*
X176392Y787781D01*
X177881Y786292D01*
X177881Y784724D01*
X177887Y784675D01*
X177885Y784625D01*
X177907Y784518D01*
X177921Y784409D01*
X177939Y784362D01*
X177949Y784314D01*
X177997Y784215D01*
X178038Y784113D01*
X178067Y784073D01*
X178089Y784028D01*
X178160Y783945D01*
X178224Y783856D01*
X178263Y783824D01*
X178295Y783786D01*
X178385Y783723D01*
X178469Y783653D01*
X178514Y783632D01*
X178555Y783603D01*
X178658Y783564D01*
X178757Y783517D01*
X178806Y783508D01*
X178852Y783490D01*
X178962Y783478D01*
X179069Y783458D01*
X179119Y783461D01*
X179168Y783455D01*
X179277Y783471D01*
X179387Y783477D01*
X179434Y783493D01*
X179483Y783500D01*
X179636Y783552D01*
X181473Y784313D01*
X184287Y784313D01*
X187044Y783171D01*
X187092Y783157D01*
X187137Y783136D01*
X187245Y783116D01*
X187351Y783087D01*
X187401Y783086D01*
X187450Y783076D01*
X187559Y783083D01*
X187669Y783082D01*
X187717Y783093D01*
X187767Y783096D01*
X187871Y783130D01*
X187978Y783156D01*
X188022Y783179D01*
X188069Y783194D01*
X188162Y783253D01*
X188259Y783304D01*
X188296Y783338D01*
X188338Y783364D01*
X188413Y783444D01*
X188495Y783518D01*
X188522Y783560D01*
X188556Y783596D01*
X188609Y783692D01*
X188669Y783784D01*
X188686Y783831D01*
X188710Y783875D01*
X188737Y783981D01*
X188773Y784085D01*
X188777Y784134D01*
X188789Y784182D01*
X188799Y784343D01*
X188799Y786292D01*
X190288Y787781D01*
X205311Y787781D01*
X205410Y787793D01*
X205509Y787796D01*
X205567Y787813D01*
X205627Y787821D01*
X205719Y787857D01*
X205814Y787885D01*
X205866Y787915D01*
X205923Y787938D01*
X206003Y787996D01*
X206088Y788046D01*
X206163Y788112D01*
X206180Y788124D01*
X206188Y788134D01*
X206209Y788152D01*
X207400Y789343D01*
X207460Y789421D01*
X207528Y789494D01*
X207557Y789547D01*
X207594Y789594D01*
X207634Y789685D01*
X207682Y789772D01*
X207697Y789831D01*
X207721Y789886D01*
X207736Y789984D01*
X207761Y790080D01*
X207767Y790180D01*
X207771Y790200D01*
X207769Y790213D01*
X207771Y790241D01*
X207771Y793370D01*
X207756Y793488D01*
X207749Y793607D01*
X207736Y793645D01*
X207731Y793686D01*
X207688Y793796D01*
X207651Y793909D01*
X207629Y793944D01*
X207614Y793981D01*
X207545Y794077D01*
X207481Y794178D01*
X207451Y794206D01*
X207428Y794239D01*
X207336Y794315D01*
X207249Y794396D01*
X207214Y794416D01*
X207183Y794441D01*
X207075Y794492D01*
X206971Y794550D01*
X206931Y794560D01*
X206895Y794577D01*
X206778Y794599D01*
X206663Y794629D01*
X206603Y794633D01*
X206583Y794637D01*
X206562Y794635D01*
X206502Y794639D01*
X190288Y794639D01*
X188799Y796128D01*
X188799Y798077D01*
X188793Y798126D01*
X188795Y798176D01*
X188773Y798283D01*
X188759Y798392D01*
X188741Y798439D01*
X188731Y798487D01*
X188683Y798586D01*
X188642Y798688D01*
X188613Y798728D01*
X188591Y798773D01*
X188520Y798856D01*
X188456Y798945D01*
X188417Y798977D01*
X188385Y799015D01*
X188295Y799078D01*
X188211Y799148D01*
X188166Y799169D01*
X188125Y799198D01*
X188022Y799237D01*
X187923Y799284D01*
X187874Y799293D01*
X187828Y799311D01*
X187718Y799323D01*
X187611Y799344D01*
X187561Y799340D01*
X187512Y799346D01*
X187403Y799331D01*
X187293Y799324D01*
X187246Y799308D01*
X187197Y799302D01*
X187044Y799249D01*
X184287Y798107D01*
X181473Y798107D01*
X179636Y798868D01*
X179588Y798881D01*
X179543Y798903D01*
X179435Y798923D01*
X179329Y798952D01*
X179279Y798953D01*
X179230Y798962D01*
X179121Y798956D01*
X179011Y798957D01*
X178963Y798946D01*
X178913Y798943D01*
X178809Y798909D01*
X178702Y798883D01*
X178658Y798860D01*
X178611Y798845D01*
X178518Y798786D01*
X178421Y798734D01*
X178384Y798701D01*
X178342Y798674D01*
X178267Y798594D01*
X178185Y798521D01*
X178158Y798479D01*
X178124Y798443D01*
X178071Y798347D01*
X178011Y798255D01*
X177994Y798208D01*
X177970Y798164D01*
X177943Y798058D01*
X177907Y797954D01*
X177903Y797904D01*
X177891Y797856D01*
X177881Y797696D01*
X177881Y796128D01*
X176392Y794639D01*
X160288Y794639D01*
X158799Y796128D01*
X158799Y814232D01*
X160288Y815721D01*
X176392Y815721D01*
X177881Y814232D01*
X177881Y812664D01*
X177887Y812615D01*
X177885Y812565D01*
X177907Y812458D01*
X177921Y812349D01*
X177939Y812302D01*
X177949Y812254D01*
X177997Y812155D01*
X178038Y812053D01*
X178067Y812013D01*
X178089Y811968D01*
X178160Y811885D01*
X178224Y811796D01*
X178263Y811764D01*
X178295Y811726D01*
X178385Y811663D01*
X178469Y811593D01*
X178514Y811572D01*
X178555Y811543D01*
X178658Y811504D01*
X178757Y811457D01*
X178806Y811448D01*
X178852Y811430D01*
X178962Y811418D01*
X179069Y811398D01*
X179119Y811401D01*
X179168Y811395D01*
X179277Y811411D01*
X179387Y811417D01*
X179434Y811433D01*
X179483Y811440D01*
X179636Y811492D01*
X181473Y812253D01*
X184287Y812253D01*
X187044Y811111D01*
X187092Y811097D01*
X187137Y811076D01*
X187245Y811056D01*
X187351Y811027D01*
X187401Y811026D01*
X187450Y811016D01*
X187559Y811023D01*
X187669Y811022D01*
X187717Y811033D01*
X187767Y811036D01*
X187871Y811070D01*
X187978Y811096D01*
X188022Y811119D01*
X188069Y811134D01*
X188162Y811193D01*
X188259Y811244D01*
X188296Y811278D01*
X188338Y811304D01*
X188413Y811384D01*
X188495Y811458D01*
X188522Y811500D01*
X188556Y811536D01*
X188609Y811632D01*
X188669Y811724D01*
X188686Y811771D01*
X188710Y811815D01*
X188737Y811921D01*
X188773Y812025D01*
X188777Y812074D01*
X188789Y812122D01*
X188799Y812283D01*
X188799Y814232D01*
X190288Y815721D01*
X200451Y815721D01*
X200550Y815733D01*
X200649Y815736D01*
X200707Y815753D01*
X200767Y815761D01*
X200859Y815797D01*
X200954Y815825D01*
X201006Y815855D01*
X201063Y815878D01*
X201143Y815936D01*
X201228Y815986D01*
X201303Y816052D01*
X201320Y816064D01*
X201328Y816074D01*
X201349Y816092D01*
X206585Y821328D01*
X206603Y821352D01*
X206625Y821371D01*
X206700Y821477D01*
X206779Y821579D01*
X206791Y821607D01*
X206808Y821631D01*
X206854Y821752D01*
X206906Y821871D01*
X206910Y821900D01*
X206921Y821928D01*
X206935Y822057D01*
X206956Y822185D01*
X206953Y822215D01*
X206956Y822244D01*
X206938Y822373D01*
X206926Y822502D01*
X206916Y822530D01*
X206912Y822559D01*
X206860Y822711D01*
X206287Y824093D01*
X206287Y826907D01*
X207364Y829506D01*
X209354Y831496D01*
X211953Y832573D01*
X214767Y832573D01*
X217366Y831496D01*
X219356Y829506D01*
X219807Y828417D01*
X219876Y828296D01*
X219941Y828173D01*
X219955Y828158D01*
X219965Y828140D01*
X220062Y828040D01*
X220155Y827938D01*
X220172Y827926D01*
X220186Y827912D01*
X220305Y827839D01*
X220421Y827763D01*
X220440Y827756D01*
X220457Y827746D01*
X220590Y827705D01*
X220722Y827660D01*
X220742Y827658D01*
X220761Y827652D01*
X220900Y827645D01*
X221039Y827634D01*
X221059Y827638D01*
X221079Y827637D01*
X221215Y827665D01*
X221352Y827689D01*
X221371Y827697D01*
X221390Y827701D01*
X221515Y827762D01*
X221642Y827819D01*
X221658Y827832D01*
X221676Y827841D01*
X221782Y827931D01*
X221890Y828018D01*
X221903Y828034D01*
X221918Y828047D01*
X221998Y828161D01*
X222082Y828272D01*
X222094Y828297D01*
X222101Y828307D01*
X222108Y828327D01*
X222153Y828417D01*
X222604Y829506D01*
X224594Y831496D01*
X227193Y832573D01*
X230007Y832573D01*
X232606Y831496D01*
X234596Y829506D01*
X235047Y828417D01*
X235116Y828296D01*
X235181Y828173D01*
X235195Y828158D01*
X235205Y828140D01*
X235302Y828040D01*
X235395Y827938D01*
X235412Y827926D01*
X235426Y827912D01*
X235545Y827839D01*
X235661Y827763D01*
X235680Y827756D01*
X235697Y827746D01*
X235830Y827705D01*
X235962Y827660D01*
X235982Y827658D01*
X236001Y827652D01*
X236140Y827645D01*
X236279Y827634D01*
X236299Y827638D01*
X236319Y827637D01*
X236455Y827665D01*
X236592Y827689D01*
X236611Y827697D01*
X236630Y827701D01*
X236755Y827762D01*
X236882Y827819D01*
X236898Y827832D01*
X236916Y827841D01*
X237022Y827931D01*
X237130Y828018D01*
X237143Y828034D01*
X237158Y828047D01*
X237238Y828161D01*
X237322Y828272D01*
X237334Y828297D01*
X237341Y828307D01*
X237348Y828326D01*
X237393Y828417D01*
X237844Y829506D01*
X239834Y831496D01*
X242433Y832573D01*
X245247Y832573D01*
X247846Y831496D01*
X249836Y829506D01*
X250913Y826907D01*
X250913Y824093D01*
X249836Y821494D01*
X249800Y821458D01*
X249740Y821380D01*
X249672Y821308D01*
X249643Y821255D01*
X249606Y821207D01*
X249566Y821116D01*
X249518Y821029D01*
X249503Y820971D01*
X249479Y820915D01*
X249464Y820817D01*
X249439Y820721D01*
X249433Y820621D01*
X249429Y820601D01*
X249431Y820589D01*
X249429Y820561D01*
X249429Y819308D01*
X248578Y817254D01*
X229480Y798157D01*
X229420Y798079D01*
X229352Y798006D01*
X229323Y797953D01*
X229286Y797906D01*
X229246Y797815D01*
X229198Y797728D01*
X229183Y797669D01*
X229159Y797614D01*
X229144Y797516D01*
X229119Y797420D01*
X229113Y797320D01*
X229109Y797300D01*
X229111Y797287D01*
X229109Y797259D01*
X229109Y760888D01*
X228258Y758834D01*
X213986Y744562D01*
X211932Y743711D01*
X209150Y743711D01*
X209032Y743696D01*
X208913Y743689D01*
X208875Y743676D01*
X208834Y743671D01*
X208724Y743628D01*
X208611Y743591D01*
X208576Y743569D01*
X208539Y743554D01*
X208443Y743485D01*
X208342Y743421D01*
X208314Y743391D01*
X208281Y743368D01*
X208205Y743276D01*
X208124Y743189D01*
X208104Y743154D01*
X208079Y743123D01*
X208028Y743015D01*
X207970Y742911D01*
X207960Y742871D01*
X207943Y742835D01*
X207921Y742718D01*
X207891Y742603D01*
X207887Y742543D01*
X207883Y742523D01*
X207885Y742502D01*
X207881Y742442D01*
X207881Y740248D01*
X206392Y738759D01*
X190288Y738759D01*
X188799Y740248D01*
X188799Y742197D01*
X188793Y742246D01*
X188795Y742296D01*
X188773Y742403D01*
X188759Y742512D01*
X188741Y742559D01*
X188731Y742607D01*
X188683Y742706D01*
X188642Y742808D01*
X188613Y742848D01*
X188591Y742893D01*
X188520Y742976D01*
X188456Y743065D01*
X188417Y743097D01*
X188385Y743135D01*
X188295Y743198D01*
X188211Y743268D01*
X188166Y743289D01*
X188125Y743318D01*
X188022Y743357D01*
X187923Y743404D01*
X187874Y743413D01*
X187828Y743431D01*
X187718Y743443D01*
X187611Y743464D01*
X187561Y743460D01*
X187512Y743466D01*
X187403Y743451D01*
X187293Y743444D01*
X187246Y743428D01*
X187197Y743422D01*
X187044Y743369D01*
X184287Y742227D01*
X181473Y742227D01*
X179636Y742988D01*
X179588Y743001D01*
X179543Y743023D01*
X179435Y743043D01*
X179329Y743072D01*
X179279Y743073D01*
X179230Y743082D01*
X179121Y743076D01*
X179011Y743077D01*
X178963Y743066D01*
X178913Y743063D01*
X178809Y743029D01*
X178702Y743003D01*
X178658Y742980D01*
X178611Y742965D01*
X178518Y742906D01*
X178421Y742854D01*
X178384Y742821D01*
X178342Y742794D01*
X178267Y742714D01*
X178185Y742641D01*
X178158Y742599D01*
X178124Y742563D01*
X178071Y742467D01*
X178011Y742375D01*
X177994Y742328D01*
X177970Y742284D01*
X177943Y742178D01*
X177907Y742074D01*
X177903Y742024D01*
X177891Y741976D01*
X177881Y741816D01*
X177881Y740248D01*
X176392Y738759D01*
X160288Y738759D01*
G37*
%LPD*%
%LPC*%
G36*
X615813Y828587D02*
X615813Y828587D01*
X613214Y829664D01*
X611224Y831654D01*
X610147Y834253D01*
X610147Y837067D01*
X610519Y837963D01*
X610521Y837972D01*
X610526Y837981D01*
X610563Y838126D01*
X610603Y838270D01*
X610603Y838279D01*
X610605Y838288D01*
X610615Y838449D01*
X610615Y934471D01*
X610614Y934480D01*
X610615Y934489D01*
X610594Y934638D01*
X610575Y934786D01*
X610572Y934795D01*
X610571Y934804D01*
X610519Y934957D01*
X610147Y935853D01*
X610147Y938667D01*
X611224Y941266D01*
X613214Y943256D01*
X615813Y944333D01*
X618627Y944333D01*
X621226Y943256D01*
X623216Y941266D01*
X624293Y938667D01*
X624293Y935853D01*
X623921Y934957D01*
X623919Y934948D01*
X623914Y934939D01*
X623877Y934794D01*
X623837Y934650D01*
X623837Y934641D01*
X623835Y934632D01*
X623825Y934471D01*
X623825Y838449D01*
X623826Y838440D01*
X623825Y838431D01*
X623846Y838281D01*
X623865Y838134D01*
X623868Y838125D01*
X623869Y838116D01*
X623921Y837963D01*
X624293Y837067D01*
X624293Y834253D01*
X623216Y831654D01*
X621226Y829664D01*
X618627Y828587D01*
X615813Y828587D01*
G37*
%LPD*%
%LPC*%
G36*
X570093Y544107D02*
X570093Y544107D01*
X567494Y545184D01*
X565504Y547174D01*
X564427Y549773D01*
X564427Y552587D01*
X565504Y555186D01*
X567494Y557176D01*
X570093Y558253D01*
X572907Y558253D01*
X573803Y557881D01*
X573812Y557879D01*
X573821Y557874D01*
X573966Y557837D01*
X574110Y557797D01*
X574119Y557797D01*
X574128Y557795D01*
X574289Y557785D01*
X603798Y557785D01*
X603897Y557797D01*
X603996Y557800D01*
X604054Y557817D01*
X604114Y557825D01*
X604206Y557861D01*
X604301Y557889D01*
X604353Y557919D01*
X604410Y557942D01*
X604490Y558000D01*
X604575Y558050D01*
X604651Y558116D01*
X604667Y558128D01*
X604675Y558138D01*
X604696Y558156D01*
X625818Y579278D01*
X625823Y579285D01*
X625830Y579291D01*
X625920Y579410D01*
X626012Y579529D01*
X626016Y579538D01*
X626022Y579545D01*
X626093Y579690D01*
X626464Y580586D01*
X628454Y582576D01*
X631053Y583653D01*
X633867Y583653D01*
X636466Y582576D01*
X638456Y580586D01*
X639533Y577987D01*
X639533Y575173D01*
X638456Y572574D01*
X636466Y570584D01*
X635570Y570213D01*
X635562Y570208D01*
X635553Y570205D01*
X635424Y570129D01*
X635294Y570055D01*
X635287Y570049D01*
X635279Y570044D01*
X635158Y569938D01*
X610801Y545581D01*
X608374Y544575D01*
X574289Y544575D01*
X574280Y544574D01*
X574271Y544575D01*
X574122Y544554D01*
X573974Y544535D01*
X573965Y544532D01*
X573956Y544531D01*
X573803Y544479D01*
X572907Y544107D01*
X570093Y544107D01*
G37*
%LPD*%
%LPC*%
G36*
X492867Y331343D02*
X492867Y331343D01*
X490626Y332271D01*
X488911Y333986D01*
X488700Y334496D01*
X488686Y334521D01*
X488677Y334549D01*
X488607Y334659D01*
X488543Y334772D01*
X488522Y334793D01*
X488507Y334818D01*
X488412Y334907D01*
X488322Y335000D01*
X488297Y335016D01*
X488275Y335036D01*
X488161Y335099D01*
X488051Y335167D01*
X488022Y335175D01*
X487996Y335190D01*
X487871Y335222D01*
X487747Y335260D01*
X487717Y335262D01*
X487689Y335269D01*
X487528Y335279D01*
X483557Y335279D01*
X483547Y335278D01*
X483538Y335279D01*
X483389Y335258D01*
X483241Y335239D01*
X483232Y335236D01*
X483223Y335235D01*
X483071Y335183D01*
X482174Y334811D01*
X477946Y334811D01*
X474039Y336429D01*
X471049Y339419D01*
X469431Y343326D01*
X469431Y347554D01*
X471049Y351461D01*
X474039Y354451D01*
X477946Y356069D01*
X482174Y356069D01*
X483071Y355697D01*
X483080Y355695D01*
X483088Y355690D01*
X483233Y355653D01*
X483378Y355613D01*
X483387Y355613D01*
X483396Y355611D01*
X483557Y355601D01*
X487528Y355601D01*
X487557Y355604D01*
X487587Y355602D01*
X487715Y355624D01*
X487843Y355641D01*
X487871Y355651D01*
X487900Y355656D01*
X488018Y355710D01*
X488139Y355758D01*
X488163Y355775D01*
X488190Y355787D01*
X488291Y355868D01*
X488396Y355944D01*
X488415Y355967D01*
X488438Y355986D01*
X488516Y356089D01*
X488599Y356189D01*
X488612Y356216D01*
X488630Y356240D01*
X488700Y356384D01*
X488911Y356894D01*
X490626Y358609D01*
X492867Y359537D01*
X509293Y359537D01*
X511534Y358609D01*
X513249Y356894D01*
X514177Y354653D01*
X514177Y336227D01*
X513249Y333986D01*
X511534Y332271D01*
X509293Y331343D01*
X492867Y331343D01*
G37*
%LPD*%
%LPC*%
G36*
X591208Y75593D02*
X591208Y75593D01*
X585384Y78006D01*
X580926Y82464D01*
X578513Y88288D01*
X578513Y94592D01*
X580926Y100416D01*
X585384Y104874D01*
X591208Y107287D01*
X597512Y107287D01*
X603336Y104874D01*
X607794Y100416D01*
X610207Y94592D01*
X610207Y88288D01*
X607794Y82464D01*
X603336Y78006D01*
X597512Y75593D01*
X591208Y75593D01*
G37*
%LPD*%
%LPC*%
G36*
X464208Y75593D02*
X464208Y75593D01*
X458384Y78006D01*
X453926Y82464D01*
X451513Y88288D01*
X451513Y94592D01*
X453926Y100416D01*
X458384Y104874D01*
X464208Y107287D01*
X470512Y107287D01*
X476336Y104874D01*
X480794Y100416D01*
X483207Y94592D01*
X483207Y88288D01*
X480794Y82464D01*
X476336Y78006D01*
X470512Y75593D01*
X464208Y75593D01*
G37*
%LPD*%
%LPC*%
G36*
X565808Y278793D02*
X565808Y278793D01*
X559984Y281206D01*
X555526Y285664D01*
X553113Y291488D01*
X553113Y297792D01*
X555526Y303616D01*
X559984Y308074D01*
X565808Y310487D01*
X572112Y310487D01*
X577936Y308074D01*
X582394Y303616D01*
X584807Y297792D01*
X584807Y291488D01*
X582394Y285664D01*
X577936Y281206D01*
X572112Y278793D01*
X565808Y278793D01*
G37*
%LPD*%
%LPC*%
G36*
X483733Y379007D02*
X483733Y379007D01*
X481134Y380084D01*
X479144Y382074D01*
X478067Y384673D01*
X478067Y387487D01*
X479144Y390086D01*
X481134Y392076D01*
X483733Y393153D01*
X483783Y393153D01*
X483882Y393165D01*
X483981Y393168D01*
X484039Y393185D01*
X484099Y393193D01*
X484191Y393229D01*
X484286Y393257D01*
X484338Y393287D01*
X484395Y393310D01*
X484475Y393368D01*
X484560Y393418D01*
X484635Y393484D01*
X484652Y393496D01*
X484660Y393506D01*
X484681Y393524D01*
X489124Y397968D01*
X489197Y398062D01*
X489276Y398151D01*
X489294Y398187D01*
X489319Y398219D01*
X489366Y398328D01*
X489420Y398434D01*
X489429Y398474D01*
X489445Y398511D01*
X489464Y398629D01*
X489490Y398745D01*
X489489Y398785D01*
X489495Y398825D01*
X489484Y398944D01*
X489480Y399062D01*
X489469Y399101D01*
X489465Y399142D01*
X489425Y399254D01*
X489392Y399368D01*
X489372Y399403D01*
X489358Y399441D01*
X489291Y399539D01*
X489231Y399642D01*
X489191Y399687D01*
X489179Y399704D01*
X489164Y399717D01*
X489124Y399763D01*
X487299Y401588D01*
X487299Y417692D01*
X488788Y419181D01*
X506892Y419181D01*
X508381Y417692D01*
X508381Y401588D01*
X506892Y400099D01*
X504698Y400099D01*
X504580Y400084D01*
X504461Y400077D01*
X504423Y400064D01*
X504382Y400059D01*
X504272Y400016D01*
X504159Y399979D01*
X504124Y399957D01*
X504087Y399942D01*
X503991Y399873D01*
X503890Y399809D01*
X503862Y399779D01*
X503829Y399756D01*
X503753Y399664D01*
X503672Y399577D01*
X503652Y399542D01*
X503627Y399511D01*
X503576Y399403D01*
X503518Y399299D01*
X503508Y399259D01*
X503491Y399223D01*
X503469Y399106D01*
X503439Y398991D01*
X503435Y398931D01*
X503431Y398911D01*
X503433Y398890D01*
X503429Y398830D01*
X503429Y397668D01*
X502578Y395614D01*
X492584Y385621D01*
X492524Y385543D01*
X492456Y385470D01*
X492427Y385417D01*
X492390Y385370D01*
X492350Y385279D01*
X492302Y385192D01*
X492287Y385133D01*
X492263Y385078D01*
X492248Y384980D01*
X492223Y384884D01*
X492217Y384784D01*
X492213Y384764D01*
X492215Y384751D01*
X492213Y384723D01*
X492213Y384673D01*
X491136Y382074D01*
X489146Y380084D01*
X486547Y379007D01*
X483733Y379007D01*
G37*
%LPD*%
%LPC*%
G36*
X516753Y379007D02*
X516753Y379007D01*
X514154Y380084D01*
X512164Y382074D01*
X511087Y384673D01*
X511087Y387487D01*
X512164Y390086D01*
X514154Y392076D01*
X516753Y393153D01*
X516803Y393153D01*
X516902Y393165D01*
X517001Y393168D01*
X517059Y393185D01*
X517119Y393193D01*
X517211Y393229D01*
X517306Y393257D01*
X517358Y393287D01*
X517415Y393310D01*
X517495Y393368D01*
X517580Y393418D01*
X517655Y393484D01*
X517672Y393496D01*
X517680Y393506D01*
X517701Y393524D01*
X522109Y397933D01*
X522194Y398042D01*
X522283Y398149D01*
X522291Y398168D01*
X522304Y398184D01*
X522359Y398312D01*
X522418Y398437D01*
X522422Y398457D01*
X522430Y398476D01*
X522452Y398614D01*
X522478Y398750D01*
X522477Y398770D01*
X522480Y398790D01*
X522467Y398929D01*
X522458Y399067D01*
X522452Y399086D01*
X522450Y399106D01*
X522403Y399238D01*
X522360Y399369D01*
X522349Y399387D01*
X522343Y399406D01*
X522265Y399521D01*
X522190Y399638D01*
X522175Y399652D01*
X522164Y399669D01*
X522060Y399761D01*
X521959Y399856D01*
X521941Y399866D01*
X521926Y399879D01*
X521801Y399943D01*
X521680Y400010D01*
X521660Y400015D01*
X521642Y400024D01*
X521507Y400054D01*
X521372Y400089D01*
X521344Y400091D01*
X521332Y400094D01*
X521312Y400093D01*
X521211Y400099D01*
X519268Y400099D01*
X517779Y401588D01*
X517779Y417692D01*
X519268Y419181D01*
X537372Y419181D01*
X538861Y417692D01*
X538861Y401588D01*
X537372Y400099D01*
X535178Y400099D01*
X535060Y400084D01*
X534941Y400077D01*
X534903Y400064D01*
X534862Y400059D01*
X534752Y400016D01*
X534639Y399979D01*
X534604Y399957D01*
X534567Y399942D01*
X534471Y399873D01*
X534370Y399809D01*
X534342Y399779D01*
X534309Y399756D01*
X534233Y399664D01*
X534152Y399577D01*
X534132Y399542D01*
X534107Y399511D01*
X534056Y399403D01*
X533998Y399299D01*
X533988Y399259D01*
X533971Y399223D01*
X533949Y399106D01*
X533919Y398991D01*
X533915Y398931D01*
X533911Y398911D01*
X533913Y398890D01*
X533909Y398830D01*
X533909Y395128D01*
X533058Y393074D01*
X525604Y385621D01*
X525544Y385543D01*
X525476Y385470D01*
X525447Y385417D01*
X525410Y385370D01*
X525370Y385279D01*
X525322Y385192D01*
X525307Y385133D01*
X525283Y385078D01*
X525268Y384980D01*
X525243Y384884D01*
X525237Y384784D01*
X525233Y384764D01*
X525235Y384751D01*
X525233Y384723D01*
X525233Y384673D01*
X524156Y382074D01*
X522166Y380084D01*
X519567Y379007D01*
X516753Y379007D01*
G37*
%LPD*%
%LPC*%
G36*
X165619Y500379D02*
X165619Y500379D01*
X161884Y501926D01*
X159026Y504784D01*
X157479Y508519D01*
X157479Y512561D01*
X159026Y516296D01*
X161884Y519154D01*
X165619Y520701D01*
X184901Y520701D01*
X188636Y519154D01*
X191494Y516296D01*
X193041Y512561D01*
X193041Y508519D01*
X191494Y504784D01*
X188636Y501926D01*
X184901Y500379D01*
X165619Y500379D01*
G37*
%LPD*%
%LPC*%
G36*
X165619Y914399D02*
X165619Y914399D01*
X161884Y915946D01*
X159026Y918804D01*
X157479Y922539D01*
X157479Y926581D01*
X159026Y930316D01*
X161884Y933174D01*
X165619Y934721D01*
X184901Y934721D01*
X188636Y933174D01*
X191494Y930316D01*
X193041Y926581D01*
X193041Y922539D01*
X191494Y918804D01*
X188636Y915946D01*
X184901Y914399D01*
X165619Y914399D01*
G37*
%LPD*%
%LPC*%
G36*
X165619Y474979D02*
X165619Y474979D01*
X161884Y476526D01*
X159026Y479384D01*
X157479Y483119D01*
X157479Y487161D01*
X159026Y490896D01*
X161884Y493754D01*
X165619Y495301D01*
X184901Y495301D01*
X188636Y493754D01*
X191494Y490896D01*
X193041Y487161D01*
X193041Y483119D01*
X191494Y479384D01*
X188636Y476526D01*
X184901Y474979D01*
X165619Y474979D01*
G37*
%LPD*%
%LPC*%
G36*
X165619Y665479D02*
X165619Y665479D01*
X161884Y667026D01*
X159026Y669884D01*
X157479Y673619D01*
X157479Y677661D01*
X159026Y681396D01*
X161884Y684254D01*
X165619Y685801D01*
X184901Y685801D01*
X188636Y684254D01*
X191494Y681396D01*
X193041Y677661D01*
X193041Y673619D01*
X191494Y669884D01*
X188636Y667026D01*
X184901Y665479D01*
X165619Y665479D01*
G37*
%LPD*%
%LPC*%
G36*
X165619Y888999D02*
X165619Y888999D01*
X161884Y890546D01*
X159026Y893404D01*
X157479Y897139D01*
X157479Y901181D01*
X159026Y904916D01*
X161884Y907774D01*
X165619Y909321D01*
X184901Y909321D01*
X188636Y907774D01*
X191494Y904916D01*
X193041Y901181D01*
X193041Y897139D01*
X191494Y893404D01*
X188636Y890546D01*
X184901Y888999D01*
X165619Y888999D01*
G37*
%LPD*%
%LPC*%
G36*
X165619Y690879D02*
X165619Y690879D01*
X161884Y692426D01*
X159026Y695284D01*
X157479Y699019D01*
X157479Y703061D01*
X159026Y706796D01*
X161884Y709654D01*
X165619Y711201D01*
X184901Y711201D01*
X188636Y709654D01*
X191494Y706796D01*
X193041Y703061D01*
X193041Y699019D01*
X191494Y695284D01*
X188636Y692426D01*
X184901Y690879D01*
X165619Y690879D01*
G37*
%LPD*%
%LPC*%
G36*
X165619Y614679D02*
X165619Y614679D01*
X161884Y616226D01*
X159026Y619084D01*
X157479Y622819D01*
X157479Y626861D01*
X159026Y630596D01*
X161884Y633454D01*
X165619Y635001D01*
X184901Y635001D01*
X188636Y633454D01*
X191494Y630596D01*
X193041Y626861D01*
X193041Y622819D01*
X191494Y619084D01*
X188636Y616226D01*
X184901Y614679D01*
X165619Y614679D01*
G37*
%LPD*%
%LPC*%
G36*
X165619Y863599D02*
X165619Y863599D01*
X161884Y865146D01*
X159026Y868004D01*
X157479Y871739D01*
X157479Y875781D01*
X159026Y879516D01*
X161884Y882374D01*
X165619Y883921D01*
X184901Y883921D01*
X188636Y882374D01*
X191494Y879516D01*
X193041Y875781D01*
X193041Y871739D01*
X191494Y868004D01*
X188636Y865146D01*
X184901Y863599D01*
X165619Y863599D01*
G37*
%LPD*%
%LPC*%
G36*
X165619Y640079D02*
X165619Y640079D01*
X161884Y641626D01*
X159026Y644484D01*
X157479Y648219D01*
X157479Y652261D01*
X159026Y655996D01*
X161884Y658854D01*
X165619Y660401D01*
X184901Y660401D01*
X188636Y658854D01*
X191494Y655996D01*
X193041Y652261D01*
X193041Y648219D01*
X191494Y644484D01*
X188636Y641626D01*
X184901Y640079D01*
X165619Y640079D01*
G37*
%LPD*%
%LPC*%
G36*
X678702Y931647D02*
X678702Y931647D01*
X673047Y937302D01*
X673047Y945298D01*
X678721Y950972D01*
X678769Y951035D01*
X678826Y951091D01*
X678866Y951160D01*
X678916Y951223D01*
X678947Y951296D01*
X678988Y951365D01*
X679010Y951441D01*
X679027Y951480D01*
X679040Y951465D01*
X679072Y951414D01*
X679145Y951346D01*
X679211Y951271D01*
X679260Y951237D01*
X679304Y951196D01*
X679391Y951148D01*
X679474Y951092D01*
X679530Y951071D01*
X679583Y951042D01*
X679679Y951018D01*
X679773Y950984D01*
X679832Y950978D01*
X679890Y950963D01*
X680051Y950953D01*
X686698Y950953D01*
X692353Y945298D01*
X692353Y937302D01*
X686698Y931647D01*
X678702Y931647D01*
G37*
%LPD*%
%LPC*%
G36*
X678702Y906247D02*
X678702Y906247D01*
X673047Y911902D01*
X673047Y919898D01*
X678702Y925553D01*
X686698Y925553D01*
X692353Y919898D01*
X692353Y911902D01*
X686698Y906247D01*
X678702Y906247D01*
G37*
%LPD*%
%LPC*%
G36*
X653302Y906247D02*
X653302Y906247D01*
X647647Y911902D01*
X647647Y919898D01*
X653302Y925553D01*
X661298Y925553D01*
X666953Y919898D01*
X666953Y911902D01*
X661298Y906247D01*
X653302Y906247D01*
G37*
%LPD*%
%LPC*%
G36*
X653302Y880847D02*
X653302Y880847D01*
X647647Y886502D01*
X647647Y894498D01*
X653302Y900153D01*
X661298Y900153D01*
X666953Y894498D01*
X666953Y886502D01*
X661298Y880847D01*
X653302Y880847D01*
G37*
%LPD*%
%LPC*%
G36*
X678702Y880847D02*
X678702Y880847D01*
X673047Y886502D01*
X673047Y894498D01*
X678702Y900153D01*
X686698Y900153D01*
X692353Y894498D01*
X692353Y886502D01*
X686698Y880847D01*
X678702Y880847D01*
G37*
%LPD*%
%LPC*%
G36*
X653302Y855447D02*
X653302Y855447D01*
X647647Y861102D01*
X647647Y869098D01*
X653302Y874753D01*
X661298Y874753D01*
X666953Y869098D01*
X666953Y861102D01*
X661298Y855447D01*
X653302Y855447D01*
G37*
%LPD*%
%LPC*%
G36*
X678702Y830047D02*
X678702Y830047D01*
X673047Y835702D01*
X673047Y843698D01*
X678702Y849353D01*
X686698Y849353D01*
X692353Y843698D01*
X692353Y835702D01*
X686698Y830047D01*
X678702Y830047D01*
G37*
%LPD*%
%LPC*%
G36*
X653302Y830047D02*
X653302Y830047D01*
X647647Y835702D01*
X647647Y843698D01*
X653302Y849353D01*
X661298Y849353D01*
X666953Y843698D01*
X666953Y835702D01*
X661298Y830047D01*
X653302Y830047D01*
G37*
%LPD*%
%LPC*%
G36*
X678702Y626847D02*
X678702Y626847D01*
X673047Y632502D01*
X673047Y640498D01*
X678702Y646153D01*
X686698Y646153D01*
X692353Y640498D01*
X692353Y632502D01*
X686698Y626847D01*
X678702Y626847D01*
G37*
%LPD*%
%LPC*%
G36*
X653302Y626847D02*
X653302Y626847D01*
X647647Y632502D01*
X647647Y640498D01*
X653302Y646153D01*
X661298Y646153D01*
X666953Y640498D01*
X666953Y632502D01*
X661298Y626847D01*
X653302Y626847D01*
G37*
%LPD*%
%LPC*%
G36*
X678702Y728447D02*
X678702Y728447D01*
X673047Y734102D01*
X673047Y742098D01*
X678702Y747753D01*
X686698Y747753D01*
X692353Y742098D01*
X692353Y734102D01*
X686698Y728447D01*
X678702Y728447D01*
G37*
%LPD*%
%LPC*%
G36*
X653302Y601447D02*
X653302Y601447D01*
X647647Y607102D01*
X647647Y615098D01*
X653302Y620753D01*
X661298Y620753D01*
X666953Y615098D01*
X666953Y607102D01*
X661298Y601447D01*
X653302Y601447D01*
G37*
%LPD*%
%LPC*%
G36*
X653302Y576047D02*
X653302Y576047D01*
X647647Y581702D01*
X647647Y589698D01*
X653302Y595353D01*
X661298Y595353D01*
X666953Y589698D01*
X666953Y581702D01*
X661298Y576047D01*
X653302Y576047D01*
G37*
%LPD*%
%LPC*%
G36*
X678702Y576047D02*
X678702Y576047D01*
X673047Y581702D01*
X673047Y589698D01*
X678702Y595353D01*
X686698Y595353D01*
X692353Y589698D01*
X692353Y581702D01*
X686698Y576047D01*
X678702Y576047D01*
G37*
%LPD*%
%LPC*%
G36*
X653302Y677647D02*
X653302Y677647D01*
X647647Y683302D01*
X647647Y691298D01*
X653302Y696953D01*
X661298Y696953D01*
X666953Y691298D01*
X666953Y683302D01*
X661298Y677647D01*
X653302Y677647D01*
G37*
%LPD*%
%LPC*%
G36*
X678702Y550647D02*
X678702Y550647D01*
X673047Y556302D01*
X673047Y564298D01*
X678702Y569953D01*
X686698Y569953D01*
X692353Y564298D01*
X692353Y556302D01*
X686698Y550647D01*
X678702Y550647D01*
G37*
%LPD*%
%LPC*%
G36*
X678702Y703047D02*
X678702Y703047D01*
X673047Y708702D01*
X673047Y716698D01*
X678702Y722353D01*
X686698Y722353D01*
X692353Y716698D01*
X692353Y708702D01*
X686698Y703047D01*
X678702Y703047D01*
G37*
%LPD*%
%LPC*%
G36*
X653302Y525247D02*
X653302Y525247D01*
X647647Y530902D01*
X647647Y538898D01*
X653302Y544553D01*
X661298Y544553D01*
X666953Y538898D01*
X666953Y530902D01*
X661298Y525247D01*
X653302Y525247D01*
G37*
%LPD*%
%LPC*%
G36*
X653302Y652247D02*
X653302Y652247D01*
X647647Y657902D01*
X647647Y665898D01*
X653302Y671553D01*
X661298Y671553D01*
X666953Y665898D01*
X666953Y657902D01*
X661298Y652247D01*
X653302Y652247D01*
G37*
%LPD*%
%LPC*%
G36*
X653302Y703047D02*
X653302Y703047D01*
X647647Y708702D01*
X647647Y716698D01*
X653302Y722353D01*
X661298Y722353D01*
X666953Y716698D01*
X666953Y708702D01*
X661298Y703047D01*
X653302Y703047D01*
G37*
%LPD*%
%LPC*%
G36*
X678702Y652247D02*
X678702Y652247D01*
X673047Y657902D01*
X673047Y665898D01*
X678702Y671553D01*
X686698Y671553D01*
X692353Y665898D01*
X692353Y657902D01*
X686698Y652247D01*
X678702Y652247D01*
G37*
%LPD*%
%LPC*%
G36*
X678702Y525247D02*
X678702Y525247D01*
X673047Y530902D01*
X673047Y538898D01*
X678702Y544553D01*
X686698Y544553D01*
X692353Y538898D01*
X692353Y530902D01*
X686698Y525247D01*
X678702Y525247D01*
G37*
%LPD*%
%LPC*%
G36*
X653302Y728447D02*
X653302Y728447D01*
X647647Y734102D01*
X647647Y742098D01*
X653302Y747753D01*
X661298Y747753D01*
X666953Y742098D01*
X666953Y734102D01*
X661298Y728447D01*
X653302Y728447D01*
G37*
%LPD*%
%LPC*%
G36*
X678702Y753847D02*
X678702Y753847D01*
X673047Y759502D01*
X673047Y767498D01*
X678702Y773153D01*
X686698Y773153D01*
X692353Y767498D01*
X692353Y759502D01*
X686698Y753847D01*
X678702Y753847D01*
G37*
%LPD*%
%LPC*%
G36*
X678702Y779247D02*
X678702Y779247D01*
X673047Y784902D01*
X673047Y792898D01*
X678702Y798553D01*
X686698Y798553D01*
X692353Y792898D01*
X692353Y784902D01*
X686698Y779247D01*
X678702Y779247D01*
G37*
%LPD*%
%LPC*%
G36*
X653302Y779247D02*
X653302Y779247D01*
X647647Y784902D01*
X647647Y792898D01*
X653302Y798553D01*
X661298Y798553D01*
X666953Y792898D01*
X666953Y784902D01*
X661298Y779247D01*
X653302Y779247D01*
G37*
%LPD*%
%LPC*%
G36*
X653302Y804647D02*
X653302Y804647D01*
X647647Y810302D01*
X647647Y818298D01*
X653302Y823953D01*
X661298Y823953D01*
X666953Y818298D01*
X666953Y810302D01*
X661298Y804647D01*
X653302Y804647D01*
G37*
%LPD*%
%LPC*%
G36*
X653723Y475463D02*
X653723Y475463D01*
X648663Y480523D01*
X648663Y487677D01*
X653723Y492737D01*
X660877Y492737D01*
X665937Y487677D01*
X665937Y480523D01*
X660877Y475463D01*
X653723Y475463D01*
G37*
%LPD*%
%LPC*%
G36*
X655582Y450063D02*
X655582Y450063D01*
X652408Y451378D01*
X649978Y453808D01*
X648663Y456982D01*
X648663Y460418D01*
X649978Y463592D01*
X652408Y466022D01*
X655582Y467337D01*
X659018Y467337D01*
X662192Y466022D01*
X664622Y463592D01*
X665937Y460418D01*
X665937Y456982D01*
X664622Y453808D01*
X662192Y451378D01*
X659018Y450063D01*
X655582Y450063D01*
G37*
%LPD*%
D10*
X657300Y458700D03*
D11*
X682700Y458700D03*
X657300Y484100D03*
X682700Y484100D03*
X657300Y509500D03*
X682700Y509500D03*
X657300Y534900D03*
X682700Y534900D03*
X657300Y560300D03*
X682700Y560300D03*
X657300Y585700D03*
X682700Y585700D03*
X657300Y611100D03*
X682700Y611100D03*
X657300Y636500D03*
X682700Y636500D03*
X657300Y661900D03*
X682700Y661900D03*
X657300Y687300D03*
X682700Y687300D03*
X657300Y712700D03*
X682700Y712700D03*
X657300Y738100D03*
X682700Y738100D03*
X657300Y763500D03*
X682700Y763500D03*
X657300Y788900D03*
X682700Y788900D03*
X657300Y814300D03*
X682700Y814300D03*
X657300Y839700D03*
X682700Y839700D03*
X657300Y865100D03*
X682700Y865100D03*
X657300Y890500D03*
X682700Y890500D03*
X657300Y915900D03*
X682700Y915900D03*
X657300Y941300D03*
X682700Y941300D03*
D12*
X378460Y868680D03*
X353060Y868680D03*
X378460Y843280D03*
X353060Y843280D03*
X378460Y817880D03*
X353060Y817880D03*
X388620Y452120D03*
X388620Y426720D03*
X414020Y452120D03*
X414020Y426720D03*
X439420Y452120D03*
X439420Y426720D03*
D13*
X182880Y701040D02*
X167640Y701040D01*
X167640Y675640D02*
X182880Y675640D01*
X182880Y650240D02*
X167640Y650240D01*
X167640Y624840D02*
X182880Y624840D01*
X182880Y599440D02*
X167640Y599440D01*
X167640Y574040D02*
X182880Y574040D01*
X546100Y990600D02*
X546100Y1005840D01*
X571500Y1005840D02*
X571500Y990600D01*
X596900Y990600D02*
X596900Y1005840D01*
X182880Y924560D02*
X167640Y924560D01*
X167640Y899160D02*
X182880Y899160D01*
X182880Y873760D02*
X167640Y873760D01*
X167640Y848360D02*
X182880Y848360D01*
X182880Y485140D02*
X167640Y485140D01*
X167640Y510540D02*
X182880Y510540D01*
D14*
X594360Y91440D03*
X543560Y91440D03*
X670560Y294640D03*
X568960Y294640D03*
X467360Y294640D03*
X467360Y91440D03*
D15*
X386080Y175260D03*
X386080Y91440D03*
D16*
X168340Y805180D03*
X198340Y805180D03*
X168340Y777240D03*
X198340Y777240D03*
X168340Y749300D03*
X198340Y749300D03*
D17*
X497840Y409640D03*
X497840Y439640D03*
X528320Y409640D03*
X528320Y439640D03*
D18*
X297180Y599440D03*
X297180Y617220D03*
X297180Y635000D03*
D16*
X501080Y345440D03*
X531080Y345440D03*
D19*
X492760Y947420D03*
X314960Y497840D03*
X322580Y538480D03*
X248920Y909320D03*
X243840Y922020D03*
X365760Y960120D03*
X368300Y919480D03*
X261620Y883920D03*
X599440Y426720D03*
X289560Y535940D03*
X243840Y533400D03*
X256540Y556260D03*
X317500Y833120D03*
X264160Y825500D03*
X215900Y723900D03*
X193040Y828040D03*
X261620Y955040D03*
X604520Y904240D03*
X525780Y754380D03*
X599440Y828040D03*
X599440Y812800D03*
X599440Y797560D03*
X599440Y782320D03*
X231140Y398780D03*
X190500Y459740D03*
X175260Y535940D03*
X612140Y530860D03*
D20*
X671500Y520700D02*
X682700Y509500D01*
X671500Y520700D02*
X670560Y520700D01*
X670560Y547040D02*
X657300Y560300D01*
X670560Y547040D02*
X670560Y520700D01*
X657300Y560300D02*
X670560Y573560D01*
X670560Y596900D02*
X668020Y599440D01*
X679680Y611100D01*
X682700Y611100D01*
X670560Y596900D02*
X670560Y573560D01*
X682700Y611100D02*
X674040Y619760D01*
X670560Y619760D01*
X670560Y675160D02*
X682700Y687300D01*
X670560Y675160D02*
X670560Y619760D01*
X682700Y687300D02*
X670560Y699440D01*
X670560Y750240D02*
X657300Y763500D01*
X670560Y750240D02*
X670560Y699440D01*
X657300Y763500D02*
X657300Y763980D01*
X670560Y777240D01*
X670560Y805180D01*
X668020Y807720D01*
X674600Y814300D01*
X682700Y814300D01*
X668020Y828980D01*
X668020Y830580D01*
X670560Y830580D01*
X670560Y855980D01*
X679680Y865100D01*
X682700Y865100D01*
X670560Y877240D01*
X670560Y928040D02*
X657300Y941300D01*
X670560Y928040D02*
X670560Y877240D01*
D19*
X523240Y993140D03*
X459740Y500380D03*
X406400Y568960D03*
X487680Y548640D03*
X535940Y528320D03*
X599440Y398780D03*
X388620Y525780D03*
X528320Y599440D03*
X581660Y609600D03*
X525780Y650240D03*
X457200Y657860D03*
X424180Y655320D03*
X596900Y655320D03*
X599440Y734060D03*
X340360Y513080D03*
X426720Y464820D03*
X195580Y609600D03*
X279400Y645160D03*
X297180Y657860D03*
X314960Y662940D03*
X398780Y906780D03*
X457200Y802640D03*
X419100Y805180D03*
X431800Y538480D03*
X477520Y462280D03*
X243840Y955040D03*
X243840Y977900D03*
X243840Y1000760D03*
X261620Y1000760D03*
X401320Y807720D03*
D21*
X464820Y871220D02*
X464820Y878840D01*
X464820Y871220D02*
X401320Y807720D01*
D19*
X464820Y878840D03*
X467360Y899160D03*
D21*
X411480Y843280D02*
X378460Y843280D01*
X411480Y843280D02*
X467360Y899160D01*
D22*
X259080Y932180D03*
D19*
X271780Y469900D03*
X271780Y513080D03*
X271780Y535940D03*
X541020Y490220D03*
X254000Y805180D03*
D23*
X621740Y343460D02*
X670560Y294640D01*
X621740Y343460D02*
X621740Y488656D01*
D24*
X668222Y458700D02*
X682700Y458700D01*
X668222Y458700D02*
X668222Y469622D01*
X668020Y469622D01*
X668020Y472440D01*
X668222Y472440D02*
X668222Y469622D01*
D19*
X462280Y586740D03*
D25*
X388620Y426720D02*
X386080Y426720D01*
X370840Y441960D01*
X370840Y464820D01*
X386080Y480060D01*
D23*
X614829Y488656D02*
X636125Y467360D01*
D26*
X627465Y458700D01*
X661193Y449302D02*
X666698Y454807D01*
X661193Y449302D02*
X653407Y449302D01*
X666698Y457176D02*
X668222Y458700D01*
X666698Y457176D02*
X666698Y454807D01*
X644009Y458700D02*
X627465Y458700D01*
X644009Y458700D02*
X653407Y449302D01*
D23*
X342900Y665480D02*
X342900Y769620D01*
X342900Y777240D01*
X296204Y823936D02*
X296204Y843280D01*
X441960Y566420D02*
X464820Y543560D01*
X441960Y566420D02*
X373380Y635000D01*
X342900Y665480D01*
X342900Y777240D02*
X296204Y823936D01*
D27*
X303042Y836442D02*
X271780Y805180D01*
X254000Y805180D01*
X462280Y586740D02*
X441960Y566420D01*
X464820Y543560D02*
X401320Y480060D01*
D28*
X291124Y848360D02*
X175260Y848360D01*
X291124Y848360D02*
X303042Y836442D01*
D27*
X332740Y848360D02*
X353060Y868680D01*
X332740Y848360D02*
X291124Y848360D01*
X296204Y843280D02*
X296204Y895056D01*
X259080Y932180D01*
X271780Y513080D02*
X271780Y469900D01*
X271780Y513080D02*
X271780Y535940D01*
X317500Y581660D01*
X370840Y635000D01*
X373380Y635000D01*
D19*
X393700Y787400D03*
D25*
X360680Y787400D01*
X342900Y769620D01*
D27*
X296204Y843280D02*
X291124Y848360D01*
D25*
X299720Y599440D02*
X317500Y581660D01*
X299720Y599440D02*
X297180Y599440D01*
X388620Y426720D02*
X388620Y401320D01*
X408940Y381000D01*
D19*
X408940Y381000D03*
D20*
X614829Y488656D02*
X621740Y488656D01*
D23*
X519724Y488656D02*
X464820Y543560D01*
X519724Y488656D02*
X621740Y488656D01*
D25*
X541020Y490220D02*
X539456Y488656D01*
X519724Y488656D01*
X401320Y480060D02*
X386080Y480060D01*
D19*
X401320Y480060D03*
X571500Y459740D03*
X596900Y383540D03*
D25*
X571500Y408940D02*
X571500Y459740D01*
X571500Y408940D02*
X596900Y383540D01*
D23*
X386080Y345440D02*
X331176Y400344D01*
X177800Y574040D02*
X175260Y574040D01*
X177800Y574040D02*
X214924Y536916D01*
X214924Y457051D01*
X271631Y400344D02*
X331176Y400344D01*
X271631Y400344D02*
X214924Y457051D01*
X386080Y345440D02*
X386080Y175260D01*
D19*
X632460Y576580D03*
X571500Y551180D03*
D25*
X607060Y551180D01*
X632460Y576580D01*
D19*
X617220Y835660D03*
D25*
X617220Y937260D01*
D19*
X617220Y937260D03*
D21*
X243840Y825500D02*
X243840Y820420D01*
D19*
X243840Y825500D03*
D21*
X243840Y820420D02*
X223520Y800100D01*
X223520Y762000D01*
X210820Y749300D01*
X198340Y749300D01*
X228600Y820420D02*
X228600Y825500D01*
D19*
X228600Y825500D03*
D21*
X228600Y820420D02*
X213360Y805180D01*
X213360Y787400D01*
X203200Y777240D01*
X198340Y777240D01*
D19*
X566420Y861060D03*
X370840Y685800D03*
D21*
X566420Y861060D02*
X566595Y860885D01*
X566595Y838200D01*
X414195Y685800D01*
X370840Y685800D01*
D19*
X551180Y858520D03*
X370840Y711200D03*
D21*
X551180Y838200D02*
X551180Y858520D01*
X551180Y838200D02*
X424180Y711200D01*
X370840Y711200D01*
D19*
X535940Y855980D03*
X370840Y736600D03*
D21*
X535940Y838200D02*
X535940Y855980D01*
X535940Y838200D02*
X434340Y736600D01*
X370840Y736600D01*
D19*
X520700Y853440D03*
D21*
X520700Y838200D01*
X444500Y762000D01*
X370840Y762000D01*
D19*
X370840Y762000D03*
D21*
X182880Y805180D02*
X168340Y805180D01*
D19*
X182880Y805180D03*
D21*
X182880Y777240D02*
X168340Y777240D01*
D19*
X182880Y777240D03*
D21*
X182880Y749300D02*
X168340Y749300D01*
D19*
X182880Y749300D03*
X213360Y825500D03*
D21*
X213360Y820200D02*
X198340Y805180D01*
X213360Y820200D02*
X213360Y825500D01*
D19*
X485140Y386080D03*
D21*
X497840Y398780D02*
X497840Y409640D01*
X497840Y398780D02*
X485140Y386080D01*
D19*
X518160Y386080D03*
D21*
X528320Y396240D02*
X528320Y409640D01*
X528320Y396240D02*
X518160Y386080D01*
D19*
X332740Y627380D03*
D25*
X322580Y617220D01*
X297180Y617220D01*
D19*
X480060Y345440D03*
D25*
X501080Y345440D01*
M02*
