G04 EAGLE Gerber RS-274X export*
G75*
%MOMM*%
%FSLAX34Y34*%
%LPD*%
%INSoldermask Top*%
%IPPOS*%
%AMOC8*
5,1,8,0,0,1.08239X$1,22.5*%
G01*
%ADD10R,0.903200X2.128200*%
%ADD11R,0.653200X1.678200*%
%ADD12C,1.625600*%
%ADD13P,1.759533X8X112.500000*%
%ADD14R,0.853200X1.778200*%
%ADD15R,1.403200X0.603200*%
%ADD16C,3.003200*%
%ADD17R,5.803200X2.303200*%
%ADD18C,2.082800*%
%ADD19R,1.803200X2.003200*%
%ADD20C,1.727200*%
%ADD21R,1.803200X2.006200*%
%ADD22C,2.153200*%
%ADD23P,3.656530X8X202.500000*%
%ADD24R,0.803200X1.703200*%
%ADD25R,1.703200X0.803200*%
%ADD26R,2.006200X1.803200*%


D10*
X468630Y829180D03*
X481330Y829180D03*
X494030Y829180D03*
X506730Y829180D03*
X519430Y829180D03*
X532130Y829180D03*
X544830Y829180D03*
X557530Y829180D03*
X570230Y829180D03*
X582930Y829180D03*
X582930Y923420D03*
X570230Y923420D03*
X557530Y923420D03*
X544830Y923420D03*
X532130Y923420D03*
X519430Y923420D03*
X506730Y923420D03*
X494030Y923420D03*
X481330Y923420D03*
X468630Y923420D03*
D11*
X564700Y443060D03*
X571200Y443060D03*
X577700Y443060D03*
X584200Y443060D03*
X590700Y443060D03*
X597200Y443060D03*
X603700Y443060D03*
X603700Y501820D03*
X597200Y501820D03*
X590700Y501820D03*
X584200Y501820D03*
X577700Y501820D03*
X571200Y501820D03*
X564700Y501820D03*
D12*
X657300Y458700D03*
D13*
X682700Y458700D03*
X657300Y484100D03*
X682700Y484100D03*
X657300Y509500D03*
X682700Y509500D03*
X657300Y534900D03*
X682700Y534900D03*
X657300Y560300D03*
X682700Y560300D03*
X657300Y585700D03*
X682700Y585700D03*
X657300Y611100D03*
X682700Y611100D03*
X657300Y636500D03*
X682700Y636500D03*
X657300Y661900D03*
X682700Y661900D03*
X657300Y687300D03*
X682700Y687300D03*
X657300Y712700D03*
X682700Y712700D03*
X657300Y738100D03*
X682700Y738100D03*
X657300Y763500D03*
X682700Y763500D03*
X657300Y788900D03*
X682700Y788900D03*
X657300Y814300D03*
X682700Y814300D03*
X657300Y839700D03*
X682700Y839700D03*
X657300Y865100D03*
X682700Y865100D03*
X657300Y890500D03*
X682700Y890500D03*
X657300Y915900D03*
X682700Y915900D03*
X657300Y941300D03*
X682700Y941300D03*
D14*
X349250Y972260D03*
X336550Y972260D03*
X323850Y972260D03*
X311150Y972260D03*
X298450Y972260D03*
X285750Y972260D03*
X273050Y972260D03*
X260350Y972260D03*
X260350Y917500D03*
X273050Y917500D03*
X285750Y917500D03*
X298450Y917500D03*
X311150Y917500D03*
X323850Y917500D03*
X336550Y917500D03*
X349250Y917500D03*
D15*
X306680Y511660D03*
X306680Y518160D03*
X306680Y524660D03*
X287680Y524660D03*
X287680Y511660D03*
D16*
X180000Y410000D03*
X670000Y410000D03*
X180000Y990000D03*
X670000Y990000D03*
D17*
X478280Y756920D03*
X573280Y756920D03*
X573280Y629920D03*
X478280Y629920D03*
D18*
X378460Y868680D03*
X353060Y868680D03*
X378460Y843280D03*
X353060Y843280D03*
X378460Y817880D03*
X353060Y817880D03*
X388620Y452120D03*
X388620Y426720D03*
X414020Y452120D03*
X414020Y426720D03*
X439420Y452120D03*
X439420Y426720D03*
D19*
X438180Y924560D03*
X410180Y924560D03*
X522000Y490220D03*
X494000Y490220D03*
X476280Y711200D03*
X448280Y711200D03*
X572740Y711200D03*
X600740Y711200D03*
X572740Y678180D03*
X600740Y678180D03*
X476280Y678180D03*
X448280Y678180D03*
X283180Y439420D03*
X311180Y439420D03*
X417800Y482600D03*
X445800Y482600D03*
D20*
X182880Y701040D02*
X167640Y701040D01*
X167640Y675640D02*
X182880Y675640D01*
X182880Y650240D02*
X167640Y650240D01*
X167640Y624840D02*
X182880Y624840D01*
X182880Y599440D02*
X167640Y599440D01*
X167640Y574040D02*
X182880Y574040D01*
X546100Y990600D02*
X546100Y1005840D01*
X571500Y1005840D02*
X571500Y990600D01*
X596900Y990600D02*
X596900Y1005840D01*
X182880Y924560D02*
X167640Y924560D01*
X167640Y899160D02*
X182880Y899160D01*
X182880Y873760D02*
X167640Y873760D01*
X167640Y848360D02*
X182880Y848360D01*
X182880Y485140D02*
X167640Y485140D01*
X167640Y510540D02*
X182880Y510540D01*
D15*
X306680Y471020D03*
X306680Y477520D03*
X306680Y484020D03*
X287680Y484020D03*
X287680Y471020D03*
D19*
X280640Y556260D03*
X308640Y556260D03*
D21*
X387100Y685800D03*
X415540Y685800D03*
X387100Y711200D03*
X415540Y711200D03*
X387100Y736600D03*
X415540Y736600D03*
X387100Y762000D03*
X415540Y762000D03*
X315980Y685800D03*
X344420Y685800D03*
X315980Y711200D03*
X344420Y711200D03*
X315980Y736600D03*
X344420Y736600D03*
X315980Y762000D03*
X344420Y762000D03*
D22*
X594360Y91440D03*
X543560Y91440D03*
X670560Y294640D03*
X568960Y294640D03*
X467360Y294640D03*
X467360Y91440D03*
D23*
X386080Y175260D03*
X386080Y91440D03*
D21*
X409960Y787400D03*
X438400Y787400D03*
X209300Y805180D03*
X237740Y805180D03*
X209300Y777240D03*
X237740Y777240D03*
X209300Y749300D03*
X237740Y749300D03*
X511560Y711200D03*
X540000Y711200D03*
X575560Y800100D03*
X547120Y800100D03*
X540000Y678180D03*
X511560Y678180D03*
X420620Y629920D03*
X392180Y629920D03*
D19*
X580420Y411480D03*
X552420Y411480D03*
D21*
X580640Y383540D03*
X552200Y383540D03*
D24*
X439480Y591140D03*
X431480Y591140D03*
X423480Y591140D03*
X415480Y591140D03*
X407480Y591140D03*
X399480Y591140D03*
X391480Y591140D03*
X383480Y591140D03*
D25*
X368980Y576640D03*
X368980Y568640D03*
X368980Y560640D03*
X368980Y552640D03*
X368980Y544640D03*
X368980Y536640D03*
X368980Y528640D03*
X368980Y520640D03*
D24*
X383480Y506140D03*
X391480Y506140D03*
X399480Y506140D03*
X407480Y506140D03*
X415480Y506140D03*
X423480Y506140D03*
X431480Y506140D03*
X439480Y506140D03*
D25*
X453980Y520640D03*
X453980Y528640D03*
X453980Y536640D03*
X453980Y544640D03*
X453980Y552640D03*
X453980Y560640D03*
X453980Y568640D03*
X453980Y576640D03*
D21*
X478540Y528320D03*
X506980Y528320D03*
D19*
X478760Y586740D03*
X506760Y586740D03*
D26*
X487680Y404880D03*
X487680Y433320D03*
X518160Y404880D03*
X518160Y433320D03*
D21*
X453640Y378460D03*
X425200Y378460D03*
M02*
