G04 EAGLE Gerber RS-274X export*
G75*
%MOMM*%
%FSLAX34Y34*%
%LPD*%
%INSolderpaste Top*%
%IPPOS*%
%AMOC8*
5,1,8,0,0,1.08239X$1,22.5*%
G01*
%ADD10R,0.700000X1.925000*%
%ADD11R,0.450000X1.475000*%
%ADD12R,0.650000X1.575000*%
%ADD13R,1.200000X0.400000*%
%ADD14R,5.600000X2.100000*%
%ADD15R,1.600000X1.800000*%
%ADD16R,1.600000X1.803000*%
%ADD17R,0.600000X1.500000*%
%ADD18R,1.500000X0.600000*%
%ADD19R,1.803000X1.600000*%


D10*
X468630Y829180D03*
X481330Y829180D03*
X494030Y829180D03*
X506730Y829180D03*
X519430Y829180D03*
X532130Y829180D03*
X544830Y829180D03*
X557530Y829180D03*
X570230Y829180D03*
X582930Y829180D03*
X582930Y923420D03*
X570230Y923420D03*
X557530Y923420D03*
X544830Y923420D03*
X532130Y923420D03*
X519430Y923420D03*
X506730Y923420D03*
X494030Y923420D03*
X481330Y923420D03*
X468630Y923420D03*
D11*
X564700Y443060D03*
X571200Y443060D03*
X577700Y443060D03*
X584200Y443060D03*
X590700Y443060D03*
X597200Y443060D03*
X603700Y443060D03*
X603700Y501820D03*
X597200Y501820D03*
X590700Y501820D03*
X584200Y501820D03*
X577700Y501820D03*
X571200Y501820D03*
X564700Y501820D03*
D12*
X349250Y972260D03*
X336550Y972260D03*
X323850Y972260D03*
X311150Y972260D03*
X298450Y972260D03*
X285750Y972260D03*
X273050Y972260D03*
X260350Y972260D03*
X260350Y917500D03*
X273050Y917500D03*
X285750Y917500D03*
X298450Y917500D03*
X311150Y917500D03*
X323850Y917500D03*
X336550Y917500D03*
X349250Y917500D03*
D13*
X306680Y511660D03*
X306680Y518160D03*
X306680Y524660D03*
X287680Y524660D03*
X287680Y511660D03*
D14*
X478280Y756920D03*
X573280Y756920D03*
X573280Y629920D03*
X478280Y629920D03*
D15*
X438180Y924560D03*
X410180Y924560D03*
X522000Y490220D03*
X494000Y490220D03*
X476280Y711200D03*
X448280Y711200D03*
X572740Y711200D03*
X600740Y711200D03*
X572740Y678180D03*
X600740Y678180D03*
X476280Y678180D03*
X448280Y678180D03*
X283180Y439420D03*
X311180Y439420D03*
X417800Y482600D03*
X445800Y482600D03*
D13*
X306680Y471020D03*
X306680Y477520D03*
X306680Y484020D03*
X287680Y484020D03*
X287680Y471020D03*
D15*
X280640Y556260D03*
X308640Y556260D03*
D16*
X387100Y685800D03*
X415540Y685800D03*
X387100Y711200D03*
X415540Y711200D03*
X387100Y736600D03*
X415540Y736600D03*
X387100Y762000D03*
X415540Y762000D03*
X315980Y685800D03*
X344420Y685800D03*
X315980Y711200D03*
X344420Y711200D03*
X315980Y736600D03*
X344420Y736600D03*
X315980Y762000D03*
X344420Y762000D03*
X409960Y787400D03*
X438400Y787400D03*
X209300Y805180D03*
X237740Y805180D03*
X209300Y777240D03*
X237740Y777240D03*
X209300Y749300D03*
X237740Y749300D03*
X511560Y711200D03*
X540000Y711200D03*
X575560Y800100D03*
X547120Y800100D03*
X540000Y678180D03*
X511560Y678180D03*
X420620Y629920D03*
X392180Y629920D03*
D15*
X580420Y411480D03*
X552420Y411480D03*
D16*
X580640Y383540D03*
X552200Y383540D03*
D17*
X439480Y591140D03*
X431480Y591140D03*
X423480Y591140D03*
X415480Y591140D03*
X407480Y591140D03*
X399480Y591140D03*
X391480Y591140D03*
X383480Y591140D03*
D18*
X368980Y576640D03*
X368980Y568640D03*
X368980Y560640D03*
X368980Y552640D03*
X368980Y544640D03*
X368980Y536640D03*
X368980Y528640D03*
X368980Y520640D03*
D17*
X383480Y506140D03*
X391480Y506140D03*
X399480Y506140D03*
X407480Y506140D03*
X415480Y506140D03*
X423480Y506140D03*
X431480Y506140D03*
X439480Y506140D03*
D18*
X453980Y520640D03*
X453980Y528640D03*
X453980Y536640D03*
X453980Y544640D03*
X453980Y552640D03*
X453980Y560640D03*
X453980Y568640D03*
X453980Y576640D03*
D16*
X478540Y528320D03*
X506980Y528320D03*
D15*
X478760Y586740D03*
X506760Y586740D03*
D19*
X487680Y404880D03*
X487680Y433320D03*
X518160Y404880D03*
X518160Y433320D03*
D16*
X453640Y378460D03*
X425200Y378460D03*
M02*
