G04 EAGLE Gerber RS-274X export*
G75*
%MOMM*%
%FSLAX34Y34*%
%LPD*%
%IN*%
%IPPOS*%
%AMOC8*
5,1,8,0,0,1.08239X$1,22.5*%
G01*
%ADD10C,0.254000*%


D10*
X139700Y412701D02*
X139859Y409053D01*
X140336Y405432D01*
X141126Y401867D01*
X142225Y398384D01*
X143622Y395010D01*
X145308Y391771D01*
X147270Y388691D01*
X149494Y385793D01*
X151961Y383101D01*
X154653Y380634D01*
X157551Y378410D01*
X160631Y376448D01*
X163870Y374762D01*
X167244Y373365D01*
X170727Y372266D01*
X174292Y371476D01*
X177913Y370999D01*
X181561Y370840D01*
X299720Y370840D01*
X304812Y370618D01*
X309865Y369952D01*
X314840Y368849D01*
X319701Y367317D01*
X324409Y365367D01*
X328930Y363013D01*
X333228Y360275D01*
X337272Y357172D01*
X341029Y353729D01*
X344472Y349972D01*
X347575Y345928D01*
X350313Y341630D01*
X352667Y337109D01*
X354617Y332401D01*
X356149Y327540D01*
X357252Y322565D01*
X357918Y317512D01*
X358140Y312420D01*
X358140Y81280D01*
X358266Y78402D01*
X358642Y75546D01*
X359265Y72734D01*
X360131Y69987D01*
X361234Y67325D01*
X362564Y64770D01*
X364112Y62341D01*
X365865Y60055D01*
X367811Y57931D01*
X369935Y55985D01*
X372221Y54232D01*
X374650Y52684D01*
X377205Y51354D01*
X379867Y50251D01*
X382614Y49385D01*
X385426Y48762D01*
X388282Y48386D01*
X391160Y48260D01*
X682500Y48260D01*
X684714Y48357D01*
X686911Y48646D01*
X689074Y49125D01*
X691187Y49792D01*
X693235Y50640D01*
X695200Y51663D01*
X697069Y52854D01*
X698827Y54202D01*
X700461Y55700D01*
X701958Y57333D01*
X703306Y59091D01*
X704497Y60960D01*
X705520Y62926D01*
X706368Y64973D01*
X707035Y67086D01*
X707514Y69249D01*
X707803Y71446D01*
X707900Y73660D01*
X707900Y989025D01*
X707749Y992474D01*
X707299Y995897D01*
X706552Y999267D01*
X705513Y1002560D01*
X704192Y1005750D01*
X702598Y1008812D01*
X700743Y1011724D01*
X698641Y1014463D01*
X696309Y1017009D01*
X693763Y1019341D01*
X691024Y1021443D01*
X688112Y1023298D01*
X685050Y1024892D01*
X681860Y1026213D01*
X678567Y1027252D01*
X675197Y1027999D01*
X671774Y1028449D01*
X668325Y1028600D01*
X178461Y1028600D01*
X175083Y1028453D01*
X171730Y1028011D01*
X168429Y1027279D01*
X165204Y1026262D01*
X162080Y1024968D01*
X159080Y1023407D01*
X156229Y1021590D01*
X153546Y1019532D01*
X151053Y1017247D01*
X148768Y1014754D01*
X146710Y1012071D01*
X144893Y1009220D01*
X143332Y1006220D01*
X142038Y1003096D01*
X141021Y999871D01*
X140289Y996570D01*
X139848Y993217D01*
X139700Y989839D01*
X139700Y412701D01*
X194000Y409500D02*
X193929Y408503D01*
X193786Y407513D01*
X193574Y406536D01*
X193292Y405576D01*
X192943Y404639D01*
X192527Y403729D01*
X192048Y402852D01*
X191507Y402010D01*
X190908Y401210D01*
X190253Y400454D01*
X189546Y399747D01*
X188790Y399092D01*
X187990Y398493D01*
X187148Y397952D01*
X186271Y397473D01*
X185361Y397057D01*
X184424Y396708D01*
X183465Y396426D01*
X182487Y396214D01*
X181498Y396071D01*
X180500Y396000D01*
X179500Y396000D01*
X178503Y396071D01*
X177513Y396214D01*
X176536Y396426D01*
X175576Y396708D01*
X174639Y397057D01*
X173729Y397473D01*
X172852Y397952D01*
X172010Y398493D01*
X171210Y399092D01*
X170454Y399747D01*
X169747Y400454D01*
X169092Y401210D01*
X168493Y402010D01*
X167952Y402852D01*
X167473Y403729D01*
X167057Y404639D01*
X166708Y405576D01*
X166426Y406536D01*
X166214Y407513D01*
X166071Y408503D01*
X166000Y409500D01*
X166000Y410500D01*
X166071Y411498D01*
X166214Y412487D01*
X166426Y413465D01*
X166708Y414424D01*
X167057Y415361D01*
X167473Y416271D01*
X167952Y417148D01*
X168493Y417990D01*
X169092Y418790D01*
X169747Y419546D01*
X170454Y420253D01*
X171210Y420908D01*
X172010Y421507D01*
X172852Y422048D01*
X173729Y422527D01*
X174639Y422943D01*
X175576Y423292D01*
X176536Y423574D01*
X177513Y423786D01*
X178503Y423929D01*
X179500Y424000D01*
X180500Y424000D01*
X181498Y423929D01*
X182487Y423786D01*
X183465Y423574D01*
X184424Y423292D01*
X185361Y422943D01*
X186271Y422527D01*
X187148Y422048D01*
X187990Y421507D01*
X188790Y420908D01*
X189546Y420253D01*
X190253Y419546D01*
X190908Y418790D01*
X191507Y417990D01*
X192048Y417148D01*
X192527Y416271D01*
X192943Y415361D01*
X193292Y414424D01*
X193574Y413465D01*
X193786Y412487D01*
X193929Y411498D01*
X194000Y410500D01*
X194000Y409500D01*
X684000Y409500D02*
X683929Y408503D01*
X683786Y407513D01*
X683574Y406536D01*
X683292Y405576D01*
X682943Y404639D01*
X682527Y403729D01*
X682048Y402852D01*
X681507Y402010D01*
X680908Y401210D01*
X680253Y400454D01*
X679546Y399747D01*
X678790Y399092D01*
X677990Y398493D01*
X677148Y397952D01*
X676271Y397473D01*
X675361Y397057D01*
X674424Y396708D01*
X673465Y396426D01*
X672487Y396214D01*
X671498Y396071D01*
X670500Y396000D01*
X669500Y396000D01*
X668503Y396071D01*
X667513Y396214D01*
X666536Y396426D01*
X665576Y396708D01*
X664639Y397057D01*
X663729Y397473D01*
X662852Y397952D01*
X662010Y398493D01*
X661210Y399092D01*
X660454Y399747D01*
X659747Y400454D01*
X659092Y401210D01*
X658493Y402010D01*
X657952Y402852D01*
X657473Y403729D01*
X657057Y404639D01*
X656708Y405576D01*
X656426Y406536D01*
X656214Y407513D01*
X656071Y408503D01*
X656000Y409500D01*
X656000Y410500D01*
X656071Y411498D01*
X656214Y412487D01*
X656426Y413465D01*
X656708Y414424D01*
X657057Y415361D01*
X657473Y416271D01*
X657952Y417148D01*
X658493Y417990D01*
X659092Y418790D01*
X659747Y419546D01*
X660454Y420253D01*
X661210Y420908D01*
X662010Y421507D01*
X662852Y422048D01*
X663729Y422527D01*
X664639Y422943D01*
X665576Y423292D01*
X666536Y423574D01*
X667513Y423786D01*
X668503Y423929D01*
X669500Y424000D01*
X670500Y424000D01*
X671498Y423929D01*
X672487Y423786D01*
X673465Y423574D01*
X674424Y423292D01*
X675361Y422943D01*
X676271Y422527D01*
X677148Y422048D01*
X677990Y421507D01*
X678790Y420908D01*
X679546Y420253D01*
X680253Y419546D01*
X680908Y418790D01*
X681507Y417990D01*
X682048Y417148D01*
X682527Y416271D01*
X682943Y415361D01*
X683292Y414424D01*
X683574Y413465D01*
X683786Y412487D01*
X683929Y411498D01*
X684000Y410500D01*
X684000Y409500D01*
X194000Y989500D02*
X193929Y988503D01*
X193786Y987513D01*
X193574Y986536D01*
X193292Y985576D01*
X192943Y984639D01*
X192527Y983729D01*
X192048Y982852D01*
X191507Y982010D01*
X190908Y981210D01*
X190253Y980454D01*
X189546Y979747D01*
X188790Y979092D01*
X187990Y978493D01*
X187148Y977952D01*
X186271Y977473D01*
X185361Y977057D01*
X184424Y976708D01*
X183465Y976426D01*
X182487Y976214D01*
X181498Y976071D01*
X180500Y976000D01*
X179500Y976000D01*
X178503Y976071D01*
X177513Y976214D01*
X176536Y976426D01*
X175576Y976708D01*
X174639Y977057D01*
X173729Y977473D01*
X172852Y977952D01*
X172010Y978493D01*
X171210Y979092D01*
X170454Y979747D01*
X169747Y980454D01*
X169092Y981210D01*
X168493Y982010D01*
X167952Y982852D01*
X167473Y983729D01*
X167057Y984639D01*
X166708Y985576D01*
X166426Y986536D01*
X166214Y987513D01*
X166071Y988503D01*
X166000Y989500D01*
X166000Y990500D01*
X166071Y991498D01*
X166214Y992487D01*
X166426Y993465D01*
X166708Y994424D01*
X167057Y995361D01*
X167473Y996271D01*
X167952Y997148D01*
X168493Y997990D01*
X169092Y998790D01*
X169747Y999546D01*
X170454Y1000253D01*
X171210Y1000908D01*
X172010Y1001507D01*
X172852Y1002048D01*
X173729Y1002527D01*
X174639Y1002943D01*
X175576Y1003292D01*
X176536Y1003574D01*
X177513Y1003786D01*
X178503Y1003929D01*
X179500Y1004000D01*
X180500Y1004000D01*
X181498Y1003929D01*
X182487Y1003786D01*
X183465Y1003574D01*
X184424Y1003292D01*
X185361Y1002943D01*
X186271Y1002527D01*
X187148Y1002048D01*
X187990Y1001507D01*
X188790Y1000908D01*
X189546Y1000253D01*
X190253Y999546D01*
X190908Y998790D01*
X191507Y997990D01*
X192048Y997148D01*
X192527Y996271D01*
X192943Y995361D01*
X193292Y994424D01*
X193574Y993465D01*
X193786Y992487D01*
X193929Y991498D01*
X194000Y990500D01*
X194000Y989500D01*
X684000Y989500D02*
X683929Y988503D01*
X683786Y987513D01*
X683574Y986536D01*
X683292Y985576D01*
X682943Y984639D01*
X682527Y983729D01*
X682048Y982852D01*
X681507Y982010D01*
X680908Y981210D01*
X680253Y980454D01*
X679546Y979747D01*
X678790Y979092D01*
X677990Y978493D01*
X677148Y977952D01*
X676271Y977473D01*
X675361Y977057D01*
X674424Y976708D01*
X673465Y976426D01*
X672487Y976214D01*
X671498Y976071D01*
X670500Y976000D01*
X669500Y976000D01*
X668503Y976071D01*
X667513Y976214D01*
X666536Y976426D01*
X665576Y976708D01*
X664639Y977057D01*
X663729Y977473D01*
X662852Y977952D01*
X662010Y978493D01*
X661210Y979092D01*
X660454Y979747D01*
X659747Y980454D01*
X659092Y981210D01*
X658493Y982010D01*
X657952Y982852D01*
X657473Y983729D01*
X657057Y984639D01*
X656708Y985576D01*
X656426Y986536D01*
X656214Y987513D01*
X656071Y988503D01*
X656000Y989500D01*
X656000Y990500D01*
X656071Y991498D01*
X656214Y992487D01*
X656426Y993465D01*
X656708Y994424D01*
X657057Y995361D01*
X657473Y996271D01*
X657952Y997148D01*
X658493Y997990D01*
X659092Y998790D01*
X659747Y999546D01*
X660454Y1000253D01*
X661210Y1000908D01*
X662010Y1001507D01*
X662852Y1002048D01*
X663729Y1002527D01*
X664639Y1002943D01*
X665576Y1003292D01*
X666536Y1003574D01*
X667513Y1003786D01*
X668503Y1003929D01*
X669500Y1004000D01*
X670500Y1004000D01*
X671498Y1003929D01*
X672487Y1003786D01*
X673465Y1003574D01*
X674424Y1003292D01*
X675361Y1002943D01*
X676271Y1002527D01*
X677148Y1002048D01*
X677990Y1001507D01*
X678790Y1000908D01*
X679546Y1000253D01*
X680253Y999546D01*
X680908Y998790D01*
X681507Y997990D01*
X682048Y997148D01*
X682527Y996271D01*
X682943Y995361D01*
X683292Y994424D01*
X683574Y993465D01*
X683786Y992487D01*
X683929Y991498D01*
X684000Y990500D01*
X684000Y989500D01*
M02*
