<?xml version="1.0" encoding="UTF-8" standalone="no"?>
<!-- Created with Inkscape (http://www.inkscape.org/) -->

<svg
   xmlns:dc="http://purl.org/dc/elements/1.1/"
   xmlns:cc="http://creativecommons.org/ns#"
   xmlns:rdf="http://www.w3.org/1999/02/22-rdf-syntax-ns#"
   xmlns:svg="http://www.w3.org/2000/svg"
   xmlns="http://www.w3.org/2000/svg"
   xmlns:sodipodi="http://sodipodi.sourceforge.net/DTD/sodipodi-0.dtd"
   xmlns:inkscape="http://www.inkscape.org/namespaces/inkscape"
   id="svg8"
   version="1.1"
   viewBox="0 0 210 297"
   height="297mm"
   width="210mm"
   sodipodi:docname="logo_EXT.svg"
   inkscape:version="0.92.2 (5c3e80d, 2017-08-06)">
  <sodipodi:namedview
     inkscape:window-maximized="1"
     inkscape:window-y="-8"
     inkscape:window-x="-8"
     inkscape:window-height="1057"
     inkscape:window-width="1858"
     showgrid="false"
     inkscape:current-layer="layer1"
     inkscape:document-units="mm"
     inkscape:cy="703.15024"
     inkscape:cx="421.23425"
     inkscape:zoom="7.9195959"
     inkscape:pageshadow="2"
     inkscape:pageopacity="0.0"
     borderopacity="1.0"
     bordercolor="#666666"
     pagecolor="#ffffff"
     id="base" />
  <defs
     id="defs2" />
  <metadata
     id="metadata5">
    <rdf:RDF>
      <cc:Work
         rdf:about="">
        <dc:format>image/svg+xml</dc:format>
        <dc:type
           rdf:resource="http://purl.org/dc/dcmitype/StillImage" />
      </cc:Work>
    </rdf:RDF>
  </metadata>
  <g
     id="layer1"
     inkscape:groupmode="layer"
     inkscape:label="Layer 1">
    <path
       d="m 84.020124,103.3056 0.25207,0.0882 0.0813,0.28401 v 1.04997 h -1.6555 v 0.39443 h 1.6555 v 0.83331 l -0.0813,0.27916 -0.25207,0.0875 h -1.53885 l -0.0222,0.38332 1.64439,0.0333 0.3045,-0.0463 0.23159,-0.13281 0.14826,-0.20989 0.0545,-0.2776 v -2.51103 l -0.0545,-0.27759 -0.14826,-0.2099 -0.23159,-0.1328 -0.3045,-0.0464 -1.64439,0.0333 0.0222,0.37776 h 1.53885"
       style="font-style:normal;font-variant:normal;font-weight:normal;font-stretch:normal;font-size:medium;line-height:1.25;font-family:'Exo 2';-inkscape-font-specification:'Exo 2, ';letter-spacing:0px;word-spacing:0px;fill:#000000;fill-opacity:1;stroke:none;stroke-width:0.13888462"
       id="path827"
       inkscape:connector-curvature="0" />
    <path
       d="m 79.456114,102.90007 h -0.53332 l 1.0833,1.98327 -1.01108,1.84994 h 0.52776 l 0.87775,-1.6555 h 0.16111 l 0.87775,1.6555 h 0.52776 l -1.00553,-1.84994 1.07775,-1.98327 h -0.53332 l -0.95552,1.79994 h -0.13888 l -0.95553,-1.79994"
       style="font-style:normal;font-variant:normal;font-weight:normal;font-stretch:normal;font-size:medium;line-height:1.25;font-family:'Exo 2';-inkscape-font-specification:'Exo 2, ';letter-spacing:0px;word-spacing:0px;fill:#000000;fill-opacity:1;stroke:none;stroke-width:0.13888462"
       id="path829"
       inkscape:connector-curvature="0" />
    <path
       d="m 75.687734,106.73328 h 2.96102 v -0.43332 h -1.2333 v -3.39989 h -0.48887 v 3.39989 h -1.23885 v 0.43332"
       style="font-style:normal;font-variant:normal;font-weight:normal;font-stretch:normal;font-size:medium;line-height:1.25;font-family:'Exo 2';-inkscape-font-specification:'Exo 2, ';letter-spacing:0px;word-spacing:0px;fill:#000000;fill-opacity:1;stroke:none;stroke-width:0.13888462"
       id="path831"
       inkscape:connector-curvature="0" />
    <path
       d="m 72.315184,106.73328 h 0.48887 v -2.36659 l 0.0478,-0.51873 0.15503,-0.33958 0.28003,-0.18541 0.42273,-0.0562 0.42507,0.0562 0.27977,0.18541 0.15373,0.33958 0.0469,0.51873 v 2.36659 h 0.48887 v -2.36659 l -0.0752,-0.70918 -0.24349,-0.4769 -0.43827,-0.26856 -0.65961,-0.0842 -0.63861,0.0842 -0.42455,0.26856 -0.23602,0.4769 -0.073,0.70918 v 2.36659"
       style="font-style:normal;font-variant:normal;font-weight:normal;font-stretch:normal;font-size:medium;line-height:1.25;font-family:'Exo 2';-inkscape-font-specification:'Exo 2, ';letter-spacing:0px;word-spacing:0px;fill:#000000;fill-opacity:1;stroke:none;stroke-width:0.13888462"
       id="path833"
       inkscape:connector-curvature="0" />
    <path
       style="font-style:normal;font-variant:normal;font-weight:normal;font-stretch:normal;font-size:medium;line-height:1.25;font-family:'Exo 2';-inkscape-font-specification:'Exo 2, ';letter-spacing:0px;word-spacing:0px;fill:#000000;fill-opacity:1;stroke:none;stroke-width:0.13888462"
       d="m 70.16464,106.77911 1.211713,-0.0459 v -3.83316 H 70.89297 v 1.60558 l -0.72833,-0.004 v 0.42153 h 0.72833 v 1.43307 l -0.72833,0.004 z"
       id="path1762"
       inkscape:connector-curvature="0" />
    <path
       style="font-style:normal;font-variant:normal;font-weight:normal;font-stretch:normal;font-size:medium;line-height:1.25;font-family:'Exo 2';-inkscape-font-specification:'Exo 2, ';letter-spacing:0px;word-spacing:0px;fill:#000000;fill-opacity:1;stroke:none;stroke-width:0.13888462"
       d="m 70.16464,106.77911 v -0.41882 l -0.09955,10e-4 -0.356976,-0.0323 -0.233284,-0.11284 -0.126948,-0.2181 -0.03824,-0.34802 0.03824,-0.35183 0.126948,-0.22243 0.233284,-0.11691 0.356976,-0.0364 h 0.09955 v -0.42153 l -0.1161,-10e-4 -0.313847,-0.0916 -0.197205,-0.30814 -0.339074,-1.20005 h -0.522173 l 0.372167,1.2109 0.196663,0.37732 0.2756,0.17279 v 0.0276 l -0.323342,0.0953 -0.218906,0.19097 -0.123966,0.29513 -0.03933,0.40771 0.06862,0.536 0.21755,0.33961 0.384103,0.17823 0.568558,0.0515 z"
       id="path835"
       inkscape:connector-curvature="0" />
    <path
       style="font-style:normal;font-variant:normal;font-weight:normal;font-stretch:normal;font-size:medium;line-height:1.25;font-family:'Exo 2';-inkscape-font-specification:'Exo 2, ';letter-spacing:0px;word-spacing:0px;fill:#000000;fill-opacity:1;stroke:none;stroke-width:0.13888462"
       d="m 66.762508,102.86294 -0.231655,-0.007 -0.561234,0.0453 -0.37895,0.15896 -0.214295,0.30679 -0.06754,0.48881 0.03933,0.41068 0.12939,0.31086 0.236538,0.20589 0.361318,0.0949 v 0.0223 l -0.296216,0.0784 -0.201816,0.1709 -0.115285,0.26555 -0.03662,0.36267 0.06755,0.48909 0.219176,0.30679 0.395225,0.15895 0.595686,0.0453 0.05941,-0.002 v -0.41449 h -0.03717 l -0.389528,-0.0262 -0.255526,-0.0974 -0.139971,-0.19504 -0.04286,-0.32008 0.03905,-0.31874 0.127763,-0.19801 0.231656,-0.10199 0.351551,-0.0311 h 0.115014 v -0.37244 h -0.120435 l -0.396039,-0.0399 -0.258782,-0.12179 -0.141326,-0.23111 -0.04286,-0.3681 0.04069,-0.33392 0.135086,-0.20371 0.248474,-0.10145 0.38139,-0.0276 0.153804,0.001 z"
       id="path1767"
       inkscape:connector-curvature="0" />
    <path
       style="font-style:normal;font-variant:normal;font-weight:normal;font-stretch:normal;font-size:medium;line-height:1.25;font-family:'Exo 2';-inkscape-font-specification:'Exo 2, ';letter-spacing:0px;word-spacing:0px;fill:#000000;fill-opacity:1;stroke:none;stroke-width:0.13888462"
       d="m 66.762508,102.86294 v 0.41042 l 0.707172,0.004 v 1.42222 h -0.707172 v 0.37244 h 0.707172 v 1.28875 h -0.707172 v 0.41448 l 1.185132,-0.0423 v -3.83303 z"
       id="path837"
       inkscape:connector-curvature="0" />
    <path
       style="font-style:normal;font-variant:normal;font-weight:normal;font-stretch:normal;font-size:medium;line-height:1.25;font-family:'Exo 2';-inkscape-font-specification:'Exo 2, ';letter-spacing:0px;word-spacing:0px;fill:#000000;fill-opacity:1;stroke:none;stroke-width:0.13888462"
       d="m 63.273032,104.10016 h -0.798315 l -0.377865,-1.20005 h -0.505355 l 1.233145,3.69996 0.06673,0.0976 0.116641,0.0355 h 0.26502 v -0.37787 h -0.08735 l -0.0944,-0.31086 -0.483383,-1.5223 h 0.665127 z"
       id="path1772"
       inkscape:connector-curvature="0" />
    <path
       style="font-style:normal;font-variant:normal;font-weight:normal;font-stretch:normal;font-size:medium;line-height:1.25;font-family:'Exo 2';-inkscape-font-specification:'Exo 2, ';letter-spacing:0px;word-spacing:0px;fill:#000000;fill-opacity:1;stroke:none;stroke-width:0.13888462"
       d="m 63.273032,104.10016 v 0.42207 h 0.64614 l -0.483384,1.52231 -0.0944,0.31086 h -0.06836 v 0.37787 h 0.246033 l 0.11664,-0.0355 0.06673,-0.0976 1.233415,-3.69998 h -0.505628 l -0.377864,1.20005 z"
       id="path839"
       inkscape:connector-curvature="0" />
    <path
       d="m 58.772024,106.73328 h 2.96102 v -0.43332 h -1.233295 v -3.39989 h -0.488874 v 3.39989 h -1.238851 v 0.43332"
       style="font-style:normal;font-variant:normal;font-weight:normal;font-stretch:normal;font-size:medium;line-height:1.25;font-family:'Exo 2';-inkscape-font-specification:'Exo 2, ';letter-spacing:0px;word-spacing:0px;fill:#000000;fill-opacity:1;stroke:none;stroke-width:0.13888462"
       id="path841"
       inkscape:connector-curvature="0" />
    <path
       style="font-style:normal;font-variant:normal;font-weight:normal;font-stretch:normal;font-size:medium;line-height:1.25;font-family:'Exo 2';-inkscape-font-specification:'Exo 2, ';letter-spacing:0px;word-spacing:0px;fill:#000000;fill-opacity:1;stroke:none;stroke-width:0.13888462"
       d="m 56.906583,106.79945 0.66567,-0.0939 0.262578,-0.13401 0.206428,-0.19802 0.259595,-0.61331 0.08002,-0.94371 -0.08002,-0.94344 -0.259595,-0.61331 -0.206428,-0.1983 -0.262578,-0.13373 -0.66567,-0.0939 v 0.43971 l 0.432657,0.0705 0.308423,0.25797 0.166553,0.47796 0.04991,0.73647 -0.04991,0.73673 -0.166553,0.47796 -0.308423,0.25797 -0.432657,0.0705 z"
       id="path1777"
       inkscape:connector-curvature="0" />
    <path
       style="font-style:normal;font-variant:normal;font-weight:normal;font-stretch:normal;font-size:medium;line-height:1.25;font-family:'Exo 2';-inkscape-font-specification:'Exo 2, ';letter-spacing:0px;word-spacing:0px;fill:#000000;fill-opacity:1;stroke:none;stroke-width:0.13888462"
       d="m 56.906583,106.79945 v -0.43971 l -0.04232,0.006 -0.474974,-0.0773 -0.308423,-0.25796 -0.166553,-0.47796 -0.04991,-0.73674 0.04991,-0.73646 0.166553,-0.47796 0.308423,-0.25797 0.474974,-0.0773 0.04232,0.006 v -0.4397 l -0.04232,-0.006 -0.707174,0.0999 -0.261764,0.13374 -0.205343,0.19829 -0.257696,0.61331 -0.07921,0.94344 0.07921,0.94371 0.257696,0.61332 0.205343,0.19803 0.261764,0.13399 0.707174,0.0998 z"
       id="path843"
       inkscape:connector-curvature="0" />
    <path
       style="font-style:normal;font-variant:normal;font-weight:normal;font-stretch:normal;font-size:medium;line-height:1.25;font-family:'Exo 2';-inkscape-font-specification:'Exo 2, ';letter-spacing:0px;word-spacing:0px;fill:#000000;fill-opacity:1;stroke:none;stroke-width:0.13888462"
       d="m 53.258962,106.78101 1.26678,-0.0477 v -3.83319 h -0.483385 v 1.60558 l -0.783395,-0.005 v 0.42181 h 0.783395 v 1.43306 l -0.783395,0.005 z"
       id="path1782"
       inkscape:connector-curvature="0" />
    <path
       style="font-style:normal;font-variant:normal;font-weight:normal;font-stretch:normal;font-size:medium;line-height:1.25;font-family:'Exo 2';-inkscape-font-specification:'Exo 2, ';letter-spacing:0px;word-spacing:0px;fill:#000000;fill-opacity:1;stroke:none;stroke-width:0.13888462"
       d="m 53.258962,106.78101 v -0.42019 l -0.04448,2.8e-4 -0.356976,-0.0323 -0.233283,-0.11285 -0.126951,-0.21809 -0.03826,-0.34802 0.03826,-0.35183 0.126951,-0.22243 0.233283,-0.11692 0.356976,-0.0363 h 0.04448 v -0.42179 l -0.06103,-5.4e-4 -0.313846,-0.0917 -0.197206,-0.30814 -0.339075,-1.20005 h -0.522173 l 0.372166,1.2109 0.196667,0.37731 0.275597,0.17279 v 0.0276 l -0.323339,0.0952 -0.218906,0.19097 -0.123965,0.29513 -0.03932,0.4077 0.06864,0.536 0.217547,0.33962 0.384104,0.17821 0.568559,0.0515 z"
       id="path845"
       inkscape:connector-curvature="0" />
    <path
       d="m 83.761584,96.543595 0.17776,0.06111 0.0611,0.177773 v 0.583315 h -1.47218 v 0.716645 h 1.47218 v 0.466652 l -0.0611,0.177772 -0.17776,0.06111 h -1.43885 l -0.05,0.749977 1.89994,0.06111 0.35424,-0.05894 0.2756,-0.16675 0.17873,-0.259453 0.0636,-0.337055 v -2.222155 l -0.0628,-0.337056 -0.17743,-0.259454 -0.27534,-0.166748 -0.35658,-0.05894 -1.89994,0.0611 0.05,0.749977 h 1.43884"
       style="font-style:normal;font-variant:normal;font-weight:800;font-stretch:normal;font-size:medium;line-height:1.25;font-family:'Exo 2';-inkscape-font-specification:'Exo 2 Ultra-Bold';letter-spacing:0px;word-spacing:0px;fill:#000000;fill-opacity:1;stroke:none;stroke-width:0.13888462"
       id="path858"
       inkscape:connector-curvature="0" />
    <path
       d="m 79.473424,95.749175 h -1.04997 l 0.97219,1.961051 -0.89441,1.872165 h 1.04441 l 0.68887,-1.555508 h 0.0277 l 0.69441,1.555508 h 1.03887 l -0.89442,-1.872165 0.97219,-1.961051 h -1.04996 l -0.76665,1.666615 h -0.0166 l -0.76665,-1.666615"
       style="font-style:normal;font-variant:normal;font-weight:800;font-stretch:normal;font-size:medium;line-height:1.25;font-family:'Exo 2';-inkscape-font-specification:'Exo 2 Ultra-Bold';letter-spacing:0px;word-spacing:0px;fill:#000000;fill-opacity:1;stroke:none;stroke-width:0.13888462"
       id="path860"
       inkscape:connector-curvature="0" />
    <path
       d="m 75.089354,99.582391 h 3.2499 v -0.80553 h -1.09996 v -3.027686 h -1.04441 v 3.027686 h -1.10553 v 0.80553"
       style="font-style:normal;font-variant:normal;font-weight:800;font-stretch:normal;font-size:medium;line-height:1.25;font-family:'Exo 2';-inkscape-font-specification:'Exo 2 Ultra-Bold';letter-spacing:0px;word-spacing:0px;fill:#000000;fill-opacity:1;stroke:none;stroke-width:0.13888462"
       id="path862"
       inkscape:connector-curvature="0" />
    <path
       style="font-style:normal;font-variant:normal;font-weight:800;font-stretch:normal;font-size:medium;line-height:1.25;font-family:'Exo 2';-inkscape-font-specification:'Exo 2 Ultra-Bold';letter-spacing:0px;word-spacing:0px;fill:#000000;fill-opacity:1;stroke:none;stroke-width:0.13888462"
       d="m 73.005534,99.628186 0.12126,0.0098 1.54996,-0.05561 v -3.833161 h -1.0278 v 1.444454 h -0.47225 l -0.17117,-0.04399 v 0.838734 l 0.1435,-0.03363 h 0.49992 v 0.922009 h -0.49992 l -0.1435,-0.03363 z"
       id="path1792"
       inkscape:connector-curvature="0" />
    <path
       style="font-style:normal;font-variant:normal;font-weight:800;font-stretch:normal;font-size:medium;line-height:1.25;font-family:'Exo 2';-inkscape-font-specification:'Exo 2 Ultra-Bold';letter-spacing:0px;word-spacing:0px;fill:#000000;fill-opacity:1;stroke:none;stroke-width:0.13888462"
       d="m 73.005534,99.628186 v -0.785023 l -0.25445,-0.05941 -0.0795,-0.141326 -0.0225,-0.226773 0.0225,-0.226501 0.0795,-0.141327 0.25445,-0.05941 v -0.838728 l -0.0675,-0.01736 -0.12233,-0.227587 -0.27235,-1.155565 h -1.094257 l 0.316561,1.183233 0.100596,0.272616 0.150007,0.173877 0.338263,0.14241 v 0.03337 l -0.359427,0.101182 -0.233012,0.20019 -0.12559,0.281295 -0.03744,0.345041 0.0879,0.555538 0.273965,0.355622 0.474704,0.188796 z"
       id="path864"
       inkscape:connector-curvature="0" />
    <path
       d="m 67.792709,99.582391 h 1.044413 v -2.277708 l 0.02778,-0.406758 0.09444,-0.255722 0.177773,-0.132807 0.277769,-0.03802 0.277768,0.03802 0.177774,0.132807 0.09444,0.255722 0.02778,0.406758 v 2.277708 h 1.04441 v -2.277708 l -0.08871,-0.759091 -0.287665,-0.505454 -0.518908,-0.281501 -0.782441,-0.08724 -0.729926,0.08724 -0.48462,0.281501 -0.269002,0.505454 -0.08307,0.759091 v 2.277708"
       style="font-style:normal;font-variant:normal;font-weight:800;font-stretch:normal;font-size:medium;line-height:1.25;font-family:'Exo 2';-inkscape-font-specification:'Exo 2 Ultra-Bold';letter-spacing:0px;word-spacing:0px;fill:#000000;fill-opacity:1;stroke:none;stroke-width:0.13888462"
       id="path866"
       inkscape:connector-curvature="0" />
    <path
       d="m 65.585225,99.637945 1.572174,-0.05556 v -3.833216 l -1.572174,-0.05556 -0.802579,0.09175 -0.297191,0.126504 -0.233522,0.19076 -0.174148,0.262893 -0.119073,0.342904 -0.0901,0.95735 0.0901,0.957349 0.119073,0.342904 0.174148,0.262893 0.233522,0.190761 0.297191,0.126505 0.802579,0.09175 v 0 m 0,-3.161013 0.527763,0.0055 v 2.377705 h -0.527763 l -0.300251,-0.05382 -0.189316,-0.18923 -0.0987,-0.366309 -0.02839,-0.585051 0.02839,-0.584183 0.0987,-0.364399 0.189316,-0.187321 0.300251,-0.05295 v 2e-6"
       style="font-style:normal;font-variant:normal;font-weight:800;font-stretch:normal;font-size:medium;line-height:1.25;font-family:'Exo 2';-inkscape-font-specification:'Exo 2 Ultra-Bold';letter-spacing:0px;word-spacing:0px;fill:#000000;fill-opacity:1;stroke:none;stroke-width:0.13888462"
       id="path868"
       inkscape:connector-curvature="0" />
    <path
       d="m 62.060854,96.543595 0.177772,0.06111 0.0611,0.177773 v 0.583315 h -1.472172 v 0.716645 h 1.472176 v 0.466652 l -0.0611,0.177772 -0.177772,0.06111 h -1.438844 l -0.05,0.749977 1.899942,0.06111 0.354243,-0.05894 0.275599,-0.16675 0.178727,-0.259453 0.06363,-0.337055 v -2.222155 l -0.06284,-0.337056 -0.177424,-0.259454 -0.275339,-0.166748 -0.356586,-0.05894 -1.899943,0.0611 0.05,0.749977 h 1.438845"
       style="font-style:normal;font-variant:normal;font-weight:800;font-stretch:normal;font-size:medium;line-height:1.25;font-family:'Exo 2';-inkscape-font-specification:'Exo 2 Ultra-Bold';letter-spacing:0px;word-spacing:0px;fill:#000000;fill-opacity:1;stroke:none;stroke-width:0.13888462"
       id="path870"
       inkscape:connector-curvature="0" />
    <path
       style="font-style:normal;font-variant:normal;font-weight:800;font-stretch:normal;font-size:medium;line-height:1.25;font-family:'Exo 2';-inkscape-font-specification:'Exo 2 Ultra-Bold';letter-spacing:0px;word-spacing:0px;fill:#000000;fill-opacity:1;stroke:none;stroke-width:0.13888462"
       d="m 58.670851,99.631712 1.379624,-0.04937 V 95.74918 h -1.0278 v 1.444455 h -0.351824 v 0.761153 h 0.351824 v 0.922009 h -0.351824 z"
       id="path1797"
       inkscape:connector-curvature="0" />
    <path
       style="font-style:normal;font-variant:normal;font-weight:800;font-stretch:normal;font-size:medium;line-height:1.25;font-family:'Exo 2';-inkscape-font-specification:'Exo 2 Ultra-Bold';letter-spacing:0px;word-spacing:0px;fill:#000000;fill-opacity:1;stroke:none;stroke-width:0.13888462"
       d="m 58.670851,99.631712 v -0.754914 h -0.148107 l -0.397937,-0.09304 -0.07948,-0.141326 -0.02252,-0.226773 0.02252,-0.226501 0.07948,-0.141327 0.397937,-0.09304 h 0.148107 v -0.761157 h -0.120439 l -0.238707,-0.06131 -0.122338,-0.227585 -0.272344,-1.155565 h -1.09426 l 0.31656,1.183232 0.100638,0.272615 0.150006,0.173878 0.33826,0.142411 v 0.03337 l -0.359419,0.101182 -0.233011,0.20019 -0.125593,0.281295 -0.03743,0.34504 0.08789,0.555539 0.273971,0.355621 0.474705,0.188796 0.691167,0.05561 z"
       id="path872"
       inkscape:connector-curvature="0" />
    <path
       d="m 83.207444,92.54722 h 0.48887 l 0.97775,-0.394433 -0.0667,-0.361102 -0.93887,0.294437 0.0277,-0.333322 v -3.038794 h -0.48888 l -1e-5,3.833214"
       style="font-style:normal;font-variant:normal;font-weight:normal;font-stretch:normal;font-size:medium;line-height:1.25;font-family:'Exo 2';-inkscape-font-specification:'Exo 2, ';letter-spacing:0px;word-spacing:0px;fill:#000000;fill-opacity:1;stroke:none;stroke-width:0.13888462"
       id="path883"
       inkscape:connector-curvature="0" />
    <path
       d="m 81.871724,89.369539 h 0.15555 l 0.1368,-0.03889 0.041,-0.138878 v -0.29999 l -0.041,-0.138883 -0.1368,-0.03889 h -0.15555 l -0.13888,0.03889 -0.0388,0.138872 v 0.299991 l 0.0388,0.138883 0.13888,0.03889 v 0"
       style="font-style:normal;font-variant:normal;font-weight:normal;font-stretch:normal;font-size:medium;line-height:1.25;font-family:'Exo 2';-inkscape-font-specification:'Exo 2, ';letter-spacing:0px;word-spacing:0px;fill:#000000;fill-opacity:1;stroke:none;stroke-width:0.13888462"
       id="path885"
       inkscape:connector-curvature="0" />
    <path
       style="font-style:normal;font-variant:normal;font-weight:normal;font-stretch:normal;font-size:medium;line-height:1.25;font-family:'Exo 2';-inkscape-font-specification:'Exo 2, ';letter-spacing:0px;word-spacing:0px;fill:#000000;fill-opacity:1;stroke:none;stroke-width:0.13888462"
       d="m 79.652194,92.617224 0.60952,-0.111759 0.22813,-0.146208 0.17849,-0.209141 0.22188,-0.618198 0.0675,-0.901396 -0.0675,-0.901392 -0.22188,-0.617928 -0.17849,-0.209142 -0.22813,-0.146479 -0.60952,-0.111758 v 0.428046 l 0.38953,0.08219 0.2585,0.27099 0.13862,0.483654 0.0413,0.721819 -0.0413,0.722091 -0.13862,0.483385 -0.2585,0.271259 -0.38953,0.08192 z"
       id="path1787"
       inkscape:connector-curvature="0" />
    <path
       style="font-style:normal;font-variant:normal;font-weight:normal;font-stretch:normal;font-size:medium;line-height:1.25;font-family:'Exo 2';-inkscape-font-specification:'Exo 2, ';letter-spacing:0px;word-spacing:0px;fill:#000000;fill-opacity:1;stroke:none;stroke-width:0.13888462"
       d="m 79.652194,92.617224 v -0.428046 l -0.0111,0.0025 -0.40146,-0.08436 -0.26013,-0.27126 -0.14051,-0.483384 -0.0423,-0.722092 0.0423,-0.72182 0.14051,-0.483654 0.26013,-0.270988 0.40146,-0.08464 0.0111,0.0025 v -0.428047 l -0.0111,-0.0021 -0.62362,0.113928 -0.22922,0.14648 -0.17902,0.209141 -0.22271,0.617928 -0.0675,0.901394 0.0675,0.901395 0.22271,0.618198 0.17902,0.209141 0.22922,0.146209 0.62362,0.113929 z"
       id="path887"
       inkscape:connector-curvature="0" />
    <text
       id="text855"
       y="157.52678"
       x="54.995533"
       style="font-style:normal;font-weight:normal;font-size:10.58333302px;line-height:1.25;font-family:sans-serif;letter-spacing:0px;word-spacing:0px;fill:#000000;fill-opacity:1;stroke:none;stroke-width:0.26458332"
       xml:space="preserve"><tspan
         style="font-style:normal;font-variant:normal;font-weight:normal;font-stretch:normal;font-family:'Exo 2';-inkscape-font-specification:'Exo 2, ';stroke-width:0.26458332"
         y="157.52678"
         x="54.995533"
         id="tspan853"
         sodipodi:role="line">EXTURBATOR</tspan></text>
    <text
       xml:space="preserve"
       style="font-style:normal;font-weight:normal;font-size:10.58333302px;line-height:1.25;font-family:sans-serif;letter-spacing:0px;word-spacing:0px;fill:#000000;fill-opacity:1;stroke:none;stroke-width:0.26458332"
       x="55.373516"
       y="166.7872"
       id="text859"><tspan
         sodipodi:role="line"
         id="tspan857"
         x="55.373516"
         y="166.7872"
         style="font-style:normal;font-variant:normal;font-weight:800;font-stretch:normal;font-family:'Exo 2';-inkscape-font-specification:'Exo 2 Ultra-Bold';stroke-width:0.26458332">EXTRUDER</tspan></text>
    <text
       xml:space="preserve"
       style="font-style:normal;font-weight:normal;font-size:10.58333302px;line-height:1.25;font-family:sans-serif;letter-spacing:0px;word-spacing:0px;fill:#000000;fill-opacity:1;stroke:none;stroke-width:0.26458332"
       x="57.641369"
       y="197.59225"
       id="text867"><tspan
         sodipodi:role="line"
         id="tspan865"
         x="57.641369"
         y="197.59225"
         style="font-style:normal;font-variant:normal;font-weight:normal;font-stretch:normal;font-family:'Exo 2';-inkscape-font-specification:'Exo 2, ';stroke-width:0.26458332">EXTURBATOR</tspan></text>
    <text
       id="text871"
       y="206.85269"
       x="58.246136"
       style="font-style:normal;font-weight:normal;font-size:10.58333302px;line-height:1.25;font-family:sans-serif;letter-spacing:0px;word-spacing:0px;fill:#000000;fill-opacity:1;stroke:none;stroke-width:0.26458332"
       xml:space="preserve"><tspan
         style="font-style:normal;font-variant:normal;font-weight:800;font-stretch:normal;font-family:'Exo 2';-inkscape-font-specification:'Exo 2 Ultra-Bold';stroke-width:0.26458332"
         y="206.85269"
         x="58.246136"
         id="tspan869"
         sodipodi:role="line">WINDER</tspan></text>
    <text
       id="text875"
       y="231.61012"
       x="45.168156"
       style="font-style:normal;font-weight:normal;font-size:10.58333302px;line-height:1.25;font-family:sans-serif;letter-spacing:0px;word-spacing:0px;fill:#000000;fill-opacity:1;stroke:none;stroke-width:0.26458332"
       xml:space="preserve"><tspan
         style="font-style:normal;font-variant:normal;font-weight:normal;font-stretch:normal;font-family:'Exo 2';-inkscape-font-specification:'Exo 2, ';stroke-width:0.26458332"
         y="231.61012"
         x="45.168156"
         id="tspan873"
         sodipodi:role="line">EXTURBATOR</tspan></text>
    <text
       xml:space="preserve"
       style="font-style:normal;font-weight:normal;font-size:10.58333302px;line-height:1.25;font-family:sans-serif;letter-spacing:0px;word-spacing:0px;fill:#000000;fill-opacity:1;stroke:none;stroke-width:0.26458332"
       x="45.168159"
       y="240.79492"
       id="text879"><tspan
         sodipodi:role="line"
         id="tspan877"
         x="45.168159"
         y="240.79492"
         style="font-style:normal;font-variant:normal;font-weight:800;font-stretch:normal;font-family:'Exo 2';-inkscape-font-specification:'Exo 2 Ultra-Bold';stroke-width:0.26458332">PULLER</tspan></text>
    <g
       aria-label="EXTURBATOR"
       style="font-style:normal;font-weight:normal;font-size:4.26845694px;line-height:1.25;font-family:sans-serif;letter-spacing:0px;word-spacing:0px;fill:#000000;fill-opacity:1;stroke:none;stroke-width:0.10671145"
       id="text856">
      <path
         d="m 102.02523,114.97819 c -0.17501,0 -0.25611,-0.0854 -0.25611,-0.28599 v -0.80674 h 1.272 v -0.30306 h -1.272 v -0.64026 c 0,-0.19635 0.0811,-0.28172 0.25611,-0.28172 h 1.18236 l 0.0171,-0.29453 c -0.3927,-0.0256 -0.84089,-0.0256 -1.26347,-0.0256 -0.34574,0 -0.56343,0.19635 -0.5677,0.51222 v 1.92934 c 0.004,0.31587 0.22196,0.51222 0.5677,0.51222 0.42258,0 0.87077,0 1.26347,-0.0256 l -0.0171,-0.29026 z"
         style="font-style:normal;font-variant:normal;font-weight:normal;font-stretch:normal;font-family:'Exo 2';-inkscape-font-specification:'Exo 2, ';stroke:none;stroke-width:0.10671145"
         id="path871"
         inkscape:connector-curvature="0" />
      <path
         d="m 105.53197,115.28979 h 0.40977 l -0.83235,-1.52384 0.77686,-1.4214 h -0.40551 l -0.67441,1.272 h -0.12379 l -0.67441,-1.272 h -0.40551 l 0.77259,1.4214 -0.82808,1.52384 h 0.40978 l 0.73417,-1.38298 h 0.10671 z"
         style="font-style:normal;font-variant:normal;font-weight:normal;font-stretch:normal;font-family:'Exo 2';-inkscape-font-specification:'Exo 2, ';stroke:none;stroke-width:0.10671145"
         id="path873"
         inkscape:connector-curvature="0" />
      <path
         d="m 108.42738,112.34455 h -2.27509 v 0.33294 h 0.9476 v 2.6123 h 0.37563 v -2.6123 h 0.95186 z"
         style="font-style:normal;font-variant:normal;font-weight:normal;font-stretch:normal;font-family:'Exo 2';-inkscape-font-specification:'Exo 2, ';stroke:none;stroke-width:0.10671145"
         id="path875"
         inkscape:connector-curvature="0" />
      <path
         d="m 111.01867,112.34455 h -0.37563 v 1.81836 c 0,0.63174 -0.18354,0.84516 -0.69576,0.84516 -0.51648,0 -0.69575,-0.21342 -0.69575,-0.84516 v -1.81836 h -0.37563 v 1.81836 c 0,0.8537 0.29026,1.18237 1.08846,1.18237 0.77259,0 1.05431,-0.32867 1.05431,-1.18237 z"
         style="font-style:normal;font-variant:normal;font-weight:normal;font-stretch:normal;font-family:'Exo 2';-inkscape-font-specification:'Exo 2, ';stroke:none;stroke-width:0.10671145"
         id="path877"
         inkscape:connector-curvature="0" />
      <path
         d="m 113.52859,114.35926 c -0.064,-0.24757 -0.21769,-0.38416 -0.36282,-0.42257 v -0.0213 c 0.38843,-0.0512 0.54209,-0.28171 0.54209,-0.75978 0,-0.66161 -0.26891,-0.84942 -0.95186,-0.84942 -0.4738,0 -0.69576,0.004 -1.0159,0.0384 v 2.94524 h 0.37136 v -1.23359 c 0.1622,0 0.37562,0.004 0.6488,0.004 0.19635,0 0.31587,0.0854 0.3927,0.30733 l 0.26038,0.92199 h 0.40123 z m -0.78113,-0.62319 h -0.636 v -1.10126 c 0.16647,0 0.38416,-0.004 0.636,-0.004 0.43538,0 0.58051,0.11525 0.58051,0.54636 0,0.43538 -0.14513,0.5549 -0.58051,0.55917 z"
         style="font-style:normal;font-variant:normal;font-weight:normal;font-stretch:normal;font-family:'Exo 2';-inkscape-font-specification:'Exo 2, ';stroke:none;stroke-width:0.10671145"
         id="path879"
         inkscape:connector-curvature="0" />
      <path
         d="m 115.81301,113.77022 v -0.0171 c 0.35428,-0.0341 0.49941,-0.25184 0.49941,-0.67441 0,-0.60612 -0.26037,-0.76833 -0.98174,-0.76833 -0.43539,0 -0.66161,0.004 -0.95614,0.0341 v 2.94524 c 0.33294,0.0299 0.58478,0.0341 1.08846,0.0341 0.67441,0 0.93906,-0.1622 0.93906,-0.76832 0,-0.46953 -0.1494,-0.74698 -0.58905,-0.78539 z m -0.49941,-1.13968 c 0.4738,0 0.636,0.0896 0.636,0.49087 0,0.39697 -0.14939,0.49514 -0.57624,0.49941 h -0.63173 v -0.99028 z m 0.0896,2.37326 c -0.25611,0 -0.4866,0 -0.66161,-0.004 v -1.09272 h 0.636 c 0.48233,0.009 0.64454,0.12805 0.64454,0.58478 0,0.4183 -0.15367,0.51221 -0.61893,0.51221 z"
         style="font-style:normal;font-variant:normal;font-weight:normal;font-stretch:normal;font-family:'Exo 2';-inkscape-font-specification:'Exo 2, ';stroke:none;stroke-width:0.10671145"
         id="path881"
         inkscape:connector-curvature="0" />
      <path
         d="m 118.86983,115.28979 h 0.38843 l -0.9476,-2.8428 c -0.0171,-0.064 -0.0726,-0.10244 -0.14086,-0.10244 h -0.3927 c -0.0683,0 -0.12378,0.0384 -0.14086,0.10244 l -0.94759,2.8428 h 0.38842 l 0.29026,-0.92199 h 1.21224 z m -1.40006,-1.24639 0.37136,-1.16956 c 0.0256,-0.0768 0.0512,-0.1622 0.0726,-0.23903 h 0.11952 c 0.0213,0.0768 0.047,0.1622 0.0726,0.23903 l 0.37136,1.16956 z"
         style="font-style:normal;font-variant:normal;font-weight:normal;font-stretch:normal;font-family:'Exo 2';-inkscape-font-specification:'Exo 2, ';stroke:none;stroke-width:0.10671145"
         id="path884"
         inkscape:connector-curvature="0" />
      <path
         d="m 121.4245,112.34455 h -2.27509 v 0.33294 h 0.9476 v 2.6123 h 0.37562 v -2.6123 h 0.95187 z"
         style="font-style:normal;font-variant:normal;font-weight:normal;font-stretch:normal;font-family:'Exo 2';-inkscape-font-specification:'Exo 2, ';stroke:none;stroke-width:0.10671145"
         id="path886"
         inkscape:connector-curvature="0" />
      <path
         d="m 122.89031,112.28906 c -0.85796,0 -1.16528,0.37563 -1.16528,1.52811 0,1.15248 0.30732,1.52811 1.16528,1.52811 0.85796,0 1.16102,-0.37563 1.16102,-1.52811 0,-1.15248 -0.30306,-1.52811 -1.16102,-1.52811 z m 0,0.33721 c 0.58051,0 0.76833,0.29026 0.76833,1.1909 0,0.90064 -0.18782,1.1909 -0.76833,1.1909 -0.58051,0 -0.76832,-0.29026 -0.76832,-1.1909 0,-0.90064 0.18781,-1.1909 0.76832,-1.1909 z"
         style="font-style:normal;font-variant:normal;font-weight:normal;font-stretch:normal;font-family:'Exo 2';-inkscape-font-specification:'Exo 2, ';stroke:none;stroke-width:0.10671145"
         id="path888"
         inkscape:connector-curvature="0" />
      <path
         d="m 126.47568,114.35926 c -0.064,-0.24757 -0.21769,-0.38416 -0.36281,-0.42257 v -0.0213 c 0.38843,-0.0512 0.54209,-0.28171 0.54209,-0.75978 0,-0.66161 -0.26891,-0.84942 -0.95187,-0.84942 -0.47379,0 -0.69575,0.004 -1.01589,0.0384 v 2.94524 h 0.37136 v -1.23359 c 0.1622,0 0.37562,0.004 0.6488,0.004 0.19635,0 0.31587,0.0854 0.3927,0.30733 l 0.26038,0.92199 h 0.40123 z m -0.78112,-0.62319 h -0.636 v -1.10126 c 0.16647,0 0.38416,-0.004 0.636,-0.004 0.43538,0 0.58051,0.11525 0.58051,0.54636 0,0.43538 -0.14513,0.5549 -0.58051,0.55917 z"
         style="font-style:normal;font-variant:normal;font-weight:normal;font-stretch:normal;font-family:'Exo 2';-inkscape-font-specification:'Exo 2, ';stroke:none;stroke-width:0.10671145"
         id="path890"
         inkscape:connector-curvature="0" />
    </g>
    <g
       aria-label="WINDER"
       style="font-style:normal;font-weight:normal;font-size:4.26845694px;line-height:1.25;font-family:sans-serif;letter-spacing:0px;word-spacing:0px;fill:#000000;fill-opacity:1;stroke:none;stroke-width:0.10671145"
       id="text860">
      <path
         d="m 105.41927,116.45744 h -0.80247 l -0.20915,1.92081 c -0.0128,0.14086 -0.0256,0.30733 -0.0299,0.45672 h -0.0768 c -0.0171,-0.14512 -0.0427,-0.31159 -0.064,-0.46099 l -0.25184,-1.6775 c -0.0171,-0.14086 -0.12806,-0.23904 -0.27318,-0.23904 h -0.61466 c -0.1494,0 -0.26038,0.0982 -0.27745,0.23904 l -0.24757,1.67323 -0.0683,0.46526 h -0.0768 c -0.004,-0.175 -0.0128,-0.3244 -0.0256,-0.46526 l -0.21342,-1.91227 h -0.7982 l 0.40977,2.72755 c 0.0213,0.13232 0.14086,0.21769 0.27745,0.21769 h 0.7171 c 0.14086,0 0.26037,-0.0854 0.27745,-0.21769 l 0.25184,-1.75861 c 0.0171,-0.13232 0.0299,-0.27318 0.0427,-0.40977 h 0.0768 c 0.009,0.13659 0.0213,0.27318 0.0384,0.40551 l 0.25611,1.76287 c 0.0171,0.13232 0.14086,0.21769 0.27745,0.21769 h 0.71283 c 0.14086,0 0.25611,-0.0854 0.27745,-0.21769 z"
         style="font-style:normal;font-variant:normal;font-weight:800;font-stretch:normal;font-family:'Exo 2';-inkscape-font-specification:'Exo 2 Ultra-Bold';stroke:none;stroke-width:0.10671145"
         id="path893"
         inkscape:connector-curvature="0" />
      <path
         d="m 106.56442,116.45744 h -0.79394 v 2.94524 h 0.79394 z"
         style="font-style:normal;font-variant:normal;font-weight:800;font-stretch:normal;font-family:'Exo 2';-inkscape-font-specification:'Exo 2 Ultra-Bold';stroke:none;stroke-width:0.10671145"
         id="path895"
         inkscape:connector-curvature="0" />
      <path
         d="m 109.69146,116.45744 h -0.74271 l 0.004,1.42567 c 0,0.17501 0.0128,0.34148 0.0299,0.51648 h -0.0341 c -0.0683,-0.17927 -0.14513,-0.35428 -0.22196,-0.49087 l -0.67442,-1.21651 c -0.0854,-0.15367 -0.14512,-0.23477 -0.31159,-0.23477 h -0.37563 c -0.18354,0 -0.28172,0.0982 -0.28172,0.28172 v 2.66352 h 0.74698 v -1.47689 c 0,-0.1622 -0.0128,-0.3372 -0.0341,-0.50367 h 0.0341 c 0.047,0.1622 0.11952,0.34574 0.19208,0.48233 l 0.70003,1.26346 c 0.0811,0.15367 0.14513,0.23477 0.3116,0.23477 h 0.37989 c 0.18355,0 0.27745,-0.0982 0.27745,-0.28172 z"
         style="font-style:normal;font-variant:normal;font-weight:800;font-stretch:normal;font-family:'Exo 2';-inkscape-font-specification:'Exo 2 Ultra-Bold';stroke:none;stroke-width:0.10671145"
         id="path897"
         inkscape:connector-curvature="0" />
      <path
         d="m 111.40938,116.41476 c -0.47807,0 -0.84942,0.0213 -1.20797,0.0427 v 2.94524 c 0.35428,0.0256 0.73844,0.0427 1.20797,0.0427 0.97321,0 1.31895,-0.33294 1.31895,-1.5153 0,-1.18236 -0.34574,-1.5153 -1.31895,-1.5153 z m 0,2.42875 c -0.14513,0 -0.28172,0 -0.4055,-0.004 v -1.8269 h 0.4055 c 0.37136,0 0.4738,0.19208 0.4738,0.91772 0,0.72564 -0.10244,0.91345 -0.4738,0.91345 z"
         style="font-style:normal;font-variant:normal;font-weight:800;font-stretch:normal;font-family:'Exo 2';-inkscape-font-specification:'Exo 2 Ultra-Bold';stroke:none;stroke-width:0.10671145"
         id="path899"
         inkscape:connector-curvature="0" />
      <path
         d="m 114.11732,118.79229 c -0.11952,0 -0.18355,-0.064 -0.18355,-0.18354 v -0.44819 h 1.13114 v -0.55063 h -1.13114 v -0.35855 c 0,-0.11952 0.064,-0.18355 0.18355,-0.18355 h 1.10553 l 0.0384,-0.57624 c -0.4183,-0.0469 -0.9732,-0.0469 -1.45981,-0.0469 -0.39696,0 -0.67015,0.25184 -0.67015,0.63173 v 1.70738 c 0,0.3799 0.26892,0.63173 0.67015,0.63173 0.48661,0 1.04151,0 1.45981,-0.0469 l -0.0384,-0.57624 z"
         style="font-style:normal;font-variant:normal;font-weight:800;font-stretch:normal;font-family:'Exo 2';-inkscape-font-specification:'Exo 2 Ultra-Bold';stroke:none;stroke-width:0.10671145"
         id="path901"
         inkscape:connector-curvature="0" />
      <path
         d="m 117.8987,118.4935 c -0.0683,-0.33721 -0.29452,-0.42685 -0.45245,-0.45246 v -0.0256 c 0.43965,-0.0469 0.58051,-0.33294 0.58051,-0.71283 0,-0.68295 -0.35002,-0.88784 -1.17383,-0.88784 -0.55917,0 -0.81527,0.004 -1.1909,0.0427 v 2.94524 h 0.78967 v -1.1098 h 0.36282 c 0.1622,0 0.23476,0.0512 0.27745,0.22196 l 0.20915,0.88784 h 0.84089 z m -1.06284,-0.7854 h -0.38416 v -0.70856 h 0.38416 c 0.30306,0 0.38416,0.0726 0.38416,0.35428 0,0.28172 -0.0811,0.35428 -0.38416,0.35428 z"
         style="font-style:normal;font-variant:normal;font-weight:800;font-stretch:normal;font-family:'Exo 2';-inkscape-font-specification:'Exo 2 Ultra-Bold';stroke:none;stroke-width:0.10671145"
         id="path903"
         inkscape:connector-curvature="0" />
    </g>
    <path
       inkscape:connector-curvature="0"
       id="path863"
       style="font-style:normal;font-variant:normal;font-weight:normal;font-stretch:normal;font-size:medium;line-height:1.25;font-family:'Exo 2';-inkscape-font-specification:'Exo 2, ';letter-spacing:0px;word-spacing:0px;fill:#000000;fill-opacity:1;stroke:none;stroke-width:0.10377798"
       d="m 123.35464,116.7608 h -0.36529 l -0.7306,0.29473 0.0498,0.26982 0.70155,-0.22001 -0.0207,0.24907 v 2.27066 h 0.3653 l 1e-5,-2.86427" />
    <path
       inkscape:connector-curvature="0"
       id="path865"
       style="font-style:normal;font-variant:normal;font-weight:normal;font-stretch:normal;font-size:medium;line-height:1.25;font-family:'Exo 2';-inkscape-font-specification:'Exo 2, ';letter-spacing:0px;word-spacing:0px;fill:#000000;fill-opacity:1;stroke:none;stroke-width:0.10377798"
       d="m 124.35273,119.13524 h -0.11623 l -0.10222,0.0291 -0.0306,0.10378 v 0.22416 l 0.0306,0.10377 0.10222,0.0291 h 0.11623 l 0.10377,-0.0291 0.029,-0.10376 v -0.22416 l -0.029,-0.10378 -0.10377,-0.0291 v 0" />
    <path
       inkscape:connector-curvature="0"
       id="path867"
       d="m 126.01121,116.70849 -0.45544,0.0835 -0.17047,0.10925 -0.13337,0.15628 -0.16579,0.46192 -0.0504,0.67355 0.0504,0.67354 0.16579,0.46173 0.13337,0.15628 0.17047,0.10945 0.45544,0.0835 v -0.31985 l -0.29106,-0.0614 -0.19316,-0.20249 -0.10358,-0.36139 -0.0309,-0.53937 0.0309,-0.53956 0.10358,-0.3612 0.19316,-0.20268 0.29106,-0.0612 z"
       style="font-style:normal;font-variant:normal;font-weight:normal;font-stretch:normal;font-size:medium;line-height:1.25;font-family:'Exo 2';-inkscape-font-specification:'Exo 2, ';letter-spacing:0px;word-spacing:0px;fill:#000000;fill-opacity:1;stroke:none;stroke-width:0.10377798" />
    <path
       inkscape:connector-curvature="0"
       id="path869"
       d="m 126.01121,116.70849 v 0.31984 l 0.008,-0.002 0.29998,0.0631 0.19437,0.20269 0.105,0.3612 0.0316,0.53956 -0.0316,0.53936 -0.105,0.3614 -0.19437,0.20249 -0.29998,0.0632 -0.008,-0.001 v 0.31985 l 0.008,0.001 0.46598,-0.0851 0.17128,-0.10945 0.13377,-0.15627 0.16641,-0.46174 0.0504,-0.67354 -0.0504,-0.67355 -0.16641,-0.46192 -0.13377,-0.15628 -0.17128,-0.10925 -0.46598,-0.0851 z"
       style="font-style:normal;font-variant:normal;font-weight:normal;font-stretch:normal;font-size:medium;line-height:1.25;font-family:'Exo 2';-inkscape-font-specification:'Exo 2, ';letter-spacing:0px;word-spacing:0px;fill:#000000;fill-opacity:1;stroke:none;stroke-width:0.10377798" />
  </g>
</svg>
