M48
INCH,TZ
T10C0.055
T11C0.020
%
T10
X029750Y008800
X006200Y002000
X009050Y002000
X011900Y002000
X014750Y002000
X017600Y002000
X020450Y002000
X023300Y002000
X026150Y002000
X029000Y002000
X029750Y010800
X005850Y012250
X005850Y010250
X005850Y008300
T11
X011500Y010900
X015450Y010900
X014050Y010900
X015900Y010900
X016900Y010900
X017350Y010900
X018650Y010850
X026150Y011450
X010750Y007750
X011200Y007750
X010750Y007300
X011200Y007300
X008700Y007250
X017300Y007850
X017750Y007850
X018200Y007850
X017250Y012100
X008700Y008150
X008250Y007250
X014950Y007700
X014950Y007250
X014500Y007700
X014500Y007250
X014950Y006800
X014500Y006800
X014050Y006800
X014050Y007250
X007200Y005000
X006750Y004550
X006750Y004100
X007200Y004550
X007200Y004100
X007650Y005000
X008100Y005000
X008550Y005000
X007650Y004550
X008100Y004550
X008550Y004550
X008550Y004100
X007650Y004100
X008100Y004100
X009600Y005000
X010050Y005000
X009600Y004550
X009600Y004100
X010050Y004550
X010050Y004100
X010500Y005000
X010950Y005000
X011400Y005000
X010500Y004550
X010950Y004550
X011400Y004550
X011400Y004100
X010500Y004100
X010950Y004100
X012450Y005000
X012900Y005000
X012450Y004550
X012450Y004100
X012900Y004550
X012900Y004100
X013350Y005000
X013800Y005000
X014250Y005000
X013350Y004550
X013800Y004550
X014250Y004550
X014250Y004100
X013350Y004100
X013800Y004100
X015300Y005000
X015750Y005000
X015300Y004550
X015300Y004100
X015750Y004550
X015750Y004100
X016200Y005000
X016650Y005000
X017100Y005000
X016200Y004550
X016650Y004550
X017100Y004550
X017100Y004100
X016200Y004100
X016650Y004100
X018150Y005000
X018600Y005000
X018150Y004550
X018150Y004100
X018600Y004550
X018600Y004100
X019050Y005000
X019500Y005000
X019950Y005000
X019050Y004550
X019500Y004550
X019950Y004550
X019950Y004100
X019050Y004100
X019500Y004100
X021000Y005000
X021450Y005000
X021000Y004550
X021000Y004100
X021450Y004550
X021450Y004100
X021900Y005000
X022350Y005000
X022800Y005000
X021900Y004550
X022350Y004550
X022800Y004550
X022800Y004100
X021900Y004100
X022350Y004100
X023850Y005000
X024300Y005000
X023850Y004550
X023850Y004100
X024300Y004550
X024300Y004100
X024750Y005000
X025200Y005000
X025650Y005000
X024750Y004550
X025200Y004550
X025650Y004550
X025650Y004100
X024750Y004100
X025200Y004100
X026700Y005000
X027150Y005000
X026700Y004550
X026700Y004100
X027150Y004550
X027150Y004100
X027600Y005000
X028050Y005000
X028500Y005000
X027600Y004550
X028050Y004550
X028500Y004550
X028500Y004100
X027600Y004100
X028050Y004100
X029550Y005000
X030000Y005000
X029550Y004550
X030000Y004550
X030000Y004100
X029550Y004100
X005700Y004950
X005700Y004500
X005700Y004050
X025600Y010900
X026150Y010900
X026700Y010900
X027250Y010900
X012550Y010900
X011850Y010300
X022750Y012650
X012050Y012650
X007150Y011050
X007000Y013000
X020400Y007650
X020400Y007200
X006750Y005000
X019950Y007250
X019500Y007250
X023350Y006550
X022850Y006550
X022350Y006550
X022350Y007000
X022850Y007000
X026150Y007300
X025700Y007300
X025250Y007300
X025250Y007800
X027950Y007050
X028400Y006850
X022350Y007450
X010400Y010900
X009850Y010900
X007200Y009200
X020750Y010850
X020250Y010850
X019700Y010850
X019150Y010850
X021400Y009600
X022100Y010850
X014700Y009650
X007750Y008600
X008500Y009500
X018100Y009550
X024750Y009400
X014150Y009250
X019950Y007650
X014150Y009750
X009441Y006467
X014154Y008754
X012400Y006367
X015250Y009350
X018000Y006500
X017400Y006500
X015250Y008850
X015300Y009850
X018950Y006500
X022050Y009200
X026450Y006450
X022050Y008700
X023950Y006450
X022050Y009700
X027900Y006450
X012000Y010900
X013550Y010900
X009150Y007700
X009900Y007750
X008700Y007700
X009150Y007250
X027050Y007300
X027950Y007500
X027600Y007900
X026700Y011450
X010950Y010900
X016100Y012600
X021000Y012650
X010450Y006467
M30

