M48
;GenerationSoftware,Autodesk,EAGLE,9.4.2*%
;CreationDate,2019-08-31T10:04:10Z*%
FMAT,2
ICI,OFF
METRIC,TZ,000.000
T2C0.500
T1C1.397
%
G90
M71
T1
X21082Y1651
X38862Y2794
X38862Y10033
X38862Y17272
X21844Y18288
X17145Y18288
X16510Y1651
T2
X24003Y2921
X25908Y16637
X11049Y508
X15113Y14097
X33782Y16002
X31242Y14732
X32512Y14732
X33782Y14732
X31242Y5334
X32512Y5334
X33782Y5334
X31242Y4064
X32512Y4064
X33782Y4064
X31242Y8763
X32512Y8763
X33782Y8763
X31242Y7493
X32512Y7493
X33782Y7493
X31242Y12573
X32512Y12573
X33782Y12573
X31242Y11303
X32512Y11303
X33782Y11303
X31242Y1524
X32512Y1524
X33782Y1524
X31242Y254
X32512Y254
X33782Y254
X23114Y3937
X23622Y13208
X24765Y13208
X24765Y14351
X23749Y11049
X15113Y10160
X13716Y10160
X15113Y12827
X20828Y6604
X26543Y6858
X19558Y6731
X25527Y7620
X18161Y6731
X15113Y11430
X13716Y8890
X31242Y16002
X32512Y16002
X13716Y11430
X25273Y11049
X23622Y14351
X26754Y13993
M30