G04 EAGLE Gerber RS-274X export*
G75*
%MOMM*%
%FSLAX34Y34*%
%LPD*%
%INBottom Copper*%
%IPPOS*%
%AMOC8*
5,1,8,0,0,1.08239X$1,22.5*%
G01*
%ADD10P,4.123906X8X202.500000*%
%ADD11P,4.123906X8X22.500000*%
%ADD12C,0.906400*%
%ADD13C,0.609600*%

G36*
X774535Y286455D02*
X774535Y286455D01*
X774674Y286468D01*
X774812Y286477D01*
X774831Y286483D01*
X774851Y286485D01*
X774983Y286532D01*
X775114Y286575D01*
X775132Y286586D01*
X775151Y286593D01*
X775266Y286671D01*
X775383Y286745D01*
X775397Y286760D01*
X775414Y286771D01*
X775506Y286876D01*
X775601Y286977D01*
X775611Y286994D01*
X775624Y287010D01*
X775688Y287134D01*
X775755Y287255D01*
X775760Y287275D01*
X775769Y287293D01*
X775799Y287429D01*
X775834Y287563D01*
X775836Y287591D01*
X775839Y287603D01*
X775838Y287624D01*
X775844Y287724D01*
X775844Y340895D01*
X775829Y341013D01*
X775822Y341132D01*
X775809Y341170D01*
X775804Y341211D01*
X775761Y341321D01*
X775724Y341434D01*
X775702Y341469D01*
X775687Y341506D01*
X775618Y341602D01*
X775554Y341703D01*
X775524Y341731D01*
X775501Y341764D01*
X775409Y341840D01*
X775322Y341921D01*
X775287Y341941D01*
X775256Y341966D01*
X775148Y342017D01*
X775044Y342075D01*
X775004Y342085D01*
X774968Y342102D01*
X774851Y342124D01*
X774736Y342154D01*
X774676Y342158D01*
X774656Y342162D01*
X774635Y342160D01*
X774575Y342164D01*
X130810Y342164D01*
X130692Y342149D01*
X130573Y342142D01*
X130535Y342129D01*
X130494Y342124D01*
X130384Y342081D01*
X130271Y342044D01*
X130236Y342022D01*
X130199Y342007D01*
X130103Y341938D01*
X130002Y341874D01*
X129974Y341844D01*
X129941Y341821D01*
X129865Y341729D01*
X129784Y341642D01*
X129764Y341607D01*
X129739Y341576D01*
X129688Y341468D01*
X129630Y341364D01*
X129620Y341324D01*
X129603Y341288D01*
X129581Y341171D01*
X129551Y341056D01*
X129547Y340996D01*
X129543Y340976D01*
X129545Y340955D01*
X129541Y340895D01*
X129541Y325699D01*
X129558Y325561D01*
X129571Y325423D01*
X129578Y325403D01*
X129581Y325383D01*
X129632Y325254D01*
X129679Y325123D01*
X129690Y325106D01*
X129698Y325088D01*
X129779Y324976D01*
X129857Y324860D01*
X129873Y324847D01*
X129884Y324830D01*
X129992Y324742D01*
X130096Y324650D01*
X130114Y324640D01*
X130129Y324627D01*
X130255Y324568D01*
X130379Y324505D01*
X130399Y324501D01*
X130417Y324492D01*
X130553Y324466D01*
X130689Y324435D01*
X130710Y324436D01*
X130729Y324432D01*
X130868Y324441D01*
X131007Y324445D01*
X131027Y324451D01*
X131047Y324452D01*
X131179Y324495D01*
X131313Y324533D01*
X131330Y324544D01*
X131349Y324550D01*
X131467Y324625D01*
X131587Y324695D01*
X131608Y324714D01*
X131618Y324720D01*
X131632Y324735D01*
X131707Y324801D01*
X139647Y332741D01*
X157533Y332741D01*
X170181Y320093D01*
X170181Y302207D01*
X157533Y289559D01*
X139647Y289559D01*
X131707Y297499D01*
X131598Y297584D01*
X131491Y297673D01*
X131472Y297681D01*
X131456Y297694D01*
X131328Y297749D01*
X131203Y297808D01*
X131183Y297812D01*
X131164Y297820D01*
X131026Y297842D01*
X130890Y297868D01*
X130870Y297867D01*
X130850Y297870D01*
X130711Y297857D01*
X130573Y297848D01*
X130554Y297842D01*
X130534Y297840D01*
X130402Y297793D01*
X130271Y297750D01*
X130253Y297739D01*
X130234Y297732D01*
X130119Y297654D01*
X130002Y297580D01*
X129988Y297565D01*
X129971Y297554D01*
X129879Y297449D01*
X129784Y297348D01*
X129774Y297331D01*
X129761Y297315D01*
X129697Y297191D01*
X129630Y297070D01*
X129625Y297050D01*
X129616Y297032D01*
X129586Y296896D01*
X129551Y296762D01*
X129549Y296734D01*
X129546Y296722D01*
X129547Y296701D01*
X129541Y296601D01*
X129541Y274899D01*
X129558Y274761D01*
X129571Y274623D01*
X129578Y274603D01*
X129581Y274583D01*
X129632Y274454D01*
X129679Y274323D01*
X129690Y274306D01*
X129698Y274288D01*
X129779Y274176D01*
X129857Y274060D01*
X129873Y274047D01*
X129884Y274030D01*
X129992Y273942D01*
X130096Y273850D01*
X130114Y273840D01*
X130129Y273827D01*
X130255Y273768D01*
X130379Y273705D01*
X130399Y273701D01*
X130417Y273692D01*
X130553Y273666D01*
X130689Y273635D01*
X130710Y273636D01*
X130729Y273632D01*
X130868Y273641D01*
X131007Y273645D01*
X131027Y273651D01*
X131047Y273652D01*
X131179Y273695D01*
X131313Y273733D01*
X131330Y273744D01*
X131349Y273750D01*
X131467Y273825D01*
X131587Y273895D01*
X131608Y273914D01*
X131618Y273920D01*
X131632Y273935D01*
X131707Y274001D01*
X139647Y281941D01*
X157533Y281941D01*
X170181Y269293D01*
X170181Y251407D01*
X157533Y238759D01*
X139647Y238759D01*
X131707Y246699D01*
X131598Y246784D01*
X131491Y246873D01*
X131472Y246881D01*
X131456Y246894D01*
X131328Y246949D01*
X131203Y247008D01*
X131183Y247012D01*
X131164Y247020D01*
X131026Y247042D01*
X130890Y247068D01*
X130870Y247067D01*
X130850Y247070D01*
X130711Y247057D01*
X130573Y247048D01*
X130554Y247042D01*
X130534Y247040D01*
X130402Y246993D01*
X130271Y246950D01*
X130253Y246939D01*
X130234Y246932D01*
X130119Y246854D01*
X130002Y246780D01*
X129988Y246765D01*
X129971Y246754D01*
X129879Y246649D01*
X129784Y246548D01*
X129774Y246531D01*
X129761Y246515D01*
X129697Y246391D01*
X129630Y246270D01*
X129625Y246250D01*
X129616Y246232D01*
X129586Y246096D01*
X129551Y245962D01*
X129549Y245934D01*
X129546Y245922D01*
X129547Y245901D01*
X129541Y245801D01*
X129541Y99060D01*
X129556Y98942D01*
X129563Y98823D01*
X129576Y98785D01*
X129581Y98744D01*
X129624Y98634D01*
X129661Y98521D01*
X129683Y98486D01*
X129698Y98449D01*
X129767Y98353D01*
X129831Y98252D01*
X129861Y98224D01*
X129884Y98191D01*
X129976Y98116D01*
X130063Y98034D01*
X130098Y98014D01*
X130129Y97989D01*
X130237Y97938D01*
X130341Y97880D01*
X130381Y97870D01*
X130417Y97853D01*
X130534Y97831D01*
X130649Y97801D01*
X130709Y97797D01*
X130729Y97793D01*
X130750Y97795D01*
X130810Y97791D01*
X774575Y97791D01*
X774693Y97806D01*
X774812Y97813D01*
X774850Y97826D01*
X774891Y97831D01*
X775001Y97874D01*
X775114Y97911D01*
X775149Y97933D01*
X775186Y97948D01*
X775282Y98017D01*
X775383Y98081D01*
X775411Y98111D01*
X775444Y98134D01*
X775520Y98226D01*
X775601Y98313D01*
X775621Y98348D01*
X775646Y98379D01*
X775697Y98487D01*
X775755Y98591D01*
X775765Y98631D01*
X775782Y98667D01*
X775804Y98784D01*
X775834Y98899D01*
X775838Y98959D01*
X775842Y98979D01*
X775840Y99000D01*
X775844Y99060D01*
X775844Y260916D01*
X775827Y261054D01*
X775814Y261192D01*
X775807Y261212D01*
X775804Y261232D01*
X775753Y261361D01*
X775706Y261492D01*
X775695Y261509D01*
X775687Y261527D01*
X775606Y261639D01*
X775528Y261755D01*
X775512Y261768D01*
X775501Y261785D01*
X775393Y261873D01*
X775289Y261965D01*
X775271Y261975D01*
X775256Y261988D01*
X775130Y262047D01*
X775006Y262110D01*
X774986Y262114D01*
X774968Y262123D01*
X774832Y262149D01*
X774696Y262180D01*
X774675Y262179D01*
X774656Y262183D01*
X774517Y262174D01*
X774378Y262170D01*
X774358Y262164D01*
X774338Y262163D01*
X774206Y262120D01*
X774072Y262082D01*
X774055Y262071D01*
X774036Y262065D01*
X773918Y261990D01*
X773798Y261920D01*
X773777Y261901D01*
X773767Y261895D01*
X773753Y261880D01*
X773678Y261814D01*
X764593Y252729D01*
X746707Y252729D01*
X734059Y265377D01*
X734059Y283263D01*
X746707Y295911D01*
X764593Y295911D01*
X773678Y286826D01*
X773787Y286741D01*
X773894Y286652D01*
X773913Y286644D01*
X773929Y286631D01*
X774057Y286576D01*
X774182Y286517D01*
X774202Y286513D01*
X774221Y286505D01*
X774359Y286483D01*
X774495Y286457D01*
X774515Y286458D01*
X774535Y286455D01*
G37*
%LPC*%
G36*
X688641Y169419D02*
X688641Y169419D01*
X703721Y169419D01*
X703819Y169431D01*
X703918Y169434D01*
X703976Y169451D01*
X704036Y169459D01*
X704128Y169495D01*
X704223Y169523D01*
X704276Y169553D01*
X704332Y169576D01*
X704412Y169634D01*
X704497Y169684D01*
X704573Y169750D01*
X704589Y169762D01*
X704597Y169772D01*
X704618Y169790D01*
X704654Y169826D01*
X707253Y170903D01*
X710067Y170903D01*
X712666Y169826D01*
X714656Y167836D01*
X715733Y165237D01*
X715733Y162423D01*
X714656Y159824D01*
X712666Y157834D01*
X710067Y156757D01*
X707253Y156757D01*
X704654Y157834D01*
X704618Y157870D01*
X704540Y157930D01*
X704468Y157998D01*
X704415Y158027D01*
X704367Y158064D01*
X704276Y158104D01*
X704189Y158152D01*
X704131Y158167D01*
X704075Y158191D01*
X703977Y158206D01*
X703881Y158231D01*
X703781Y158237D01*
X703761Y158241D01*
X703749Y158239D01*
X703721Y158241D01*
X684688Y158241D01*
X682634Y159092D01*
X680884Y160843D01*
X680363Y161363D01*
X680324Y161394D01*
X680291Y161430D01*
X680199Y161491D01*
X680112Y161558D01*
X680066Y161578D01*
X680025Y161605D01*
X679921Y161641D01*
X679820Y161684D01*
X679771Y161692D01*
X679724Y161708D01*
X679615Y161717D01*
X679506Y161734D01*
X679457Y161730D01*
X679407Y161734D01*
X679299Y161715D01*
X679189Y161704D01*
X679143Y161688D01*
X679094Y161679D01*
X678993Y161634D01*
X678890Y161597D01*
X678849Y161569D01*
X678804Y161549D01*
X678718Y161480D01*
X678627Y161418D01*
X678594Y161381D01*
X678555Y161350D01*
X678489Y161262D01*
X678417Y161180D01*
X678394Y161136D01*
X678364Y161096D01*
X678293Y160951D01*
X677826Y159824D01*
X675836Y157834D01*
X673237Y156757D01*
X670423Y156757D01*
X667824Y157834D01*
X667788Y157870D01*
X667710Y157930D01*
X667638Y157998D01*
X667585Y158027D01*
X667537Y158064D01*
X667446Y158104D01*
X667359Y158152D01*
X667301Y158167D01*
X667245Y158191D01*
X667147Y158206D01*
X667051Y158231D01*
X666951Y158237D01*
X666931Y158241D01*
X666919Y158239D01*
X666891Y158241D01*
X630078Y158241D01*
X628024Y159092D01*
X626274Y160843D01*
X616085Y171031D01*
X615976Y171116D01*
X615869Y171205D01*
X615850Y171213D01*
X615834Y171226D01*
X615706Y171281D01*
X615581Y171340D01*
X615561Y171344D01*
X615542Y171352D01*
X615404Y171374D01*
X615268Y171400D01*
X615248Y171399D01*
X615228Y171402D01*
X615089Y171389D01*
X614951Y171380D01*
X614932Y171374D01*
X614912Y171372D01*
X614780Y171325D01*
X614649Y171282D01*
X614631Y171271D01*
X614612Y171265D01*
X614497Y171187D01*
X614380Y171112D01*
X614366Y171097D01*
X614349Y171086D01*
X614257Y170982D01*
X614162Y170881D01*
X614152Y170863D01*
X614139Y170848D01*
X614075Y170723D01*
X614008Y170602D01*
X614003Y170582D01*
X613994Y170564D01*
X613964Y170429D01*
X613929Y170294D01*
X613927Y170266D01*
X613924Y170254D01*
X613925Y170234D01*
X613919Y170133D01*
X613919Y168769D01*
X613931Y168671D01*
X613934Y168572D01*
X613951Y168514D01*
X613959Y168454D01*
X613995Y168362D01*
X614023Y168267D01*
X614053Y168214D01*
X614076Y168158D01*
X614134Y168078D01*
X614184Y167993D01*
X614250Y167917D01*
X614262Y167901D01*
X614272Y167893D01*
X614290Y167872D01*
X614326Y167836D01*
X615403Y165237D01*
X615403Y162423D01*
X614326Y159824D01*
X612336Y157834D01*
X609737Y156757D01*
X606923Y156757D01*
X604324Y157834D01*
X602334Y159824D01*
X601257Y162423D01*
X601257Y165237D01*
X602334Y167836D01*
X602370Y167872D01*
X602430Y167950D01*
X602470Y167993D01*
X602498Y168022D01*
X602527Y168075D01*
X602564Y168123D01*
X602604Y168214D01*
X602652Y168301D01*
X602667Y168359D01*
X602691Y168415D01*
X602706Y168513D01*
X602731Y168609D01*
X602737Y168709D01*
X602741Y168729D01*
X602739Y168741D01*
X602741Y168769D01*
X602741Y169879D01*
X602729Y169978D01*
X602726Y170077D01*
X602709Y170135D01*
X602701Y170195D01*
X602665Y170287D01*
X602637Y170382D01*
X602607Y170434D01*
X602584Y170491D01*
X602526Y170571D01*
X602476Y170656D01*
X602410Y170731D01*
X602398Y170748D01*
X602388Y170756D01*
X602370Y170777D01*
X559611Y213536D01*
X559533Y213596D01*
X559460Y213664D01*
X559407Y213693D01*
X559360Y213730D01*
X559269Y213770D01*
X559182Y213818D01*
X559123Y213833D01*
X559068Y213857D01*
X558970Y213872D01*
X558874Y213897D01*
X558774Y213903D01*
X558754Y213907D01*
X558741Y213905D01*
X558713Y213907D01*
X558663Y213907D01*
X556064Y214984D01*
X554074Y216974D01*
X552997Y219573D01*
X552997Y222387D01*
X554074Y224986D01*
X555520Y226433D01*
X555593Y226527D01*
X555672Y226616D01*
X555690Y226652D01*
X555715Y226684D01*
X555762Y226793D01*
X555817Y226899D01*
X555825Y226938D01*
X555841Y226976D01*
X555860Y227093D01*
X555886Y227209D01*
X555885Y227250D01*
X555891Y227290D01*
X555880Y227408D01*
X555877Y227527D01*
X555865Y227566D01*
X555861Y227606D01*
X555821Y227718D01*
X555788Y227833D01*
X555768Y227868D01*
X555754Y227906D01*
X555687Y228004D01*
X555627Y228107D01*
X555587Y228152D01*
X555575Y228169D01*
X555560Y228182D01*
X555520Y228228D01*
X554074Y229674D01*
X552997Y232273D01*
X552997Y235087D01*
X554074Y237686D01*
X555520Y239132D01*
X555593Y239227D01*
X555672Y239316D01*
X555690Y239352D01*
X555715Y239384D01*
X555762Y239493D01*
X555817Y239599D01*
X555825Y239638D01*
X555841Y239676D01*
X555860Y239793D01*
X555886Y239909D01*
X555885Y239950D01*
X555891Y239990D01*
X555880Y240108D01*
X555877Y240227D01*
X555865Y240266D01*
X555861Y240306D01*
X555821Y240419D01*
X555788Y240533D01*
X555768Y240567D01*
X555754Y240606D01*
X555687Y240704D01*
X555627Y240807D01*
X555587Y240852D01*
X555575Y240869D01*
X555560Y240882D01*
X555520Y240927D01*
X554074Y242374D01*
X552997Y244973D01*
X552997Y247787D01*
X554074Y250386D01*
X556064Y252376D01*
X558663Y253453D01*
X561477Y253453D01*
X564076Y252376D01*
X564844Y251608D01*
X564851Y251603D01*
X564857Y251596D01*
X564976Y251506D01*
X565095Y251414D01*
X565104Y251410D01*
X565111Y251404D01*
X565256Y251333D01*
X565776Y251118D01*
X637157Y179736D01*
X637235Y179676D01*
X637308Y179608D01*
X637361Y179579D01*
X637408Y179542D01*
X637499Y179502D01*
X637586Y179454D01*
X637645Y179439D01*
X637700Y179415D01*
X637798Y179400D01*
X637894Y179375D01*
X637994Y179369D01*
X638014Y179365D01*
X638027Y179367D01*
X638055Y179365D01*
X676966Y179365D01*
X679020Y178514D01*
X687743Y169790D01*
X687821Y169730D01*
X687894Y169662D01*
X687947Y169633D01*
X687994Y169596D01*
X688085Y169556D01*
X688172Y169508D01*
X688231Y169493D01*
X688286Y169469D01*
X688384Y169454D01*
X688480Y169429D01*
X688580Y169423D01*
X688600Y169419D01*
X688613Y169421D01*
X688641Y169419D01*
G37*
%LPD*%
%LPC*%
G36*
X313553Y154647D02*
X313553Y154647D01*
X310954Y155724D01*
X308964Y157714D01*
X307930Y160210D01*
X307906Y160253D01*
X307889Y160300D01*
X307827Y160390D01*
X307773Y160486D01*
X307738Y160522D01*
X307710Y160563D01*
X307628Y160635D01*
X307551Y160714D01*
X307509Y160740D01*
X307472Y160773D01*
X307374Y160823D01*
X307280Y160880D01*
X307233Y160895D01*
X307188Y160918D01*
X307081Y160942D01*
X306976Y160974D01*
X306927Y160976D01*
X306878Y160987D01*
X306768Y160984D01*
X306659Y160989D01*
X306610Y160979D01*
X306560Y160978D01*
X306455Y160947D01*
X306347Y160925D01*
X306302Y160903D01*
X306255Y160889D01*
X306160Y160834D01*
X306061Y160785D01*
X306024Y160753D01*
X305981Y160728D01*
X305860Y160621D01*
X304761Y159522D01*
X302707Y158671D01*
X270369Y158671D01*
X270271Y158659D01*
X270172Y158656D01*
X270114Y158639D01*
X270054Y158631D01*
X269962Y158595D01*
X269867Y158567D01*
X269814Y158537D01*
X269758Y158514D01*
X269678Y158456D01*
X269593Y158406D01*
X269517Y158340D01*
X269501Y158328D01*
X269493Y158318D01*
X269472Y158300D01*
X269436Y158264D01*
X266837Y157187D01*
X264023Y157187D01*
X261424Y158264D01*
X259434Y160254D01*
X258900Y161544D01*
X258875Y161587D01*
X258858Y161634D01*
X258796Y161725D01*
X258742Y161820D01*
X258707Y161856D01*
X258680Y161897D01*
X258597Y161970D01*
X258521Y162049D01*
X258478Y162075D01*
X258441Y162108D01*
X258343Y162158D01*
X258250Y162215D01*
X258202Y162230D01*
X258158Y162252D01*
X258051Y162276D01*
X257946Y162309D01*
X257896Y162311D01*
X257848Y162322D01*
X257738Y162318D01*
X257628Y162324D01*
X257579Y162314D01*
X257530Y162312D01*
X257424Y162282D01*
X257317Y162259D01*
X257272Y162237D01*
X257224Y162224D01*
X257130Y162168D01*
X257031Y162120D01*
X256993Y162087D01*
X256950Y162062D01*
X256829Y161956D01*
X254396Y159522D01*
X252342Y158671D01*
X244739Y158671D01*
X244641Y158659D01*
X244542Y158656D01*
X244484Y158639D01*
X244424Y158631D01*
X244332Y158595D01*
X244237Y158567D01*
X244184Y158537D01*
X244128Y158514D01*
X244048Y158456D01*
X243963Y158406D01*
X243887Y158340D01*
X243871Y158328D01*
X243863Y158318D01*
X243842Y158300D01*
X243806Y158264D01*
X241207Y157187D01*
X238393Y157187D01*
X235794Y158264D01*
X233804Y160254D01*
X232727Y162853D01*
X232727Y165667D01*
X233804Y168266D01*
X235794Y170256D01*
X238393Y171333D01*
X241207Y171333D01*
X243806Y170256D01*
X243842Y170220D01*
X243920Y170160D01*
X243992Y170092D01*
X244045Y170063D01*
X244093Y170026D01*
X244184Y169986D01*
X244271Y169938D01*
X244329Y169923D01*
X244385Y169899D01*
X244483Y169884D01*
X244579Y169859D01*
X244679Y169853D01*
X244699Y169849D01*
X244711Y169851D01*
X244739Y169849D01*
X248389Y169849D01*
X248488Y169861D01*
X248587Y169864D01*
X248645Y169881D01*
X248705Y169889D01*
X248797Y169925D01*
X248892Y169953D01*
X248944Y169983D01*
X249001Y170006D01*
X249081Y170064D01*
X249166Y170114D01*
X249241Y170180D01*
X249258Y170192D01*
X249266Y170202D01*
X249287Y170220D01*
X258224Y179158D01*
X260278Y180009D01*
X293499Y180009D01*
X293598Y180021D01*
X293697Y180024D01*
X293755Y180041D01*
X293815Y180049D01*
X293907Y180085D01*
X294002Y180113D01*
X294054Y180143D01*
X294111Y180166D01*
X294191Y180224D01*
X294276Y180274D01*
X294351Y180340D01*
X294368Y180352D01*
X294376Y180362D01*
X294397Y180380D01*
X332916Y218899D01*
X332976Y218977D01*
X333044Y219050D01*
X333073Y219103D01*
X333110Y219150D01*
X333150Y219241D01*
X333198Y219328D01*
X333213Y219387D01*
X333237Y219442D01*
X333252Y219540D01*
X333277Y219636D01*
X333283Y219736D01*
X333287Y219756D01*
X333285Y219769D01*
X333287Y219797D01*
X333287Y230768D01*
X334138Y232822D01*
X353704Y252388D01*
X354224Y252603D01*
X354232Y252608D01*
X354241Y252611D01*
X354371Y252687D01*
X354501Y252761D01*
X354507Y252767D01*
X354515Y252772D01*
X354636Y252878D01*
X355404Y253646D01*
X358003Y254723D01*
X360817Y254723D01*
X363416Y253646D01*
X365406Y251656D01*
X366483Y249057D01*
X366483Y246243D01*
X365406Y243644D01*
X363960Y242197D01*
X363887Y242103D01*
X363808Y242014D01*
X363790Y241978D01*
X363765Y241946D01*
X363718Y241837D01*
X363663Y241731D01*
X363655Y241692D01*
X363639Y241654D01*
X363620Y241537D01*
X363594Y241421D01*
X363595Y241380D01*
X363589Y241340D01*
X363600Y241222D01*
X363603Y241103D01*
X363615Y241064D01*
X363619Y241024D01*
X363659Y240912D01*
X363692Y240797D01*
X363712Y240762D01*
X363726Y240724D01*
X363793Y240626D01*
X363853Y240523D01*
X363893Y240478D01*
X363905Y240461D01*
X363920Y240448D01*
X363960Y240402D01*
X365406Y238956D01*
X366483Y236357D01*
X366483Y233543D01*
X365406Y230944D01*
X364047Y229585D01*
X363974Y229491D01*
X363896Y229402D01*
X363877Y229366D01*
X363852Y229334D01*
X363805Y229225D01*
X363751Y229119D01*
X363742Y229079D01*
X363726Y229042D01*
X363707Y228924D01*
X363681Y228808D01*
X363683Y228768D01*
X363676Y228728D01*
X363687Y228609D01*
X363691Y228490D01*
X363702Y228451D01*
X363706Y228411D01*
X363746Y228299D01*
X363779Y228185D01*
X363800Y228150D01*
X363814Y228112D01*
X363880Y228013D01*
X363941Y227911D01*
X363981Y227866D01*
X363992Y227849D01*
X364007Y227835D01*
X364047Y227790D01*
X365494Y226344D01*
X366570Y223744D01*
X366570Y220931D01*
X365494Y218331D01*
X365458Y218296D01*
X365397Y218217D01*
X365329Y218145D01*
X365300Y218092D01*
X365263Y218044D01*
X365224Y217953D01*
X365176Y217867D01*
X365161Y217808D01*
X365137Y217753D01*
X365121Y217655D01*
X365096Y217559D01*
X365090Y217459D01*
X365087Y217438D01*
X365088Y217426D01*
X365086Y217398D01*
X365086Y205146D01*
X364235Y203092D01*
X322404Y161261D01*
X322344Y161183D01*
X322276Y161110D01*
X322247Y161057D01*
X322210Y161010D01*
X322170Y160919D01*
X322122Y160832D01*
X322107Y160773D01*
X322083Y160718D01*
X322068Y160620D01*
X322043Y160524D01*
X322037Y160424D01*
X322033Y160404D01*
X322035Y160391D01*
X322033Y160363D01*
X322033Y160313D01*
X320956Y157714D01*
X318966Y155724D01*
X316367Y154647D01*
X313553Y154647D01*
G37*
%LPD*%
G36*
X772278Y31766D02*
X772278Y31766D01*
X772397Y31773D01*
X772435Y31786D01*
X772476Y31791D01*
X772586Y31834D01*
X772699Y31871D01*
X772734Y31893D01*
X772771Y31908D01*
X772867Y31978D01*
X772968Y32041D01*
X772996Y32071D01*
X773029Y32094D01*
X773105Y32186D01*
X773186Y32273D01*
X773206Y32308D01*
X773231Y32339D01*
X773282Y32447D01*
X773340Y32551D01*
X773350Y32591D01*
X773367Y32627D01*
X773389Y32744D01*
X773419Y32859D01*
X773423Y32920D01*
X773427Y32940D01*
X773425Y32960D01*
X773429Y33020D01*
X773429Y92710D01*
X773414Y92828D01*
X773407Y92947D01*
X773394Y92985D01*
X773389Y93026D01*
X773346Y93136D01*
X773309Y93249D01*
X773287Y93284D01*
X773272Y93321D01*
X773203Y93417D01*
X773139Y93518D01*
X773109Y93546D01*
X773086Y93579D01*
X772994Y93655D01*
X772907Y93736D01*
X772872Y93756D01*
X772841Y93781D01*
X772733Y93832D01*
X772629Y93890D01*
X772589Y93900D01*
X772553Y93917D01*
X772436Y93939D01*
X772321Y93969D01*
X772261Y93973D01*
X772241Y93977D01*
X772220Y93975D01*
X772160Y93979D01*
X704850Y93979D01*
X704732Y93964D01*
X704613Y93957D01*
X704575Y93944D01*
X704534Y93939D01*
X704424Y93896D01*
X704311Y93859D01*
X704276Y93837D01*
X704239Y93822D01*
X704143Y93753D01*
X704042Y93689D01*
X704014Y93659D01*
X703981Y93636D01*
X703906Y93544D01*
X703824Y93457D01*
X703804Y93422D01*
X703779Y93391D01*
X703728Y93283D01*
X703670Y93179D01*
X703660Y93139D01*
X703643Y93103D01*
X703621Y92986D01*
X703591Y92871D01*
X703587Y92811D01*
X703583Y92791D01*
X703585Y92770D01*
X703584Y92758D01*
X703583Y92755D01*
X703583Y92753D01*
X703581Y92710D01*
X703581Y33020D01*
X703596Y32902D01*
X703603Y32783D01*
X703616Y32745D01*
X703621Y32704D01*
X703664Y32594D01*
X703701Y32481D01*
X703723Y32446D01*
X703738Y32409D01*
X703808Y32313D01*
X703871Y32212D01*
X703901Y32184D01*
X703924Y32151D01*
X704016Y32076D01*
X704103Y31994D01*
X704138Y31974D01*
X704169Y31949D01*
X704277Y31898D01*
X704381Y31840D01*
X704421Y31830D01*
X704457Y31813D01*
X704574Y31791D01*
X704689Y31761D01*
X704750Y31757D01*
X704770Y31753D01*
X704790Y31755D01*
X704850Y31751D01*
X772160Y31751D01*
X772278Y31766D01*
G37*
G36*
X478908Y31766D02*
X478908Y31766D01*
X479027Y31773D01*
X479065Y31786D01*
X479106Y31791D01*
X479216Y31834D01*
X479329Y31871D01*
X479364Y31893D01*
X479401Y31908D01*
X479497Y31978D01*
X479598Y32041D01*
X479626Y32071D01*
X479659Y32094D01*
X479735Y32186D01*
X479816Y32273D01*
X479836Y32308D01*
X479861Y32339D01*
X479912Y32447D01*
X479970Y32551D01*
X479980Y32591D01*
X479997Y32627D01*
X480019Y32744D01*
X480049Y32859D01*
X480053Y32920D01*
X480057Y32940D01*
X480055Y32960D01*
X480059Y33020D01*
X480059Y92710D01*
X480044Y92828D01*
X480037Y92947D01*
X480024Y92985D01*
X480019Y93026D01*
X479976Y93136D01*
X479939Y93249D01*
X479917Y93284D01*
X479902Y93321D01*
X479833Y93417D01*
X479769Y93518D01*
X479739Y93546D01*
X479716Y93579D01*
X479624Y93655D01*
X479537Y93736D01*
X479502Y93756D01*
X479471Y93781D01*
X479363Y93832D01*
X479259Y93890D01*
X479219Y93900D01*
X479183Y93917D01*
X479066Y93939D01*
X478951Y93969D01*
X478891Y93973D01*
X478871Y93977D01*
X478850Y93975D01*
X478790Y93979D01*
X415290Y93979D01*
X415172Y93964D01*
X415053Y93957D01*
X415015Y93944D01*
X414974Y93939D01*
X414864Y93896D01*
X414751Y93859D01*
X414716Y93837D01*
X414679Y93822D01*
X414583Y93753D01*
X414482Y93689D01*
X414454Y93659D01*
X414421Y93636D01*
X414346Y93544D01*
X414264Y93457D01*
X414244Y93422D01*
X414219Y93391D01*
X414168Y93283D01*
X414110Y93179D01*
X414100Y93139D01*
X414083Y93103D01*
X414061Y92986D01*
X414031Y92871D01*
X414027Y92811D01*
X414023Y92791D01*
X414025Y92770D01*
X414024Y92758D01*
X414023Y92755D01*
X414023Y92753D01*
X414021Y92710D01*
X414021Y33020D01*
X414036Y32902D01*
X414043Y32783D01*
X414056Y32745D01*
X414061Y32704D01*
X414104Y32594D01*
X414141Y32481D01*
X414163Y32446D01*
X414178Y32409D01*
X414248Y32313D01*
X414311Y32212D01*
X414341Y32184D01*
X414364Y32151D01*
X414456Y32076D01*
X414543Y31994D01*
X414578Y31974D01*
X414609Y31949D01*
X414717Y31898D01*
X414821Y31840D01*
X414861Y31830D01*
X414897Y31813D01*
X415014Y31791D01*
X415129Y31761D01*
X415190Y31757D01*
X415210Y31753D01*
X415230Y31755D01*
X415290Y31751D01*
X478790Y31751D01*
X478908Y31766D01*
G37*
G36*
X551298Y31766D02*
X551298Y31766D01*
X551417Y31773D01*
X551455Y31786D01*
X551496Y31791D01*
X551606Y31834D01*
X551719Y31871D01*
X551754Y31893D01*
X551791Y31908D01*
X551887Y31978D01*
X551988Y32041D01*
X552016Y32071D01*
X552049Y32094D01*
X552125Y32186D01*
X552206Y32273D01*
X552226Y32308D01*
X552251Y32339D01*
X552302Y32447D01*
X552360Y32551D01*
X552370Y32591D01*
X552387Y32627D01*
X552409Y32744D01*
X552439Y32859D01*
X552443Y32920D01*
X552447Y32940D01*
X552445Y32960D01*
X552449Y33020D01*
X552449Y92710D01*
X552434Y92828D01*
X552427Y92947D01*
X552414Y92985D01*
X552409Y93026D01*
X552366Y93136D01*
X552329Y93249D01*
X552307Y93284D01*
X552292Y93321D01*
X552223Y93417D01*
X552159Y93518D01*
X552129Y93546D01*
X552106Y93579D01*
X552014Y93655D01*
X551927Y93736D01*
X551892Y93756D01*
X551861Y93781D01*
X551753Y93832D01*
X551649Y93890D01*
X551609Y93900D01*
X551573Y93917D01*
X551456Y93939D01*
X551341Y93969D01*
X551281Y93973D01*
X551261Y93977D01*
X551240Y93975D01*
X551180Y93979D01*
X487680Y93979D01*
X487562Y93964D01*
X487443Y93957D01*
X487405Y93944D01*
X487364Y93939D01*
X487254Y93896D01*
X487141Y93859D01*
X487106Y93837D01*
X487069Y93822D01*
X486973Y93753D01*
X486872Y93689D01*
X486844Y93659D01*
X486811Y93636D01*
X486736Y93544D01*
X486654Y93457D01*
X486634Y93422D01*
X486609Y93391D01*
X486558Y93283D01*
X486500Y93179D01*
X486490Y93139D01*
X486473Y93103D01*
X486451Y92986D01*
X486421Y92871D01*
X486417Y92811D01*
X486413Y92791D01*
X486415Y92770D01*
X486414Y92758D01*
X486413Y92755D01*
X486413Y92753D01*
X486411Y92710D01*
X486411Y33020D01*
X486426Y32902D01*
X486433Y32783D01*
X486446Y32745D01*
X486451Y32704D01*
X486494Y32594D01*
X486531Y32481D01*
X486553Y32446D01*
X486568Y32409D01*
X486638Y32313D01*
X486701Y32212D01*
X486731Y32184D01*
X486754Y32151D01*
X486846Y32076D01*
X486933Y31994D01*
X486968Y31974D01*
X486999Y31949D01*
X487107Y31898D01*
X487211Y31840D01*
X487251Y31830D01*
X487287Y31813D01*
X487404Y31791D01*
X487519Y31761D01*
X487580Y31757D01*
X487600Y31753D01*
X487620Y31755D01*
X487680Y31751D01*
X551180Y31751D01*
X551298Y31766D01*
G37*
G36*
X623688Y31766D02*
X623688Y31766D01*
X623807Y31773D01*
X623845Y31786D01*
X623886Y31791D01*
X623996Y31834D01*
X624109Y31871D01*
X624144Y31893D01*
X624181Y31908D01*
X624277Y31978D01*
X624378Y32041D01*
X624406Y32071D01*
X624439Y32094D01*
X624515Y32186D01*
X624596Y32273D01*
X624616Y32308D01*
X624641Y32339D01*
X624692Y32447D01*
X624750Y32551D01*
X624760Y32591D01*
X624777Y32627D01*
X624799Y32744D01*
X624829Y32859D01*
X624833Y32920D01*
X624837Y32940D01*
X624835Y32960D01*
X624839Y33020D01*
X624839Y92710D01*
X624824Y92828D01*
X624817Y92947D01*
X624804Y92985D01*
X624799Y93026D01*
X624756Y93136D01*
X624719Y93249D01*
X624697Y93284D01*
X624682Y93321D01*
X624613Y93417D01*
X624549Y93518D01*
X624519Y93546D01*
X624496Y93579D01*
X624404Y93655D01*
X624317Y93736D01*
X624282Y93756D01*
X624251Y93781D01*
X624143Y93832D01*
X624039Y93890D01*
X623999Y93900D01*
X623963Y93917D01*
X623846Y93939D01*
X623731Y93969D01*
X623671Y93973D01*
X623651Y93977D01*
X623630Y93975D01*
X623570Y93979D01*
X560070Y93979D01*
X559952Y93964D01*
X559833Y93957D01*
X559795Y93944D01*
X559754Y93939D01*
X559644Y93896D01*
X559531Y93859D01*
X559496Y93837D01*
X559459Y93822D01*
X559363Y93753D01*
X559262Y93689D01*
X559234Y93659D01*
X559201Y93636D01*
X559126Y93544D01*
X559044Y93457D01*
X559024Y93422D01*
X558999Y93391D01*
X558948Y93283D01*
X558890Y93179D01*
X558880Y93139D01*
X558863Y93103D01*
X558841Y92986D01*
X558811Y92871D01*
X558807Y92811D01*
X558803Y92791D01*
X558805Y92770D01*
X558804Y92758D01*
X558803Y92755D01*
X558803Y92753D01*
X558801Y92710D01*
X558801Y33020D01*
X558816Y32902D01*
X558823Y32783D01*
X558836Y32745D01*
X558841Y32704D01*
X558884Y32594D01*
X558921Y32481D01*
X558943Y32446D01*
X558958Y32409D01*
X559028Y32313D01*
X559091Y32212D01*
X559121Y32184D01*
X559144Y32151D01*
X559236Y32076D01*
X559323Y31994D01*
X559358Y31974D01*
X559389Y31949D01*
X559497Y31898D01*
X559601Y31840D01*
X559641Y31830D01*
X559677Y31813D01*
X559794Y31791D01*
X559909Y31761D01*
X559970Y31757D01*
X559990Y31753D01*
X560010Y31755D01*
X560070Y31751D01*
X623570Y31751D01*
X623688Y31766D01*
G37*
G36*
X261738Y31766D02*
X261738Y31766D01*
X261857Y31773D01*
X261895Y31786D01*
X261936Y31791D01*
X262046Y31834D01*
X262159Y31871D01*
X262194Y31893D01*
X262231Y31908D01*
X262327Y31978D01*
X262428Y32041D01*
X262456Y32071D01*
X262489Y32094D01*
X262565Y32186D01*
X262646Y32273D01*
X262666Y32308D01*
X262691Y32339D01*
X262742Y32447D01*
X262800Y32551D01*
X262810Y32591D01*
X262827Y32627D01*
X262849Y32744D01*
X262879Y32859D01*
X262883Y32920D01*
X262887Y32940D01*
X262885Y32960D01*
X262889Y33020D01*
X262889Y92710D01*
X262874Y92828D01*
X262867Y92947D01*
X262854Y92985D01*
X262849Y93026D01*
X262806Y93136D01*
X262769Y93249D01*
X262747Y93284D01*
X262732Y93321D01*
X262663Y93417D01*
X262599Y93518D01*
X262569Y93546D01*
X262546Y93579D01*
X262454Y93655D01*
X262367Y93736D01*
X262332Y93756D01*
X262301Y93781D01*
X262193Y93832D01*
X262089Y93890D01*
X262049Y93900D01*
X262013Y93917D01*
X261896Y93939D01*
X261781Y93969D01*
X261721Y93973D01*
X261701Y93977D01*
X261680Y93975D01*
X261620Y93979D01*
X198120Y93979D01*
X198002Y93964D01*
X197883Y93957D01*
X197845Y93944D01*
X197804Y93939D01*
X197694Y93896D01*
X197581Y93859D01*
X197546Y93837D01*
X197509Y93822D01*
X197413Y93753D01*
X197312Y93689D01*
X197284Y93659D01*
X197251Y93636D01*
X197176Y93544D01*
X197094Y93457D01*
X197074Y93422D01*
X197049Y93391D01*
X196998Y93283D01*
X196940Y93179D01*
X196930Y93139D01*
X196913Y93103D01*
X196891Y92986D01*
X196861Y92871D01*
X196857Y92811D01*
X196853Y92791D01*
X196855Y92770D01*
X196854Y92758D01*
X196853Y92755D01*
X196853Y92753D01*
X196851Y92710D01*
X196851Y33020D01*
X196866Y32902D01*
X196873Y32783D01*
X196886Y32745D01*
X196891Y32704D01*
X196934Y32594D01*
X196971Y32481D01*
X196993Y32446D01*
X197008Y32409D01*
X197078Y32313D01*
X197141Y32212D01*
X197171Y32184D01*
X197194Y32151D01*
X197286Y32076D01*
X197373Y31994D01*
X197408Y31974D01*
X197439Y31949D01*
X197547Y31898D01*
X197651Y31840D01*
X197691Y31830D01*
X197727Y31813D01*
X197844Y31791D01*
X197959Y31761D01*
X198020Y31757D01*
X198040Y31753D01*
X198060Y31755D01*
X198120Y31751D01*
X261620Y31751D01*
X261738Y31766D01*
G37*
G36*
X406518Y31766D02*
X406518Y31766D01*
X406637Y31773D01*
X406675Y31786D01*
X406716Y31791D01*
X406826Y31834D01*
X406939Y31871D01*
X406974Y31893D01*
X407011Y31908D01*
X407107Y31978D01*
X407208Y32041D01*
X407236Y32071D01*
X407269Y32094D01*
X407345Y32186D01*
X407426Y32273D01*
X407446Y32308D01*
X407471Y32339D01*
X407522Y32447D01*
X407580Y32551D01*
X407590Y32591D01*
X407607Y32627D01*
X407629Y32744D01*
X407659Y32859D01*
X407663Y32920D01*
X407667Y32940D01*
X407665Y32960D01*
X407669Y33020D01*
X407669Y92710D01*
X407654Y92828D01*
X407647Y92947D01*
X407634Y92985D01*
X407629Y93026D01*
X407586Y93136D01*
X407549Y93249D01*
X407527Y93284D01*
X407512Y93321D01*
X407443Y93417D01*
X407379Y93518D01*
X407349Y93546D01*
X407326Y93579D01*
X407234Y93655D01*
X407147Y93736D01*
X407112Y93756D01*
X407081Y93781D01*
X406973Y93832D01*
X406869Y93890D01*
X406829Y93900D01*
X406793Y93917D01*
X406676Y93939D01*
X406561Y93969D01*
X406501Y93973D01*
X406481Y93977D01*
X406460Y93975D01*
X406400Y93979D01*
X342900Y93979D01*
X342782Y93964D01*
X342663Y93957D01*
X342625Y93944D01*
X342584Y93939D01*
X342474Y93896D01*
X342361Y93859D01*
X342326Y93837D01*
X342289Y93822D01*
X342193Y93753D01*
X342092Y93689D01*
X342064Y93659D01*
X342031Y93636D01*
X341956Y93544D01*
X341874Y93457D01*
X341854Y93422D01*
X341829Y93391D01*
X341778Y93283D01*
X341720Y93179D01*
X341710Y93139D01*
X341693Y93103D01*
X341671Y92986D01*
X341641Y92871D01*
X341637Y92811D01*
X341633Y92791D01*
X341635Y92770D01*
X341634Y92758D01*
X341633Y92755D01*
X341633Y92753D01*
X341631Y92710D01*
X341631Y33020D01*
X341646Y32902D01*
X341653Y32783D01*
X341666Y32745D01*
X341671Y32704D01*
X341714Y32594D01*
X341751Y32481D01*
X341773Y32446D01*
X341788Y32409D01*
X341858Y32313D01*
X341921Y32212D01*
X341951Y32184D01*
X341974Y32151D01*
X342066Y32076D01*
X342153Y31994D01*
X342188Y31974D01*
X342219Y31949D01*
X342327Y31898D01*
X342431Y31840D01*
X342471Y31830D01*
X342507Y31813D01*
X342624Y31791D01*
X342739Y31761D01*
X342800Y31757D01*
X342820Y31753D01*
X342840Y31755D01*
X342900Y31751D01*
X406400Y31751D01*
X406518Y31766D01*
G37*
G36*
X696078Y31766D02*
X696078Y31766D01*
X696197Y31773D01*
X696235Y31786D01*
X696276Y31791D01*
X696386Y31834D01*
X696499Y31871D01*
X696534Y31893D01*
X696571Y31908D01*
X696667Y31978D01*
X696768Y32041D01*
X696796Y32071D01*
X696829Y32094D01*
X696905Y32186D01*
X696986Y32273D01*
X697006Y32308D01*
X697031Y32339D01*
X697082Y32447D01*
X697140Y32551D01*
X697150Y32591D01*
X697167Y32627D01*
X697189Y32744D01*
X697219Y32859D01*
X697223Y32920D01*
X697227Y32940D01*
X697225Y32960D01*
X697229Y33020D01*
X697229Y92710D01*
X697214Y92828D01*
X697207Y92947D01*
X697194Y92985D01*
X697189Y93026D01*
X697146Y93136D01*
X697109Y93249D01*
X697087Y93284D01*
X697072Y93321D01*
X697003Y93417D01*
X696939Y93518D01*
X696909Y93546D01*
X696886Y93579D01*
X696794Y93655D01*
X696707Y93736D01*
X696672Y93756D01*
X696641Y93781D01*
X696533Y93832D01*
X696429Y93890D01*
X696389Y93900D01*
X696353Y93917D01*
X696236Y93939D01*
X696121Y93969D01*
X696061Y93973D01*
X696041Y93977D01*
X696020Y93975D01*
X695960Y93979D01*
X632460Y93979D01*
X632342Y93964D01*
X632223Y93957D01*
X632185Y93944D01*
X632144Y93939D01*
X632034Y93896D01*
X631921Y93859D01*
X631886Y93837D01*
X631849Y93822D01*
X631753Y93753D01*
X631652Y93689D01*
X631624Y93659D01*
X631591Y93636D01*
X631516Y93544D01*
X631434Y93457D01*
X631414Y93422D01*
X631389Y93391D01*
X631338Y93283D01*
X631280Y93179D01*
X631270Y93139D01*
X631253Y93103D01*
X631231Y92986D01*
X631201Y92871D01*
X631197Y92811D01*
X631193Y92791D01*
X631195Y92770D01*
X631194Y92758D01*
X631193Y92755D01*
X631193Y92753D01*
X631191Y92710D01*
X631191Y33020D01*
X631206Y32902D01*
X631213Y32783D01*
X631226Y32745D01*
X631231Y32704D01*
X631274Y32594D01*
X631311Y32481D01*
X631333Y32446D01*
X631348Y32409D01*
X631418Y32313D01*
X631481Y32212D01*
X631511Y32184D01*
X631534Y32151D01*
X631626Y32076D01*
X631713Y31994D01*
X631748Y31974D01*
X631779Y31949D01*
X631887Y31898D01*
X631991Y31840D01*
X632031Y31830D01*
X632067Y31813D01*
X632184Y31791D01*
X632299Y31761D01*
X632360Y31757D01*
X632380Y31753D01*
X632400Y31755D01*
X632460Y31751D01*
X695960Y31751D01*
X696078Y31766D01*
G37*
G36*
X334128Y31766D02*
X334128Y31766D01*
X334247Y31773D01*
X334285Y31786D01*
X334326Y31791D01*
X334436Y31834D01*
X334549Y31871D01*
X334584Y31893D01*
X334621Y31908D01*
X334717Y31978D01*
X334818Y32041D01*
X334846Y32071D01*
X334879Y32094D01*
X334955Y32186D01*
X335036Y32273D01*
X335056Y32308D01*
X335081Y32339D01*
X335132Y32447D01*
X335190Y32551D01*
X335200Y32591D01*
X335217Y32627D01*
X335239Y32744D01*
X335269Y32859D01*
X335273Y32920D01*
X335277Y32940D01*
X335275Y32960D01*
X335279Y33020D01*
X335279Y92710D01*
X335264Y92828D01*
X335257Y92947D01*
X335244Y92985D01*
X335239Y93026D01*
X335196Y93136D01*
X335159Y93249D01*
X335137Y93284D01*
X335122Y93321D01*
X335053Y93417D01*
X334989Y93518D01*
X334959Y93546D01*
X334936Y93579D01*
X334844Y93655D01*
X334757Y93736D01*
X334722Y93756D01*
X334691Y93781D01*
X334583Y93832D01*
X334479Y93890D01*
X334439Y93900D01*
X334403Y93917D01*
X334286Y93939D01*
X334171Y93969D01*
X334111Y93973D01*
X334091Y93977D01*
X334070Y93975D01*
X334010Y93979D01*
X270510Y93979D01*
X270392Y93964D01*
X270273Y93957D01*
X270235Y93944D01*
X270194Y93939D01*
X270084Y93896D01*
X269971Y93859D01*
X269936Y93837D01*
X269899Y93822D01*
X269803Y93753D01*
X269702Y93689D01*
X269674Y93659D01*
X269641Y93636D01*
X269566Y93544D01*
X269484Y93457D01*
X269464Y93422D01*
X269439Y93391D01*
X269388Y93283D01*
X269330Y93179D01*
X269320Y93139D01*
X269303Y93103D01*
X269281Y92986D01*
X269251Y92871D01*
X269247Y92811D01*
X269243Y92791D01*
X269245Y92770D01*
X269244Y92758D01*
X269243Y92755D01*
X269243Y92753D01*
X269241Y92710D01*
X269241Y33020D01*
X269256Y32902D01*
X269263Y32783D01*
X269276Y32745D01*
X269281Y32704D01*
X269324Y32594D01*
X269361Y32481D01*
X269383Y32446D01*
X269398Y32409D01*
X269468Y32313D01*
X269531Y32212D01*
X269561Y32184D01*
X269584Y32151D01*
X269676Y32076D01*
X269763Y31994D01*
X269798Y31974D01*
X269829Y31949D01*
X269937Y31898D01*
X270041Y31840D01*
X270081Y31830D01*
X270117Y31813D01*
X270234Y31791D01*
X270349Y31761D01*
X270410Y31757D01*
X270430Y31753D01*
X270450Y31755D01*
X270510Y31751D01*
X334010Y31751D01*
X334128Y31766D01*
G37*
%LPC*%
G36*
X438626Y191009D02*
X438626Y191009D01*
X462122Y191009D01*
X464176Y190158D01*
X481789Y172544D01*
X481867Y172484D01*
X481940Y172416D01*
X481993Y172387D01*
X482040Y172350D01*
X482131Y172310D01*
X482218Y172262D01*
X482277Y172247D01*
X482332Y172223D01*
X482430Y172208D01*
X482526Y172183D01*
X482626Y172177D01*
X482646Y172173D01*
X482659Y172175D01*
X482687Y172173D01*
X482737Y172173D01*
X485336Y171096D01*
X487326Y169106D01*
X488403Y166507D01*
X488403Y163693D01*
X487326Y161094D01*
X485336Y159104D01*
X482737Y158027D01*
X479923Y158027D01*
X477324Y159104D01*
X475334Y161094D01*
X474257Y163693D01*
X474257Y163743D01*
X474245Y163842D01*
X474242Y163941D01*
X474225Y163999D01*
X474217Y164059D01*
X474181Y164151D01*
X474153Y164246D01*
X474123Y164298D01*
X474100Y164355D01*
X474042Y164435D01*
X473992Y164520D01*
X473926Y164595D01*
X473914Y164612D01*
X473904Y164620D01*
X473886Y164641D01*
X459067Y179460D01*
X458989Y179520D01*
X458916Y179588D01*
X458863Y179617D01*
X458816Y179654D01*
X458725Y179694D01*
X458638Y179742D01*
X458579Y179757D01*
X458524Y179781D01*
X458426Y179796D01*
X458330Y179821D01*
X458230Y179827D01*
X458210Y179831D01*
X458197Y179829D01*
X458169Y179831D01*
X453437Y179831D01*
X453299Y179814D01*
X453160Y179801D01*
X453141Y179794D01*
X453121Y179791D01*
X452992Y179740D01*
X452861Y179693D01*
X452844Y179682D01*
X452825Y179674D01*
X452713Y179593D01*
X452598Y179515D01*
X452584Y179499D01*
X452568Y179488D01*
X452479Y179380D01*
X452387Y179276D01*
X452378Y179258D01*
X452365Y179243D01*
X452306Y179117D01*
X452243Y178993D01*
X452238Y178973D01*
X452230Y178955D01*
X452204Y178819D01*
X452173Y178683D01*
X452174Y178662D01*
X452170Y178643D01*
X452179Y178504D01*
X452183Y178365D01*
X452188Y178345D01*
X452190Y178325D01*
X452232Y178193D01*
X452271Y178059D01*
X452281Y178042D01*
X452288Y178023D01*
X452362Y177905D01*
X452433Y177785D01*
X452451Y177764D01*
X452458Y177754D01*
X452473Y177740D01*
X452539Y177665D01*
X457659Y172544D01*
X457737Y172484D01*
X457810Y172416D01*
X457863Y172387D01*
X457910Y172350D01*
X458001Y172310D01*
X458088Y172262D01*
X458147Y172247D01*
X458202Y172223D01*
X458300Y172208D01*
X458396Y172183D01*
X458496Y172177D01*
X458516Y172173D01*
X458529Y172175D01*
X458557Y172173D01*
X458607Y172173D01*
X461206Y171096D01*
X463196Y169106D01*
X464273Y166507D01*
X464273Y163693D01*
X463196Y161094D01*
X461206Y159104D01*
X458607Y158027D01*
X455793Y158027D01*
X453194Y159104D01*
X451204Y161094D01*
X450753Y162183D01*
X450684Y162304D01*
X450619Y162427D01*
X450605Y162442D01*
X450595Y162460D01*
X450498Y162560D01*
X450405Y162662D01*
X450388Y162674D01*
X450374Y162688D01*
X450255Y162761D01*
X450139Y162837D01*
X450120Y162844D01*
X450103Y162854D01*
X449970Y162895D01*
X449838Y162940D01*
X449818Y162942D01*
X449799Y162948D01*
X449660Y162955D01*
X449521Y162966D01*
X449501Y162962D01*
X449481Y162963D01*
X449345Y162935D01*
X449208Y162911D01*
X449189Y162903D01*
X449170Y162899D01*
X449045Y162838D01*
X448918Y162781D01*
X448902Y162768D01*
X448884Y162759D01*
X448778Y162669D01*
X448670Y162582D01*
X448657Y162566D01*
X448642Y162553D01*
X448562Y162439D01*
X448478Y162328D01*
X448466Y162303D01*
X448459Y162293D01*
X448452Y162273D01*
X448407Y162183D01*
X447956Y161094D01*
X445966Y159104D01*
X443367Y158027D01*
X440553Y158027D01*
X437954Y159104D01*
X437918Y159140D01*
X437840Y159200D01*
X437768Y159268D01*
X437715Y159297D01*
X437667Y159334D01*
X437576Y159374D01*
X437489Y159422D01*
X437431Y159437D01*
X437375Y159461D01*
X437277Y159476D01*
X437181Y159501D01*
X437081Y159507D01*
X437061Y159511D01*
X437049Y159509D01*
X437021Y159511D01*
X426878Y159511D01*
X424824Y160362D01*
X382612Y202574D01*
X381761Y204628D01*
X381761Y219851D01*
X381749Y219949D01*
X381746Y220048D01*
X381729Y220106D01*
X381721Y220166D01*
X381685Y220258D01*
X381657Y220353D01*
X381627Y220406D01*
X381604Y220462D01*
X381546Y220542D01*
X381496Y220627D01*
X381430Y220703D01*
X381418Y220719D01*
X381408Y220727D01*
X381390Y220748D01*
X381354Y220784D01*
X380277Y223383D01*
X380277Y226197D01*
X381354Y228796D01*
X382800Y230242D01*
X382873Y230337D01*
X382952Y230426D01*
X382970Y230462D01*
X382995Y230494D01*
X383042Y230603D01*
X383097Y230709D01*
X383105Y230748D01*
X383121Y230786D01*
X383140Y230903D01*
X383166Y231019D01*
X383165Y231060D01*
X383171Y231100D01*
X383160Y231218D01*
X383157Y231337D01*
X383145Y231376D01*
X383141Y231416D01*
X383101Y231529D01*
X383068Y231643D01*
X383048Y231677D01*
X383034Y231716D01*
X382967Y231814D01*
X382907Y231917D01*
X382867Y231962D01*
X382855Y231979D01*
X382840Y231992D01*
X382800Y232037D01*
X381354Y233484D01*
X380277Y236083D01*
X380277Y238897D01*
X381354Y241496D01*
X383435Y243578D01*
X383508Y243672D01*
X383587Y243761D01*
X383605Y243797D01*
X383630Y243829D01*
X383677Y243938D01*
X383732Y244044D01*
X383740Y244083D01*
X383756Y244121D01*
X383775Y244238D01*
X383801Y244354D01*
X383800Y244395D01*
X383806Y244435D01*
X383795Y244553D01*
X383792Y244672D01*
X383780Y244711D01*
X383776Y244751D01*
X383736Y244863D01*
X383703Y244978D01*
X383683Y245013D01*
X383669Y245051D01*
X383602Y245149D01*
X383542Y245252D01*
X383502Y245297D01*
X383490Y245314D01*
X383475Y245327D01*
X383435Y245373D01*
X382624Y246184D01*
X381547Y248783D01*
X381547Y251597D01*
X382624Y254196D01*
X384614Y256186D01*
X387213Y257263D01*
X390027Y257263D01*
X392626Y256186D01*
X393394Y255418D01*
X393401Y255413D01*
X393407Y255405D01*
X393526Y255316D01*
X393645Y255224D01*
X393654Y255220D01*
X393661Y255214D01*
X393806Y255143D01*
X394326Y254928D01*
X412408Y236846D01*
X413259Y234792D01*
X413259Y216376D01*
X413271Y216278D01*
X413274Y216179D01*
X413291Y216120D01*
X413299Y216060D01*
X413335Y215968D01*
X413363Y215873D01*
X413393Y215821D01*
X413416Y215765D01*
X413474Y215684D01*
X413524Y215599D01*
X413590Y215524D01*
X413602Y215507D01*
X413612Y215499D01*
X413630Y215478D01*
X437728Y191380D01*
X437807Y191320D01*
X437879Y191252D01*
X437932Y191223D01*
X437980Y191186D01*
X438070Y191146D01*
X438157Y191098D01*
X438216Y191083D01*
X438271Y191059D01*
X438369Y191044D01*
X438465Y191019D01*
X438565Y191013D01*
X438585Y191009D01*
X438598Y191011D01*
X438626Y191009D01*
G37*
%LPD*%
G36*
X189348Y31766D02*
X189348Y31766D01*
X189467Y31773D01*
X189505Y31786D01*
X189546Y31791D01*
X189656Y31834D01*
X189769Y31871D01*
X189804Y31893D01*
X189841Y31908D01*
X189937Y31978D01*
X190038Y32041D01*
X190066Y32071D01*
X190099Y32094D01*
X190175Y32186D01*
X190256Y32273D01*
X190276Y32308D01*
X190301Y32339D01*
X190352Y32447D01*
X190410Y32551D01*
X190420Y32591D01*
X190437Y32627D01*
X190459Y32744D01*
X190489Y32859D01*
X190493Y32920D01*
X190497Y32940D01*
X190495Y32960D01*
X190499Y33020D01*
X190499Y92710D01*
X190484Y92828D01*
X190477Y92947D01*
X190464Y92985D01*
X190459Y93026D01*
X190416Y93136D01*
X190379Y93249D01*
X190357Y93284D01*
X190342Y93321D01*
X190273Y93417D01*
X190209Y93518D01*
X190179Y93546D01*
X190156Y93579D01*
X190064Y93655D01*
X189977Y93736D01*
X189942Y93756D01*
X189911Y93781D01*
X189803Y93832D01*
X189699Y93890D01*
X189659Y93900D01*
X189623Y93917D01*
X189506Y93939D01*
X189391Y93969D01*
X189331Y93973D01*
X189311Y93977D01*
X189290Y93975D01*
X189230Y93979D01*
X130810Y93979D01*
X130692Y93964D01*
X130573Y93957D01*
X130535Y93944D01*
X130494Y93939D01*
X130384Y93896D01*
X130271Y93859D01*
X130236Y93837D01*
X130199Y93822D01*
X130103Y93753D01*
X130002Y93689D01*
X129974Y93659D01*
X129941Y93636D01*
X129866Y93544D01*
X129784Y93457D01*
X129764Y93422D01*
X129739Y93391D01*
X129688Y93283D01*
X129630Y93179D01*
X129620Y93139D01*
X129603Y93103D01*
X129581Y92986D01*
X129551Y92871D01*
X129547Y92811D01*
X129543Y92791D01*
X129545Y92770D01*
X129544Y92758D01*
X129543Y92755D01*
X129543Y92753D01*
X129541Y92710D01*
X129541Y33020D01*
X129556Y32902D01*
X129563Y32783D01*
X129576Y32745D01*
X129581Y32704D01*
X129624Y32594D01*
X129661Y32481D01*
X129683Y32446D01*
X129698Y32409D01*
X129768Y32313D01*
X129831Y32212D01*
X129861Y32184D01*
X129884Y32151D01*
X129976Y32076D01*
X130063Y31994D01*
X130098Y31974D01*
X130129Y31949D01*
X130237Y31898D01*
X130341Y31840D01*
X130381Y31830D01*
X130417Y31813D01*
X130534Y31791D01*
X130649Y31761D01*
X130710Y31757D01*
X130730Y31753D01*
X130750Y31755D01*
X130810Y31751D01*
X189230Y31751D01*
X189348Y31766D01*
G37*
D10*
X157480Y50800D03*
X229870Y50800D03*
X302260Y50800D03*
D11*
X374650Y50800D03*
X447040Y50800D03*
X519430Y50800D03*
X591820Y50800D03*
X664210Y50800D03*
X736600Y50800D03*
X755650Y274320D03*
X148590Y311150D03*
X148590Y260350D03*
X148590Y210820D03*
X755650Y223520D03*
D12*
X171450Y127000D03*
X304800Y276860D03*
X344170Y276860D03*
X232410Y195580D03*
X251460Y196850D03*
X220980Y195580D03*
X232410Y184150D03*
X687070Y185420D03*
X709930Y190500D03*
X701040Y200660D03*
X678180Y290830D03*
X278130Y276860D03*
X408940Y320040D03*
X533400Y321310D03*
X292100Y276860D03*
X392430Y276860D03*
X356870Y276860D03*
X403860Y276860D03*
X429260Y276860D03*
X440690Y276860D03*
X473710Y275590D03*
X664210Y290830D03*
X273050Y196850D03*
X284480Y196850D03*
X273050Y185420D03*
X284480Y185420D03*
X220980Y184150D03*
X439420Y199390D03*
X450850Y199390D03*
X462280Y199390D03*
X438150Y307340D03*
X220980Y207010D03*
X209550Y184150D03*
X379730Y195580D03*
X379730Y184150D03*
X368300Y195580D03*
X368300Y184150D03*
X379730Y172720D03*
X368300Y172720D03*
X356870Y172720D03*
X356870Y184150D03*
X182880Y127000D03*
X171450Y115570D03*
X171450Y104140D03*
X182880Y115570D03*
X182880Y104140D03*
X194310Y127000D03*
X205740Y127000D03*
X217170Y127000D03*
X194310Y115570D03*
X205740Y115570D03*
X217170Y115570D03*
X217170Y104140D03*
X194310Y104140D03*
X205740Y104140D03*
X243840Y127000D03*
X255270Y127000D03*
X243840Y115570D03*
X243840Y104140D03*
X255270Y115570D03*
X255270Y104140D03*
X266700Y127000D03*
X278130Y127000D03*
X289560Y127000D03*
X266700Y115570D03*
X278130Y115570D03*
X289560Y115570D03*
X289560Y104140D03*
X266700Y104140D03*
X278130Y104140D03*
X316230Y127000D03*
X327660Y127000D03*
X316230Y115570D03*
X316230Y104140D03*
X327660Y115570D03*
X327660Y104140D03*
X339090Y127000D03*
X350520Y127000D03*
X361950Y127000D03*
X339090Y115570D03*
X350520Y115570D03*
X361950Y115570D03*
X361950Y104140D03*
X339090Y104140D03*
X350520Y104140D03*
X388620Y127000D03*
X400050Y127000D03*
X388620Y115570D03*
X388620Y104140D03*
X400050Y115570D03*
X400050Y104140D03*
X411480Y127000D03*
X422910Y127000D03*
X434340Y127000D03*
X411480Y115570D03*
X422910Y115570D03*
X434340Y115570D03*
X434340Y104140D03*
X411480Y104140D03*
X422910Y104140D03*
X461010Y127000D03*
X472440Y127000D03*
X461010Y115570D03*
X461010Y104140D03*
X472440Y115570D03*
X472440Y104140D03*
X483870Y127000D03*
X495300Y127000D03*
X506730Y127000D03*
X483870Y115570D03*
X495300Y115570D03*
X506730Y115570D03*
X506730Y104140D03*
X483870Y104140D03*
X495300Y104140D03*
X533400Y127000D03*
X544830Y127000D03*
X533400Y115570D03*
X533400Y104140D03*
X544830Y115570D03*
X544830Y104140D03*
X556260Y127000D03*
X567690Y127000D03*
X579120Y127000D03*
X556260Y115570D03*
X567690Y115570D03*
X579120Y115570D03*
X579120Y104140D03*
X556260Y104140D03*
X567690Y104140D03*
X605790Y127000D03*
X617220Y127000D03*
X605790Y115570D03*
X605790Y104140D03*
X617220Y115570D03*
X617220Y104140D03*
X628650Y127000D03*
X640080Y127000D03*
X651510Y127000D03*
X628650Y115570D03*
X640080Y115570D03*
X651510Y115570D03*
X651510Y104140D03*
X628650Y104140D03*
X640080Y104140D03*
X678180Y127000D03*
X689610Y127000D03*
X678180Y115570D03*
X678180Y104140D03*
X689610Y115570D03*
X689610Y104140D03*
X701040Y127000D03*
X712470Y127000D03*
X723900Y127000D03*
X701040Y115570D03*
X712470Y115570D03*
X723900Y115570D03*
X723900Y104140D03*
X701040Y104140D03*
X712470Y104140D03*
X750570Y127000D03*
X762000Y127000D03*
X750570Y115570D03*
X762000Y115570D03*
X762000Y104140D03*
X750570Y104140D03*
X144780Y125730D03*
X144780Y114300D03*
X144780Y102870D03*
X650240Y276860D03*
X664210Y276860D03*
X678180Y276860D03*
X692150Y276860D03*
X318770Y276860D03*
X300990Y261620D03*
X577850Y321310D03*
X306070Y321310D03*
X181610Y280670D03*
X177800Y330200D03*
X518160Y194310D03*
X518160Y182880D03*
X506730Y194310D03*
X506730Y184150D03*
X495300Y184150D03*
X593090Y166370D03*
X580390Y166370D03*
X567690Y166370D03*
X567690Y177800D03*
X580390Y177800D03*
X664210Y185420D03*
X652780Y185420D03*
X641350Y185420D03*
X641350Y198120D03*
X709930Y179070D03*
X721360Y173990D03*
X567690Y189230D03*
X264160Y276860D03*
X250190Y276860D03*
X182880Y233680D03*
X527050Y275590D03*
X514350Y275590D03*
X500380Y275590D03*
X486410Y275590D03*
X543560Y243840D03*
X561340Y275590D03*
X373380Y245110D03*
X196850Y218440D03*
X215900Y241300D03*
X459740Y242570D03*
X628650Y238760D03*
X359410Y234950D03*
X265430Y164260D03*
D13*
X358140Y234950D02*
X359410Y234950D01*
X301595Y164260D02*
X265430Y164260D01*
X301595Y164260D02*
X349464Y212129D01*
X349464Y226274D02*
X358140Y234950D01*
X349464Y226274D02*
X349464Y212129D01*
D12*
X359410Y247650D03*
D13*
X296340Y174420D02*
X261390Y174420D01*
X251230Y164260D01*
X239800Y164260D01*
D12*
X239800Y164260D03*
D13*
X356870Y247650D02*
X359410Y247650D01*
X356870Y247650D02*
X338876Y229656D01*
X338876Y216956D02*
X296340Y174420D01*
X338876Y216956D02*
X338876Y229656D01*
D12*
X359498Y222338D03*
D13*
X359498Y206258D01*
X314960Y161720D01*
D12*
X314960Y161720D03*
X387350Y237490D03*
X457200Y165100D03*
D13*
X397724Y229831D02*
X390065Y237490D01*
X387350Y237490D01*
X397724Y229831D02*
X397724Y209336D01*
X447040Y175260D02*
X457200Y165100D01*
X447040Y175260D02*
X431800Y175260D01*
X397724Y209336D01*
D12*
X441960Y165100D03*
D13*
X427990Y165100D01*
X387350Y205740D01*
X387350Y224790D01*
D12*
X387350Y224790D03*
X388620Y250190D03*
X481330Y165100D03*
D13*
X435785Y185420D02*
X407670Y213535D01*
X407670Y233680D02*
X391160Y250190D01*
X388620Y250190D01*
X407670Y233680D02*
X407670Y213535D01*
X461010Y185420D02*
X481330Y165100D01*
X461010Y185420D02*
X435785Y185420D01*
D12*
X560070Y233680D03*
D13*
X561340Y233680D01*
X631190Y163830D01*
X671830Y163830D01*
D12*
X671830Y163830D03*
X560070Y220980D03*
X608330Y163830D03*
D13*
X608330Y172720D01*
X560070Y220980D01*
D12*
X560070Y246380D03*
D13*
X675854Y173776D02*
X685800Y163830D01*
X675854Y173776D02*
X635214Y173776D01*
X562610Y246380D01*
X560070Y246380D01*
X685800Y163830D02*
X708660Y163830D01*
D12*
X708660Y163830D03*
M02*
