G04 EAGLE Gerber RS-274X export*
G75*
%MOMM*%
%FSLAX34Y34*%
%LPD*%
%INTop Copper*%
%IPPOS*%
%AMOC8*
5,1,8,0,0,1.08239X$1,22.5*%
G01*
%ADD10R,1.800000X1.600000*%
%ADD11R,0.660400X1.524000*%
%ADD12R,0.710000X0.850000*%
%ADD13P,4.123906X8X202.500000*%
%ADD14P,4.123906X8X22.500000*%
%ADD15R,0.950000X1.900000*%
%ADD16R,3.250000X1.900000*%
%ADD17R,0.600000X1.050000*%
%ADD18R,1.150000X0.900000*%
%ADD19R,1.803000X1.600000*%
%ADD20C,1.270000*%
%ADD21C,0.812800*%
%ADD22C,0.609600*%
%ADD23C,0.906400*%
%ADD24C,1.016000*%

G36*
X148708Y97806D02*
X148708Y97806D01*
X148827Y97813D01*
X148865Y97826D01*
X148906Y97831D01*
X149016Y97874D01*
X149129Y97911D01*
X149164Y97933D01*
X149201Y97948D01*
X149297Y98018D01*
X149398Y98081D01*
X149426Y98111D01*
X149459Y98134D01*
X149535Y98226D01*
X149616Y98313D01*
X149636Y98348D01*
X149661Y98379D01*
X149712Y98487D01*
X149770Y98591D01*
X149780Y98631D01*
X149797Y98667D01*
X149819Y98784D01*
X149849Y98899D01*
X149853Y98960D01*
X149857Y98980D01*
X149855Y99000D01*
X149859Y99060D01*
X149859Y146316D01*
X150093Y146879D01*
X150095Y146888D01*
X150100Y146896D01*
X150137Y147041D01*
X150177Y147186D01*
X150177Y147195D01*
X150179Y147204D01*
X150189Y147365D01*
X150189Y155352D01*
X151678Y156841D01*
X163282Y156841D01*
X164771Y155352D01*
X164771Y147365D01*
X164772Y147356D01*
X164771Y147347D01*
X164792Y147198D01*
X164811Y147049D01*
X164814Y147041D01*
X164815Y147032D01*
X164867Y146879D01*
X165101Y146316D01*
X165101Y99060D01*
X165116Y98942D01*
X165123Y98823D01*
X165136Y98785D01*
X165141Y98744D01*
X165184Y98634D01*
X165221Y98521D01*
X165243Y98486D01*
X165258Y98449D01*
X165327Y98353D01*
X165391Y98252D01*
X165421Y98224D01*
X165444Y98191D01*
X165536Y98116D01*
X165623Y98034D01*
X165658Y98014D01*
X165689Y97989D01*
X165797Y97938D01*
X165901Y97880D01*
X165941Y97870D01*
X165977Y97853D01*
X166094Y97831D01*
X166209Y97801D01*
X166269Y97797D01*
X166289Y97793D01*
X166310Y97795D01*
X166370Y97791D01*
X220980Y97791D01*
X221098Y97806D01*
X221217Y97813D01*
X221255Y97826D01*
X221296Y97831D01*
X221406Y97874D01*
X221519Y97911D01*
X221554Y97933D01*
X221591Y97948D01*
X221687Y98018D01*
X221788Y98081D01*
X221816Y98111D01*
X221849Y98134D01*
X221925Y98226D01*
X222006Y98313D01*
X222026Y98348D01*
X222051Y98379D01*
X222102Y98487D01*
X222160Y98591D01*
X222170Y98631D01*
X222187Y98667D01*
X222209Y98784D01*
X222239Y98899D01*
X222243Y98960D01*
X222247Y98980D01*
X222245Y99000D01*
X222249Y99060D01*
X222249Y146316D01*
X222483Y146879D01*
X222485Y146888D01*
X222490Y146896D01*
X222527Y147041D01*
X222567Y147186D01*
X222567Y147195D01*
X222569Y147204D01*
X222579Y147365D01*
X222579Y155352D01*
X223731Y156505D01*
X223816Y156614D01*
X223905Y156721D01*
X223914Y156740D01*
X223926Y156756D01*
X223982Y156883D01*
X224041Y157009D01*
X224045Y157029D01*
X224053Y157048D01*
X224075Y157186D01*
X224101Y157322D01*
X224099Y157342D01*
X224103Y157362D01*
X224089Y157501D01*
X224081Y157639D01*
X224075Y157658D01*
X224073Y157678D01*
X224026Y157809D01*
X223983Y157941D01*
X223972Y157959D01*
X223965Y157978D01*
X223887Y158093D01*
X223813Y158210D01*
X223798Y158224D01*
X223787Y158241D01*
X223682Y158333D01*
X223581Y158428D01*
X223563Y158438D01*
X223548Y158451D01*
X223424Y158515D01*
X223303Y158582D01*
X223283Y158587D01*
X223265Y158596D01*
X223129Y158626D01*
X222995Y158661D01*
X222967Y158663D01*
X222955Y158666D01*
X222934Y158665D01*
X222834Y158671D01*
X187516Y158671D01*
X187378Y158654D01*
X187240Y158641D01*
X187221Y158634D01*
X187201Y158631D01*
X187071Y158580D01*
X186940Y158533D01*
X186924Y158522D01*
X186905Y158514D01*
X186792Y158433D01*
X186677Y158355D01*
X186664Y158339D01*
X186648Y158328D01*
X186559Y158220D01*
X186467Y158116D01*
X186458Y158098D01*
X186445Y158083D01*
X186385Y157957D01*
X186322Y157833D01*
X186318Y157813D01*
X186309Y157795D01*
X186283Y157658D01*
X186253Y157523D01*
X186253Y157502D01*
X186249Y157483D01*
X186258Y157344D01*
X186262Y157205D01*
X186268Y157185D01*
X186269Y157165D01*
X186312Y157033D01*
X186351Y156899D01*
X186361Y156882D01*
X186367Y156863D01*
X186442Y156745D01*
X186512Y156625D01*
X186531Y156604D01*
X186537Y156594D01*
X186552Y156580D01*
X186619Y156505D01*
X187771Y155352D01*
X187771Y134248D01*
X186282Y132759D01*
X174678Y132759D01*
X173189Y134248D01*
X173189Y155352D01*
X174428Y156591D01*
X174488Y156669D01*
X174556Y156741D01*
X174585Y156794D01*
X174622Y156842D01*
X174662Y156933D01*
X174710Y157020D01*
X174725Y157078D01*
X174749Y157134D01*
X174764Y157232D01*
X174789Y157327D01*
X174795Y157428D01*
X174799Y157448D01*
X174797Y157460D01*
X174799Y157488D01*
X174799Y162780D01*
X174798Y162789D01*
X174799Y162798D01*
X174778Y162947D01*
X174759Y163096D01*
X174756Y163104D01*
X174755Y163113D01*
X174751Y163123D01*
X174751Y165432D01*
X174787Y165561D01*
X174787Y165570D01*
X174789Y165579D01*
X174799Y165740D01*
X174799Y170562D01*
X176288Y172051D01*
X184392Y172051D01*
X186223Y170220D01*
X186301Y170160D01*
X186373Y170092D01*
X186426Y170063D01*
X186474Y170026D01*
X186565Y169986D01*
X186652Y169938D01*
X186710Y169923D01*
X186766Y169899D01*
X186864Y169884D01*
X186959Y169859D01*
X187060Y169853D01*
X187080Y169849D01*
X187092Y169851D01*
X187120Y169849D01*
X234861Y169849D01*
X234959Y169861D01*
X235058Y169864D01*
X235116Y169881D01*
X235176Y169889D01*
X235268Y169925D01*
X235363Y169953D01*
X235416Y169983D01*
X235472Y170006D01*
X235552Y170064D01*
X235637Y170114D01*
X235713Y170180D01*
X235729Y170192D01*
X235737Y170202D01*
X235758Y170220D01*
X235794Y170256D01*
X238393Y171333D01*
X241207Y171333D01*
X243806Y170256D01*
X245023Y169040D01*
X245132Y168955D01*
X245239Y168866D01*
X245258Y168857D01*
X245274Y168845D01*
X245401Y168790D01*
X245527Y168730D01*
X245547Y168727D01*
X245566Y168719D01*
X245704Y168697D01*
X245840Y168671D01*
X245860Y168672D01*
X245880Y168669D01*
X246019Y168682D01*
X246157Y168690D01*
X246176Y168697D01*
X246196Y168698D01*
X246328Y168746D01*
X246459Y168788D01*
X246477Y168799D01*
X246496Y168806D01*
X246611Y168884D01*
X246728Y168959D01*
X246742Y168973D01*
X246759Y168985D01*
X246851Y169089D01*
X246946Y169190D01*
X246956Y169208D01*
X246969Y169223D01*
X247033Y169347D01*
X247100Y169469D01*
X247105Y169488D01*
X247114Y169506D01*
X247144Y169642D01*
X247179Y169777D01*
X247181Y169805D01*
X247184Y169817D01*
X247183Y169837D01*
X247189Y169937D01*
X247189Y170562D01*
X248678Y172051D01*
X256782Y172051D01*
X258613Y170220D01*
X258691Y170160D01*
X258763Y170092D01*
X258816Y170063D01*
X258864Y170026D01*
X258955Y169986D01*
X259042Y169938D01*
X259100Y169923D01*
X259156Y169899D01*
X259254Y169884D01*
X259349Y169859D01*
X259450Y169853D01*
X259470Y169849D01*
X259482Y169851D01*
X259510Y169849D01*
X260491Y169849D01*
X260589Y169861D01*
X260688Y169864D01*
X260746Y169881D01*
X260806Y169889D01*
X260898Y169925D01*
X260993Y169953D01*
X261046Y169983D01*
X261102Y170006D01*
X261182Y170064D01*
X261267Y170114D01*
X261343Y170180D01*
X261359Y170192D01*
X261367Y170202D01*
X261388Y170220D01*
X261424Y170256D01*
X264023Y171333D01*
X266837Y171333D01*
X269436Y170256D01*
X271426Y168266D01*
X272503Y165667D01*
X272503Y162853D01*
X271426Y160254D01*
X269436Y158264D01*
X266837Y157187D01*
X264023Y157187D01*
X261424Y158264D01*
X261388Y158300D01*
X261310Y158360D01*
X261238Y158428D01*
X261185Y158457D01*
X261137Y158494D01*
X261046Y158534D01*
X260959Y158582D01*
X260901Y158597D01*
X260845Y158621D01*
X260747Y158636D01*
X260651Y158661D01*
X260551Y158667D01*
X260531Y158671D01*
X260519Y158669D01*
X260491Y158671D01*
X259906Y158671D01*
X259768Y158654D01*
X259630Y158641D01*
X259611Y158634D01*
X259591Y158631D01*
X259461Y158580D01*
X259330Y158533D01*
X259314Y158522D01*
X259295Y158514D01*
X259182Y158433D01*
X259067Y158355D01*
X259054Y158339D01*
X259038Y158328D01*
X258949Y158220D01*
X258857Y158116D01*
X258848Y158098D01*
X258835Y158083D01*
X258775Y157957D01*
X258712Y157833D01*
X258708Y157813D01*
X258699Y157795D01*
X258673Y157658D01*
X258643Y157523D01*
X258643Y157502D01*
X258639Y157483D01*
X258648Y157344D01*
X258652Y157205D01*
X258658Y157185D01*
X258659Y157165D01*
X258702Y157033D01*
X258741Y156899D01*
X258751Y156882D01*
X258757Y156863D01*
X258832Y156745D01*
X258902Y156625D01*
X258921Y156604D01*
X258927Y156594D01*
X258942Y156580D01*
X259009Y156505D01*
X260161Y155352D01*
X260161Y134248D01*
X258672Y132759D01*
X247068Y132759D01*
X245579Y134248D01*
X245579Y155352D01*
X246770Y156543D01*
X246830Y156621D01*
X246898Y156693D01*
X246926Y156744D01*
X246943Y156765D01*
X246946Y156770D01*
X246964Y156794D01*
X247004Y156885D01*
X247052Y156972D01*
X247065Y157023D01*
X247079Y157053D01*
X247081Y157063D01*
X247091Y157086D01*
X247106Y157184D01*
X247131Y157279D01*
X247135Y157348D01*
X247139Y157365D01*
X247138Y157381D01*
X247141Y157400D01*
X247139Y157412D01*
X247141Y157440D01*
X247141Y158535D01*
X247124Y158673D01*
X247111Y158811D01*
X247104Y158830D01*
X247101Y158850D01*
X247050Y158979D01*
X247003Y159110D01*
X246992Y159127D01*
X246984Y159146D01*
X246903Y159258D01*
X246825Y159373D01*
X246809Y159387D01*
X246798Y159403D01*
X246690Y159492D01*
X246586Y159584D01*
X246568Y159593D01*
X246553Y159606D01*
X246427Y159665D01*
X246303Y159729D01*
X246283Y159733D01*
X246265Y159742D01*
X246128Y159768D01*
X245993Y159798D01*
X245972Y159798D01*
X245953Y159801D01*
X245814Y159793D01*
X245675Y159789D01*
X245655Y159783D01*
X245635Y159782D01*
X245503Y159739D01*
X245369Y159700D01*
X245352Y159690D01*
X245333Y159684D01*
X245215Y159609D01*
X245095Y159539D01*
X245074Y159520D01*
X245064Y159513D01*
X245050Y159498D01*
X244975Y159432D01*
X243806Y158264D01*
X241207Y157187D01*
X238390Y157187D01*
X238252Y157170D01*
X238113Y157157D01*
X238094Y157150D01*
X238075Y157147D01*
X237945Y157096D01*
X237814Y157049D01*
X237797Y157038D01*
X237779Y157030D01*
X237666Y156949D01*
X237551Y156870D01*
X237538Y156855D01*
X237522Y156844D01*
X237433Y156736D01*
X237341Y156632D01*
X237331Y156614D01*
X237319Y156599D01*
X237260Y156473D01*
X237196Y156349D01*
X237192Y156329D01*
X237183Y156311D01*
X237157Y156175D01*
X237127Y156038D01*
X237127Y156018D01*
X237123Y155999D01*
X237132Y155860D01*
X237136Y155720D01*
X237142Y155701D01*
X237143Y155681D01*
X237161Y155627D01*
X237161Y147365D01*
X237162Y147356D01*
X237161Y147347D01*
X237182Y147198D01*
X237201Y147049D01*
X237204Y147041D01*
X237205Y147032D01*
X237257Y146879D01*
X237491Y146316D01*
X237491Y99060D01*
X237506Y98942D01*
X237513Y98823D01*
X237526Y98785D01*
X237531Y98744D01*
X237574Y98634D01*
X237611Y98521D01*
X237633Y98486D01*
X237648Y98449D01*
X237717Y98353D01*
X237781Y98252D01*
X237811Y98224D01*
X237834Y98191D01*
X237926Y98116D01*
X238013Y98034D01*
X238048Y98014D01*
X238079Y97989D01*
X238187Y97938D01*
X238291Y97880D01*
X238331Y97870D01*
X238367Y97853D01*
X238484Y97831D01*
X238599Y97801D01*
X238659Y97797D01*
X238679Y97793D01*
X238700Y97795D01*
X238760Y97791D01*
X293370Y97791D01*
X293488Y97806D01*
X293607Y97813D01*
X293645Y97826D01*
X293686Y97831D01*
X293796Y97874D01*
X293909Y97911D01*
X293944Y97933D01*
X293981Y97948D01*
X294077Y98018D01*
X294178Y98081D01*
X294206Y98111D01*
X294239Y98134D01*
X294315Y98226D01*
X294396Y98313D01*
X294416Y98348D01*
X294441Y98379D01*
X294492Y98487D01*
X294550Y98591D01*
X294560Y98631D01*
X294577Y98667D01*
X294599Y98784D01*
X294629Y98899D01*
X294633Y98960D01*
X294637Y98980D01*
X294635Y99000D01*
X294639Y99060D01*
X294639Y146316D01*
X294873Y146879D01*
X294875Y146888D01*
X294880Y146896D01*
X294917Y147041D01*
X294957Y147186D01*
X294957Y147195D01*
X294959Y147204D01*
X294969Y147365D01*
X294969Y155352D01*
X296458Y156841D01*
X307426Y156841D01*
X307475Y156847D01*
X307525Y156845D01*
X307632Y156867D01*
X307742Y156881D01*
X307788Y156899D01*
X307836Y156909D01*
X307935Y156957D01*
X308037Y156998D01*
X308078Y157027D01*
X308122Y157049D01*
X308206Y157120D01*
X308295Y157184D01*
X308326Y157223D01*
X308364Y157255D01*
X308427Y157345D01*
X308497Y157429D01*
X308519Y157474D01*
X308547Y157515D01*
X308586Y157618D01*
X308633Y157717D01*
X308642Y157766D01*
X308660Y157812D01*
X308672Y157922D01*
X308693Y158029D01*
X308690Y158079D01*
X308695Y158128D01*
X308680Y158237D01*
X308673Y158347D01*
X308658Y158394D01*
X308651Y158443D01*
X308599Y158596D01*
X307887Y160313D01*
X307887Y163127D01*
X308964Y165726D01*
X310954Y167716D01*
X313553Y168793D01*
X316367Y168793D01*
X317824Y168189D01*
X317872Y168176D01*
X317917Y168155D01*
X318025Y168134D01*
X318131Y168105D01*
X318181Y168104D01*
X318230Y168095D01*
X318339Y168102D01*
X318449Y168100D01*
X318497Y168112D01*
X318547Y168115D01*
X318651Y168149D01*
X318758Y168174D01*
X318802Y168197D01*
X318849Y168213D01*
X318942Y168272D01*
X319039Y168323D01*
X319076Y168356D01*
X319118Y168383D01*
X319193Y168463D01*
X319275Y168537D01*
X319302Y168578D01*
X319336Y168615D01*
X319389Y168711D01*
X319449Y168803D01*
X319466Y168850D01*
X319490Y168893D01*
X319517Y168999D01*
X319553Y169103D01*
X319557Y169153D01*
X319569Y169201D01*
X319579Y169362D01*
X319579Y170562D01*
X321068Y172051D01*
X329172Y172051D01*
X330661Y170562D01*
X330661Y165740D01*
X330662Y165731D01*
X330661Y165722D01*
X330682Y165573D01*
X330701Y165425D01*
X330704Y165416D01*
X330705Y165407D01*
X330709Y165397D01*
X330709Y157720D01*
X330721Y157622D01*
X330724Y157523D01*
X330741Y157465D01*
X330749Y157405D01*
X330785Y157313D01*
X330813Y157217D01*
X330843Y157165D01*
X330866Y157109D01*
X330924Y157029D01*
X330974Y156944D01*
X331040Y156868D01*
X331052Y156852D01*
X331062Y156844D01*
X331080Y156823D01*
X332551Y155352D01*
X332551Y134248D01*
X331062Y132759D01*
X319458Y132759D01*
X317969Y134248D01*
X317969Y153411D01*
X317963Y153461D01*
X317965Y153511D01*
X317943Y153618D01*
X317929Y153727D01*
X317911Y153773D01*
X317901Y153822D01*
X317853Y153921D01*
X317812Y154023D01*
X317783Y154063D01*
X317761Y154108D01*
X317690Y154191D01*
X317626Y154280D01*
X317587Y154312D01*
X317555Y154350D01*
X317465Y154413D01*
X317381Y154483D01*
X317336Y154504D01*
X317295Y154533D01*
X317192Y154572D01*
X317093Y154618D01*
X317044Y154628D01*
X316997Y154645D01*
X316888Y154658D01*
X316781Y154678D01*
X316731Y154675D01*
X316681Y154681D01*
X316573Y154665D01*
X316463Y154658D01*
X316429Y154647D01*
X313553Y154647D01*
X311306Y155578D01*
X311258Y155591D01*
X311213Y155612D01*
X311105Y155633D01*
X310999Y155662D01*
X310949Y155663D01*
X310900Y155672D01*
X310791Y155665D01*
X310681Y155667D01*
X310633Y155656D01*
X310583Y155653D01*
X310479Y155619D01*
X310372Y155593D01*
X310328Y155570D01*
X310281Y155554D01*
X310188Y155496D01*
X310091Y155444D01*
X310054Y155411D01*
X310012Y155384D01*
X309937Y155304D01*
X309855Y155230D01*
X309828Y155189D01*
X309794Y155153D01*
X309741Y155057D01*
X309681Y154965D01*
X309664Y154918D01*
X309640Y154874D01*
X309613Y154768D01*
X309577Y154664D01*
X309573Y154614D01*
X309561Y154566D01*
X309551Y154406D01*
X309551Y147365D01*
X309552Y147356D01*
X309551Y147347D01*
X309572Y147198D01*
X309591Y147049D01*
X309594Y147041D01*
X309595Y147032D01*
X309647Y146879D01*
X309881Y146316D01*
X309881Y99060D01*
X309896Y98942D01*
X309903Y98823D01*
X309916Y98785D01*
X309921Y98744D01*
X309964Y98634D01*
X310001Y98521D01*
X310023Y98486D01*
X310038Y98449D01*
X310107Y98353D01*
X310171Y98252D01*
X310201Y98224D01*
X310224Y98191D01*
X310316Y98116D01*
X310403Y98034D01*
X310438Y98014D01*
X310469Y97989D01*
X310577Y97938D01*
X310681Y97880D01*
X310721Y97870D01*
X310757Y97853D01*
X310874Y97831D01*
X310989Y97801D01*
X311049Y97797D01*
X311069Y97793D01*
X311090Y97795D01*
X311150Y97791D01*
X365760Y97791D01*
X365878Y97806D01*
X365997Y97813D01*
X366035Y97826D01*
X366076Y97831D01*
X366186Y97874D01*
X366299Y97911D01*
X366334Y97933D01*
X366371Y97948D01*
X366467Y98018D01*
X366568Y98081D01*
X366596Y98111D01*
X366629Y98134D01*
X366705Y98226D01*
X366786Y98313D01*
X366806Y98348D01*
X366831Y98379D01*
X366882Y98487D01*
X366940Y98591D01*
X366950Y98631D01*
X366967Y98667D01*
X366989Y98784D01*
X367019Y98899D01*
X367023Y98960D01*
X367027Y98980D01*
X367025Y99000D01*
X367029Y99060D01*
X367029Y146316D01*
X367263Y146879D01*
X367265Y146888D01*
X367270Y146896D01*
X367307Y147042D01*
X367347Y147186D01*
X367347Y147195D01*
X367349Y147204D01*
X367359Y147365D01*
X367359Y155352D01*
X368848Y156841D01*
X380452Y156841D01*
X381941Y155352D01*
X381941Y147365D01*
X381942Y147356D01*
X381941Y147347D01*
X381962Y147198D01*
X381981Y147049D01*
X381984Y147041D01*
X381985Y147032D01*
X382037Y146879D01*
X382271Y146316D01*
X382271Y99060D01*
X382286Y98942D01*
X382293Y98823D01*
X382306Y98785D01*
X382311Y98744D01*
X382354Y98634D01*
X382391Y98521D01*
X382413Y98486D01*
X382428Y98449D01*
X382497Y98353D01*
X382561Y98252D01*
X382591Y98224D01*
X382614Y98191D01*
X382706Y98116D01*
X382793Y98034D01*
X382828Y98014D01*
X382859Y97989D01*
X382967Y97938D01*
X383071Y97880D01*
X383111Y97870D01*
X383147Y97853D01*
X383264Y97831D01*
X383379Y97801D01*
X383439Y97797D01*
X383459Y97793D01*
X383480Y97795D01*
X383540Y97791D01*
X438150Y97791D01*
X438268Y97806D01*
X438387Y97813D01*
X438425Y97826D01*
X438466Y97831D01*
X438576Y97874D01*
X438689Y97911D01*
X438724Y97933D01*
X438761Y97948D01*
X438857Y98018D01*
X438958Y98081D01*
X438986Y98111D01*
X439019Y98134D01*
X439095Y98226D01*
X439176Y98313D01*
X439196Y98348D01*
X439221Y98379D01*
X439272Y98487D01*
X439330Y98591D01*
X439340Y98631D01*
X439357Y98667D01*
X439379Y98784D01*
X439409Y98899D01*
X439413Y98960D01*
X439417Y98980D01*
X439415Y99000D01*
X439419Y99060D01*
X439419Y146316D01*
X439653Y146879D01*
X439655Y146888D01*
X439660Y146896D01*
X439697Y147042D01*
X439737Y147186D01*
X439737Y147195D01*
X439739Y147204D01*
X439749Y147365D01*
X439749Y155352D01*
X440533Y156136D01*
X440563Y156175D01*
X440600Y156209D01*
X440661Y156301D01*
X440728Y156387D01*
X440748Y156433D01*
X440775Y156474D01*
X440811Y156578D01*
X440854Y156679D01*
X440862Y156728D01*
X440878Y156775D01*
X440887Y156885D01*
X440904Y156993D01*
X440899Y157043D01*
X440903Y157092D01*
X440885Y157201D01*
X440874Y157310D01*
X440857Y157357D01*
X440849Y157406D01*
X440804Y157506D01*
X440767Y157609D01*
X440739Y157650D01*
X440718Y157696D01*
X440650Y157781D01*
X440588Y157872D01*
X440551Y157905D01*
X440520Y157944D01*
X440432Y158010D01*
X440350Y158083D01*
X440305Y158105D01*
X440266Y158135D01*
X440121Y158206D01*
X437954Y159104D01*
X437918Y159140D01*
X437840Y159200D01*
X437768Y159268D01*
X437715Y159297D01*
X437667Y159334D01*
X437576Y159374D01*
X437489Y159422D01*
X437431Y159437D01*
X437375Y159461D01*
X437277Y159476D01*
X437181Y159501D01*
X437081Y159507D01*
X437061Y159511D01*
X437049Y159509D01*
X437021Y159511D01*
X408178Y159511D01*
X408060Y159496D01*
X407941Y159489D01*
X407903Y159476D01*
X407862Y159471D01*
X407752Y159428D01*
X407639Y159391D01*
X407604Y159369D01*
X407567Y159354D01*
X407471Y159285D01*
X407370Y159221D01*
X407342Y159191D01*
X407309Y159168D01*
X407233Y159076D01*
X407152Y158989D01*
X407132Y158954D01*
X407107Y158923D01*
X407056Y158815D01*
X406998Y158711D01*
X406988Y158671D01*
X406971Y158635D01*
X406949Y158518D01*
X406919Y158403D01*
X406915Y158343D01*
X406911Y158323D01*
X406913Y158302D01*
X406909Y158242D01*
X406909Y155528D01*
X406058Y153474D01*
X405312Y152729D01*
X405252Y152651D01*
X405184Y152578D01*
X405155Y152525D01*
X405118Y152478D01*
X405078Y152387D01*
X405030Y152300D01*
X405015Y152241D01*
X404991Y152186D01*
X404976Y152088D01*
X404951Y151992D01*
X404945Y151892D01*
X404941Y151872D01*
X404943Y151859D01*
X404941Y151831D01*
X404941Y134248D01*
X403452Y132759D01*
X391848Y132759D01*
X390359Y134248D01*
X390359Y155352D01*
X391848Y156841D01*
X393091Y156841D01*
X393190Y156853D01*
X393289Y156856D01*
X393347Y156873D01*
X393407Y156881D01*
X393499Y156917D01*
X393594Y156945D01*
X393646Y156975D01*
X393703Y156998D01*
X393783Y157056D01*
X393868Y157106D01*
X393943Y157172D01*
X393960Y157184D01*
X393968Y157194D01*
X393989Y157212D01*
X395360Y158583D01*
X395420Y158661D01*
X395488Y158734D01*
X395517Y158787D01*
X395554Y158834D01*
X395594Y158925D01*
X395642Y159012D01*
X395657Y159071D01*
X395681Y159126D01*
X395696Y159224D01*
X395721Y159320D01*
X395727Y159420D01*
X395731Y159440D01*
X395729Y159453D01*
X395731Y159481D01*
X395731Y166702D01*
X395767Y166831D01*
X395767Y166840D01*
X395769Y166849D01*
X395779Y167010D01*
X395779Y171832D01*
X397268Y173321D01*
X405372Y173321D01*
X406877Y171816D01*
X406883Y171721D01*
X406896Y171683D01*
X406901Y171642D01*
X406944Y171532D01*
X406981Y171419D01*
X407003Y171384D01*
X407018Y171347D01*
X407088Y171250D01*
X407151Y171150D01*
X407181Y171122D01*
X407204Y171089D01*
X407296Y171013D01*
X407383Y170932D01*
X407418Y170912D01*
X407449Y170887D01*
X407557Y170836D01*
X407661Y170778D01*
X407701Y170768D01*
X407737Y170751D01*
X407854Y170729D01*
X407969Y170699D01*
X408029Y170695D01*
X408049Y170691D01*
X408070Y170693D01*
X408130Y170689D01*
X437021Y170689D01*
X437119Y170701D01*
X437218Y170704D01*
X437276Y170721D01*
X437336Y170729D01*
X437428Y170765D01*
X437523Y170793D01*
X437576Y170823D01*
X437632Y170846D01*
X437712Y170904D01*
X437797Y170954D01*
X437873Y171020D01*
X437889Y171032D01*
X437897Y171042D01*
X437918Y171060D01*
X437954Y171096D01*
X440553Y172173D01*
X443367Y172173D01*
X445966Y171096D01*
X447956Y169106D01*
X448407Y168017D01*
X448476Y167896D01*
X448541Y167773D01*
X448555Y167758D01*
X448565Y167740D01*
X448662Y167640D01*
X448755Y167538D01*
X448772Y167526D01*
X448786Y167512D01*
X448905Y167439D01*
X449021Y167363D01*
X449040Y167356D01*
X449057Y167346D01*
X449190Y167305D01*
X449322Y167260D01*
X449342Y167258D01*
X449361Y167252D01*
X449500Y167245D01*
X449639Y167234D01*
X449659Y167238D01*
X449679Y167237D01*
X449815Y167265D01*
X449952Y167289D01*
X449971Y167297D01*
X449990Y167301D01*
X450115Y167362D01*
X450242Y167419D01*
X450258Y167432D01*
X450276Y167441D01*
X450382Y167531D01*
X450490Y167618D01*
X450503Y167634D01*
X450518Y167647D01*
X450598Y167761D01*
X450682Y167872D01*
X450694Y167897D01*
X450701Y167907D01*
X450708Y167926D01*
X450753Y168017D01*
X451204Y169106D01*
X453194Y171096D01*
X455793Y172173D01*
X458607Y172173D01*
X461206Y171096D01*
X461242Y171060D01*
X461320Y171000D01*
X461392Y170932D01*
X461445Y170903D01*
X461493Y170866D01*
X461584Y170826D01*
X461671Y170778D01*
X461729Y170763D01*
X461785Y170739D01*
X461883Y170724D01*
X461979Y170699D01*
X462079Y170693D01*
X462099Y170689D01*
X462111Y170691D01*
X462139Y170689D01*
X463960Y170689D01*
X464058Y170701D01*
X464157Y170704D01*
X464215Y170721D01*
X464275Y170729D01*
X464367Y170765D01*
X464463Y170793D01*
X464515Y170823D01*
X464571Y170846D01*
X464651Y170904D01*
X464736Y170954D01*
X464812Y171020D01*
X464828Y171032D01*
X464836Y171042D01*
X464857Y171060D01*
X465848Y172051D01*
X473952Y172051D01*
X475218Y170785D01*
X475312Y170712D01*
X475401Y170633D01*
X475437Y170615D01*
X475469Y170590D01*
X475579Y170543D01*
X475684Y170489D01*
X475724Y170480D01*
X475761Y170464D01*
X475879Y170445D01*
X475995Y170419D01*
X476035Y170420D01*
X476075Y170414D01*
X476194Y170425D01*
X476313Y170429D01*
X476351Y170440D01*
X476392Y170444D01*
X476504Y170484D01*
X476618Y170517D01*
X476653Y170538D01*
X476691Y170552D01*
X476789Y170618D01*
X476892Y170679D01*
X476937Y170719D01*
X476954Y170730D01*
X476968Y170745D01*
X477013Y170785D01*
X477324Y171096D01*
X479923Y172173D01*
X482737Y172173D01*
X485336Y171096D01*
X486642Y169790D01*
X486720Y169730D01*
X486792Y169662D01*
X486845Y169633D01*
X486893Y169596D01*
X486984Y169556D01*
X487071Y169508D01*
X487129Y169493D01*
X487185Y169469D01*
X487283Y169454D01*
X487379Y169429D01*
X487479Y169423D01*
X487499Y169419D01*
X487511Y169421D01*
X487539Y169419D01*
X535480Y169419D01*
X535598Y169434D01*
X535717Y169441D01*
X535755Y169454D01*
X535796Y169459D01*
X535906Y169502D01*
X536019Y169539D01*
X536054Y169561D01*
X536091Y169576D01*
X536187Y169645D01*
X536288Y169709D01*
X536316Y169739D01*
X536349Y169762D01*
X536425Y169854D01*
X536506Y169941D01*
X536526Y169976D01*
X536551Y170007D01*
X536602Y170115D01*
X536660Y170219D01*
X536670Y170259D01*
X536687Y170295D01*
X536709Y170412D01*
X536739Y170527D01*
X536741Y170554D01*
X538238Y172051D01*
X546342Y172051D01*
X547831Y170562D01*
X547831Y165740D01*
X547832Y165731D01*
X547831Y165722D01*
X547852Y165573D01*
X547871Y165424D01*
X547874Y165416D01*
X547875Y165407D01*
X547879Y165397D01*
X547879Y157720D01*
X547891Y157622D01*
X547894Y157523D01*
X547911Y157465D01*
X547919Y157405D01*
X547955Y157313D01*
X547983Y157217D01*
X548013Y157165D01*
X548036Y157109D01*
X548094Y157029D01*
X548144Y156943D01*
X548210Y156868D01*
X548222Y156852D01*
X548232Y156844D01*
X548250Y156823D01*
X549721Y155352D01*
X549721Y134248D01*
X548232Y132759D01*
X536628Y132759D01*
X535139Y134248D01*
X535139Y155352D01*
X535861Y156075D01*
X535946Y156184D01*
X536035Y156291D01*
X536044Y156310D01*
X536056Y156326D01*
X536112Y156453D01*
X536171Y156579D01*
X536175Y156599D01*
X536183Y156618D01*
X536205Y156756D01*
X536231Y156892D01*
X536229Y156912D01*
X536233Y156932D01*
X536219Y157071D01*
X536211Y157209D01*
X536205Y157228D01*
X536203Y157248D01*
X536156Y157380D01*
X536113Y157511D01*
X536102Y157529D01*
X536095Y157548D01*
X536017Y157663D01*
X535943Y157780D01*
X535928Y157794D01*
X535917Y157811D01*
X535812Y157903D01*
X535711Y157998D01*
X535693Y158008D01*
X535678Y158021D01*
X535554Y158084D01*
X535433Y158152D01*
X535413Y158157D01*
X535395Y158166D01*
X535259Y158196D01*
X535125Y158231D01*
X535097Y158233D01*
X535085Y158236D01*
X535064Y158235D01*
X534964Y158241D01*
X526896Y158241D01*
X526758Y158224D01*
X526620Y158211D01*
X526601Y158204D01*
X526581Y158201D01*
X526451Y158150D01*
X526320Y158103D01*
X526304Y158092D01*
X526285Y158084D01*
X526173Y158003D01*
X526057Y157925D01*
X526044Y157909D01*
X526028Y157898D01*
X525939Y157790D01*
X525847Y157686D01*
X525838Y157668D01*
X525825Y157653D01*
X525765Y157527D01*
X525702Y157403D01*
X525698Y157383D01*
X525689Y157365D01*
X525663Y157228D01*
X525633Y157093D01*
X525633Y157072D01*
X525629Y157053D01*
X525638Y156914D01*
X525642Y156775D01*
X525648Y156755D01*
X525649Y156735D01*
X525692Y156603D01*
X525731Y156469D01*
X525741Y156452D01*
X525747Y156433D01*
X525822Y156315D01*
X525892Y156195D01*
X525911Y156174D01*
X525917Y156164D01*
X525932Y156150D01*
X525999Y156075D01*
X526721Y155352D01*
X526721Y147365D01*
X526722Y147356D01*
X526721Y147347D01*
X526742Y147198D01*
X526761Y147049D01*
X526764Y147041D01*
X526765Y147032D01*
X526817Y146879D01*
X527051Y146316D01*
X527051Y99060D01*
X527066Y98942D01*
X527073Y98823D01*
X527086Y98785D01*
X527091Y98744D01*
X527134Y98634D01*
X527171Y98521D01*
X527193Y98486D01*
X527208Y98449D01*
X527277Y98353D01*
X527341Y98252D01*
X527371Y98224D01*
X527394Y98191D01*
X527486Y98116D01*
X527573Y98034D01*
X527608Y98014D01*
X527639Y97989D01*
X527747Y97938D01*
X527851Y97880D01*
X527891Y97870D01*
X527927Y97853D01*
X528044Y97831D01*
X528159Y97801D01*
X528219Y97797D01*
X528239Y97793D01*
X528260Y97795D01*
X528320Y97791D01*
X582930Y97791D01*
X583048Y97806D01*
X583167Y97813D01*
X583205Y97826D01*
X583246Y97831D01*
X583356Y97874D01*
X583469Y97911D01*
X583504Y97933D01*
X583541Y97948D01*
X583637Y98018D01*
X583738Y98081D01*
X583766Y98111D01*
X583799Y98134D01*
X583875Y98226D01*
X583956Y98313D01*
X583976Y98348D01*
X584001Y98379D01*
X584052Y98487D01*
X584110Y98591D01*
X584120Y98631D01*
X584137Y98667D01*
X584159Y98784D01*
X584189Y98899D01*
X584193Y98960D01*
X584197Y98980D01*
X584195Y99000D01*
X584199Y99060D01*
X584199Y146316D01*
X584433Y146879D01*
X584435Y146888D01*
X584440Y146896D01*
X584477Y147041D01*
X584517Y147186D01*
X584517Y147195D01*
X584519Y147204D01*
X584529Y147365D01*
X584529Y155352D01*
X586018Y156841D01*
X597622Y156841D01*
X599111Y155352D01*
X599111Y147365D01*
X599112Y147356D01*
X599111Y147347D01*
X599132Y147198D01*
X599151Y147049D01*
X599154Y147041D01*
X599155Y147032D01*
X599207Y146879D01*
X599441Y146316D01*
X599441Y99060D01*
X599456Y98942D01*
X599463Y98823D01*
X599476Y98785D01*
X599481Y98744D01*
X599524Y98634D01*
X599561Y98521D01*
X599583Y98486D01*
X599598Y98449D01*
X599667Y98353D01*
X599731Y98252D01*
X599761Y98224D01*
X599784Y98191D01*
X599876Y98116D01*
X599963Y98034D01*
X599998Y98014D01*
X600029Y97989D01*
X600137Y97938D01*
X600241Y97880D01*
X600281Y97870D01*
X600317Y97853D01*
X600434Y97831D01*
X600549Y97801D01*
X600609Y97797D01*
X600629Y97793D01*
X600650Y97795D01*
X600710Y97791D01*
X655320Y97791D01*
X655438Y97806D01*
X655557Y97813D01*
X655595Y97826D01*
X655636Y97831D01*
X655746Y97874D01*
X655859Y97911D01*
X655894Y97933D01*
X655931Y97948D01*
X656027Y98018D01*
X656128Y98081D01*
X656156Y98111D01*
X656189Y98134D01*
X656265Y98226D01*
X656346Y98313D01*
X656366Y98348D01*
X656391Y98379D01*
X656442Y98487D01*
X656500Y98591D01*
X656510Y98631D01*
X656527Y98667D01*
X656549Y98784D01*
X656579Y98899D01*
X656583Y98960D01*
X656587Y98980D01*
X656585Y99000D01*
X656589Y99060D01*
X656589Y146316D01*
X656823Y146879D01*
X656825Y146888D01*
X656830Y146896D01*
X656867Y147042D01*
X656907Y147186D01*
X656907Y147195D01*
X656909Y147204D01*
X656919Y147365D01*
X656919Y155352D01*
X658408Y156841D01*
X665753Y156841D01*
X665891Y156858D01*
X666029Y156871D01*
X666048Y156878D01*
X666068Y156881D01*
X666197Y156932D01*
X666328Y156979D01*
X666345Y156990D01*
X666364Y156998D01*
X666476Y157079D01*
X666591Y157157D01*
X666605Y157173D01*
X666621Y157184D01*
X666710Y157292D01*
X666802Y157396D01*
X666811Y157414D01*
X666824Y157429D01*
X666883Y157555D01*
X666947Y157679D01*
X666951Y157699D01*
X666960Y157717D01*
X666986Y157854D01*
X667016Y157989D01*
X667016Y158010D01*
X667019Y158029D01*
X667011Y158168D01*
X667007Y158307D01*
X667001Y158327D01*
X667000Y158347D01*
X666957Y158479D01*
X666918Y158613D01*
X666908Y158630D01*
X666902Y158649D01*
X666827Y158767D01*
X666757Y158887D01*
X666738Y158908D01*
X666731Y158918D01*
X666716Y158932D01*
X666650Y159007D01*
X665834Y159824D01*
X664757Y162423D01*
X664757Y165237D01*
X665834Y167836D01*
X667824Y169826D01*
X670423Y170903D01*
X673237Y170903D01*
X675836Y169826D01*
X675872Y169790D01*
X675950Y169730D01*
X676022Y169662D01*
X676075Y169633D01*
X676123Y169596D01*
X676214Y169556D01*
X676301Y169508D01*
X676359Y169493D01*
X676415Y169469D01*
X676513Y169454D01*
X676609Y169429D01*
X676709Y169423D01*
X676729Y169419D01*
X676741Y169421D01*
X676769Y169419D01*
X680260Y169419D01*
X680378Y169434D01*
X680497Y169441D01*
X680535Y169454D01*
X680576Y169459D01*
X680686Y169502D01*
X680799Y169539D01*
X680834Y169561D01*
X680871Y169576D01*
X680967Y169645D01*
X681068Y169709D01*
X681096Y169739D01*
X681129Y169762D01*
X681205Y169854D01*
X681286Y169941D01*
X681306Y169976D01*
X681331Y170007D01*
X681382Y170115D01*
X681440Y170219D01*
X681450Y170259D01*
X681467Y170295D01*
X681489Y170412D01*
X681519Y170527D01*
X681521Y170554D01*
X683018Y172051D01*
X691122Y172051D01*
X692611Y170562D01*
X692611Y165740D01*
X692612Y165731D01*
X692611Y165722D01*
X692632Y165573D01*
X692651Y165424D01*
X692654Y165416D01*
X692655Y165407D01*
X692659Y165397D01*
X692659Y157720D01*
X692671Y157622D01*
X692674Y157523D01*
X692691Y157465D01*
X692699Y157405D01*
X692735Y157313D01*
X692763Y157217D01*
X692793Y157165D01*
X692816Y157109D01*
X692874Y157029D01*
X692924Y156943D01*
X692990Y156868D01*
X693002Y156852D01*
X693012Y156844D01*
X693030Y156823D01*
X694501Y155352D01*
X694501Y134248D01*
X693012Y132759D01*
X681408Y132759D01*
X679919Y134248D01*
X679919Y155352D01*
X680641Y156075D01*
X680726Y156184D01*
X680815Y156291D01*
X680824Y156310D01*
X680836Y156326D01*
X680892Y156453D01*
X680951Y156579D01*
X680955Y156599D01*
X680963Y156618D01*
X680985Y156756D01*
X681011Y156892D01*
X681009Y156912D01*
X681013Y156932D01*
X680999Y157071D01*
X680991Y157209D01*
X680985Y157228D01*
X680983Y157248D01*
X680936Y157380D01*
X680893Y157511D01*
X680882Y157529D01*
X680875Y157548D01*
X680797Y157663D01*
X680723Y157780D01*
X680708Y157794D01*
X680697Y157811D01*
X680592Y157903D01*
X680491Y157998D01*
X680473Y158008D01*
X680458Y158021D01*
X680334Y158084D01*
X680213Y158152D01*
X680193Y158157D01*
X680175Y158166D01*
X680039Y158196D01*
X679905Y158231D01*
X679877Y158233D01*
X679865Y158236D01*
X679844Y158235D01*
X679744Y158241D01*
X676769Y158241D01*
X676671Y158229D01*
X676572Y158226D01*
X676514Y158209D01*
X676454Y158201D01*
X676362Y158165D01*
X676267Y158137D01*
X676214Y158107D01*
X676158Y158084D01*
X676078Y158026D01*
X675993Y157976D01*
X675917Y157910D01*
X675901Y157898D01*
X675893Y157888D01*
X675872Y157870D01*
X675836Y157834D01*
X673237Y156757D01*
X672770Y156757D01*
X672652Y156742D01*
X672533Y156735D01*
X672495Y156722D01*
X672454Y156717D01*
X672344Y156674D01*
X672231Y156637D01*
X672196Y156615D01*
X672159Y156600D01*
X672063Y156531D01*
X671962Y156467D01*
X671934Y156437D01*
X671901Y156414D01*
X671825Y156322D01*
X671744Y156235D01*
X671724Y156200D01*
X671699Y156169D01*
X671648Y156061D01*
X671590Y155957D01*
X671580Y155917D01*
X671563Y155881D01*
X671541Y155764D01*
X671511Y155649D01*
X671507Y155589D01*
X671503Y155569D01*
X671505Y155548D01*
X671501Y155488D01*
X671501Y147365D01*
X671502Y147356D01*
X671501Y147347D01*
X671522Y147198D01*
X671541Y147049D01*
X671544Y147041D01*
X671545Y147032D01*
X671597Y146879D01*
X671831Y146316D01*
X671831Y99060D01*
X671846Y98942D01*
X671853Y98823D01*
X671866Y98785D01*
X671871Y98744D01*
X671914Y98634D01*
X671951Y98521D01*
X671973Y98486D01*
X671988Y98449D01*
X672057Y98353D01*
X672121Y98252D01*
X672151Y98224D01*
X672174Y98191D01*
X672266Y98116D01*
X672353Y98034D01*
X672388Y98014D01*
X672419Y97989D01*
X672527Y97938D01*
X672631Y97880D01*
X672671Y97870D01*
X672707Y97853D01*
X672824Y97831D01*
X672939Y97801D01*
X672999Y97797D01*
X673019Y97793D01*
X673040Y97795D01*
X673100Y97791D01*
X727710Y97791D01*
X727828Y97806D01*
X727947Y97813D01*
X727985Y97826D01*
X728026Y97831D01*
X728136Y97874D01*
X728249Y97911D01*
X728284Y97933D01*
X728321Y97948D01*
X728417Y98018D01*
X728518Y98081D01*
X728546Y98111D01*
X728579Y98134D01*
X728655Y98226D01*
X728736Y98313D01*
X728756Y98348D01*
X728781Y98379D01*
X728832Y98487D01*
X728890Y98591D01*
X728900Y98631D01*
X728917Y98667D01*
X728939Y98784D01*
X728969Y98899D01*
X728973Y98960D01*
X728977Y98980D01*
X728975Y99000D01*
X728979Y99060D01*
X728979Y146316D01*
X729213Y146879D01*
X729215Y146888D01*
X729220Y146896D01*
X729257Y147041D01*
X729297Y147186D01*
X729297Y147195D01*
X729299Y147204D01*
X729309Y147365D01*
X729309Y155352D01*
X730031Y156075D01*
X730116Y156184D01*
X730205Y156291D01*
X730214Y156310D01*
X730226Y156326D01*
X730282Y156453D01*
X730341Y156579D01*
X730345Y156599D01*
X730353Y156618D01*
X730375Y156756D01*
X730401Y156892D01*
X730399Y156912D01*
X730403Y156932D01*
X730389Y157071D01*
X730381Y157209D01*
X730375Y157228D01*
X730373Y157248D01*
X730326Y157380D01*
X730283Y157511D01*
X730272Y157529D01*
X730265Y157548D01*
X730187Y157663D01*
X730113Y157780D01*
X730098Y157794D01*
X730087Y157811D01*
X729982Y157903D01*
X729881Y157998D01*
X729863Y158008D01*
X729848Y158021D01*
X729724Y158084D01*
X729603Y158152D01*
X729583Y158157D01*
X729565Y158166D01*
X729429Y158196D01*
X729295Y158231D01*
X729267Y158233D01*
X729255Y158236D01*
X729234Y158235D01*
X729134Y158241D01*
X713599Y158241D01*
X713501Y158229D01*
X713402Y158226D01*
X713344Y158209D01*
X713284Y158201D01*
X713192Y158165D01*
X713097Y158137D01*
X713044Y158107D01*
X712988Y158084D01*
X712908Y158026D01*
X712823Y157976D01*
X712747Y157910D01*
X712731Y157898D01*
X712723Y157888D01*
X712702Y157870D01*
X712666Y157834D01*
X710067Y156757D01*
X707253Y156757D01*
X704654Y157834D01*
X702664Y159824D01*
X701587Y162423D01*
X701587Y165237D01*
X702664Y167836D01*
X704654Y169826D01*
X707253Y170903D01*
X710067Y170903D01*
X712666Y169826D01*
X712702Y169790D01*
X712780Y169730D01*
X712852Y169662D01*
X712905Y169633D01*
X712953Y169596D01*
X713044Y169556D01*
X713131Y169508D01*
X713189Y169493D01*
X713245Y169469D01*
X713343Y169454D01*
X713439Y169429D01*
X713539Y169423D01*
X713559Y169419D01*
X713571Y169421D01*
X713599Y169419D01*
X733600Y169419D01*
X733718Y169434D01*
X733837Y169441D01*
X733875Y169454D01*
X733916Y169459D01*
X734026Y169502D01*
X734139Y169539D01*
X734174Y169561D01*
X734211Y169576D01*
X734307Y169645D01*
X734408Y169709D01*
X734436Y169739D01*
X734469Y169762D01*
X734545Y169854D01*
X734626Y169941D01*
X734646Y169976D01*
X734671Y170007D01*
X734722Y170115D01*
X734780Y170219D01*
X734790Y170259D01*
X734807Y170295D01*
X734829Y170412D01*
X734859Y170527D01*
X734863Y170587D01*
X734867Y170607D01*
X734865Y170628D01*
X734869Y170688D01*
X734869Y171832D01*
X736358Y173321D01*
X744462Y173321D01*
X745951Y171832D01*
X745951Y171118D01*
X745966Y171000D01*
X745973Y170881D01*
X745986Y170843D01*
X745991Y170802D01*
X746034Y170692D01*
X746071Y170579D01*
X746093Y170544D01*
X746108Y170507D01*
X746177Y170411D01*
X746241Y170310D01*
X746271Y170282D01*
X746294Y170249D01*
X746386Y170173D01*
X746473Y170092D01*
X746508Y170072D01*
X746539Y170047D01*
X746647Y169996D01*
X746751Y169938D01*
X746791Y169928D01*
X746827Y169911D01*
X746944Y169889D01*
X747059Y169859D01*
X747119Y169855D01*
X747139Y169851D01*
X747160Y169853D01*
X747220Y169849D01*
X748712Y169849D01*
X750766Y168998D01*
X762551Y157212D01*
X762629Y157152D01*
X762702Y157084D01*
X762755Y157055D01*
X762802Y157018D01*
X762893Y156978D01*
X762980Y156930D01*
X763039Y156915D01*
X763094Y156891D01*
X763192Y156876D01*
X763288Y156851D01*
X763388Y156845D01*
X763408Y156841D01*
X763421Y156843D01*
X763449Y156841D01*
X765402Y156841D01*
X766891Y155352D01*
X766891Y134248D01*
X765402Y132759D01*
X753798Y132759D01*
X752309Y134248D01*
X752309Y151121D01*
X752297Y151220D01*
X752294Y151319D01*
X752277Y151377D01*
X752269Y151437D01*
X752233Y151529D01*
X752205Y151624D01*
X752175Y151676D01*
X752152Y151733D01*
X752094Y151813D01*
X752044Y151898D01*
X751978Y151973D01*
X751966Y151990D01*
X751956Y151998D01*
X751938Y152019D01*
X746237Y157719D01*
X746143Y157792D01*
X746054Y157871D01*
X746018Y157889D01*
X745986Y157914D01*
X745877Y157961D01*
X745771Y158015D01*
X745731Y158024D01*
X745694Y158040D01*
X745576Y158059D01*
X745460Y158085D01*
X745420Y158084D01*
X745380Y158090D01*
X745261Y158079D01*
X745143Y158075D01*
X745104Y158064D01*
X745063Y158060D01*
X744951Y158020D01*
X744837Y157987D01*
X744802Y157967D01*
X744764Y157953D01*
X744666Y157886D01*
X744563Y157826D01*
X744518Y157786D01*
X744501Y157774D01*
X744488Y157759D01*
X744448Y157724D01*
X744430Y157722D01*
X744292Y157709D01*
X744273Y157702D01*
X744253Y157699D01*
X744123Y157648D01*
X743992Y157601D01*
X743976Y157590D01*
X743957Y157582D01*
X743844Y157501D01*
X743729Y157423D01*
X743716Y157407D01*
X743700Y157396D01*
X743611Y157288D01*
X743519Y157184D01*
X743510Y157166D01*
X743497Y157151D01*
X743438Y157025D01*
X743374Y156901D01*
X743370Y156881D01*
X743361Y156863D01*
X743335Y156727D01*
X743305Y156591D01*
X743305Y156570D01*
X743301Y156551D01*
X743310Y156412D01*
X743314Y156273D01*
X743320Y156253D01*
X743321Y156233D01*
X743364Y156101D01*
X743403Y155967D01*
X743413Y155950D01*
X743419Y155931D01*
X743494Y155813D01*
X743564Y155693D01*
X743583Y155672D01*
X743589Y155662D01*
X743604Y155648D01*
X743671Y155572D01*
X743891Y155352D01*
X743891Y147365D01*
X743892Y147356D01*
X743891Y147347D01*
X743912Y147198D01*
X743931Y147049D01*
X743934Y147041D01*
X743935Y147032D01*
X743987Y146879D01*
X744221Y146316D01*
X744221Y99060D01*
X744236Y98942D01*
X744243Y98823D01*
X744256Y98785D01*
X744261Y98744D01*
X744304Y98634D01*
X744341Y98521D01*
X744363Y98486D01*
X744378Y98449D01*
X744447Y98353D01*
X744511Y98252D01*
X744541Y98224D01*
X744564Y98191D01*
X744656Y98116D01*
X744743Y98034D01*
X744778Y98014D01*
X744809Y97989D01*
X744917Y97938D01*
X745021Y97880D01*
X745061Y97870D01*
X745097Y97853D01*
X745214Y97831D01*
X745329Y97801D01*
X745389Y97797D01*
X745409Y97793D01*
X745430Y97795D01*
X745490Y97791D01*
X774575Y97791D01*
X774693Y97806D01*
X774812Y97813D01*
X774850Y97826D01*
X774891Y97831D01*
X775001Y97874D01*
X775114Y97911D01*
X775149Y97933D01*
X775186Y97948D01*
X775282Y98018D01*
X775383Y98081D01*
X775411Y98111D01*
X775444Y98134D01*
X775520Y98226D01*
X775601Y98313D01*
X775621Y98348D01*
X775646Y98379D01*
X775697Y98487D01*
X775755Y98591D01*
X775765Y98631D01*
X775782Y98667D01*
X775804Y98784D01*
X775834Y98899D01*
X775838Y98960D01*
X775842Y98980D01*
X775840Y99000D01*
X775844Y99060D01*
X775844Y260916D01*
X775827Y261054D01*
X775814Y261192D01*
X775807Y261212D01*
X775804Y261232D01*
X775753Y261361D01*
X775706Y261492D01*
X775695Y261509D01*
X775687Y261527D01*
X775606Y261639D01*
X775528Y261755D01*
X775512Y261768D01*
X775501Y261785D01*
X775393Y261873D01*
X775289Y261965D01*
X775271Y261975D01*
X775256Y261988D01*
X775130Y262047D01*
X775006Y262110D01*
X774986Y262114D01*
X774968Y262123D01*
X774832Y262149D01*
X774696Y262180D01*
X774675Y262179D01*
X774656Y262183D01*
X774517Y262174D01*
X774378Y262170D01*
X774358Y262164D01*
X774338Y262163D01*
X774206Y262120D01*
X774072Y262082D01*
X774055Y262071D01*
X774036Y262065D01*
X773918Y261990D01*
X773798Y261920D01*
X773777Y261901D01*
X773767Y261895D01*
X773753Y261880D01*
X773678Y261814D01*
X764593Y252729D01*
X746707Y252729D01*
X734059Y265377D01*
X734059Y265646D01*
X734056Y265675D01*
X734058Y265705D01*
X734036Y265833D01*
X734019Y265962D01*
X734009Y265989D01*
X734004Y266018D01*
X733950Y266137D01*
X733902Y266257D01*
X733885Y266281D01*
X733873Y266308D01*
X733792Y266410D01*
X733716Y266515D01*
X733693Y266534D01*
X733674Y266557D01*
X733571Y266635D01*
X733471Y266717D01*
X733444Y266730D01*
X733420Y266748D01*
X733276Y266819D01*
X730763Y267859D01*
X724035Y274588D01*
X723957Y274648D01*
X723885Y274716D01*
X723832Y274745D01*
X723784Y274782D01*
X723693Y274822D01*
X723606Y274870D01*
X723548Y274885D01*
X723492Y274909D01*
X723394Y274924D01*
X723298Y274949D01*
X723198Y274955D01*
X723178Y274959D01*
X723166Y274957D01*
X723138Y274959D01*
X706213Y274959D01*
X704724Y276448D01*
X704724Y294552D01*
X706213Y296041D01*
X726347Y296041D01*
X727836Y294552D01*
X727836Y292867D01*
X727848Y292769D01*
X727851Y292670D01*
X727868Y292612D01*
X727876Y292552D01*
X727912Y292460D01*
X727940Y292365D01*
X727970Y292312D01*
X727993Y292256D01*
X728051Y292176D01*
X728101Y292091D01*
X728167Y292015D01*
X728179Y291999D01*
X728189Y291991D01*
X728207Y291970D01*
X734589Y285588D01*
X734683Y285515D01*
X734773Y285436D01*
X734808Y285418D01*
X734840Y285393D01*
X734950Y285346D01*
X735056Y285292D01*
X735095Y285283D01*
X735132Y285267D01*
X735250Y285248D01*
X735366Y285222D01*
X735406Y285223D01*
X735446Y285217D01*
X735565Y285228D01*
X735684Y285232D01*
X735723Y285243D01*
X735763Y285247D01*
X735875Y285287D01*
X735989Y285320D01*
X736024Y285341D01*
X736062Y285354D01*
X736161Y285421D01*
X736263Y285482D01*
X736309Y285522D01*
X736325Y285533D01*
X736339Y285548D01*
X736384Y285588D01*
X746707Y295911D01*
X764593Y295911D01*
X773678Y286826D01*
X773787Y286741D01*
X773894Y286652D01*
X773913Y286644D01*
X773929Y286631D01*
X774057Y286576D01*
X774182Y286517D01*
X774202Y286513D01*
X774221Y286505D01*
X774359Y286483D01*
X774495Y286457D01*
X774515Y286458D01*
X774535Y286455D01*
X774674Y286468D01*
X774812Y286477D01*
X774831Y286483D01*
X774851Y286485D01*
X774983Y286532D01*
X775114Y286575D01*
X775132Y286586D01*
X775151Y286593D01*
X775266Y286671D01*
X775383Y286745D01*
X775397Y286760D01*
X775414Y286771D01*
X775506Y286876D01*
X775601Y286977D01*
X775611Y286994D01*
X775624Y287010D01*
X775688Y287134D01*
X775755Y287255D01*
X775760Y287275D01*
X775769Y287293D01*
X775799Y287429D01*
X775834Y287563D01*
X775836Y287591D01*
X775839Y287603D01*
X775838Y287624D01*
X775844Y287724D01*
X775844Y340895D01*
X775829Y341013D01*
X775822Y341132D01*
X775809Y341170D01*
X775804Y341211D01*
X775761Y341321D01*
X775724Y341434D01*
X775702Y341469D01*
X775687Y341506D01*
X775618Y341602D01*
X775554Y341703D01*
X775524Y341731D01*
X775501Y341764D01*
X775409Y341840D01*
X775322Y341921D01*
X775287Y341941D01*
X775256Y341966D01*
X775148Y342017D01*
X775044Y342075D01*
X775004Y342085D01*
X774968Y342102D01*
X774851Y342124D01*
X774736Y342154D01*
X774676Y342158D01*
X774656Y342162D01*
X774635Y342160D01*
X774575Y342164D01*
X500524Y342164D01*
X500454Y342156D01*
X500385Y342157D01*
X500297Y342136D01*
X500208Y342124D01*
X500143Y342099D01*
X500075Y342082D01*
X499996Y342040D01*
X499913Y342007D01*
X499856Y341966D01*
X499794Y341934D01*
X499728Y341873D01*
X499655Y341821D01*
X499611Y341767D01*
X499559Y341720D01*
X499510Y341645D01*
X499452Y341576D01*
X499423Y341512D01*
X499384Y341454D01*
X499355Y341369D01*
X499317Y341288D01*
X499304Y341219D01*
X499281Y341153D01*
X499274Y341064D01*
X499257Y340976D01*
X499261Y340906D01*
X499256Y340836D01*
X499271Y340748D01*
X499277Y340658D01*
X499298Y340592D01*
X499310Y340523D01*
X499347Y340441D01*
X499375Y340356D01*
X499412Y340297D01*
X499441Y340233D01*
X499497Y340163D01*
X499545Y340087D01*
X499596Y340039D01*
X499639Y339985D01*
X499711Y339930D01*
X499777Y339869D01*
X499838Y339835D01*
X499894Y339793D01*
X500038Y339722D01*
X500311Y339609D01*
X509789Y330131D01*
X510809Y327670D01*
X510834Y327626D01*
X510851Y327579D01*
X510912Y327489D01*
X510966Y327394D01*
X511001Y327358D01*
X511029Y327316D01*
X511111Y327244D01*
X511188Y327165D01*
X511230Y327139D01*
X511268Y327106D01*
X511365Y327056D01*
X511459Y326999D01*
X511506Y326984D01*
X511551Y326961D01*
X511658Y326937D01*
X511763Y326905D01*
X511813Y326903D01*
X511861Y326892D01*
X511971Y326895D01*
X512080Y326890D01*
X512129Y326900D01*
X512179Y326902D01*
X512224Y326915D01*
X521244Y326915D01*
X522733Y325426D01*
X522733Y320778D01*
X522745Y320679D01*
X522748Y320580D01*
X522765Y320522D01*
X522773Y320462D01*
X522809Y320370D01*
X522837Y320275D01*
X522867Y320223D01*
X522890Y320166D01*
X522948Y320086D01*
X522998Y320001D01*
X523064Y319925D01*
X523076Y319909D01*
X523086Y319901D01*
X523104Y319880D01*
X529938Y313046D01*
X530016Y312986D01*
X530088Y312918D01*
X530141Y312889D01*
X530189Y312852D01*
X530280Y312812D01*
X530367Y312764D01*
X530425Y312749D01*
X530481Y312725D01*
X530579Y312710D01*
X530675Y312685D01*
X530775Y312679D01*
X530795Y312675D01*
X530808Y312677D01*
X530836Y312675D01*
X582208Y312675D01*
X582307Y312687D01*
X582406Y312690D01*
X582464Y312707D01*
X582524Y312715D01*
X582616Y312751D01*
X582711Y312779D01*
X582763Y312809D01*
X582820Y312832D01*
X582900Y312890D01*
X582985Y312940D01*
X583061Y313006D01*
X583077Y313018D01*
X583085Y313028D01*
X583106Y313046D01*
X608399Y338339D01*
X610826Y339345D01*
X670604Y339345D01*
X673031Y338339D01*
X682509Y328861D01*
X683157Y327298D01*
X683181Y327255D01*
X683198Y327208D01*
X683260Y327117D01*
X683314Y327022D01*
X683349Y326986D01*
X683377Y326945D01*
X683459Y326872D01*
X683536Y326793D01*
X683578Y326767D01*
X683615Y326734D01*
X683713Y326684D01*
X683807Y326627D01*
X683854Y326612D01*
X683899Y326590D01*
X684006Y326566D01*
X684111Y326533D01*
X684160Y326531D01*
X684209Y326520D01*
X684319Y326523D01*
X684428Y326518D01*
X684477Y326528D01*
X684527Y326530D01*
X684632Y326560D01*
X684740Y326582D01*
X684785Y326604D01*
X684832Y326618D01*
X684927Y326674D01*
X685026Y326722D01*
X685063Y326754D01*
X685106Y326780D01*
X685227Y326886D01*
X685256Y326915D01*
X693964Y326915D01*
X695453Y325426D01*
X695453Y324628D01*
X695468Y324510D01*
X695475Y324391D01*
X695488Y324353D01*
X695493Y324312D01*
X695536Y324202D01*
X695573Y324089D01*
X695595Y324054D01*
X695610Y324017D01*
X695679Y323921D01*
X695743Y323820D01*
X695773Y323792D01*
X695796Y323759D01*
X695888Y323683D01*
X695975Y323602D01*
X696010Y323582D01*
X696041Y323557D01*
X696149Y323506D01*
X696253Y323448D01*
X696293Y323438D01*
X696329Y323421D01*
X696446Y323399D01*
X696561Y323369D01*
X696621Y323365D01*
X696641Y323361D01*
X696662Y323363D01*
X696722Y323359D01*
X704565Y323359D01*
X704663Y323371D01*
X704762Y323374D01*
X704820Y323391D01*
X704880Y323399D01*
X704972Y323435D01*
X705068Y323463D01*
X705120Y323493D01*
X705176Y323516D01*
X705256Y323574D01*
X705342Y323624D01*
X705417Y323690D01*
X705433Y323702D01*
X705441Y323712D01*
X705462Y323731D01*
X706213Y324481D01*
X726347Y324481D01*
X727836Y322992D01*
X727836Y304888D01*
X726347Y303399D01*
X706213Y303399D01*
X704724Y304888D01*
X704724Y308880D01*
X704709Y308998D01*
X704702Y309117D01*
X704689Y309155D01*
X704684Y309196D01*
X704641Y309306D01*
X704604Y309419D01*
X704582Y309454D01*
X704567Y309491D01*
X704498Y309587D01*
X704434Y309688D01*
X704404Y309716D01*
X704381Y309749D01*
X704289Y309825D01*
X704202Y309906D01*
X704167Y309926D01*
X704136Y309951D01*
X704028Y310002D01*
X703924Y310060D01*
X703884Y310070D01*
X703848Y310087D01*
X703731Y310109D01*
X703616Y310139D01*
X703556Y310143D01*
X703536Y310147D01*
X703515Y310145D01*
X703455Y310149D01*
X696722Y310149D01*
X696604Y310134D01*
X696485Y310127D01*
X696447Y310114D01*
X696406Y310109D01*
X696296Y310066D01*
X696183Y310029D01*
X696148Y310007D01*
X696111Y309992D01*
X696015Y309923D01*
X695914Y309859D01*
X695886Y309829D01*
X695853Y309806D01*
X695777Y309714D01*
X695696Y309627D01*
X695676Y309592D01*
X695651Y309561D01*
X695600Y309453D01*
X695542Y309349D01*
X695532Y309309D01*
X695515Y309273D01*
X695493Y309156D01*
X695463Y309041D01*
X695459Y308981D01*
X695455Y308961D01*
X695457Y308940D01*
X695453Y308880D01*
X695453Y308082D01*
X693964Y306593D01*
X685256Y306593D01*
X684157Y307691D01*
X684063Y307764D01*
X683974Y307843D01*
X683938Y307861D01*
X683906Y307886D01*
X683797Y307934D01*
X683691Y307988D01*
X683652Y307997D01*
X683614Y308013D01*
X683497Y308031D01*
X683381Y308057D01*
X683340Y308056D01*
X683300Y308062D01*
X683182Y308051D01*
X683063Y308048D01*
X683024Y308036D01*
X682984Y308033D01*
X682872Y307992D01*
X682757Y307959D01*
X682722Y307939D01*
X682684Y307925D01*
X682586Y307858D01*
X682483Y307798D01*
X682438Y307758D01*
X682421Y307746D01*
X682408Y307731D01*
X682362Y307691D01*
X681264Y306593D01*
X672556Y306593D01*
X671457Y307691D01*
X671363Y307764D01*
X671274Y307843D01*
X671238Y307861D01*
X671206Y307886D01*
X671097Y307934D01*
X670991Y307988D01*
X670952Y307997D01*
X670914Y308013D01*
X670797Y308031D01*
X670681Y308057D01*
X670640Y308056D01*
X670600Y308062D01*
X670482Y308051D01*
X670363Y308048D01*
X670324Y308036D01*
X670284Y308033D01*
X670172Y307992D01*
X670057Y307959D01*
X670022Y307939D01*
X669984Y307925D01*
X669886Y307858D01*
X669783Y307798D01*
X669738Y307758D01*
X669721Y307746D01*
X669708Y307731D01*
X669662Y307691D01*
X668564Y306593D01*
X659856Y306593D01*
X658757Y307691D01*
X658663Y307764D01*
X658574Y307843D01*
X658538Y307861D01*
X658506Y307886D01*
X658397Y307934D01*
X658291Y307988D01*
X658252Y307997D01*
X658214Y308013D01*
X658097Y308031D01*
X657981Y308057D01*
X657940Y308056D01*
X657900Y308062D01*
X657782Y308051D01*
X657663Y308048D01*
X657624Y308036D01*
X657584Y308033D01*
X657472Y307992D01*
X657357Y307959D01*
X657322Y307939D01*
X657284Y307925D01*
X657186Y307858D01*
X657083Y307798D01*
X657038Y307758D01*
X657021Y307746D01*
X657008Y307731D01*
X656962Y307691D01*
X655864Y306593D01*
X647156Y306593D01*
X645667Y308082D01*
X645667Y308880D01*
X645652Y308998D01*
X645645Y309117D01*
X645632Y309155D01*
X645627Y309196D01*
X645584Y309306D01*
X645547Y309419D01*
X645525Y309454D01*
X645510Y309491D01*
X645441Y309587D01*
X645377Y309688D01*
X645347Y309716D01*
X645324Y309749D01*
X645232Y309825D01*
X645145Y309906D01*
X645110Y309926D01*
X645079Y309951D01*
X644971Y310002D01*
X644867Y310060D01*
X644827Y310070D01*
X644791Y310087D01*
X644674Y310109D01*
X644559Y310139D01*
X644499Y310143D01*
X644479Y310147D01*
X644458Y310145D01*
X644398Y310149D01*
X637665Y310149D01*
X637547Y310134D01*
X637428Y310127D01*
X637390Y310114D01*
X637349Y310109D01*
X637239Y310066D01*
X637126Y310029D01*
X637091Y310007D01*
X637054Y309992D01*
X636958Y309923D01*
X636857Y309859D01*
X636829Y309829D01*
X636796Y309806D01*
X636720Y309714D01*
X636639Y309627D01*
X636619Y309592D01*
X636594Y309561D01*
X636543Y309453D01*
X636485Y309349D01*
X636475Y309309D01*
X636458Y309273D01*
X636436Y309156D01*
X636406Y309041D01*
X636402Y308981D01*
X636398Y308961D01*
X636400Y308940D01*
X636396Y308880D01*
X636396Y307428D01*
X634907Y305939D01*
X614773Y305939D01*
X613284Y307428D01*
X613284Y321480D01*
X613267Y321617D01*
X613254Y321756D01*
X613247Y321775D01*
X613244Y321795D01*
X613193Y321924D01*
X613146Y322055D01*
X613135Y322072D01*
X613127Y322091D01*
X613046Y322203D01*
X612968Y322318D01*
X612952Y322332D01*
X612941Y322348D01*
X612833Y322437D01*
X612729Y322529D01*
X612711Y322538D01*
X612696Y322551D01*
X612570Y322610D01*
X612446Y322673D01*
X612426Y322678D01*
X612408Y322686D01*
X612272Y322713D01*
X612136Y322743D01*
X612115Y322742D01*
X612096Y322746D01*
X611957Y322738D01*
X611818Y322733D01*
X611798Y322728D01*
X611778Y322726D01*
X611646Y322684D01*
X611512Y322645D01*
X611495Y322635D01*
X611476Y322628D01*
X611358Y322554D01*
X611238Y322483D01*
X611217Y322465D01*
X611207Y322458D01*
X611193Y322443D01*
X611118Y322377D01*
X591288Y302547D01*
X591203Y302438D01*
X591114Y302331D01*
X591105Y302312D01*
X591093Y302296D01*
X591038Y302168D01*
X590979Y302043D01*
X590975Y302023D01*
X590967Y302004D01*
X590945Y301866D01*
X590919Y301730D01*
X590920Y301710D01*
X590917Y301690D01*
X590930Y301551D01*
X590939Y301413D01*
X590945Y301394D01*
X590947Y301374D01*
X590994Y301242D01*
X591037Y301111D01*
X591047Y301093D01*
X591054Y301074D01*
X591132Y300959D01*
X591207Y300842D01*
X591221Y300828D01*
X591233Y300811D01*
X591337Y300719D01*
X591438Y300624D01*
X591456Y300614D01*
X591471Y300601D01*
X591595Y300537D01*
X591717Y300470D01*
X591736Y300465D01*
X591754Y300456D01*
X591890Y300426D01*
X592025Y300391D01*
X592053Y300389D01*
X592065Y300386D01*
X592085Y300387D01*
X592185Y300381D01*
X629149Y300381D01*
X632416Y299027D01*
X632491Y298952D01*
X632569Y298892D01*
X632641Y298824D01*
X632694Y298795D01*
X632742Y298758D01*
X632833Y298718D01*
X632920Y298670D01*
X632978Y298655D01*
X633034Y298631D01*
X633132Y298616D01*
X633228Y298591D01*
X633328Y298585D01*
X633348Y298581D01*
X633360Y298583D01*
X633388Y298581D01*
X634907Y298581D01*
X636396Y297092D01*
X636396Y278988D01*
X634907Y277499D01*
X614773Y277499D01*
X613284Y278988D01*
X613284Y281330D01*
X613269Y281448D01*
X613262Y281567D01*
X613249Y281605D01*
X613244Y281646D01*
X613201Y281756D01*
X613164Y281869D01*
X613142Y281904D01*
X613127Y281941D01*
X613058Y282037D01*
X612994Y282138D01*
X612964Y282166D01*
X612941Y282199D01*
X612849Y282275D01*
X612762Y282356D01*
X612727Y282376D01*
X612696Y282401D01*
X612588Y282452D01*
X612484Y282510D01*
X612444Y282520D01*
X612408Y282537D01*
X612291Y282559D01*
X612176Y282589D01*
X612116Y282593D01*
X612096Y282597D01*
X612075Y282595D01*
X612015Y282599D01*
X594614Y282599D01*
X594496Y282584D01*
X594377Y282577D01*
X594339Y282564D01*
X594298Y282559D01*
X594188Y282516D01*
X594075Y282479D01*
X594040Y282457D01*
X594003Y282442D01*
X593907Y282373D01*
X593806Y282309D01*
X593778Y282279D01*
X593745Y282256D01*
X593669Y282164D01*
X593588Y282077D01*
X593568Y282042D01*
X593543Y282011D01*
X593492Y281903D01*
X593434Y281799D01*
X593424Y281759D01*
X593407Y281723D01*
X593385Y281606D01*
X593355Y281491D01*
X593351Y281431D01*
X593347Y281411D01*
X593349Y281390D01*
X593345Y281330D01*
X593345Y267390D01*
X593360Y267272D01*
X593367Y267153D01*
X593380Y267115D01*
X593385Y267074D01*
X593428Y266964D01*
X593465Y266851D01*
X593487Y266816D01*
X593502Y266779D01*
X593571Y266683D01*
X593635Y266582D01*
X593665Y266554D01*
X593688Y266521D01*
X593780Y266445D01*
X593867Y266364D01*
X593902Y266344D01*
X593933Y266319D01*
X594041Y266268D01*
X594145Y266210D01*
X594185Y266200D01*
X594221Y266183D01*
X594338Y266161D01*
X594453Y266131D01*
X594513Y266127D01*
X594533Y266123D01*
X594554Y266125D01*
X594614Y266121D01*
X607292Y266121D01*
X608781Y264632D01*
X608781Y253503D01*
X608729Y253444D01*
X608710Y253408D01*
X608686Y253376D01*
X608638Y253267D01*
X608584Y253161D01*
X608575Y253121D01*
X608559Y253084D01*
X608541Y252966D01*
X608515Y252851D01*
X608516Y252810D01*
X608510Y252770D01*
X608521Y252651D01*
X608524Y252533D01*
X608536Y252494D01*
X608539Y252454D01*
X608580Y252341D01*
X608613Y252227D01*
X608633Y252192D01*
X608647Y252154D01*
X608714Y252056D01*
X608774Y251953D01*
X608781Y251946D01*
X608781Y240391D01*
X608784Y240361D01*
X608782Y240332D01*
X608804Y240204D01*
X608821Y240075D01*
X608831Y240048D01*
X608836Y240019D01*
X608890Y239900D01*
X608938Y239779D01*
X608955Y239755D01*
X608967Y239729D01*
X609048Y239627D01*
X609124Y239522D01*
X609147Y239503D01*
X609166Y239480D01*
X609269Y239402D01*
X609369Y239319D01*
X609396Y239307D01*
X609420Y239289D01*
X609564Y239218D01*
X611496Y238418D01*
X616623Y233290D01*
X616701Y233230D01*
X616774Y233162D01*
X616827Y233133D01*
X616874Y233096D01*
X616965Y233056D01*
X617052Y233008D01*
X617111Y232993D01*
X617166Y232969D01*
X617264Y232954D01*
X617360Y232929D01*
X617460Y232923D01*
X617480Y232919D01*
X617493Y232921D01*
X617521Y232919D01*
X644150Y232919D01*
X644268Y232934D01*
X644387Y232941D01*
X644425Y232954D01*
X644466Y232959D01*
X644576Y233002D01*
X644689Y233039D01*
X644724Y233061D01*
X644761Y233076D01*
X644857Y233145D01*
X644958Y233209D01*
X644986Y233239D01*
X645019Y233262D01*
X645095Y233354D01*
X645176Y233441D01*
X645196Y233476D01*
X645221Y233507D01*
X645272Y233615D01*
X645330Y233719D01*
X645340Y233759D01*
X645357Y233795D01*
X645379Y233912D01*
X645409Y234027D01*
X645413Y234087D01*
X645417Y234107D01*
X645415Y234128D01*
X645419Y234188D01*
X645419Y244072D01*
X645549Y244203D01*
X645610Y244281D01*
X645678Y244353D01*
X645707Y244406D01*
X645744Y244454D01*
X645784Y244545D01*
X645832Y244632D01*
X645847Y244690D01*
X645871Y244746D01*
X645886Y244844D01*
X645911Y244939D01*
X645917Y245039D01*
X645921Y245060D01*
X645919Y245072D01*
X645921Y245100D01*
X645921Y247834D01*
X645909Y247932D01*
X645906Y248031D01*
X645889Y248089D01*
X645881Y248149D01*
X645845Y248241D01*
X645817Y248337D01*
X645787Y248389D01*
X645764Y248445D01*
X645706Y248525D01*
X645667Y248591D01*
X645667Y265958D01*
X647156Y267447D01*
X655864Y267447D01*
X656962Y266349D01*
X657057Y266276D01*
X657146Y266197D01*
X657182Y266178D01*
X657214Y266154D01*
X657323Y266106D01*
X657429Y266052D01*
X657468Y266043D01*
X657506Y266027D01*
X657623Y266009D01*
X657739Y265983D01*
X657780Y265984D01*
X657820Y265978D01*
X657938Y265989D01*
X658057Y265992D01*
X658096Y266004D01*
X658136Y266007D01*
X658249Y266048D01*
X658363Y266081D01*
X658397Y266101D01*
X658436Y266115D01*
X658534Y266182D01*
X658637Y266242D01*
X658682Y266282D01*
X658699Y266294D01*
X658712Y266309D01*
X658757Y266349D01*
X659856Y267447D01*
X668564Y267447D01*
X669662Y266349D01*
X669757Y266276D01*
X669846Y266197D01*
X669882Y266178D01*
X669914Y266154D01*
X670023Y266106D01*
X670129Y266052D01*
X670168Y266043D01*
X670206Y266027D01*
X670323Y266009D01*
X670439Y265983D01*
X670480Y265984D01*
X670520Y265978D01*
X670638Y265989D01*
X670757Y265992D01*
X670796Y266004D01*
X670836Y266007D01*
X670949Y266048D01*
X671063Y266081D01*
X671097Y266101D01*
X671136Y266115D01*
X671234Y266182D01*
X671337Y266242D01*
X671382Y266282D01*
X671399Y266294D01*
X671412Y266309D01*
X671457Y266349D01*
X672556Y267447D01*
X681264Y267447D01*
X682753Y265958D01*
X682753Y248592D01*
X682742Y248581D01*
X682713Y248528D01*
X682676Y248480D01*
X682636Y248389D01*
X682588Y248302D01*
X682573Y248244D01*
X682549Y248188D01*
X682534Y248090D01*
X682509Y247995D01*
X682503Y247894D01*
X682499Y247874D01*
X682501Y247862D01*
X682499Y247834D01*
X682499Y246116D01*
X682516Y245978D01*
X682529Y245840D01*
X682536Y245821D01*
X682539Y245801D01*
X682590Y245671D01*
X682637Y245540D01*
X682648Y245524D01*
X682656Y245505D01*
X682737Y245392D01*
X682815Y245277D01*
X682831Y245264D01*
X682842Y245248D01*
X682950Y245159D01*
X683054Y245067D01*
X683072Y245058D01*
X683087Y245045D01*
X683213Y244985D01*
X683337Y244922D01*
X683357Y244918D01*
X683375Y244909D01*
X683512Y244883D01*
X683647Y244853D01*
X683668Y244853D01*
X683687Y244849D01*
X683826Y244858D01*
X683965Y244862D01*
X683985Y244868D01*
X684005Y244869D01*
X684137Y244912D01*
X684271Y244951D01*
X684288Y244961D01*
X684307Y244967D01*
X684425Y245042D01*
X684545Y245112D01*
X684566Y245131D01*
X684576Y245137D01*
X684590Y245152D01*
X684665Y245219D01*
X685008Y245561D01*
X694212Y245561D01*
X695701Y244072D01*
X695701Y233468D01*
X694436Y232203D01*
X694363Y232109D01*
X694284Y232019D01*
X694266Y231983D01*
X694241Y231951D01*
X694194Y231842D01*
X694140Y231736D01*
X694131Y231697D01*
X694115Y231660D01*
X694096Y231542D01*
X694070Y231426D01*
X694071Y231386D01*
X694065Y231346D01*
X694076Y231227D01*
X694080Y231108D01*
X694091Y231069D01*
X694095Y231029D01*
X694135Y230917D01*
X694168Y230803D01*
X694188Y230768D01*
X694202Y230730D01*
X694269Y230631D01*
X694329Y230529D01*
X694369Y230483D01*
X694381Y230467D01*
X694396Y230453D01*
X694436Y230408D01*
X716113Y208730D01*
X716191Y208670D01*
X716264Y208602D01*
X716317Y208573D01*
X716364Y208536D01*
X716455Y208496D01*
X716542Y208448D01*
X716601Y208433D01*
X716656Y208409D01*
X716754Y208394D01*
X716850Y208369D01*
X716950Y208363D01*
X716970Y208359D01*
X716983Y208361D01*
X717011Y208359D01*
X735782Y208359D01*
X737836Y207508D01*
X739586Y205757D01*
X749651Y195692D01*
X749729Y195632D01*
X749802Y195564D01*
X749855Y195535D01*
X749902Y195498D01*
X749993Y195458D01*
X750080Y195410D01*
X750139Y195395D01*
X750194Y195371D01*
X750292Y195356D01*
X750388Y195331D01*
X750488Y195325D01*
X750508Y195321D01*
X750521Y195323D01*
X750549Y195321D01*
X753962Y195321D01*
X755451Y193832D01*
X755451Y189010D01*
X755452Y189001D01*
X755451Y188991D01*
X755472Y188843D01*
X755491Y188694D01*
X755494Y188686D01*
X755495Y188676D01*
X755499Y188667D01*
X755499Y186358D01*
X755463Y186229D01*
X755463Y186220D01*
X755461Y186211D01*
X755451Y186050D01*
X755451Y181228D01*
X753962Y179739D01*
X745858Y179739D01*
X744369Y181228D01*
X744369Y184641D01*
X744357Y184740D01*
X744354Y184839D01*
X744337Y184897D01*
X744329Y184957D01*
X744293Y185049D01*
X744265Y185144D01*
X744235Y185196D01*
X744212Y185253D01*
X744154Y185333D01*
X744104Y185418D01*
X744038Y185493D01*
X744026Y185510D01*
X744016Y185518D01*
X743998Y185539D01*
X732727Y196810D01*
X732649Y196870D01*
X732576Y196938D01*
X732523Y196967D01*
X732476Y197004D01*
X732385Y197044D01*
X732298Y197092D01*
X732239Y197107D01*
X732184Y197131D01*
X732086Y197146D01*
X731990Y197171D01*
X731890Y197177D01*
X731870Y197181D01*
X731857Y197179D01*
X731829Y197181D01*
X713058Y197181D01*
X711004Y198032D01*
X697867Y211169D01*
X697758Y211254D01*
X697651Y211343D01*
X697632Y211351D01*
X697616Y211364D01*
X697488Y211419D01*
X697363Y211478D01*
X697343Y211482D01*
X697324Y211490D01*
X697186Y211512D01*
X697050Y211538D01*
X697030Y211537D01*
X697010Y211540D01*
X696871Y211527D01*
X696733Y211518D01*
X696714Y211512D01*
X696694Y211510D01*
X696562Y211463D01*
X696431Y211420D01*
X696413Y211409D01*
X696394Y211403D01*
X696279Y211325D01*
X696162Y211250D01*
X696148Y211235D01*
X696131Y211224D01*
X696039Y211120D01*
X695944Y211019D01*
X695934Y211001D01*
X695921Y210986D01*
X695857Y210862D01*
X695790Y210740D01*
X695785Y210720D01*
X695776Y210702D01*
X695746Y210567D01*
X695711Y210432D01*
X695709Y210404D01*
X695706Y210392D01*
X695707Y210372D01*
X695701Y210271D01*
X695701Y202968D01*
X694536Y201803D01*
X694463Y201709D01*
X694384Y201619D01*
X694366Y201583D01*
X694341Y201551D01*
X694294Y201442D01*
X694240Y201336D01*
X694231Y201297D01*
X694215Y201260D01*
X694196Y201142D01*
X694170Y201026D01*
X694171Y200986D01*
X694165Y200946D01*
X694176Y200827D01*
X694180Y200708D01*
X694191Y200669D01*
X694195Y200629D01*
X694235Y200517D01*
X694268Y200403D01*
X694288Y200368D01*
X694302Y200330D01*
X694369Y200231D01*
X694429Y200129D01*
X694469Y200083D01*
X694481Y200067D01*
X694496Y200053D01*
X694536Y200008D01*
X700121Y194422D01*
X700199Y194362D01*
X700272Y194294D01*
X700325Y194265D01*
X700372Y194228D01*
X700463Y194188D01*
X700511Y194162D01*
X702111Y192562D01*
X702111Y191550D01*
X702112Y191541D01*
X702111Y191532D01*
X702132Y191383D01*
X702151Y191234D01*
X702154Y191226D01*
X702155Y191217D01*
X702159Y191207D01*
X702159Y185088D01*
X702123Y184959D01*
X702123Y184950D01*
X702121Y184941D01*
X702111Y184780D01*
X702111Y179958D01*
X700622Y178469D01*
X692518Y178469D01*
X691029Y179958D01*
X691029Y184780D01*
X691028Y184789D01*
X691029Y184798D01*
X691008Y184947D01*
X690989Y185096D01*
X690986Y185104D01*
X690985Y185113D01*
X690981Y185123D01*
X690981Y187229D01*
X690969Y187328D01*
X690966Y187427D01*
X690949Y187485D01*
X690941Y187545D01*
X690905Y187637D01*
X690877Y187732D01*
X690847Y187784D01*
X690824Y187841D01*
X690766Y187921D01*
X690716Y188006D01*
X690650Y188081D01*
X690638Y188098D01*
X690628Y188106D01*
X690610Y188127D01*
X687237Y191500D01*
X687159Y191560D01*
X687086Y191628D01*
X687033Y191657D01*
X686986Y191694D01*
X686895Y191734D01*
X686808Y191782D01*
X686749Y191797D01*
X686694Y191821D01*
X686596Y191836D01*
X686500Y191861D01*
X686400Y191867D01*
X686380Y191871D01*
X686367Y191869D01*
X686339Y191871D01*
X669448Y191871D01*
X667394Y192722D01*
X659472Y200644D01*
X658970Y201855D01*
X658946Y201898D01*
X658929Y201945D01*
X658867Y202036D01*
X658813Y202132D01*
X658778Y202167D01*
X658750Y202208D01*
X658668Y202281D01*
X658592Y202360D01*
X658549Y202386D01*
X658512Y202419D01*
X658414Y202469D01*
X658320Y202526D01*
X658273Y202541D01*
X658229Y202564D01*
X658122Y202588D01*
X658017Y202620D01*
X657967Y202622D01*
X657918Y202633D01*
X657808Y202630D01*
X657699Y202635D01*
X657650Y202625D01*
X657601Y202624D01*
X657495Y202593D01*
X657387Y202571D01*
X657343Y202549D01*
X657295Y202535D01*
X657201Y202479D01*
X657102Y202431D01*
X657064Y202399D01*
X657021Y202374D01*
X656900Y202267D01*
X656112Y201479D01*
X646908Y201479D01*
X646077Y202310D01*
X645999Y202370D01*
X645927Y202438D01*
X645874Y202467D01*
X645826Y202504D01*
X645735Y202544D01*
X645648Y202592D01*
X645590Y202607D01*
X645534Y202631D01*
X645436Y202646D01*
X645341Y202671D01*
X645240Y202677D01*
X645220Y202681D01*
X645208Y202679D01*
X645180Y202681D01*
X634848Y202681D01*
X634730Y202666D01*
X634611Y202659D01*
X634573Y202646D01*
X634532Y202641D01*
X634422Y202598D01*
X634309Y202561D01*
X634274Y202539D01*
X634237Y202524D01*
X634141Y202455D01*
X634040Y202391D01*
X634012Y202361D01*
X633979Y202338D01*
X633903Y202246D01*
X633822Y202159D01*
X633802Y202124D01*
X633777Y202093D01*
X633726Y201985D01*
X633668Y201881D01*
X633658Y201841D01*
X633641Y201805D01*
X633619Y201688D01*
X633589Y201573D01*
X633585Y201513D01*
X633581Y201493D01*
X633583Y201472D01*
X633579Y201412D01*
X633579Y185088D01*
X633543Y184959D01*
X633543Y184950D01*
X633541Y184941D01*
X633531Y184780D01*
X633531Y179958D01*
X632042Y178469D01*
X623938Y178469D01*
X622449Y179958D01*
X622449Y184780D01*
X622448Y184789D01*
X622449Y184799D01*
X622428Y184947D01*
X622409Y185096D01*
X622406Y185104D01*
X622405Y185114D01*
X622401Y185123D01*
X622401Y201412D01*
X622386Y201530D01*
X622379Y201649D01*
X622366Y201687D01*
X622361Y201728D01*
X622318Y201838D01*
X622281Y201951D01*
X622259Y201986D01*
X622244Y202023D01*
X622175Y202119D01*
X622111Y202220D01*
X622081Y202248D01*
X622058Y202281D01*
X621966Y202357D01*
X621879Y202438D01*
X621844Y202458D01*
X621813Y202483D01*
X621705Y202534D01*
X621601Y202592D01*
X621561Y202602D01*
X621525Y202619D01*
X621408Y202641D01*
X621293Y202671D01*
X621233Y202675D01*
X621213Y202679D01*
X621192Y202677D01*
X621132Y202681D01*
X609260Y202681D01*
X609162Y202669D01*
X609063Y202666D01*
X609005Y202649D01*
X608945Y202641D01*
X608853Y202605D01*
X608757Y202577D01*
X608705Y202547D01*
X608649Y202524D01*
X608569Y202466D01*
X608484Y202416D01*
X608408Y202350D01*
X608392Y202338D01*
X608384Y202328D01*
X608363Y202310D01*
X607292Y201239D01*
X593688Y201239D01*
X592199Y202728D01*
X592199Y207685D01*
X592182Y207822D01*
X592169Y207961D01*
X592162Y207980D01*
X592159Y208000D01*
X592108Y208129D01*
X592061Y208260D01*
X592050Y208277D01*
X592042Y208296D01*
X591961Y208408D01*
X591883Y208523D01*
X591867Y208537D01*
X591856Y208553D01*
X591748Y208642D01*
X591644Y208734D01*
X591626Y208743D01*
X591611Y208756D01*
X591485Y208815D01*
X591361Y208878D01*
X591341Y208883D01*
X591323Y208891D01*
X591187Y208918D01*
X591051Y208948D01*
X591030Y208947D01*
X591011Y208951D01*
X590872Y208943D01*
X590733Y208938D01*
X590713Y208933D01*
X590693Y208931D01*
X590561Y208889D01*
X590427Y208850D01*
X590410Y208840D01*
X590391Y208833D01*
X590273Y208759D01*
X590153Y208688D01*
X590132Y208670D01*
X590122Y208663D01*
X590108Y208648D01*
X590033Y208582D01*
X584131Y202681D01*
X581704Y201675D01*
X580754Y201675D01*
X580656Y201663D01*
X580557Y201660D01*
X580499Y201643D01*
X580439Y201635D01*
X580347Y201599D01*
X580251Y201571D01*
X580199Y201541D01*
X580143Y201518D01*
X580063Y201460D01*
X579978Y201410D01*
X579902Y201344D01*
X579886Y201332D01*
X579878Y201322D01*
X579857Y201304D01*
X579792Y201239D01*
X566188Y201239D01*
X564699Y202728D01*
X564699Y213342D01*
X564693Y213392D01*
X564695Y213441D01*
X564673Y213549D01*
X564659Y213658D01*
X564641Y213704D01*
X564631Y213753D01*
X564583Y213851D01*
X564542Y213954D01*
X564513Y213994D01*
X564491Y214039D01*
X564420Y214122D01*
X564356Y214211D01*
X564317Y214243D01*
X564285Y214281D01*
X564195Y214344D01*
X564111Y214414D01*
X564066Y214435D01*
X564025Y214464D01*
X563922Y214503D01*
X563823Y214549D01*
X563774Y214559D01*
X563728Y214576D01*
X563618Y214589D01*
X563511Y214609D01*
X563461Y214606D01*
X563412Y214612D01*
X563303Y214596D01*
X563193Y214589D01*
X563146Y214574D01*
X563097Y214567D01*
X562944Y214515D01*
X561477Y213907D01*
X558663Y213907D01*
X556064Y214984D01*
X554074Y216974D01*
X552997Y219573D01*
X552997Y222387D01*
X554074Y224986D01*
X555520Y226432D01*
X555593Y226527D01*
X555672Y226616D01*
X555690Y226652D01*
X555715Y226684D01*
X555762Y226793D01*
X555817Y226899D01*
X555825Y226938D01*
X555841Y226976D01*
X555860Y227093D01*
X555886Y227209D01*
X555885Y227250D01*
X555891Y227290D01*
X555880Y227408D01*
X555877Y227527D01*
X555865Y227566D01*
X555861Y227606D01*
X555821Y227719D01*
X555788Y227833D01*
X555768Y227867D01*
X555754Y227906D01*
X555687Y228004D01*
X555627Y228107D01*
X555587Y228152D01*
X555575Y228169D01*
X555560Y228182D01*
X555520Y228227D01*
X554074Y229674D01*
X552997Y232273D01*
X552997Y235087D01*
X554074Y237686D01*
X555520Y239133D01*
X555593Y239227D01*
X555672Y239316D01*
X555690Y239352D01*
X555715Y239384D01*
X555762Y239493D01*
X555817Y239599D01*
X555825Y239638D01*
X555841Y239676D01*
X555860Y239793D01*
X555886Y239909D01*
X555885Y239950D01*
X555891Y239990D01*
X555880Y240108D01*
X555877Y240227D01*
X555865Y240266D01*
X555861Y240306D01*
X555821Y240418D01*
X555788Y240533D01*
X555768Y240568D01*
X555754Y240606D01*
X555687Y240704D01*
X555627Y240807D01*
X555587Y240852D01*
X555575Y240869D01*
X555560Y240882D01*
X555520Y240928D01*
X554074Y242374D01*
X552997Y244973D01*
X552997Y247787D01*
X554074Y250386D01*
X556064Y252376D01*
X558663Y253453D01*
X561477Y253453D01*
X562944Y252845D01*
X562992Y252832D01*
X563037Y252811D01*
X563145Y252790D01*
X563251Y252761D01*
X563301Y252760D01*
X563350Y252751D01*
X563459Y252758D01*
X563569Y252756D01*
X563617Y252767D01*
X563667Y252771D01*
X563771Y252804D01*
X563878Y252830D01*
X563922Y252853D01*
X563969Y252869D01*
X564062Y252927D01*
X564159Y252979D01*
X564196Y253012D01*
X564238Y253039D01*
X564313Y253119D01*
X564395Y253193D01*
X564422Y253234D01*
X564456Y253270D01*
X564509Y253367D01*
X564569Y253458D01*
X564586Y253505D01*
X564610Y253549D01*
X564637Y253655D01*
X564673Y253759D01*
X564677Y253809D01*
X564689Y253857D01*
X564699Y254018D01*
X564699Y264632D01*
X566188Y266121D01*
X578866Y266121D01*
X578984Y266136D01*
X579103Y266143D01*
X579141Y266156D01*
X579182Y266161D01*
X579292Y266204D01*
X579405Y266241D01*
X579440Y266263D01*
X579477Y266278D01*
X579573Y266347D01*
X579674Y266411D01*
X579702Y266441D01*
X579735Y266464D01*
X579811Y266556D01*
X579892Y266643D01*
X579912Y266678D01*
X579937Y266709D01*
X579988Y266817D01*
X580046Y266921D01*
X580056Y266961D01*
X580073Y266997D01*
X580095Y267114D01*
X580125Y267229D01*
X580129Y267289D01*
X580133Y267309D01*
X580131Y267330D01*
X580135Y267390D01*
X580135Y281330D01*
X580120Y281448D01*
X580113Y281567D01*
X580100Y281605D01*
X580095Y281646D01*
X580052Y281756D01*
X580015Y281869D01*
X579993Y281904D01*
X579978Y281941D01*
X579909Y282037D01*
X579845Y282138D01*
X579815Y282166D01*
X579792Y282199D01*
X579700Y282275D01*
X579613Y282356D01*
X579578Y282376D01*
X579547Y282401D01*
X579439Y282452D01*
X579335Y282510D01*
X579295Y282520D01*
X579259Y282537D01*
X579142Y282559D01*
X579027Y282589D01*
X578967Y282593D01*
X578947Y282597D01*
X578926Y282595D01*
X578866Y282599D01*
X556370Y282599D01*
X556252Y282584D01*
X556133Y282577D01*
X556095Y282564D01*
X556054Y282559D01*
X555944Y282516D01*
X555831Y282479D01*
X555796Y282457D01*
X555759Y282442D01*
X555663Y282373D01*
X555562Y282309D01*
X555534Y282279D01*
X555501Y282256D01*
X555425Y282164D01*
X555344Y282077D01*
X555324Y282042D01*
X555299Y282011D01*
X555248Y281903D01*
X555190Y281799D01*
X555180Y281759D01*
X555163Y281723D01*
X555141Y281606D01*
X555111Y281491D01*
X555107Y281431D01*
X555103Y281411D01*
X555105Y281390D01*
X555101Y281330D01*
X555101Y280538D01*
X553612Y279049D01*
X533508Y279049D01*
X532019Y280538D01*
X532019Y281330D01*
X532004Y281448D01*
X531997Y281567D01*
X531984Y281605D01*
X531979Y281646D01*
X531936Y281756D01*
X531899Y281869D01*
X531877Y281904D01*
X531862Y281941D01*
X531793Y282037D01*
X531729Y282138D01*
X531699Y282166D01*
X531676Y282199D01*
X531584Y282275D01*
X531497Y282356D01*
X531462Y282376D01*
X531431Y282401D01*
X531323Y282452D01*
X531219Y282510D01*
X531179Y282520D01*
X531143Y282537D01*
X531026Y282559D01*
X530911Y282589D01*
X530851Y282593D01*
X530831Y282597D01*
X530810Y282595D01*
X530750Y282599D01*
X470025Y282599D01*
X469907Y282584D01*
X469788Y282577D01*
X469750Y282564D01*
X469709Y282559D01*
X469599Y282516D01*
X469486Y282479D01*
X469451Y282457D01*
X469414Y282442D01*
X469318Y282373D01*
X469217Y282309D01*
X469189Y282279D01*
X469156Y282256D01*
X469080Y282164D01*
X468999Y282077D01*
X468979Y282042D01*
X468954Y282011D01*
X468903Y281903D01*
X468845Y281799D01*
X468835Y281759D01*
X468818Y281723D01*
X468796Y281606D01*
X468766Y281491D01*
X468762Y281431D01*
X468758Y281411D01*
X468760Y281390D01*
X468756Y281330D01*
X468756Y280258D01*
X467267Y278769D01*
X447133Y278769D01*
X445644Y280258D01*
X445644Y281330D01*
X445629Y281448D01*
X445622Y281567D01*
X445609Y281605D01*
X445604Y281646D01*
X445561Y281756D01*
X445524Y281869D01*
X445502Y281904D01*
X445487Y281941D01*
X445418Y282037D01*
X445354Y282138D01*
X445324Y282166D01*
X445301Y282199D01*
X445209Y282275D01*
X445122Y282356D01*
X445087Y282376D01*
X445056Y282401D01*
X444948Y282452D01*
X444844Y282510D01*
X444804Y282520D01*
X444768Y282537D01*
X444651Y282559D01*
X444536Y282589D01*
X444476Y282593D01*
X444456Y282597D01*
X444435Y282595D01*
X444375Y282599D01*
X424434Y282599D01*
X424316Y282584D01*
X424197Y282577D01*
X424159Y282564D01*
X424118Y282559D01*
X424008Y282516D01*
X423895Y282479D01*
X423860Y282457D01*
X423823Y282442D01*
X423727Y282373D01*
X423626Y282309D01*
X423598Y282279D01*
X423565Y282256D01*
X423489Y282164D01*
X423408Y282077D01*
X423388Y282042D01*
X423363Y282011D01*
X423312Y281903D01*
X423254Y281799D01*
X423244Y281759D01*
X423227Y281723D01*
X423205Y281606D01*
X423175Y281491D01*
X423171Y281431D01*
X423167Y281411D01*
X423169Y281390D01*
X423165Y281330D01*
X423165Y271200D01*
X423180Y271082D01*
X423187Y270963D01*
X423200Y270925D01*
X423205Y270884D01*
X423248Y270774D01*
X423285Y270661D01*
X423307Y270626D01*
X423322Y270589D01*
X423391Y270493D01*
X423455Y270392D01*
X423485Y270364D01*
X423508Y270331D01*
X423600Y270255D01*
X423687Y270174D01*
X423722Y270154D01*
X423753Y270129D01*
X423861Y270078D01*
X423965Y270020D01*
X424005Y270010D01*
X424041Y269993D01*
X424158Y269971D01*
X424273Y269941D01*
X424333Y269937D01*
X424353Y269933D01*
X424374Y269935D01*
X424434Y269931D01*
X437112Y269931D01*
X438601Y268442D01*
X438601Y257313D01*
X438549Y257254D01*
X438530Y257218D01*
X438506Y257186D01*
X438458Y257077D01*
X438404Y256971D01*
X438395Y256931D01*
X438379Y256894D01*
X438361Y256776D01*
X438335Y256661D01*
X438336Y256620D01*
X438330Y256580D01*
X438341Y256461D01*
X438344Y256343D01*
X438356Y256304D01*
X438359Y256264D01*
X438400Y256151D01*
X438433Y256037D01*
X438453Y256002D01*
X438467Y255964D01*
X438534Y255866D01*
X438594Y255763D01*
X438601Y255756D01*
X438601Y244348D01*
X438616Y244230D01*
X438623Y244111D01*
X438636Y244073D01*
X438641Y244032D01*
X438684Y243922D01*
X438721Y243809D01*
X438743Y243774D01*
X438758Y243737D01*
X438827Y243641D01*
X438891Y243540D01*
X438921Y243512D01*
X438944Y243479D01*
X439036Y243403D01*
X439123Y243322D01*
X439158Y243302D01*
X439189Y243277D01*
X439297Y243226D01*
X439401Y243168D01*
X439441Y243158D01*
X439477Y243141D01*
X439594Y243119D01*
X439709Y243089D01*
X439769Y243085D01*
X439789Y243081D01*
X439810Y243083D01*
X439870Y243079D01*
X440532Y243079D01*
X442586Y242228D01*
X450253Y234560D01*
X450331Y234500D01*
X450404Y234432D01*
X450457Y234403D01*
X450504Y234366D01*
X450595Y234326D01*
X450682Y234278D01*
X450741Y234263D01*
X450796Y234239D01*
X450894Y234224D01*
X450990Y234199D01*
X451090Y234193D01*
X451110Y234189D01*
X451123Y234191D01*
X451151Y234189D01*
X471430Y234189D01*
X471548Y234204D01*
X471667Y234211D01*
X471705Y234224D01*
X471746Y234229D01*
X471856Y234272D01*
X471969Y234309D01*
X472004Y234331D01*
X472041Y234346D01*
X472137Y234415D01*
X472238Y234479D01*
X472266Y234509D01*
X472299Y234532D01*
X472375Y234624D01*
X472456Y234711D01*
X472476Y234746D01*
X472501Y234777D01*
X472552Y234885D01*
X472610Y234989D01*
X472620Y235029D01*
X472637Y235065D01*
X472659Y235182D01*
X472689Y235297D01*
X472693Y235357D01*
X472697Y235377D01*
X472695Y235398D01*
X472699Y235458D01*
X472699Y244072D01*
X472829Y244203D01*
X472890Y244281D01*
X472958Y244353D01*
X472987Y244406D01*
X473024Y244454D01*
X473064Y244545D01*
X473112Y244632D01*
X473127Y244690D01*
X473151Y244746D01*
X473166Y244844D01*
X473191Y244939D01*
X473197Y245039D01*
X473201Y245060D01*
X473199Y245072D01*
X473201Y245100D01*
X473201Y247834D01*
X473189Y247932D01*
X473186Y248031D01*
X473169Y248089D01*
X473161Y248149D01*
X473125Y248242D01*
X473097Y248337D01*
X473067Y248389D01*
X473044Y248445D01*
X472986Y248525D01*
X472947Y248591D01*
X472947Y265958D01*
X474436Y267447D01*
X483144Y267447D01*
X484242Y266349D01*
X484337Y266276D01*
X484426Y266197D01*
X484462Y266178D01*
X484494Y266154D01*
X484603Y266106D01*
X484709Y266052D01*
X484748Y266043D01*
X484786Y266027D01*
X484903Y266009D01*
X485019Y265983D01*
X485060Y265984D01*
X485100Y265978D01*
X485218Y265989D01*
X485337Y265992D01*
X485376Y266004D01*
X485416Y266007D01*
X485529Y266048D01*
X485643Y266081D01*
X485677Y266101D01*
X485716Y266115D01*
X485814Y266182D01*
X485917Y266242D01*
X485962Y266282D01*
X485979Y266294D01*
X485992Y266309D01*
X486037Y266349D01*
X487136Y267447D01*
X495844Y267447D01*
X496942Y266349D01*
X497037Y266276D01*
X497126Y266197D01*
X497162Y266178D01*
X497194Y266154D01*
X497303Y266106D01*
X497409Y266052D01*
X497448Y266043D01*
X497486Y266027D01*
X497603Y266009D01*
X497719Y265983D01*
X497760Y265984D01*
X497800Y265978D01*
X497918Y265989D01*
X498037Y265992D01*
X498076Y266004D01*
X498116Y266007D01*
X498229Y266048D01*
X498343Y266081D01*
X498377Y266101D01*
X498416Y266115D01*
X498514Y266182D01*
X498617Y266242D01*
X498662Y266282D01*
X498679Y266294D01*
X498692Y266309D01*
X498737Y266349D01*
X499836Y267447D01*
X508544Y267447D01*
X510033Y265958D01*
X510033Y248592D01*
X510022Y248581D01*
X509993Y248528D01*
X509956Y248480D01*
X509916Y248389D01*
X509868Y248302D01*
X509853Y248244D01*
X509829Y248188D01*
X509814Y248090D01*
X509789Y247995D01*
X509783Y247894D01*
X509779Y247874D01*
X509781Y247862D01*
X509779Y247834D01*
X509779Y246116D01*
X509796Y245978D01*
X509809Y245840D01*
X509816Y245821D01*
X509819Y245801D01*
X509870Y245671D01*
X509917Y245540D01*
X509928Y245524D01*
X509936Y245505D01*
X510017Y245392D01*
X510095Y245277D01*
X510111Y245264D01*
X510122Y245248D01*
X510230Y245159D01*
X510334Y245067D01*
X510352Y245058D01*
X510367Y245045D01*
X510493Y244985D01*
X510617Y244922D01*
X510637Y244918D01*
X510655Y244909D01*
X510792Y244883D01*
X510927Y244853D01*
X510948Y244853D01*
X510967Y244849D01*
X511106Y244858D01*
X511245Y244862D01*
X511265Y244868D01*
X511285Y244869D01*
X511417Y244912D01*
X511551Y244951D01*
X511568Y244961D01*
X511587Y244967D01*
X511705Y245042D01*
X511825Y245112D01*
X511846Y245131D01*
X511856Y245137D01*
X511870Y245152D01*
X511945Y245219D01*
X512288Y245561D01*
X521492Y245561D01*
X522981Y244072D01*
X522981Y235458D01*
X522996Y235339D01*
X523003Y235221D01*
X523016Y235183D01*
X523021Y235142D01*
X523064Y235032D01*
X523101Y234919D01*
X523123Y234884D01*
X523138Y234847D01*
X523207Y234751D01*
X523271Y234650D01*
X523301Y234622D01*
X523324Y234589D01*
X523416Y234513D01*
X523503Y234432D01*
X523538Y234412D01*
X523569Y234387D01*
X523677Y234336D01*
X523781Y234278D01*
X523821Y234268D01*
X523857Y234251D01*
X523974Y234229D01*
X524089Y234199D01*
X524149Y234195D01*
X524169Y234191D01*
X524190Y234193D01*
X524250Y234189D01*
X528162Y234189D01*
X530216Y233338D01*
X556528Y207026D01*
X557379Y204972D01*
X557379Y185088D01*
X557343Y184959D01*
X557343Y184950D01*
X557341Y184941D01*
X557331Y184780D01*
X557331Y179958D01*
X555842Y178469D01*
X547738Y178469D01*
X546249Y179958D01*
X546249Y184780D01*
X546248Y184789D01*
X546249Y184799D01*
X546228Y184947D01*
X546209Y185096D01*
X546206Y185104D01*
X546205Y185114D01*
X546201Y185123D01*
X546201Y201019D01*
X546189Y201118D01*
X546186Y201217D01*
X546169Y201275D01*
X546161Y201335D01*
X546125Y201427D01*
X546097Y201522D01*
X546067Y201574D01*
X546044Y201631D01*
X545986Y201711D01*
X545936Y201796D01*
X545870Y201871D01*
X545858Y201888D01*
X545848Y201896D01*
X545830Y201917D01*
X525107Y222640D01*
X525029Y222700D01*
X524956Y222768D01*
X524903Y222797D01*
X524856Y222834D01*
X524765Y222874D01*
X524678Y222922D01*
X524619Y222937D01*
X524564Y222961D01*
X524466Y222976D01*
X524370Y223001D01*
X524270Y223007D01*
X524250Y223011D01*
X524237Y223009D01*
X524209Y223011D01*
X511048Y223011D01*
X510930Y222996D01*
X510811Y222989D01*
X510773Y222976D01*
X510732Y222971D01*
X510622Y222928D01*
X510509Y222891D01*
X510474Y222869D01*
X510437Y222854D01*
X510341Y222785D01*
X510240Y222721D01*
X510212Y222691D01*
X510179Y222668D01*
X510103Y222576D01*
X510022Y222489D01*
X510002Y222454D01*
X509977Y222423D01*
X509926Y222315D01*
X509868Y222211D01*
X509858Y222171D01*
X509841Y222135D01*
X509819Y222018D01*
X509789Y221903D01*
X509785Y221843D01*
X509781Y221823D01*
X509783Y221802D01*
X509779Y221742D01*
X509779Y215616D01*
X509796Y215478D01*
X509809Y215340D01*
X509816Y215321D01*
X509819Y215301D01*
X509870Y215171D01*
X509917Y215040D01*
X509928Y215024D01*
X509936Y215005D01*
X510017Y214892D01*
X510095Y214777D01*
X510111Y214764D01*
X510122Y214748D01*
X510230Y214659D01*
X510334Y214567D01*
X510352Y214558D01*
X510367Y214545D01*
X510493Y214485D01*
X510617Y214422D01*
X510637Y214418D01*
X510655Y214409D01*
X510792Y214383D01*
X510927Y214353D01*
X510948Y214353D01*
X510967Y214349D01*
X511106Y214358D01*
X511245Y214362D01*
X511265Y214368D01*
X511285Y214369D01*
X511417Y214412D01*
X511551Y214451D01*
X511568Y214461D01*
X511587Y214467D01*
X511705Y214542D01*
X511825Y214612D01*
X511846Y214631D01*
X511856Y214637D01*
X511870Y214652D01*
X511945Y214719D01*
X512288Y215061D01*
X521492Y215061D01*
X522981Y213572D01*
X522981Y202968D01*
X521492Y201479D01*
X512288Y201479D01*
X511437Y202329D01*
X511343Y202402D01*
X511254Y202481D01*
X511218Y202499D01*
X511186Y202524D01*
X511077Y202572D01*
X510971Y202626D01*
X510932Y202635D01*
X510894Y202651D01*
X510777Y202669D01*
X510661Y202695D01*
X510620Y202694D01*
X510580Y202700D01*
X510462Y202689D01*
X510343Y202686D01*
X510304Y202674D01*
X510264Y202671D01*
X510152Y202630D01*
X510037Y202597D01*
X510002Y202577D01*
X509964Y202563D01*
X509866Y202496D01*
X509763Y202436D01*
X509718Y202396D01*
X509701Y202384D01*
X509688Y202369D01*
X509642Y202329D01*
X508792Y201479D01*
X499439Y201479D01*
X499351Y201521D01*
X499331Y201525D01*
X499313Y201533D01*
X499175Y201554D01*
X499038Y201581D01*
X499018Y201579D01*
X498998Y201582D01*
X498860Y201569D01*
X498721Y201561D01*
X498702Y201555D01*
X498682Y201553D01*
X498551Y201506D01*
X498419Y201463D01*
X498402Y201452D01*
X498383Y201445D01*
X498267Y201367D01*
X498150Y201293D01*
X498136Y201278D01*
X498119Y201267D01*
X498027Y201162D01*
X497932Y201061D01*
X497922Y201043D01*
X497909Y201028D01*
X497846Y200904D01*
X497778Y200783D01*
X497773Y200763D01*
X497764Y200745D01*
X497734Y200609D01*
X497699Y200475D01*
X497697Y200447D01*
X497694Y200435D01*
X497695Y200414D01*
X497689Y200314D01*
X497689Y197848D01*
X496838Y195794D01*
X485312Y184269D01*
X485252Y184191D01*
X485184Y184118D01*
X485155Y184065D01*
X485118Y184018D01*
X485078Y183927D01*
X485030Y183840D01*
X485015Y183781D01*
X484991Y183726D01*
X484976Y183628D01*
X484951Y183532D01*
X484945Y183432D01*
X484941Y183412D01*
X484943Y183399D01*
X484941Y183371D01*
X484941Y179958D01*
X483452Y178469D01*
X475348Y178469D01*
X473859Y179958D01*
X473859Y184780D01*
X473858Y184789D01*
X473859Y184798D01*
X473838Y184947D01*
X473819Y185096D01*
X473816Y185104D01*
X473815Y185113D01*
X473811Y185123D01*
X473811Y187432D01*
X473847Y187561D01*
X473847Y187570D01*
X473849Y187579D01*
X473859Y187740D01*
X473859Y192562D01*
X475348Y194051D01*
X478761Y194051D01*
X478860Y194063D01*
X478959Y194066D01*
X479017Y194083D01*
X479077Y194091D01*
X479169Y194127D01*
X479264Y194155D01*
X479316Y194185D01*
X479373Y194208D01*
X479453Y194266D01*
X479538Y194316D01*
X479613Y194382D01*
X479630Y194394D01*
X479638Y194404D01*
X479659Y194422D01*
X484549Y199313D01*
X484634Y199422D01*
X484723Y199529D01*
X484731Y199548D01*
X484744Y199564D01*
X484799Y199692D01*
X484858Y199817D01*
X484862Y199837D01*
X484870Y199856D01*
X484892Y199994D01*
X484918Y200130D01*
X484917Y200150D01*
X484920Y200170D01*
X484907Y200309D01*
X484898Y200447D01*
X484892Y200466D01*
X484890Y200486D01*
X484843Y200618D01*
X484800Y200749D01*
X484789Y200767D01*
X484783Y200786D01*
X484705Y200901D01*
X484630Y201018D01*
X484615Y201032D01*
X484604Y201049D01*
X484500Y201141D01*
X484399Y201236D01*
X484381Y201246D01*
X484366Y201259D01*
X484241Y201323D01*
X484120Y201390D01*
X484100Y201395D01*
X484082Y201404D01*
X483947Y201434D01*
X483812Y201469D01*
X483784Y201471D01*
X483772Y201474D01*
X483752Y201473D01*
X483651Y201479D01*
X474188Y201479D01*
X472699Y202968D01*
X472699Y203391D01*
X472687Y203490D01*
X472684Y203589D01*
X472667Y203647D01*
X472659Y203707D01*
X472623Y203799D01*
X472595Y203894D01*
X472565Y203946D01*
X472542Y204003D01*
X472484Y204083D01*
X472434Y204168D01*
X472368Y204243D01*
X472356Y204260D01*
X472346Y204268D01*
X472328Y204289D01*
X471767Y204850D01*
X471689Y204910D01*
X471616Y204978D01*
X471563Y205007D01*
X471516Y205044D01*
X471425Y205084D01*
X471338Y205132D01*
X471279Y205147D01*
X471224Y205171D01*
X471126Y205186D01*
X471030Y205211D01*
X470930Y205217D01*
X470910Y205221D01*
X470897Y205219D01*
X470869Y205221D01*
X437810Y205221D01*
X437712Y205209D01*
X437613Y205206D01*
X437555Y205189D01*
X437495Y205181D01*
X437403Y205145D01*
X437307Y205117D01*
X437255Y205087D01*
X437199Y205064D01*
X437178Y205049D01*
X436391Y205049D01*
X436362Y205046D01*
X436332Y205048D01*
X436204Y205026D01*
X436075Y205009D01*
X436048Y204999D01*
X436019Y204994D01*
X435900Y204940D01*
X435780Y204892D01*
X435756Y204875D01*
X435729Y204863D01*
X435628Y204782D01*
X435522Y204706D01*
X435504Y204683D01*
X435481Y204664D01*
X435402Y204561D01*
X435320Y204461D01*
X435307Y204434D01*
X435289Y204410D01*
X435218Y204266D01*
X435048Y203854D01*
X416732Y185539D01*
X416672Y185461D01*
X416604Y185388D01*
X416575Y185335D01*
X416538Y185288D01*
X416498Y185197D01*
X416450Y185110D01*
X416435Y185051D01*
X416411Y184996D01*
X416396Y184898D01*
X416371Y184802D01*
X416365Y184702D01*
X416361Y184682D01*
X416363Y184669D01*
X416361Y184641D01*
X416361Y181228D01*
X414872Y179739D01*
X406768Y179739D01*
X405279Y181228D01*
X405279Y186050D01*
X405278Y186059D01*
X405279Y186068D01*
X405258Y186217D01*
X405239Y186366D01*
X405236Y186374D01*
X405235Y186383D01*
X405231Y186393D01*
X405231Y188702D01*
X405267Y188831D01*
X405267Y188840D01*
X405269Y188849D01*
X405279Y189010D01*
X405279Y193832D01*
X406768Y195321D01*
X410181Y195321D01*
X410280Y195333D01*
X410379Y195336D01*
X410437Y195353D01*
X410497Y195361D01*
X410589Y195397D01*
X410684Y195425D01*
X410736Y195455D01*
X410793Y195478D01*
X410873Y195536D01*
X410958Y195586D01*
X411033Y195652D01*
X411050Y195664D01*
X411058Y195674D01*
X411079Y195692D01*
X421648Y206261D01*
X421708Y206339D01*
X421776Y206412D01*
X421805Y206465D01*
X421842Y206512D01*
X421882Y206603D01*
X421930Y206690D01*
X421945Y206749D01*
X421969Y206804D01*
X421984Y206902D01*
X422009Y206998D01*
X422015Y207098D01*
X422019Y207118D01*
X422017Y207131D01*
X422019Y207159D01*
X422019Y210225D01*
X422002Y210362D01*
X421989Y210501D01*
X421982Y210520D01*
X421979Y210540D01*
X421928Y210669D01*
X421881Y210800D01*
X421870Y210817D01*
X421862Y210836D01*
X421781Y210948D01*
X421703Y211063D01*
X421687Y211077D01*
X421676Y211093D01*
X421568Y211182D01*
X421464Y211274D01*
X421446Y211283D01*
X421431Y211296D01*
X421305Y211355D01*
X421181Y211418D01*
X421161Y211423D01*
X421143Y211431D01*
X421007Y211458D01*
X420871Y211488D01*
X420850Y211487D01*
X420831Y211491D01*
X420692Y211483D01*
X420553Y211478D01*
X420533Y211473D01*
X420513Y211471D01*
X420381Y211429D01*
X420247Y211390D01*
X420230Y211380D01*
X420211Y211373D01*
X420093Y211299D01*
X419973Y211228D01*
X419952Y211210D01*
X419942Y211203D01*
X419928Y211188D01*
X419853Y211122D01*
X415221Y206491D01*
X412794Y205485D01*
X410574Y205485D01*
X410476Y205473D01*
X410377Y205470D01*
X410319Y205453D01*
X410259Y205445D01*
X410167Y205409D01*
X410071Y205381D01*
X410019Y205351D01*
X409963Y205328D01*
X409883Y205270D01*
X409798Y205220D01*
X409722Y205154D01*
X409706Y205142D01*
X409698Y205132D01*
X409677Y205114D01*
X409612Y205049D01*
X396008Y205049D01*
X394519Y206538D01*
X394519Y217932D01*
X394504Y218050D01*
X394497Y218169D01*
X394484Y218207D01*
X394479Y218248D01*
X394436Y218358D01*
X394399Y218471D01*
X394377Y218506D01*
X394362Y218543D01*
X394293Y218639D01*
X394229Y218740D01*
X394199Y218768D01*
X394176Y218801D01*
X394084Y218877D01*
X393997Y218958D01*
X393962Y218978D01*
X393931Y219003D01*
X393823Y219054D01*
X393719Y219112D01*
X393679Y219122D01*
X393643Y219139D01*
X393526Y219161D01*
X393411Y219191D01*
X393351Y219195D01*
X393331Y219199D01*
X393310Y219197D01*
X393250Y219201D01*
X392289Y219201D01*
X392191Y219189D01*
X392092Y219186D01*
X392034Y219169D01*
X391974Y219161D01*
X391882Y219125D01*
X391787Y219097D01*
X391734Y219067D01*
X391678Y219044D01*
X391598Y218986D01*
X391513Y218936D01*
X391437Y218870D01*
X391421Y218858D01*
X391413Y218848D01*
X391392Y218830D01*
X391356Y218794D01*
X388757Y217717D01*
X385943Y217717D01*
X383344Y218794D01*
X381354Y220784D01*
X380277Y223383D01*
X380277Y226197D01*
X381354Y228796D01*
X382800Y230243D01*
X382873Y230337D01*
X382952Y230426D01*
X382970Y230462D01*
X382995Y230494D01*
X383042Y230603D01*
X383097Y230709D01*
X383105Y230748D01*
X383121Y230786D01*
X383140Y230903D01*
X383166Y231019D01*
X383165Y231060D01*
X383171Y231100D01*
X383160Y231218D01*
X383157Y231337D01*
X383145Y231376D01*
X383141Y231416D01*
X383101Y231528D01*
X383068Y231643D01*
X383048Y231678D01*
X383034Y231716D01*
X382967Y231814D01*
X382907Y231917D01*
X382867Y231962D01*
X382855Y231979D01*
X382840Y231992D01*
X382800Y232038D01*
X381354Y233484D01*
X380277Y236083D01*
X380277Y238897D01*
X381354Y241496D01*
X383435Y243577D01*
X383508Y243672D01*
X383587Y243761D01*
X383605Y243797D01*
X383630Y243829D01*
X383677Y243938D01*
X383732Y244044D01*
X383740Y244083D01*
X383756Y244121D01*
X383775Y244238D01*
X383801Y244354D01*
X383800Y244395D01*
X383806Y244435D01*
X383795Y244553D01*
X383792Y244672D01*
X383780Y244711D01*
X383776Y244751D01*
X383736Y244864D01*
X383703Y244978D01*
X383683Y245012D01*
X383669Y245051D01*
X383602Y245149D01*
X383542Y245252D01*
X383502Y245297D01*
X383490Y245314D01*
X383475Y245327D01*
X383435Y245372D01*
X382624Y246184D01*
X381547Y248783D01*
X381547Y251597D01*
X382624Y254196D01*
X384614Y256186D01*
X387213Y257263D01*
X390027Y257263D01*
X392764Y256129D01*
X392812Y256116D01*
X392857Y256095D01*
X392965Y256074D01*
X393071Y256045D01*
X393121Y256044D01*
X393170Y256035D01*
X393279Y256042D01*
X393389Y256040D01*
X393437Y256051D01*
X393487Y256055D01*
X393591Y256088D01*
X393698Y256114D01*
X393742Y256137D01*
X393789Y256153D01*
X393882Y256211D01*
X393979Y256263D01*
X394016Y256296D01*
X394058Y256323D01*
X394133Y256403D01*
X394215Y256477D01*
X394242Y256518D01*
X394276Y256554D01*
X394329Y256651D01*
X394389Y256742D01*
X394406Y256789D01*
X394430Y256833D01*
X394457Y256939D01*
X394493Y257043D01*
X394497Y257093D01*
X394509Y257141D01*
X394519Y257301D01*
X394519Y268442D01*
X396008Y269931D01*
X408686Y269931D01*
X408804Y269946D01*
X408923Y269953D01*
X408961Y269966D01*
X409002Y269971D01*
X409112Y270014D01*
X409225Y270051D01*
X409260Y270073D01*
X409297Y270088D01*
X409393Y270157D01*
X409494Y270221D01*
X409522Y270251D01*
X409555Y270274D01*
X409631Y270366D01*
X409712Y270453D01*
X409732Y270488D01*
X409757Y270519D01*
X409808Y270627D01*
X409866Y270731D01*
X409876Y270771D01*
X409893Y270807D01*
X409915Y270924D01*
X409945Y271039D01*
X409949Y271099D01*
X409953Y271119D01*
X409951Y271140D01*
X409955Y271200D01*
X409955Y281330D01*
X409940Y281448D01*
X409933Y281567D01*
X409920Y281605D01*
X409915Y281646D01*
X409872Y281756D01*
X409835Y281869D01*
X409813Y281904D01*
X409798Y281941D01*
X409729Y282037D01*
X409665Y282138D01*
X409635Y282166D01*
X409612Y282199D01*
X409520Y282275D01*
X409433Y282356D01*
X409398Y282376D01*
X409367Y282401D01*
X409259Y282452D01*
X409155Y282510D01*
X409115Y282520D01*
X409079Y282537D01*
X408962Y282559D01*
X408847Y282589D01*
X408787Y282593D01*
X408767Y282597D01*
X408746Y282595D01*
X408686Y282599D01*
X384920Y282599D01*
X384802Y282584D01*
X384683Y282577D01*
X384645Y282564D01*
X384604Y282559D01*
X384494Y282516D01*
X384381Y282479D01*
X384346Y282457D01*
X384309Y282442D01*
X384213Y282373D01*
X384112Y282309D01*
X384084Y282279D01*
X384051Y282256D01*
X383975Y282164D01*
X383894Y282077D01*
X383874Y282042D01*
X383849Y282011D01*
X383798Y281903D01*
X383740Y281799D01*
X383730Y281759D01*
X383713Y281723D01*
X383691Y281606D01*
X383661Y281491D01*
X383657Y281431D01*
X383653Y281411D01*
X383655Y281390D01*
X383651Y281330D01*
X383651Y280538D01*
X382162Y279049D01*
X362058Y279049D01*
X360569Y280538D01*
X360569Y281330D01*
X360554Y281448D01*
X360547Y281567D01*
X360534Y281605D01*
X360529Y281646D01*
X360486Y281756D01*
X360449Y281869D01*
X360427Y281904D01*
X360412Y281941D01*
X360343Y282037D01*
X360279Y282138D01*
X360249Y282166D01*
X360226Y282199D01*
X360134Y282275D01*
X360047Y282356D01*
X360012Y282376D01*
X359981Y282401D01*
X359873Y282452D01*
X359769Y282510D01*
X359729Y282520D01*
X359693Y282537D01*
X359576Y282559D01*
X359461Y282589D01*
X359401Y282593D01*
X359381Y282597D01*
X359360Y282595D01*
X359300Y282599D01*
X339344Y282599D01*
X339226Y282584D01*
X339107Y282577D01*
X339069Y282564D01*
X339028Y282559D01*
X338918Y282516D01*
X338805Y282479D01*
X338770Y282457D01*
X338733Y282442D01*
X338637Y282373D01*
X338536Y282309D01*
X338508Y282279D01*
X338475Y282256D01*
X338399Y282164D01*
X338318Y282077D01*
X338298Y282042D01*
X338273Y282011D01*
X338222Y281903D01*
X338164Y281799D01*
X338154Y281759D01*
X338137Y281723D01*
X338115Y281606D01*
X338085Y281491D01*
X338081Y281431D01*
X338077Y281411D01*
X338079Y281390D01*
X338075Y281330D01*
X338075Y268660D01*
X338090Y268542D01*
X338097Y268423D01*
X338110Y268385D01*
X338115Y268344D01*
X338158Y268234D01*
X338195Y268121D01*
X338217Y268086D01*
X338232Y268049D01*
X338301Y267953D01*
X338365Y267852D01*
X338395Y267824D01*
X338418Y267791D01*
X338510Y267715D01*
X338597Y267634D01*
X338632Y267614D01*
X338663Y267589D01*
X338771Y267538D01*
X338875Y267480D01*
X338915Y267470D01*
X338951Y267453D01*
X339068Y267431D01*
X339183Y267401D01*
X339243Y267397D01*
X339263Y267393D01*
X339284Y267395D01*
X339344Y267391D01*
X352022Y267391D01*
X353511Y265902D01*
X353511Y254761D01*
X353517Y254712D01*
X353515Y254663D01*
X353537Y254555D01*
X353551Y254446D01*
X353569Y254400D01*
X353579Y254351D01*
X353627Y254252D01*
X353668Y254150D01*
X353697Y254110D01*
X353719Y254065D01*
X353790Y253982D01*
X353854Y253893D01*
X353893Y253861D01*
X353925Y253823D01*
X354015Y253760D01*
X354099Y253690D01*
X354144Y253669D01*
X354185Y253640D01*
X354288Y253601D01*
X354387Y253555D01*
X354436Y253545D01*
X354482Y253528D01*
X354592Y253515D01*
X354699Y253495D01*
X354749Y253498D01*
X354798Y253492D01*
X354907Y253508D01*
X355017Y253515D01*
X355064Y253530D01*
X355113Y253537D01*
X355266Y253589D01*
X358003Y254723D01*
X360817Y254723D01*
X363416Y253646D01*
X365406Y251656D01*
X366483Y249057D01*
X366483Y246243D01*
X365406Y243644D01*
X363960Y242197D01*
X363887Y242103D01*
X363808Y242014D01*
X363790Y241978D01*
X363765Y241946D01*
X363718Y241837D01*
X363663Y241731D01*
X363655Y241692D01*
X363639Y241654D01*
X363620Y241537D01*
X363594Y241421D01*
X363595Y241380D01*
X363589Y241340D01*
X363600Y241222D01*
X363603Y241103D01*
X363615Y241064D01*
X363619Y241024D01*
X363659Y240912D01*
X363692Y240797D01*
X363712Y240762D01*
X363726Y240724D01*
X363793Y240626D01*
X363853Y240523D01*
X363893Y240478D01*
X363905Y240461D01*
X363920Y240448D01*
X363960Y240402D01*
X365406Y238956D01*
X366483Y236357D01*
X366483Y233543D01*
X365406Y230944D01*
X364047Y229585D01*
X363974Y229491D01*
X363896Y229402D01*
X363877Y229366D01*
X363852Y229334D01*
X363805Y229224D01*
X363751Y229118D01*
X363742Y229079D01*
X363726Y229042D01*
X363707Y228924D01*
X363681Y228808D01*
X363683Y228768D01*
X363676Y228728D01*
X363687Y228609D01*
X363691Y228490D01*
X363702Y228451D01*
X363706Y228411D01*
X363746Y228299D01*
X363779Y228185D01*
X363800Y228150D01*
X363814Y228112D01*
X363881Y228013D01*
X363941Y227911D01*
X363981Y227866D01*
X363992Y227849D01*
X364008Y227835D01*
X364047Y227790D01*
X365494Y226344D01*
X366570Y223744D01*
X366570Y220931D01*
X365494Y218331D01*
X363504Y216342D01*
X360904Y215265D01*
X358091Y215265D01*
X355266Y216435D01*
X355218Y216448D01*
X355173Y216469D01*
X355065Y216490D01*
X354959Y216519D01*
X354909Y216520D01*
X354860Y216529D01*
X354751Y216522D01*
X354641Y216524D01*
X354593Y216512D01*
X354543Y216509D01*
X354439Y216475D01*
X354332Y216450D01*
X354288Y216427D01*
X354241Y216411D01*
X354148Y216352D01*
X354051Y216301D01*
X354014Y216268D01*
X353972Y216241D01*
X353897Y216161D01*
X353815Y216087D01*
X353788Y216046D01*
X353754Y216009D01*
X353701Y215913D01*
X353641Y215821D01*
X353624Y215774D01*
X353600Y215731D01*
X353573Y215625D01*
X353537Y215521D01*
X353533Y215471D01*
X353521Y215423D01*
X353511Y215262D01*
X353511Y203998D01*
X352022Y202509D01*
X338418Y202509D01*
X336929Y203998D01*
X336929Y208955D01*
X336912Y209092D01*
X336899Y209231D01*
X336892Y209250D01*
X336889Y209270D01*
X336838Y209399D01*
X336791Y209530D01*
X336780Y209547D01*
X336772Y209566D01*
X336691Y209678D01*
X336613Y209793D01*
X336597Y209807D01*
X336586Y209823D01*
X336478Y209912D01*
X336374Y210004D01*
X336356Y210013D01*
X336341Y210026D01*
X336215Y210085D01*
X336091Y210148D01*
X336071Y210153D01*
X336053Y210161D01*
X335917Y210188D01*
X335781Y210218D01*
X335760Y210217D01*
X335741Y210221D01*
X335602Y210213D01*
X335463Y210208D01*
X335443Y210203D01*
X335423Y210201D01*
X335291Y210159D01*
X335157Y210120D01*
X335140Y210110D01*
X335121Y210103D01*
X335003Y210029D01*
X334883Y209958D01*
X334862Y209940D01*
X334852Y209933D01*
X334838Y209918D01*
X334763Y209852D01*
X328861Y203951D01*
X327768Y203498D01*
X327725Y203473D01*
X327678Y203456D01*
X327587Y203395D01*
X327491Y203340D01*
X327456Y203306D01*
X327415Y203278D01*
X327342Y203195D01*
X327263Y203119D01*
X327237Y203077D01*
X327204Y203039D01*
X327154Y202942D01*
X327097Y202848D01*
X327082Y202800D01*
X327060Y202756D01*
X327035Y202649D01*
X327003Y202544D01*
X327001Y202494D01*
X326990Y202446D01*
X326993Y202336D01*
X326988Y202226D01*
X326998Y202177D01*
X327000Y202128D01*
X327030Y202023D01*
X327052Y201915D01*
X327074Y201870D01*
X327088Y201822D01*
X327144Y201728D01*
X327192Y201629D01*
X327224Y201591D01*
X327250Y201548D01*
X327356Y201428D01*
X327676Y201108D01*
X327676Y201107D01*
X334361Y194422D01*
X334439Y194362D01*
X334512Y194294D01*
X334565Y194265D01*
X334612Y194228D01*
X334703Y194188D01*
X334790Y194140D01*
X334849Y194125D01*
X334904Y194101D01*
X335002Y194086D01*
X335098Y194061D01*
X335198Y194055D01*
X335218Y194051D01*
X335231Y194053D01*
X335259Y194051D01*
X338672Y194051D01*
X340161Y192562D01*
X340161Y187740D01*
X340162Y187731D01*
X340161Y187722D01*
X340182Y187573D01*
X340201Y187424D01*
X340204Y187416D01*
X340205Y187407D01*
X340209Y187397D01*
X340209Y185088D01*
X340173Y184959D01*
X340173Y184950D01*
X340171Y184941D01*
X340161Y184780D01*
X340161Y179958D01*
X338672Y178469D01*
X330568Y178469D01*
X329079Y179958D01*
X329079Y183371D01*
X329067Y183470D01*
X329064Y183569D01*
X329047Y183627D01*
X329039Y183687D01*
X329003Y183779D01*
X328975Y183874D01*
X328945Y183926D01*
X328922Y183983D01*
X328864Y184063D01*
X328814Y184148D01*
X328748Y184223D01*
X328736Y184240D01*
X328726Y184248D01*
X328708Y184269D01*
X320817Y192160D01*
X320739Y192220D01*
X320666Y192288D01*
X320613Y192317D01*
X320566Y192354D01*
X320475Y192394D01*
X320388Y192442D01*
X320329Y192457D01*
X320274Y192481D01*
X320176Y192496D01*
X320080Y192521D01*
X319980Y192527D01*
X319960Y192531D01*
X319947Y192529D01*
X319919Y192531D01*
X297513Y192531D01*
X295459Y193382D01*
X286532Y202310D01*
X286454Y202370D01*
X286382Y202438D01*
X286329Y202467D01*
X286281Y202504D01*
X286190Y202544D01*
X286103Y202592D01*
X286044Y202607D01*
X285989Y202631D01*
X285891Y202646D01*
X285795Y202671D01*
X285695Y202677D01*
X285675Y202681D01*
X285662Y202679D01*
X285634Y202681D01*
X281920Y202681D01*
X281822Y202669D01*
X281723Y202666D01*
X281665Y202649D01*
X281605Y202641D01*
X281513Y202605D01*
X281417Y202577D01*
X281365Y202547D01*
X281309Y202524D01*
X281229Y202466D01*
X281144Y202416D01*
X281068Y202350D01*
X281052Y202338D01*
X281044Y202328D01*
X281023Y202310D01*
X280192Y201479D01*
X270988Y201479D01*
X270137Y202329D01*
X270043Y202402D01*
X269954Y202481D01*
X269918Y202500D01*
X269886Y202524D01*
X269777Y202572D01*
X269671Y202626D01*
X269631Y202635D01*
X269594Y202651D01*
X269477Y202669D01*
X269361Y202695D01*
X269320Y202694D01*
X269280Y202700D01*
X269161Y202689D01*
X269043Y202686D01*
X269004Y202674D01*
X268964Y202671D01*
X268852Y202630D01*
X268737Y202597D01*
X268702Y202577D01*
X268664Y202563D01*
X268566Y202496D01*
X268463Y202436D01*
X268418Y202396D01*
X268401Y202384D01*
X268388Y202369D01*
X268342Y202329D01*
X268190Y202177D01*
X268130Y202099D01*
X268062Y202027D01*
X268033Y201974D01*
X267995Y201926D01*
X267956Y201835D01*
X267908Y201748D01*
X267893Y201690D01*
X267869Y201634D01*
X267854Y201536D01*
X267829Y201441D01*
X267823Y201340D01*
X267819Y201320D01*
X267821Y201308D01*
X267819Y201280D01*
X267819Y185088D01*
X267783Y184959D01*
X267783Y184950D01*
X267781Y184941D01*
X267771Y184780D01*
X267771Y179958D01*
X266282Y178469D01*
X258178Y178469D01*
X256689Y179958D01*
X256689Y184780D01*
X256688Y184789D01*
X256689Y184798D01*
X256668Y184947D01*
X256649Y185096D01*
X256646Y185104D01*
X256645Y185113D01*
X256641Y185123D01*
X256641Y200264D01*
X256624Y200402D01*
X256611Y200541D01*
X256604Y200559D01*
X256601Y200579D01*
X256550Y200708D01*
X256503Y200840D01*
X256492Y200857D01*
X256484Y200875D01*
X256403Y200987D01*
X256324Y201103D01*
X256309Y201116D01*
X256298Y201132D01*
X256190Y201221D01*
X256086Y201313D01*
X256068Y201322D01*
X256053Y201335D01*
X255927Y201395D01*
X255803Y201458D01*
X255783Y201462D01*
X255765Y201471D01*
X255628Y201497D01*
X255492Y201527D01*
X255472Y201527D01*
X255453Y201531D01*
X255314Y201522D01*
X255174Y201518D01*
X255155Y201512D01*
X255135Y201511D01*
X255038Y201479D01*
X245588Y201479D01*
X244737Y202329D01*
X244643Y202402D01*
X244554Y202481D01*
X244518Y202499D01*
X244486Y202524D01*
X244377Y202572D01*
X244271Y202626D01*
X244232Y202635D01*
X244194Y202651D01*
X244077Y202669D01*
X243961Y202695D01*
X243920Y202694D01*
X243880Y202700D01*
X243762Y202689D01*
X243643Y202686D01*
X243604Y202674D01*
X243564Y202671D01*
X243452Y202630D01*
X243337Y202597D01*
X243302Y202577D01*
X243264Y202563D01*
X243166Y202496D01*
X243063Y202436D01*
X243018Y202396D01*
X243001Y202384D01*
X242988Y202369D01*
X242942Y202329D01*
X242092Y201479D01*
X232888Y201479D01*
X231399Y202968D01*
X231399Y213572D01*
X232888Y215061D01*
X242092Y215061D01*
X242435Y214719D01*
X242544Y214634D01*
X242651Y214545D01*
X242670Y214536D01*
X242686Y214524D01*
X242814Y214468D01*
X242939Y214409D01*
X242959Y214405D01*
X242978Y214397D01*
X243116Y214375D01*
X243252Y214349D01*
X243272Y214351D01*
X243292Y214347D01*
X243431Y214361D01*
X243569Y214369D01*
X243588Y214375D01*
X243608Y214377D01*
X243739Y214424D01*
X243871Y214467D01*
X243889Y214478D01*
X243908Y214485D01*
X244022Y214563D01*
X244140Y214637D01*
X244154Y214652D01*
X244171Y214663D01*
X244263Y214768D01*
X244358Y214869D01*
X244368Y214887D01*
X244381Y214902D01*
X244444Y215026D01*
X244512Y215147D01*
X244517Y215167D01*
X244526Y215185D01*
X244556Y215321D01*
X244591Y215455D01*
X244593Y215483D01*
X244596Y215495D01*
X244595Y215516D01*
X244601Y215616D01*
X244601Y220472D01*
X244586Y220590D01*
X244579Y220709D01*
X244566Y220747D01*
X244561Y220788D01*
X244518Y220898D01*
X244481Y221011D01*
X244459Y221046D01*
X244444Y221083D01*
X244375Y221179D01*
X244311Y221280D01*
X244281Y221308D01*
X244258Y221341D01*
X244166Y221417D01*
X244079Y221498D01*
X244044Y221518D01*
X244013Y221543D01*
X243905Y221594D01*
X243801Y221652D01*
X243761Y221662D01*
X243725Y221679D01*
X243608Y221701D01*
X243493Y221731D01*
X243433Y221735D01*
X243413Y221739D01*
X243392Y221737D01*
X243332Y221741D01*
X226361Y221741D01*
X226262Y221729D01*
X226163Y221726D01*
X226105Y221709D01*
X226045Y221701D01*
X225953Y221665D01*
X225858Y221637D01*
X225806Y221607D01*
X225749Y221584D01*
X225669Y221526D01*
X225584Y221476D01*
X225509Y221410D01*
X225492Y221398D01*
X225484Y221388D01*
X225463Y221370D01*
X195800Y191707D01*
X195740Y191629D01*
X195672Y191556D01*
X195643Y191503D01*
X195606Y191456D01*
X195566Y191365D01*
X195518Y191278D01*
X195503Y191219D01*
X195479Y191164D01*
X195464Y191066D01*
X195439Y190970D01*
X195433Y190870D01*
X195429Y190850D01*
X195431Y190837D01*
X195429Y190809D01*
X195429Y185088D01*
X195393Y184959D01*
X195393Y184950D01*
X195391Y184941D01*
X195381Y184780D01*
X195381Y179958D01*
X193892Y178469D01*
X185788Y178469D01*
X184299Y179958D01*
X184299Y184780D01*
X184298Y184789D01*
X184299Y184799D01*
X184278Y184947D01*
X184259Y185096D01*
X184256Y185104D01*
X184255Y185114D01*
X184251Y185123D01*
X184251Y194762D01*
X185102Y196816D01*
X220354Y232068D01*
X222408Y232919D01*
X230130Y232919D01*
X230248Y232934D01*
X230367Y232941D01*
X230405Y232954D01*
X230446Y232959D01*
X230556Y233002D01*
X230669Y233039D01*
X230704Y233061D01*
X230741Y233076D01*
X230837Y233145D01*
X230938Y233209D01*
X230966Y233239D01*
X230999Y233262D01*
X231075Y233354D01*
X231156Y233441D01*
X231176Y233476D01*
X231201Y233507D01*
X231252Y233615D01*
X231310Y233719D01*
X231320Y233759D01*
X231337Y233795D01*
X231359Y233912D01*
X231389Y234027D01*
X231393Y234087D01*
X231397Y234107D01*
X231395Y234128D01*
X231399Y234188D01*
X231399Y244072D01*
X232888Y245561D01*
X242092Y245561D01*
X242435Y245219D01*
X242544Y245134D01*
X242651Y245045D01*
X242670Y245036D01*
X242686Y245024D01*
X242814Y244968D01*
X242939Y244909D01*
X242959Y244905D01*
X242978Y244897D01*
X243116Y244875D01*
X243252Y244849D01*
X243272Y244851D01*
X243292Y244847D01*
X243431Y244861D01*
X243569Y244869D01*
X243588Y244875D01*
X243608Y244877D01*
X243739Y244924D01*
X243871Y244967D01*
X243889Y244978D01*
X243908Y244985D01*
X244022Y245063D01*
X244140Y245137D01*
X244154Y245152D01*
X244171Y245163D01*
X244263Y245267D01*
X244358Y245369D01*
X244368Y245387D01*
X244381Y245402D01*
X244444Y245526D01*
X244512Y245647D01*
X244517Y245667D01*
X244526Y245685D01*
X244556Y245821D01*
X244591Y245955D01*
X244593Y245983D01*
X244596Y245995D01*
X244595Y246016D01*
X244601Y246116D01*
X244601Y247834D01*
X244589Y247932D01*
X244586Y248031D01*
X244569Y248089D01*
X244561Y248149D01*
X244525Y248242D01*
X244497Y248337D01*
X244467Y248389D01*
X244444Y248445D01*
X244386Y248525D01*
X244347Y248591D01*
X244347Y265958D01*
X245836Y267447D01*
X254544Y267447D01*
X255642Y266349D01*
X255737Y266276D01*
X255826Y266197D01*
X255862Y266178D01*
X255894Y266154D01*
X256003Y266106D01*
X256109Y266052D01*
X256148Y266043D01*
X256186Y266027D01*
X256303Y266009D01*
X256419Y265983D01*
X256460Y265984D01*
X256500Y265978D01*
X256618Y265989D01*
X256737Y265992D01*
X256776Y266004D01*
X256816Y266007D01*
X256929Y266048D01*
X257043Y266081D01*
X257077Y266101D01*
X257116Y266115D01*
X257214Y266182D01*
X257317Y266242D01*
X257362Y266282D01*
X257379Y266294D01*
X257392Y266309D01*
X257437Y266349D01*
X258536Y267447D01*
X267244Y267447D01*
X268342Y266349D01*
X268437Y266276D01*
X268526Y266197D01*
X268562Y266178D01*
X268594Y266154D01*
X268703Y266106D01*
X268809Y266052D01*
X268848Y266043D01*
X268886Y266027D01*
X269003Y266009D01*
X269119Y265983D01*
X269160Y265984D01*
X269200Y265978D01*
X269318Y265989D01*
X269437Y265992D01*
X269476Y266004D01*
X269516Y266007D01*
X269629Y266048D01*
X269743Y266081D01*
X269777Y266101D01*
X269816Y266115D01*
X269914Y266182D01*
X270017Y266242D01*
X270062Y266282D01*
X270079Y266294D01*
X270092Y266309D01*
X270137Y266349D01*
X271236Y267447D01*
X279944Y267447D01*
X281433Y265958D01*
X281433Y248592D01*
X281422Y248581D01*
X281393Y248528D01*
X281356Y248480D01*
X281316Y248389D01*
X281268Y248302D01*
X281253Y248244D01*
X281229Y248188D01*
X281214Y248090D01*
X281189Y247995D01*
X281183Y247894D01*
X281179Y247874D01*
X281181Y247862D01*
X281179Y247834D01*
X281179Y245100D01*
X281191Y245002D01*
X281194Y244903D01*
X281211Y244845D01*
X281219Y244785D01*
X281255Y244693D01*
X281283Y244597D01*
X281313Y244545D01*
X281336Y244489D01*
X281394Y244409D01*
X281444Y244324D01*
X281510Y244248D01*
X281522Y244232D01*
X281532Y244224D01*
X281550Y244203D01*
X281681Y244072D01*
X281681Y234188D01*
X281696Y234070D01*
X281703Y233951D01*
X281716Y233913D01*
X281721Y233872D01*
X281764Y233762D01*
X281801Y233649D01*
X281823Y233614D01*
X281838Y233577D01*
X281907Y233481D01*
X281971Y233380D01*
X282001Y233352D01*
X282024Y233319D01*
X282116Y233243D01*
X282203Y233162D01*
X282238Y233142D01*
X282269Y233117D01*
X282377Y233066D01*
X282481Y233008D01*
X282521Y232998D01*
X282557Y232981D01*
X282674Y232959D01*
X282789Y232929D01*
X282849Y232925D01*
X282869Y232921D01*
X282890Y232923D01*
X282950Y232919D01*
X285449Y232919D01*
X285548Y232931D01*
X285647Y232934D01*
X285705Y232951D01*
X285765Y232959D01*
X285857Y232995D01*
X285952Y233023D01*
X286004Y233053D01*
X286061Y233076D01*
X286141Y233134D01*
X286226Y233184D01*
X286301Y233250D01*
X286318Y233262D01*
X286326Y233272D01*
X286347Y233290D01*
X306714Y253658D01*
X308646Y254458D01*
X308671Y254473D01*
X308699Y254482D01*
X308809Y254551D01*
X308922Y254615D01*
X308943Y254636D01*
X308968Y254652D01*
X309057Y254746D01*
X309150Y254837D01*
X309166Y254862D01*
X309186Y254883D01*
X309249Y254997D01*
X309317Y255108D01*
X309325Y255136D01*
X309340Y255162D01*
X309372Y255288D01*
X309410Y255412D01*
X309412Y255441D01*
X309419Y255470D01*
X309429Y255631D01*
X309429Y265902D01*
X310918Y267391D01*
X323596Y267391D01*
X323714Y267406D01*
X323833Y267413D01*
X323871Y267426D01*
X323912Y267431D01*
X324022Y267474D01*
X324135Y267511D01*
X324170Y267533D01*
X324207Y267548D01*
X324303Y267617D01*
X324404Y267681D01*
X324432Y267711D01*
X324465Y267734D01*
X324541Y267826D01*
X324622Y267913D01*
X324642Y267948D01*
X324667Y267979D01*
X324718Y268087D01*
X324776Y268191D01*
X324786Y268231D01*
X324803Y268267D01*
X324825Y268384D01*
X324855Y268499D01*
X324859Y268559D01*
X324863Y268579D01*
X324861Y268600D01*
X324865Y268660D01*
X324865Y281330D01*
X324850Y281448D01*
X324843Y281567D01*
X324830Y281605D01*
X324825Y281646D01*
X324782Y281756D01*
X324745Y281869D01*
X324723Y281904D01*
X324708Y281941D01*
X324639Y282037D01*
X324575Y282138D01*
X324545Y282166D01*
X324522Y282199D01*
X324430Y282275D01*
X324343Y282356D01*
X324308Y282376D01*
X324277Y282401D01*
X324169Y282452D01*
X324065Y282510D01*
X324025Y282520D01*
X323989Y282537D01*
X323872Y282559D01*
X323757Y282589D01*
X323697Y282593D01*
X323677Y282597D01*
X323656Y282595D01*
X323596Y282599D01*
X235403Y282599D01*
X235305Y282587D01*
X235206Y282584D01*
X235148Y282567D01*
X235088Y282559D01*
X234996Y282523D01*
X234900Y282495D01*
X234848Y282465D01*
X234792Y282442D01*
X234712Y282384D01*
X234627Y282334D01*
X234551Y282268D01*
X234535Y282256D01*
X234527Y282246D01*
X234506Y282228D01*
X233587Y281309D01*
X230908Y281309D01*
X230810Y281297D01*
X230711Y281294D01*
X230653Y281277D01*
X230593Y281269D01*
X230501Y281233D01*
X230406Y281205D01*
X230353Y281175D01*
X230297Y281152D01*
X230217Y281094D01*
X230132Y281044D01*
X230056Y280978D01*
X230040Y280966D01*
X230032Y280956D01*
X230011Y280938D01*
X211302Y262229D01*
X211242Y262151D01*
X211174Y262079D01*
X211145Y262026D01*
X211108Y261978D01*
X211068Y261887D01*
X211020Y261800D01*
X211005Y261742D01*
X210981Y261686D01*
X210966Y261588D01*
X210941Y261492D01*
X210935Y261392D01*
X210931Y261372D01*
X210933Y261360D01*
X210931Y261332D01*
X210931Y253868D01*
X209442Y252379D01*
X201092Y252379D01*
X201083Y252378D01*
X201074Y252379D01*
X200925Y252358D01*
X200777Y252339D01*
X200768Y252336D01*
X200759Y252335D01*
X200606Y252283D01*
X198619Y251459D01*
X170759Y251459D01*
X170661Y251447D01*
X170562Y251444D01*
X170503Y251427D01*
X170443Y251419D01*
X170351Y251383D01*
X170256Y251355D01*
X170204Y251325D01*
X170148Y251302D01*
X170068Y251244D01*
X169982Y251194D01*
X169907Y251128D01*
X169890Y251116D01*
X169883Y251106D01*
X169861Y251088D01*
X157533Y238759D01*
X139647Y238759D01*
X131707Y246699D01*
X131598Y246784D01*
X131491Y246873D01*
X131472Y246881D01*
X131456Y246894D01*
X131328Y246949D01*
X131203Y247008D01*
X131183Y247012D01*
X131164Y247020D01*
X131026Y247042D01*
X130890Y247068D01*
X130870Y247067D01*
X130850Y247070D01*
X130711Y247057D01*
X130573Y247048D01*
X130554Y247042D01*
X130534Y247040D01*
X130402Y246993D01*
X130271Y246950D01*
X130253Y246939D01*
X130234Y246932D01*
X130119Y246854D01*
X130002Y246780D01*
X129988Y246765D01*
X129971Y246754D01*
X129879Y246649D01*
X129784Y246548D01*
X129774Y246531D01*
X129761Y246515D01*
X129697Y246391D01*
X129630Y246270D01*
X129625Y246250D01*
X129616Y246232D01*
X129586Y246096D01*
X129551Y245962D01*
X129549Y245934D01*
X129546Y245922D01*
X129547Y245901D01*
X129541Y245801D01*
X129541Y99060D01*
X129556Y98942D01*
X129563Y98823D01*
X129576Y98785D01*
X129581Y98744D01*
X129624Y98634D01*
X129661Y98521D01*
X129683Y98486D01*
X129698Y98449D01*
X129767Y98353D01*
X129831Y98252D01*
X129861Y98224D01*
X129884Y98191D01*
X129976Y98116D01*
X130063Y98034D01*
X130098Y98014D01*
X130129Y97989D01*
X130237Y97938D01*
X130341Y97880D01*
X130381Y97870D01*
X130417Y97853D01*
X130534Y97831D01*
X130649Y97801D01*
X130709Y97797D01*
X130729Y97793D01*
X130750Y97795D01*
X130810Y97791D01*
X148590Y97791D01*
X148708Y97806D01*
G37*
G36*
X772278Y31144D02*
X772278Y31144D01*
X772397Y31151D01*
X772435Y31163D01*
X772474Y31168D01*
X772586Y31212D01*
X772699Y31249D01*
X772733Y31271D01*
X772770Y31285D01*
X772867Y31355D01*
X772968Y31419D01*
X772995Y31448D01*
X773028Y31472D01*
X773104Y31564D01*
X773186Y31651D01*
X773205Y31686D01*
X773231Y31717D01*
X773282Y31825D01*
X773340Y31930D01*
X773350Y31968D01*
X773367Y32004D01*
X773389Y32122D01*
X773419Y32237D01*
X773423Y32296D01*
X773427Y32316D01*
X773425Y32337D01*
X773429Y32398D01*
X773429Y92710D01*
X773414Y92828D01*
X773407Y92947D01*
X773394Y92985D01*
X773389Y93026D01*
X773346Y93136D01*
X773309Y93249D01*
X773287Y93284D01*
X773272Y93321D01*
X773203Y93417D01*
X773139Y93518D01*
X773109Y93546D01*
X773086Y93579D01*
X772994Y93655D01*
X772907Y93736D01*
X772872Y93756D01*
X772841Y93781D01*
X772733Y93832D01*
X772629Y93890D01*
X772589Y93900D01*
X772553Y93917D01*
X772436Y93939D01*
X772321Y93969D01*
X772261Y93973D01*
X772241Y93977D01*
X772220Y93975D01*
X772160Y93979D01*
X704850Y93979D01*
X704732Y93964D01*
X704613Y93957D01*
X704575Y93944D01*
X704534Y93939D01*
X704424Y93896D01*
X704311Y93859D01*
X704276Y93837D01*
X704239Y93822D01*
X704143Y93753D01*
X704042Y93689D01*
X704014Y93659D01*
X703981Y93636D01*
X703906Y93544D01*
X703824Y93457D01*
X703804Y93422D01*
X703779Y93391D01*
X703728Y93283D01*
X703670Y93179D01*
X703660Y93139D01*
X703643Y93103D01*
X703621Y92986D01*
X703591Y92871D01*
X703587Y92811D01*
X703583Y92791D01*
X703585Y92770D01*
X703581Y92710D01*
X703581Y32462D01*
X703596Y32345D01*
X703603Y32227D01*
X703615Y32188D01*
X703621Y32147D01*
X703664Y32037D01*
X703701Y31924D01*
X703723Y31889D01*
X703738Y31851D01*
X703807Y31755D01*
X703871Y31655D01*
X703900Y31627D01*
X703924Y31594D01*
X704016Y31518D01*
X704102Y31437D01*
X704138Y31417D01*
X704169Y31391D01*
X704276Y31341D01*
X704380Y31283D01*
X704420Y31273D01*
X704457Y31255D01*
X704573Y31233D01*
X704688Y31203D01*
X704749Y31199D01*
X704770Y31196D01*
X704790Y31197D01*
X704849Y31193D01*
X772159Y31129D01*
X772278Y31144D01*
G37*
G36*
X413397Y312687D02*
X413397Y312687D01*
X413496Y312690D01*
X413554Y312707D01*
X413614Y312715D01*
X413706Y312751D01*
X413801Y312779D01*
X413853Y312809D01*
X413910Y312832D01*
X413990Y312890D01*
X414075Y312940D01*
X414151Y313006D01*
X414167Y313018D01*
X414175Y313028D01*
X414196Y313046D01*
X440759Y339609D01*
X441032Y339722D01*
X441093Y339757D01*
X441157Y339783D01*
X441230Y339835D01*
X441308Y339880D01*
X441358Y339928D01*
X441415Y339969D01*
X441472Y340039D01*
X441537Y340101D01*
X441573Y340161D01*
X441618Y340214D01*
X441656Y340296D01*
X441703Y340372D01*
X441723Y340439D01*
X441753Y340502D01*
X441770Y340590D01*
X441796Y340676D01*
X441800Y340746D01*
X441813Y340815D01*
X441807Y340904D01*
X441812Y340994D01*
X441797Y341062D01*
X441793Y341132D01*
X441766Y341217D01*
X441747Y341305D01*
X441717Y341368D01*
X441695Y341434D01*
X441647Y341510D01*
X441608Y341591D01*
X441562Y341644D01*
X441525Y341703D01*
X441459Y341765D01*
X441401Y341833D01*
X441344Y341873D01*
X441293Y341921D01*
X441215Y341964D01*
X441141Y342016D01*
X441076Y342041D01*
X441015Y342075D01*
X440928Y342097D01*
X440844Y342129D01*
X440775Y342137D01*
X440707Y342154D01*
X440546Y342164D01*
X271474Y342164D01*
X271337Y342147D01*
X271198Y342134D01*
X271179Y342127D01*
X271159Y342124D01*
X271030Y342073D01*
X270899Y342026D01*
X270882Y342015D01*
X270863Y342007D01*
X270751Y341926D01*
X270636Y341848D01*
X270622Y341832D01*
X270606Y341821D01*
X270517Y341713D01*
X270425Y341609D01*
X270416Y341591D01*
X270403Y341576D01*
X270344Y341450D01*
X270281Y341326D01*
X270276Y341306D01*
X270268Y341288D01*
X270241Y341152D01*
X270211Y341016D01*
X270212Y340995D01*
X270208Y340976D01*
X270216Y340837D01*
X270221Y340698D01*
X270226Y340678D01*
X270228Y340658D01*
X270270Y340526D01*
X270309Y340392D01*
X270319Y340375D01*
X270326Y340356D01*
X270400Y340238D01*
X270471Y340118D01*
X270489Y340097D01*
X270496Y340087D01*
X270511Y340073D01*
X270577Y339998D01*
X281189Y329385D01*
X281990Y327451D01*
X282015Y327408D01*
X282032Y327361D01*
X282093Y327271D01*
X282148Y327175D01*
X282182Y327139D01*
X282210Y327098D01*
X282292Y327026D01*
X282369Y326947D01*
X282412Y326921D01*
X282449Y326888D01*
X282546Y326838D01*
X282640Y326780D01*
X282688Y326766D01*
X282732Y326743D01*
X282839Y326719D01*
X282944Y326687D01*
X282994Y326684D01*
X283042Y326674D01*
X283152Y326677D01*
X283262Y326672D01*
X283311Y326682D01*
X283360Y326683D01*
X283466Y326714D01*
X283573Y326736D01*
X283618Y326758D01*
X283666Y326772D01*
X283760Y326827D01*
X283859Y326876D01*
X283897Y326908D01*
X283908Y326915D01*
X292644Y326915D01*
X294133Y325426D01*
X294133Y320778D01*
X294145Y320679D01*
X294148Y320580D01*
X294165Y320522D01*
X294173Y320462D01*
X294209Y320370D01*
X294237Y320275D01*
X294267Y320223D01*
X294290Y320166D01*
X294348Y320086D01*
X294398Y320001D01*
X294464Y319925D01*
X294476Y319909D01*
X294486Y319901D01*
X294504Y319880D01*
X301338Y313046D01*
X301416Y312986D01*
X301488Y312918D01*
X301541Y312889D01*
X301589Y312852D01*
X301680Y312812D01*
X301767Y312764D01*
X301825Y312749D01*
X301881Y312725D01*
X301979Y312710D01*
X302075Y312685D01*
X302175Y312679D01*
X302195Y312675D01*
X302208Y312677D01*
X302236Y312675D01*
X413298Y312675D01*
X413397Y312687D01*
G37*
G36*
X696078Y31216D02*
X696078Y31216D01*
X696197Y31224D01*
X696235Y31236D01*
X696274Y31241D01*
X696386Y31285D01*
X696499Y31322D01*
X696533Y31343D01*
X696570Y31358D01*
X696667Y31428D01*
X696768Y31492D01*
X696795Y31521D01*
X696828Y31544D01*
X696904Y31636D01*
X696986Y31724D01*
X697005Y31759D01*
X697031Y31789D01*
X697082Y31897D01*
X697140Y32002D01*
X697150Y32041D01*
X697167Y32077D01*
X697189Y32194D01*
X697219Y32310D01*
X697223Y32369D01*
X697227Y32389D01*
X697225Y32410D01*
X697229Y32471D01*
X697229Y92710D01*
X697214Y92828D01*
X697207Y92947D01*
X697194Y92985D01*
X697189Y93026D01*
X697146Y93136D01*
X697109Y93249D01*
X697087Y93284D01*
X697072Y93321D01*
X697003Y93417D01*
X696939Y93518D01*
X696909Y93546D01*
X696886Y93579D01*
X696794Y93655D01*
X696707Y93736D01*
X696672Y93756D01*
X696641Y93781D01*
X696533Y93832D01*
X696429Y93890D01*
X696389Y93900D01*
X696353Y93917D01*
X696236Y93939D01*
X696121Y93969D01*
X696061Y93973D01*
X696041Y93977D01*
X696020Y93975D01*
X695960Y93979D01*
X632460Y93979D01*
X632342Y93964D01*
X632223Y93957D01*
X632185Y93944D01*
X632144Y93939D01*
X632034Y93896D01*
X631921Y93859D01*
X631886Y93837D01*
X631849Y93822D01*
X631753Y93753D01*
X631652Y93689D01*
X631624Y93659D01*
X631591Y93636D01*
X631516Y93544D01*
X631434Y93457D01*
X631414Y93422D01*
X631389Y93391D01*
X631338Y93283D01*
X631280Y93179D01*
X631270Y93139D01*
X631253Y93103D01*
X631231Y92986D01*
X631201Y92871D01*
X631197Y92811D01*
X631193Y92791D01*
X631195Y92770D01*
X631191Y92710D01*
X631191Y32531D01*
X631206Y32414D01*
X631213Y32296D01*
X631225Y32256D01*
X631231Y32216D01*
X631274Y32106D01*
X631311Y31993D01*
X631333Y31958D01*
X631348Y31920D01*
X631417Y31824D01*
X631481Y31724D01*
X631510Y31696D01*
X631534Y31663D01*
X631626Y31587D01*
X631712Y31506D01*
X631748Y31486D01*
X631779Y31460D01*
X631886Y31409D01*
X631990Y31352D01*
X632030Y31342D01*
X632067Y31324D01*
X632183Y31302D01*
X632298Y31272D01*
X632359Y31268D01*
X632380Y31265D01*
X632400Y31266D01*
X632459Y31262D01*
X695959Y31202D01*
X696078Y31216D01*
G37*
G36*
X623688Y31285D02*
X623688Y31285D01*
X623807Y31293D01*
X623845Y31305D01*
X623884Y31310D01*
X623996Y31354D01*
X624109Y31391D01*
X624143Y31412D01*
X624180Y31427D01*
X624277Y31497D01*
X624378Y31561D01*
X624405Y31590D01*
X624438Y31613D01*
X624514Y31705D01*
X624596Y31793D01*
X624615Y31828D01*
X624641Y31858D01*
X624692Y31966D01*
X624750Y32071D01*
X624760Y32110D01*
X624777Y32146D01*
X624799Y32263D01*
X624829Y32379D01*
X624833Y32438D01*
X624837Y32458D01*
X624835Y32479D01*
X624839Y32540D01*
X624839Y92710D01*
X624824Y92828D01*
X624817Y92947D01*
X624804Y92985D01*
X624799Y93026D01*
X624756Y93136D01*
X624719Y93249D01*
X624697Y93284D01*
X624682Y93321D01*
X624613Y93417D01*
X624549Y93518D01*
X624519Y93546D01*
X624496Y93579D01*
X624404Y93655D01*
X624317Y93736D01*
X624282Y93756D01*
X624251Y93781D01*
X624143Y93832D01*
X624039Y93890D01*
X623999Y93900D01*
X623963Y93917D01*
X623846Y93939D01*
X623731Y93969D01*
X623671Y93973D01*
X623651Y93977D01*
X623630Y93975D01*
X623570Y93979D01*
X560070Y93979D01*
X559952Y93964D01*
X559833Y93957D01*
X559795Y93944D01*
X559754Y93939D01*
X559644Y93896D01*
X559531Y93859D01*
X559496Y93837D01*
X559459Y93822D01*
X559363Y93753D01*
X559262Y93689D01*
X559234Y93659D01*
X559201Y93636D01*
X559126Y93544D01*
X559044Y93457D01*
X559024Y93422D01*
X558999Y93391D01*
X558948Y93283D01*
X558890Y93179D01*
X558880Y93139D01*
X558863Y93103D01*
X558841Y92986D01*
X558811Y92871D01*
X558807Y92811D01*
X558803Y92791D01*
X558805Y92770D01*
X558801Y92710D01*
X558801Y32600D01*
X558816Y32483D01*
X558823Y32364D01*
X558835Y32325D01*
X558841Y32285D01*
X558884Y32175D01*
X558921Y32062D01*
X558943Y32027D01*
X558958Y31989D01*
X559027Y31893D01*
X559091Y31793D01*
X559120Y31765D01*
X559144Y31732D01*
X559236Y31656D01*
X559322Y31575D01*
X559358Y31555D01*
X559389Y31529D01*
X559496Y31478D01*
X559600Y31421D01*
X559640Y31411D01*
X559677Y31393D01*
X559793Y31371D01*
X559908Y31341D01*
X559969Y31337D01*
X559990Y31334D01*
X560010Y31335D01*
X560069Y31331D01*
X623569Y31270D01*
X623688Y31285D01*
G37*
G36*
X551298Y31354D02*
X551298Y31354D01*
X551417Y31362D01*
X551455Y31374D01*
X551494Y31379D01*
X551606Y31423D01*
X551719Y31460D01*
X551753Y31481D01*
X551790Y31496D01*
X551887Y31566D01*
X551988Y31630D01*
X552015Y31659D01*
X552048Y31682D01*
X552124Y31774D01*
X552206Y31862D01*
X552225Y31896D01*
X552251Y31927D01*
X552302Y32035D01*
X552360Y32140D01*
X552370Y32179D01*
X552387Y32215D01*
X552409Y32332D01*
X552439Y32448D01*
X552443Y32507D01*
X552447Y32527D01*
X552445Y32548D01*
X552449Y32609D01*
X552449Y92710D01*
X552434Y92828D01*
X552427Y92947D01*
X552414Y92985D01*
X552409Y93026D01*
X552366Y93136D01*
X552329Y93249D01*
X552307Y93284D01*
X552292Y93321D01*
X552223Y93417D01*
X552159Y93518D01*
X552129Y93546D01*
X552106Y93579D01*
X552014Y93655D01*
X551927Y93736D01*
X551892Y93756D01*
X551861Y93781D01*
X551753Y93832D01*
X551649Y93890D01*
X551609Y93900D01*
X551573Y93917D01*
X551456Y93939D01*
X551341Y93969D01*
X551281Y93973D01*
X551261Y93977D01*
X551240Y93975D01*
X551180Y93979D01*
X487680Y93979D01*
X487562Y93964D01*
X487443Y93957D01*
X487405Y93944D01*
X487364Y93939D01*
X487254Y93896D01*
X487141Y93859D01*
X487106Y93837D01*
X487069Y93822D01*
X486973Y93753D01*
X486872Y93689D01*
X486844Y93659D01*
X486811Y93636D01*
X486736Y93544D01*
X486654Y93457D01*
X486634Y93422D01*
X486609Y93391D01*
X486558Y93283D01*
X486500Y93179D01*
X486490Y93139D01*
X486473Y93103D01*
X486451Y92986D01*
X486421Y92871D01*
X486417Y92811D01*
X486413Y92791D01*
X486415Y92770D01*
X486411Y92710D01*
X486411Y32669D01*
X486426Y32552D01*
X486433Y32433D01*
X486445Y32394D01*
X486451Y32354D01*
X486494Y32244D01*
X486531Y32131D01*
X486553Y32096D01*
X486568Y32058D01*
X486637Y31962D01*
X486701Y31862D01*
X486730Y31834D01*
X486754Y31801D01*
X486846Y31725D01*
X486932Y31644D01*
X486968Y31624D01*
X486999Y31598D01*
X487106Y31547D01*
X487210Y31490D01*
X487250Y31480D01*
X487287Y31462D01*
X487403Y31440D01*
X487518Y31410D01*
X487579Y31406D01*
X487600Y31402D01*
X487620Y31404D01*
X487679Y31400D01*
X551179Y31339D01*
X551298Y31354D01*
G37*
G36*
X478908Y31423D02*
X478908Y31423D01*
X479027Y31431D01*
X479065Y31443D01*
X479104Y31448D01*
X479216Y31492D01*
X479329Y31529D01*
X479363Y31550D01*
X479400Y31565D01*
X479497Y31635D01*
X479598Y31699D01*
X479625Y31728D01*
X479658Y31751D01*
X479734Y31843D01*
X479816Y31930D01*
X479835Y31965D01*
X479861Y31996D01*
X479912Y32104D01*
X479970Y32209D01*
X479980Y32248D01*
X479997Y32284D01*
X480019Y32401D01*
X480049Y32517D01*
X480053Y32576D01*
X480057Y32596D01*
X480055Y32616D01*
X480059Y32678D01*
X480059Y92710D01*
X480044Y92828D01*
X480037Y92947D01*
X480024Y92985D01*
X480019Y93026D01*
X479976Y93136D01*
X479939Y93249D01*
X479917Y93284D01*
X479902Y93321D01*
X479833Y93417D01*
X479769Y93518D01*
X479739Y93546D01*
X479716Y93579D01*
X479624Y93655D01*
X479537Y93736D01*
X479502Y93756D01*
X479471Y93781D01*
X479363Y93832D01*
X479259Y93890D01*
X479219Y93900D01*
X479183Y93917D01*
X479066Y93939D01*
X478951Y93969D01*
X478891Y93973D01*
X478871Y93977D01*
X478850Y93975D01*
X478790Y93979D01*
X415290Y93979D01*
X415172Y93964D01*
X415053Y93957D01*
X415015Y93944D01*
X414974Y93939D01*
X414864Y93896D01*
X414751Y93859D01*
X414716Y93837D01*
X414679Y93822D01*
X414583Y93753D01*
X414482Y93689D01*
X414454Y93659D01*
X414421Y93636D01*
X414346Y93544D01*
X414264Y93457D01*
X414244Y93422D01*
X414219Y93391D01*
X414168Y93283D01*
X414110Y93179D01*
X414100Y93139D01*
X414083Y93103D01*
X414061Y92986D01*
X414031Y92871D01*
X414027Y92811D01*
X414023Y92791D01*
X414025Y92770D01*
X414021Y92710D01*
X414021Y32738D01*
X414036Y32621D01*
X414043Y32502D01*
X414055Y32463D01*
X414061Y32423D01*
X414104Y32313D01*
X414141Y32200D01*
X414163Y32165D01*
X414178Y32127D01*
X414247Y32031D01*
X414310Y31931D01*
X414340Y31903D01*
X414364Y31870D01*
X414456Y31794D01*
X414542Y31713D01*
X414578Y31693D01*
X414609Y31667D01*
X414716Y31616D01*
X414820Y31559D01*
X414860Y31549D01*
X414897Y31531D01*
X415013Y31509D01*
X415128Y31479D01*
X415189Y31475D01*
X415209Y31471D01*
X415230Y31473D01*
X415289Y31469D01*
X478789Y31408D01*
X478908Y31423D01*
G37*
G36*
X406518Y31492D02*
X406518Y31492D01*
X406637Y31500D01*
X406675Y31512D01*
X406714Y31517D01*
X406826Y31561D01*
X406939Y31598D01*
X406973Y31619D01*
X407010Y31634D01*
X407107Y31704D01*
X407208Y31768D01*
X407235Y31797D01*
X407268Y31820D01*
X407344Y31912D01*
X407426Y31999D01*
X407445Y32034D01*
X407471Y32065D01*
X407522Y32173D01*
X407580Y32278D01*
X407590Y32317D01*
X407607Y32353D01*
X407629Y32470D01*
X407659Y32586D01*
X407663Y32645D01*
X407667Y32665D01*
X407665Y32685D01*
X407669Y32747D01*
X407669Y92710D01*
X407654Y92828D01*
X407647Y92947D01*
X407634Y92985D01*
X407629Y93026D01*
X407586Y93136D01*
X407549Y93249D01*
X407527Y93284D01*
X407512Y93321D01*
X407443Y93417D01*
X407379Y93518D01*
X407349Y93546D01*
X407326Y93579D01*
X407234Y93655D01*
X407147Y93736D01*
X407112Y93756D01*
X407081Y93781D01*
X406973Y93832D01*
X406869Y93890D01*
X406829Y93900D01*
X406793Y93917D01*
X406676Y93939D01*
X406561Y93969D01*
X406501Y93973D01*
X406481Y93977D01*
X406460Y93975D01*
X406400Y93979D01*
X342900Y93979D01*
X342782Y93964D01*
X342663Y93957D01*
X342625Y93944D01*
X342584Y93939D01*
X342474Y93896D01*
X342361Y93859D01*
X342326Y93837D01*
X342289Y93822D01*
X342193Y93753D01*
X342092Y93689D01*
X342064Y93659D01*
X342031Y93636D01*
X341956Y93544D01*
X341874Y93457D01*
X341854Y93422D01*
X341829Y93391D01*
X341778Y93283D01*
X341720Y93179D01*
X341710Y93139D01*
X341693Y93103D01*
X341671Y92986D01*
X341641Y92871D01*
X341637Y92811D01*
X341633Y92791D01*
X341635Y92770D01*
X341631Y92710D01*
X341631Y32807D01*
X341646Y32689D01*
X341653Y32571D01*
X341665Y32532D01*
X341671Y32492D01*
X341714Y32381D01*
X341751Y32269D01*
X341773Y32234D01*
X341788Y32196D01*
X341857Y32100D01*
X341921Y32000D01*
X341950Y31972D01*
X341974Y31938D01*
X342066Y31863D01*
X342152Y31782D01*
X342188Y31762D01*
X342219Y31736D01*
X342326Y31685D01*
X342430Y31628D01*
X342470Y31618D01*
X342507Y31600D01*
X342623Y31578D01*
X342738Y31548D01*
X342799Y31544D01*
X342820Y31540D01*
X342840Y31542D01*
X342899Y31538D01*
X406399Y31477D01*
X406518Y31492D01*
G37*
G36*
X334128Y31561D02*
X334128Y31561D01*
X334247Y31569D01*
X334285Y31581D01*
X334324Y31586D01*
X334436Y31630D01*
X334549Y31667D01*
X334583Y31688D01*
X334620Y31703D01*
X334717Y31773D01*
X334818Y31837D01*
X334845Y31866D01*
X334878Y31889D01*
X334954Y31981D01*
X335036Y32068D01*
X335055Y32103D01*
X335081Y32134D01*
X335132Y32242D01*
X335190Y32347D01*
X335200Y32386D01*
X335217Y32422D01*
X335239Y32539D01*
X335269Y32655D01*
X335273Y32714D01*
X335277Y32734D01*
X335275Y32754D01*
X335279Y32816D01*
X335279Y92710D01*
X335264Y92828D01*
X335257Y92947D01*
X335244Y92985D01*
X335239Y93026D01*
X335196Y93136D01*
X335159Y93249D01*
X335137Y93284D01*
X335122Y93321D01*
X335053Y93417D01*
X334989Y93518D01*
X334959Y93546D01*
X334936Y93579D01*
X334844Y93655D01*
X334757Y93736D01*
X334722Y93756D01*
X334691Y93781D01*
X334583Y93832D01*
X334479Y93890D01*
X334439Y93900D01*
X334403Y93917D01*
X334286Y93939D01*
X334171Y93969D01*
X334111Y93973D01*
X334091Y93977D01*
X334070Y93975D01*
X334010Y93979D01*
X270510Y93979D01*
X270392Y93964D01*
X270273Y93957D01*
X270235Y93944D01*
X270194Y93939D01*
X270084Y93896D01*
X269971Y93859D01*
X269936Y93837D01*
X269899Y93822D01*
X269803Y93753D01*
X269702Y93689D01*
X269674Y93659D01*
X269641Y93636D01*
X269566Y93544D01*
X269484Y93457D01*
X269464Y93422D01*
X269439Y93391D01*
X269388Y93283D01*
X269330Y93179D01*
X269320Y93139D01*
X269303Y93103D01*
X269281Y92986D01*
X269251Y92871D01*
X269247Y92811D01*
X269243Y92791D01*
X269245Y92770D01*
X269241Y92710D01*
X269241Y32876D01*
X269256Y32758D01*
X269263Y32640D01*
X269275Y32601D01*
X269281Y32560D01*
X269324Y32450D01*
X269361Y32338D01*
X269383Y32303D01*
X269398Y32265D01*
X269467Y32169D01*
X269531Y32069D01*
X269560Y32041D01*
X269584Y32007D01*
X269676Y31932D01*
X269762Y31851D01*
X269798Y31831D01*
X269829Y31805D01*
X269936Y31754D01*
X270040Y31697D01*
X270080Y31687D01*
X270117Y31669D01*
X270233Y31647D01*
X270348Y31617D01*
X270409Y31613D01*
X270430Y31609D01*
X270450Y31611D01*
X270509Y31607D01*
X334009Y31546D01*
X334128Y31561D01*
G37*
G36*
X261738Y31630D02*
X261738Y31630D01*
X261857Y31638D01*
X261895Y31650D01*
X261934Y31655D01*
X262046Y31699D01*
X262159Y31736D01*
X262193Y31757D01*
X262230Y31772D01*
X262327Y31842D01*
X262428Y31906D01*
X262455Y31935D01*
X262488Y31958D01*
X262564Y32050D01*
X262646Y32137D01*
X262665Y32172D01*
X262691Y32203D01*
X262742Y32311D01*
X262800Y32416D01*
X262810Y32454D01*
X262827Y32490D01*
X262849Y32608D01*
X262879Y32724D01*
X262883Y32783D01*
X262887Y32803D01*
X262885Y32823D01*
X262889Y32884D01*
X262889Y92710D01*
X262874Y92828D01*
X262867Y92947D01*
X262854Y92985D01*
X262849Y93026D01*
X262806Y93136D01*
X262769Y93249D01*
X262747Y93284D01*
X262732Y93321D01*
X262663Y93417D01*
X262599Y93518D01*
X262569Y93546D01*
X262546Y93579D01*
X262454Y93655D01*
X262367Y93736D01*
X262332Y93756D01*
X262301Y93781D01*
X262193Y93832D01*
X262089Y93890D01*
X262049Y93900D01*
X262013Y93917D01*
X261896Y93939D01*
X261781Y93969D01*
X261721Y93973D01*
X261701Y93977D01*
X261680Y93975D01*
X261620Y93979D01*
X198120Y93979D01*
X198002Y93964D01*
X197883Y93957D01*
X197845Y93944D01*
X197804Y93939D01*
X197694Y93896D01*
X197581Y93859D01*
X197546Y93837D01*
X197509Y93822D01*
X197413Y93753D01*
X197312Y93689D01*
X197284Y93659D01*
X197251Y93636D01*
X197176Y93544D01*
X197094Y93457D01*
X197074Y93422D01*
X197049Y93391D01*
X196998Y93283D01*
X196940Y93179D01*
X196930Y93139D01*
X196913Y93103D01*
X196891Y92986D01*
X196861Y92871D01*
X196857Y92811D01*
X196853Y92791D01*
X196855Y92770D01*
X196851Y92710D01*
X196851Y32945D01*
X196866Y32827D01*
X196873Y32709D01*
X196885Y32670D01*
X196891Y32629D01*
X196934Y32519D01*
X196971Y32407D01*
X196993Y32372D01*
X197008Y32334D01*
X197077Y32238D01*
X197141Y32138D01*
X197170Y32110D01*
X197194Y32076D01*
X197286Y32001D01*
X197372Y31920D01*
X197408Y31900D01*
X197439Y31874D01*
X197546Y31823D01*
X197650Y31766D01*
X197690Y31756D01*
X197727Y31738D01*
X197843Y31716D01*
X197958Y31686D01*
X198019Y31682D01*
X198040Y31678D01*
X198060Y31680D01*
X198119Y31676D01*
X261619Y31615D01*
X261738Y31630D01*
G37*
G36*
X189348Y31699D02*
X189348Y31699D01*
X189467Y31706D01*
X189505Y31719D01*
X189544Y31724D01*
X189656Y31768D01*
X189769Y31805D01*
X189803Y31826D01*
X189840Y31840D01*
X189937Y31911D01*
X190038Y31975D01*
X190065Y32004D01*
X190098Y32027D01*
X190174Y32119D01*
X190256Y32206D01*
X190275Y32241D01*
X190301Y32272D01*
X190352Y32380D01*
X190410Y32485D01*
X190420Y32523D01*
X190437Y32559D01*
X190459Y32677D01*
X190489Y32793D01*
X190493Y32852D01*
X190497Y32872D01*
X190495Y32892D01*
X190499Y32953D01*
X190499Y92710D01*
X190484Y92828D01*
X190477Y92947D01*
X190464Y92985D01*
X190459Y93026D01*
X190416Y93136D01*
X190379Y93249D01*
X190357Y93284D01*
X190342Y93321D01*
X190273Y93417D01*
X190209Y93518D01*
X190179Y93546D01*
X190156Y93579D01*
X190064Y93655D01*
X189977Y93736D01*
X189942Y93756D01*
X189911Y93781D01*
X189803Y93832D01*
X189699Y93890D01*
X189659Y93900D01*
X189623Y93917D01*
X189506Y93939D01*
X189391Y93969D01*
X189331Y93973D01*
X189311Y93977D01*
X189290Y93975D01*
X189230Y93979D01*
X130810Y93979D01*
X130692Y93964D01*
X130573Y93957D01*
X130535Y93944D01*
X130494Y93939D01*
X130384Y93896D01*
X130271Y93859D01*
X130236Y93837D01*
X130199Y93822D01*
X130103Y93753D01*
X130002Y93689D01*
X129974Y93659D01*
X129941Y93636D01*
X129865Y93544D01*
X129784Y93457D01*
X129764Y93422D01*
X129739Y93391D01*
X129688Y93283D01*
X129630Y93179D01*
X129620Y93139D01*
X129603Y93103D01*
X129581Y92986D01*
X129551Y92871D01*
X129547Y92811D01*
X129543Y92791D01*
X129545Y92770D01*
X129541Y92710D01*
X129541Y33009D01*
X129556Y32891D01*
X129563Y32773D01*
X129575Y32734D01*
X129581Y32694D01*
X129624Y32583D01*
X129661Y32471D01*
X129683Y32436D01*
X129698Y32398D01*
X129767Y32302D01*
X129830Y32202D01*
X129860Y32174D01*
X129884Y32141D01*
X129976Y32065D01*
X130062Y31984D01*
X130098Y31964D01*
X130129Y31938D01*
X130236Y31887D01*
X130340Y31830D01*
X130380Y31820D01*
X130417Y31802D01*
X130533Y31780D01*
X130648Y31750D01*
X130709Y31746D01*
X130729Y31742D01*
X130750Y31744D01*
X130809Y31740D01*
X189229Y31684D01*
X189348Y31699D01*
G37*
G36*
X510658Y97806D02*
X510658Y97806D01*
X510777Y97813D01*
X510815Y97826D01*
X510856Y97831D01*
X510966Y97874D01*
X511079Y97911D01*
X511114Y97933D01*
X511151Y97948D01*
X511247Y98018D01*
X511348Y98081D01*
X511376Y98111D01*
X511409Y98134D01*
X511485Y98226D01*
X511566Y98313D01*
X511586Y98348D01*
X511611Y98379D01*
X511662Y98487D01*
X511720Y98591D01*
X511730Y98631D01*
X511747Y98667D01*
X511769Y98784D01*
X511799Y98899D01*
X511803Y98960D01*
X511807Y98980D01*
X511805Y99000D01*
X511809Y99060D01*
X511809Y146316D01*
X512043Y146879D01*
X512045Y146888D01*
X512050Y146896D01*
X512087Y147042D01*
X512127Y147186D01*
X512127Y147195D01*
X512129Y147204D01*
X512139Y147365D01*
X512139Y155352D01*
X512861Y156075D01*
X512946Y156184D01*
X513035Y156291D01*
X513044Y156310D01*
X513056Y156326D01*
X513112Y156453D01*
X513171Y156579D01*
X513175Y156599D01*
X513183Y156618D01*
X513205Y156756D01*
X513231Y156892D01*
X513229Y156912D01*
X513233Y156932D01*
X513219Y157071D01*
X513211Y157209D01*
X513205Y157228D01*
X513203Y157248D01*
X513156Y157380D01*
X513113Y157511D01*
X513102Y157529D01*
X513095Y157548D01*
X513017Y157663D01*
X512943Y157780D01*
X512928Y157794D01*
X512917Y157811D01*
X512812Y157903D01*
X512711Y157998D01*
X512693Y158008D01*
X512678Y158021D01*
X512554Y158084D01*
X512433Y158152D01*
X512413Y158157D01*
X512395Y158166D01*
X512259Y158196D01*
X512125Y158231D01*
X512097Y158233D01*
X512085Y158236D01*
X512064Y158235D01*
X511964Y158241D01*
X483506Y158241D01*
X483497Y158240D01*
X483487Y158241D01*
X483339Y158220D01*
X483190Y158201D01*
X483182Y158198D01*
X483173Y158197D01*
X483020Y158145D01*
X482737Y158027D01*
X479923Y158027D01*
X477244Y159137D01*
X477196Y159150D01*
X477151Y159171D01*
X477043Y159192D01*
X476937Y159221D01*
X476887Y159222D01*
X476838Y159231D01*
X476729Y159224D01*
X476619Y159226D01*
X476571Y159215D01*
X476521Y159211D01*
X476417Y159178D01*
X476310Y159152D01*
X476266Y159129D01*
X476219Y159113D01*
X476126Y159055D01*
X476029Y159003D01*
X475992Y158970D01*
X475950Y158943D01*
X475875Y158863D01*
X475793Y158789D01*
X475766Y158748D01*
X475732Y158712D01*
X475679Y158615D01*
X475619Y158524D01*
X475602Y158477D01*
X475578Y158433D01*
X475551Y158327D01*
X475515Y158223D01*
X475511Y158173D01*
X475499Y158125D01*
X475489Y157965D01*
X475489Y157720D01*
X475501Y157622D01*
X475504Y157523D01*
X475521Y157465D01*
X475529Y157405D01*
X475565Y157313D01*
X475593Y157217D01*
X475623Y157165D01*
X475646Y157109D01*
X475704Y157029D01*
X475754Y156944D01*
X475820Y156868D01*
X475832Y156852D01*
X475842Y156844D01*
X475860Y156823D01*
X477331Y155352D01*
X477331Y134248D01*
X475842Y132759D01*
X464238Y132759D01*
X462749Y134248D01*
X462749Y155352D01*
X463940Y156543D01*
X464000Y156621D01*
X464068Y156693D01*
X464096Y156744D01*
X464113Y156765D01*
X464116Y156770D01*
X464134Y156794D01*
X464174Y156885D01*
X464222Y156972D01*
X464235Y157023D01*
X464249Y157053D01*
X464251Y157063D01*
X464261Y157086D01*
X464276Y157184D01*
X464301Y157279D01*
X464305Y157348D01*
X464309Y157365D01*
X464308Y157381D01*
X464311Y157400D01*
X464309Y157412D01*
X464311Y157440D01*
X464311Y158242D01*
X464296Y158360D01*
X464289Y158479D01*
X464276Y158517D01*
X464271Y158558D01*
X464228Y158668D01*
X464191Y158781D01*
X464169Y158816D01*
X464154Y158853D01*
X464085Y158949D01*
X464021Y159050D01*
X463991Y159078D01*
X463968Y159111D01*
X463876Y159187D01*
X463789Y159268D01*
X463754Y159288D01*
X463723Y159313D01*
X463615Y159364D01*
X463511Y159422D01*
X463471Y159432D01*
X463435Y159449D01*
X463318Y159471D01*
X463203Y159501D01*
X463143Y159505D01*
X463123Y159509D01*
X463102Y159507D01*
X463042Y159511D01*
X462139Y159511D01*
X462041Y159499D01*
X461942Y159496D01*
X461884Y159479D01*
X461824Y159471D01*
X461732Y159435D01*
X461637Y159407D01*
X461584Y159377D01*
X461528Y159354D01*
X461448Y159296D01*
X461363Y159246D01*
X461287Y159180D01*
X461271Y159168D01*
X461263Y159158D01*
X461242Y159140D01*
X461206Y159104D01*
X458607Y158027D01*
X455793Y158027D01*
X454626Y158511D01*
X454558Y158529D01*
X454494Y158557D01*
X454405Y158571D01*
X454319Y158595D01*
X454249Y158596D01*
X454180Y158607D01*
X454091Y158598D01*
X454001Y158600D01*
X453933Y158584D01*
X453863Y158577D01*
X453779Y158547D01*
X453692Y158526D01*
X453630Y158493D01*
X453564Y158469D01*
X453490Y158419D01*
X453410Y158377D01*
X453359Y158330D01*
X453301Y158291D01*
X453242Y158224D01*
X453175Y158163D01*
X453137Y158105D01*
X453091Y158052D01*
X453050Y157972D01*
X453000Y157897D01*
X452978Y157831D01*
X452946Y157769D01*
X452926Y157682D01*
X452897Y157597D01*
X452892Y157527D01*
X452876Y157459D01*
X452879Y157369D01*
X452872Y157280D01*
X452884Y157211D01*
X452886Y157141D01*
X452911Y157055D01*
X452926Y156966D01*
X452955Y156903D01*
X452974Y156836D01*
X453020Y156758D01*
X453057Y156676D01*
X453101Y156622D01*
X453136Y156562D01*
X453242Y156441D01*
X454331Y155352D01*
X454331Y147365D01*
X454332Y147356D01*
X454331Y147347D01*
X454352Y147198D01*
X454371Y147049D01*
X454374Y147041D01*
X454375Y147032D01*
X454427Y146879D01*
X454661Y146316D01*
X454661Y99060D01*
X454676Y98942D01*
X454683Y98823D01*
X454696Y98785D01*
X454701Y98744D01*
X454744Y98634D01*
X454781Y98521D01*
X454803Y98486D01*
X454818Y98449D01*
X454887Y98353D01*
X454951Y98252D01*
X454981Y98224D01*
X455004Y98191D01*
X455096Y98116D01*
X455183Y98034D01*
X455218Y98014D01*
X455249Y97989D01*
X455357Y97938D01*
X455461Y97880D01*
X455501Y97870D01*
X455537Y97853D01*
X455654Y97831D01*
X455769Y97801D01*
X455829Y97797D01*
X455849Y97793D01*
X455870Y97795D01*
X455930Y97791D01*
X510540Y97791D01*
X510658Y97806D01*
G37*
G36*
X292396Y300398D02*
X292396Y300398D01*
X292535Y300411D01*
X292554Y300418D01*
X292574Y300421D01*
X292703Y300472D01*
X292834Y300519D01*
X292851Y300530D01*
X292870Y300538D01*
X292982Y300619D01*
X293097Y300697D01*
X293111Y300713D01*
X293127Y300724D01*
X293216Y300832D01*
X293308Y300936D01*
X293317Y300954D01*
X293330Y300969D01*
X293389Y301095D01*
X293452Y301219D01*
X293457Y301239D01*
X293465Y301257D01*
X293492Y301393D01*
X293522Y301529D01*
X293521Y301550D01*
X293525Y301569D01*
X293517Y301708D01*
X293512Y301847D01*
X293507Y301867D01*
X293505Y301887D01*
X293463Y302019D01*
X293424Y302153D01*
X293414Y302170D01*
X293407Y302189D01*
X293333Y302307D01*
X293262Y302427D01*
X293244Y302448D01*
X293237Y302458D01*
X293222Y302472D01*
X293156Y302547D01*
X289482Y306222D01*
X289404Y306282D01*
X289332Y306350D01*
X289279Y306379D01*
X289231Y306416D01*
X289140Y306456D01*
X289053Y306504D01*
X288995Y306519D01*
X288939Y306543D01*
X288841Y306558D01*
X288745Y306583D01*
X288645Y306589D01*
X288625Y306593D01*
X288612Y306591D01*
X288584Y306593D01*
X283936Y306593D01*
X282837Y307691D01*
X282743Y307764D01*
X282654Y307843D01*
X282618Y307861D01*
X282586Y307886D01*
X282477Y307934D01*
X282371Y307988D01*
X282332Y307997D01*
X282294Y308013D01*
X282177Y308031D01*
X282061Y308057D01*
X282020Y308056D01*
X281980Y308062D01*
X281862Y308051D01*
X281743Y308048D01*
X281704Y308036D01*
X281664Y308033D01*
X281552Y307992D01*
X281437Y307959D01*
X281402Y307939D01*
X281364Y307925D01*
X281266Y307858D01*
X281163Y307798D01*
X281118Y307758D01*
X281101Y307746D01*
X281088Y307731D01*
X281042Y307691D01*
X279944Y306593D01*
X271236Y306593D01*
X270137Y307691D01*
X270043Y307764D01*
X269954Y307843D01*
X269918Y307861D01*
X269886Y307886D01*
X269777Y307934D01*
X269671Y307988D01*
X269632Y307997D01*
X269594Y308013D01*
X269477Y308031D01*
X269361Y308057D01*
X269320Y308056D01*
X269280Y308062D01*
X269162Y308051D01*
X269043Y308048D01*
X269004Y308036D01*
X268964Y308033D01*
X268852Y307992D01*
X268737Y307959D01*
X268702Y307939D01*
X268664Y307925D01*
X268566Y307858D01*
X268463Y307798D01*
X268418Y307758D01*
X268401Y307746D01*
X268388Y307731D01*
X268342Y307691D01*
X267244Y306593D01*
X258536Y306593D01*
X257437Y307691D01*
X257343Y307764D01*
X257254Y307843D01*
X257218Y307861D01*
X257186Y307886D01*
X257077Y307934D01*
X256971Y307988D01*
X256932Y307997D01*
X256894Y308013D01*
X256777Y308031D01*
X256661Y308057D01*
X256620Y308056D01*
X256580Y308062D01*
X256462Y308051D01*
X256343Y308048D01*
X256304Y308036D01*
X256264Y308033D01*
X256152Y307992D01*
X256037Y307959D01*
X256002Y307939D01*
X255964Y307925D01*
X255866Y307858D01*
X255763Y307798D01*
X255718Y307758D01*
X255701Y307746D01*
X255688Y307731D01*
X255642Y307691D01*
X254544Y306593D01*
X245836Y306593D01*
X244347Y308082D01*
X244347Y308880D01*
X244332Y308998D01*
X244325Y309117D01*
X244312Y309155D01*
X244307Y309196D01*
X244264Y309306D01*
X244227Y309419D01*
X244205Y309454D01*
X244190Y309491D01*
X244121Y309587D01*
X244057Y309688D01*
X244027Y309716D01*
X244004Y309749D01*
X243912Y309825D01*
X243825Y309906D01*
X243790Y309926D01*
X243759Y309951D01*
X243651Y310002D01*
X243547Y310060D01*
X243507Y310070D01*
X243471Y310087D01*
X243354Y310109D01*
X243239Y310139D01*
X243179Y310143D01*
X243159Y310147D01*
X243138Y310145D01*
X243078Y310149D01*
X234513Y310149D01*
X234415Y310137D01*
X234316Y310134D01*
X234258Y310117D01*
X234198Y310109D01*
X234106Y310073D01*
X234010Y310045D01*
X233958Y310015D01*
X233902Y309992D01*
X233822Y309934D01*
X233737Y309884D01*
X233661Y309818D01*
X233645Y309806D01*
X233637Y309796D01*
X233616Y309778D01*
X233587Y309749D01*
X213453Y309749D01*
X211964Y311238D01*
X211964Y311732D01*
X211947Y311869D01*
X211934Y312008D01*
X211927Y312027D01*
X211924Y312047D01*
X211873Y312176D01*
X211826Y312308D01*
X211815Y312324D01*
X211807Y312343D01*
X211726Y312456D01*
X211648Y312571D01*
X211632Y312584D01*
X211621Y312600D01*
X211513Y312689D01*
X211409Y312781D01*
X211391Y312790D01*
X211376Y312803D01*
X211250Y312863D01*
X211126Y312926D01*
X211106Y312930D01*
X211088Y312939D01*
X210951Y312965D01*
X210816Y312995D01*
X210795Y312995D01*
X210776Y312999D01*
X210637Y312990D01*
X210498Y312986D01*
X210478Y312980D01*
X210458Y312979D01*
X210326Y312936D01*
X210192Y312897D01*
X210175Y312887D01*
X210156Y312881D01*
X210038Y312806D01*
X209918Y312736D01*
X209897Y312717D01*
X209887Y312711D01*
X209873Y312696D01*
X209798Y312629D01*
X208187Y311019D01*
X188053Y311019D01*
X186564Y312508D01*
X186564Y330612D01*
X188053Y332101D01*
X196255Y332101D01*
X196353Y332113D01*
X196452Y332116D01*
X196510Y332133D01*
X196570Y332141D01*
X196662Y332177D01*
X196757Y332205D01*
X196809Y332235D01*
X196866Y332258D01*
X196946Y332316D01*
X197031Y332366D01*
X197107Y332432D01*
X197123Y332444D01*
X197131Y332454D01*
X197152Y332472D01*
X204677Y339998D01*
X204762Y340107D01*
X204851Y340214D01*
X204860Y340233D01*
X204872Y340249D01*
X204927Y340377D01*
X204986Y340502D01*
X204990Y340522D01*
X204998Y340541D01*
X205020Y340679D01*
X205046Y340815D01*
X205045Y340835D01*
X205048Y340855D01*
X205035Y340994D01*
X205026Y341132D01*
X205020Y341151D01*
X205018Y341171D01*
X204971Y341303D01*
X204928Y341434D01*
X204918Y341452D01*
X204911Y341471D01*
X204833Y341586D01*
X204758Y341703D01*
X204744Y341717D01*
X204732Y341734D01*
X204628Y341826D01*
X204527Y341921D01*
X204509Y341931D01*
X204494Y341944D01*
X204370Y342007D01*
X204248Y342075D01*
X204229Y342080D01*
X204211Y342089D01*
X204075Y342119D01*
X203940Y342154D01*
X203912Y342156D01*
X203900Y342159D01*
X203880Y342158D01*
X203780Y342164D01*
X130810Y342164D01*
X130692Y342149D01*
X130573Y342142D01*
X130535Y342129D01*
X130494Y342124D01*
X130384Y342081D01*
X130271Y342044D01*
X130236Y342022D01*
X130199Y342007D01*
X130103Y341938D01*
X130002Y341874D01*
X129974Y341844D01*
X129941Y341821D01*
X129865Y341729D01*
X129784Y341642D01*
X129764Y341607D01*
X129739Y341576D01*
X129688Y341468D01*
X129630Y341364D01*
X129620Y341324D01*
X129603Y341288D01*
X129581Y341171D01*
X129551Y341056D01*
X129547Y340996D01*
X129543Y340976D01*
X129545Y340955D01*
X129541Y340895D01*
X129541Y325699D01*
X129558Y325561D01*
X129571Y325423D01*
X129578Y325403D01*
X129581Y325383D01*
X129632Y325254D01*
X129679Y325123D01*
X129690Y325106D01*
X129698Y325088D01*
X129779Y324976D01*
X129857Y324860D01*
X129873Y324847D01*
X129884Y324830D01*
X129992Y324742D01*
X130096Y324650D01*
X130114Y324640D01*
X130129Y324627D01*
X130255Y324568D01*
X130379Y324505D01*
X130399Y324501D01*
X130417Y324492D01*
X130553Y324466D01*
X130689Y324435D01*
X130710Y324436D01*
X130729Y324432D01*
X130868Y324441D01*
X131007Y324445D01*
X131027Y324451D01*
X131047Y324452D01*
X131179Y324495D01*
X131313Y324533D01*
X131330Y324544D01*
X131349Y324550D01*
X131467Y324625D01*
X131587Y324695D01*
X131608Y324714D01*
X131618Y324720D01*
X131632Y324735D01*
X131707Y324801D01*
X139647Y332741D01*
X157533Y332741D01*
X170181Y320093D01*
X170181Y309752D01*
X170193Y309654D01*
X170196Y309555D01*
X170202Y309535D01*
X170203Y309519D01*
X170215Y309482D01*
X170221Y309437D01*
X170257Y309345D01*
X170285Y309250D01*
X170297Y309228D01*
X170301Y309216D01*
X170319Y309187D01*
X170338Y309141D01*
X170396Y309061D01*
X170446Y308976D01*
X170512Y308900D01*
X170524Y308884D01*
X170534Y308876D01*
X170552Y308855D01*
X178045Y301362D01*
X178123Y301302D01*
X178195Y301234D01*
X178248Y301205D01*
X178296Y301168D01*
X178387Y301128D01*
X178474Y301080D01*
X178532Y301065D01*
X178588Y301041D01*
X178686Y301026D01*
X178782Y301001D01*
X178882Y300995D01*
X178902Y300991D01*
X178914Y300993D01*
X178942Y300991D01*
X185295Y300991D01*
X185413Y301006D01*
X185532Y301013D01*
X185570Y301026D01*
X185611Y301031D01*
X185721Y301074D01*
X185834Y301111D01*
X185869Y301133D01*
X185906Y301148D01*
X186002Y301217D01*
X186103Y301281D01*
X186131Y301311D01*
X186164Y301334D01*
X186240Y301426D01*
X186321Y301513D01*
X186341Y301548D01*
X186366Y301579D01*
X186417Y301687D01*
X186475Y301791D01*
X186485Y301831D01*
X186502Y301867D01*
X186524Y301984D01*
X186554Y302099D01*
X186558Y302159D01*
X186559Y302168D01*
X188053Y303661D01*
X208187Y303661D01*
X209676Y302172D01*
X209676Y301678D01*
X209693Y301541D01*
X209706Y301402D01*
X209713Y301383D01*
X209716Y301363D01*
X209767Y301234D01*
X209814Y301102D01*
X209825Y301086D01*
X209833Y301067D01*
X209914Y300954D01*
X209992Y300839D01*
X210008Y300826D01*
X210019Y300810D01*
X210127Y300721D01*
X210231Y300629D01*
X210249Y300620D01*
X210264Y300607D01*
X210390Y300547D01*
X210514Y300484D01*
X210534Y300480D01*
X210552Y300471D01*
X210689Y300445D01*
X210824Y300415D01*
X210845Y300415D01*
X210864Y300411D01*
X211003Y300420D01*
X211142Y300424D01*
X211162Y300430D01*
X211182Y300431D01*
X211314Y300474D01*
X211448Y300513D01*
X211465Y300523D01*
X211484Y300529D01*
X211602Y300604D01*
X211722Y300674D01*
X211743Y300693D01*
X211753Y300699D01*
X211767Y300714D01*
X211842Y300781D01*
X213453Y302391D01*
X233587Y302391D01*
X235226Y300752D01*
X235304Y300692D01*
X235376Y300624D01*
X235429Y300595D01*
X235477Y300558D01*
X235568Y300518D01*
X235655Y300470D01*
X235713Y300455D01*
X235769Y300431D01*
X235867Y300416D01*
X235962Y300391D01*
X236063Y300385D01*
X236083Y300381D01*
X236095Y300383D01*
X236123Y300381D01*
X292259Y300381D01*
X292396Y300398D01*
G37*
G36*
X186698Y269256D02*
X186698Y269256D01*
X186817Y269263D01*
X186855Y269276D01*
X186896Y269281D01*
X187006Y269324D01*
X187119Y269361D01*
X187154Y269383D01*
X187191Y269398D01*
X187287Y269467D01*
X187388Y269531D01*
X187416Y269561D01*
X187449Y269584D01*
X187525Y269676D01*
X187606Y269763D01*
X187626Y269798D01*
X187651Y269829D01*
X187702Y269937D01*
X187760Y270041D01*
X187770Y270081D01*
X187787Y270117D01*
X187809Y270234D01*
X187839Y270349D01*
X187843Y270409D01*
X187847Y270429D01*
X187845Y270450D01*
X187849Y270510D01*
X187849Y271972D01*
X189338Y273461D01*
X196862Y273461D01*
X196960Y273473D01*
X197059Y273476D01*
X197117Y273493D01*
X197177Y273501D01*
X197269Y273537D01*
X197364Y273565D01*
X197416Y273595D01*
X197473Y273618D01*
X197553Y273676D01*
X197638Y273726D01*
X197714Y273792D01*
X197730Y273804D01*
X197738Y273814D01*
X197759Y273832D01*
X204339Y280413D01*
X204424Y280522D01*
X204513Y280629D01*
X204522Y280648D01*
X204534Y280664D01*
X204590Y280792D01*
X204649Y280917D01*
X204652Y280937D01*
X204660Y280956D01*
X204682Y281093D01*
X204708Y281230D01*
X204707Y281250D01*
X204710Y281270D01*
X204697Y281409D01*
X204689Y281547D01*
X204682Y281566D01*
X204680Y281586D01*
X204633Y281718D01*
X204591Y281849D01*
X204580Y281867D01*
X204573Y281886D01*
X204495Y282001D01*
X204420Y282118D01*
X204406Y282132D01*
X204394Y282149D01*
X204290Y282241D01*
X204189Y282336D01*
X204171Y282346D01*
X204156Y282359D01*
X204032Y282423D01*
X203910Y282490D01*
X203891Y282495D01*
X203873Y282504D01*
X203737Y282534D01*
X203602Y282569D01*
X203574Y282571D01*
X203562Y282574D01*
X203542Y282573D01*
X203442Y282579D01*
X188053Y282579D01*
X186564Y284068D01*
X186564Y284480D01*
X186549Y284598D01*
X186542Y284717D01*
X186529Y284755D01*
X186524Y284796D01*
X186481Y284906D01*
X186444Y285019D01*
X186422Y285054D01*
X186407Y285091D01*
X186338Y285187D01*
X186274Y285288D01*
X186244Y285316D01*
X186221Y285349D01*
X186129Y285425D01*
X186042Y285506D01*
X186007Y285526D01*
X185976Y285551D01*
X185868Y285602D01*
X185764Y285660D01*
X185724Y285670D01*
X185688Y285687D01*
X185571Y285709D01*
X185456Y285739D01*
X185396Y285743D01*
X185376Y285747D01*
X185355Y285745D01*
X185295Y285749D01*
X173744Y285749D01*
X170943Y286909D01*
X168621Y289232D01*
X163811Y294042D01*
X163717Y294115D01*
X163627Y294194D01*
X163592Y294212D01*
X163560Y294237D01*
X163450Y294284D01*
X163344Y294338D01*
X163305Y294347D01*
X163268Y294363D01*
X163150Y294382D01*
X163034Y294408D01*
X162994Y294407D01*
X162954Y294413D01*
X162835Y294402D01*
X162716Y294398D01*
X162677Y294387D01*
X162637Y294383D01*
X162525Y294343D01*
X162411Y294310D01*
X162376Y294289D01*
X162338Y294276D01*
X162239Y294209D01*
X162137Y294148D01*
X162091Y294108D01*
X162075Y294097D01*
X162061Y294082D01*
X162016Y294042D01*
X157533Y289559D01*
X139647Y289559D01*
X131707Y297499D01*
X131598Y297584D01*
X131491Y297673D01*
X131472Y297681D01*
X131456Y297694D01*
X131328Y297749D01*
X131203Y297808D01*
X131183Y297812D01*
X131164Y297820D01*
X131026Y297842D01*
X130890Y297868D01*
X130870Y297867D01*
X130850Y297870D01*
X130711Y297857D01*
X130573Y297848D01*
X130554Y297842D01*
X130534Y297840D01*
X130402Y297793D01*
X130271Y297750D01*
X130253Y297739D01*
X130234Y297732D01*
X130119Y297654D01*
X130002Y297580D01*
X129988Y297565D01*
X129971Y297554D01*
X129879Y297449D01*
X129784Y297348D01*
X129774Y297331D01*
X129761Y297315D01*
X129697Y297191D01*
X129630Y297070D01*
X129625Y297050D01*
X129616Y297032D01*
X129586Y296896D01*
X129551Y296762D01*
X129549Y296734D01*
X129546Y296722D01*
X129547Y296701D01*
X129541Y296601D01*
X129541Y274899D01*
X129558Y274761D01*
X129571Y274623D01*
X129578Y274603D01*
X129581Y274583D01*
X129632Y274454D01*
X129679Y274323D01*
X129690Y274306D01*
X129698Y274288D01*
X129779Y274176D01*
X129857Y274060D01*
X129873Y274047D01*
X129884Y274030D01*
X129992Y273942D01*
X130096Y273850D01*
X130114Y273840D01*
X130129Y273827D01*
X130255Y273768D01*
X130379Y273705D01*
X130399Y273701D01*
X130417Y273692D01*
X130553Y273666D01*
X130689Y273635D01*
X130710Y273636D01*
X130729Y273632D01*
X130868Y273641D01*
X131007Y273645D01*
X131027Y273651D01*
X131047Y273652D01*
X131179Y273695D01*
X131313Y273733D01*
X131330Y273744D01*
X131349Y273750D01*
X131467Y273825D01*
X131587Y273895D01*
X131608Y273914D01*
X131618Y273920D01*
X131632Y273935D01*
X131707Y274001D01*
X139647Y281941D01*
X157533Y281941D01*
X169861Y269612D01*
X169940Y269552D01*
X170012Y269484D01*
X170065Y269455D01*
X170113Y269418D01*
X170204Y269378D01*
X170290Y269330D01*
X170349Y269315D01*
X170405Y269291D01*
X170503Y269276D01*
X170598Y269251D01*
X170698Y269245D01*
X170719Y269241D01*
X170731Y269243D01*
X170759Y269241D01*
X186580Y269241D01*
X186698Y269256D01*
G37*
G36*
X520996Y300398D02*
X520996Y300398D01*
X521135Y300411D01*
X521154Y300418D01*
X521174Y300421D01*
X521303Y300472D01*
X521434Y300519D01*
X521451Y300530D01*
X521470Y300538D01*
X521582Y300619D01*
X521697Y300697D01*
X521711Y300713D01*
X521727Y300724D01*
X521816Y300832D01*
X521908Y300936D01*
X521917Y300954D01*
X521930Y300969D01*
X521989Y301095D01*
X522052Y301219D01*
X522057Y301239D01*
X522065Y301257D01*
X522092Y301393D01*
X522122Y301529D01*
X522121Y301550D01*
X522125Y301569D01*
X522117Y301708D01*
X522112Y301847D01*
X522107Y301867D01*
X522105Y301887D01*
X522063Y302019D01*
X522024Y302153D01*
X522014Y302170D01*
X522007Y302189D01*
X521933Y302307D01*
X521862Y302427D01*
X521844Y302448D01*
X521837Y302458D01*
X521822Y302472D01*
X521756Y302547D01*
X518082Y306222D01*
X518004Y306282D01*
X517932Y306350D01*
X517879Y306379D01*
X517831Y306416D01*
X517740Y306456D01*
X517653Y306504D01*
X517595Y306519D01*
X517539Y306543D01*
X517441Y306558D01*
X517345Y306583D01*
X517245Y306589D01*
X517225Y306593D01*
X517212Y306591D01*
X517184Y306593D01*
X512536Y306593D01*
X511437Y307691D01*
X511343Y307764D01*
X511254Y307843D01*
X511218Y307861D01*
X511186Y307886D01*
X511077Y307934D01*
X510971Y307988D01*
X510932Y307997D01*
X510894Y308013D01*
X510777Y308031D01*
X510661Y308057D01*
X510620Y308056D01*
X510580Y308062D01*
X510462Y308051D01*
X510343Y308048D01*
X510304Y308036D01*
X510264Y308033D01*
X510152Y307992D01*
X510037Y307959D01*
X510002Y307939D01*
X509964Y307925D01*
X509866Y307858D01*
X509763Y307798D01*
X509718Y307758D01*
X509701Y307746D01*
X509688Y307731D01*
X509642Y307691D01*
X508544Y306593D01*
X499836Y306593D01*
X498737Y307691D01*
X498643Y307764D01*
X498554Y307843D01*
X498518Y307861D01*
X498486Y307886D01*
X498377Y307934D01*
X498271Y307988D01*
X498232Y307997D01*
X498194Y308013D01*
X498077Y308031D01*
X497961Y308057D01*
X497920Y308056D01*
X497880Y308062D01*
X497762Y308051D01*
X497643Y308048D01*
X497604Y308036D01*
X497564Y308033D01*
X497452Y307992D01*
X497337Y307959D01*
X497302Y307939D01*
X497264Y307925D01*
X497166Y307858D01*
X497063Y307798D01*
X497018Y307758D01*
X497001Y307746D01*
X496988Y307731D01*
X496942Y307691D01*
X495844Y306593D01*
X487136Y306593D01*
X486037Y307691D01*
X485943Y307764D01*
X485854Y307843D01*
X485818Y307861D01*
X485786Y307886D01*
X485677Y307934D01*
X485571Y307988D01*
X485532Y307997D01*
X485494Y308013D01*
X485377Y308031D01*
X485261Y308057D01*
X485220Y308056D01*
X485180Y308062D01*
X485062Y308051D01*
X484943Y308048D01*
X484904Y308036D01*
X484864Y308033D01*
X484752Y307992D01*
X484637Y307959D01*
X484602Y307939D01*
X484564Y307925D01*
X484466Y307858D01*
X484363Y307798D01*
X484318Y307758D01*
X484301Y307746D01*
X484288Y307731D01*
X484242Y307691D01*
X483144Y306593D01*
X474436Y306593D01*
X472947Y308082D01*
X472947Y308880D01*
X472932Y308998D01*
X472925Y309117D01*
X472912Y309155D01*
X472907Y309196D01*
X472864Y309306D01*
X472827Y309419D01*
X472805Y309454D01*
X472790Y309491D01*
X472721Y309587D01*
X472657Y309688D01*
X472627Y309716D01*
X472604Y309749D01*
X472512Y309825D01*
X472425Y309906D01*
X472390Y309926D01*
X472359Y309951D01*
X472251Y310002D01*
X472147Y310060D01*
X472107Y310070D01*
X472071Y310087D01*
X471954Y310109D01*
X471839Y310139D01*
X471779Y310143D01*
X471759Y310147D01*
X471738Y310145D01*
X471678Y310149D01*
X470025Y310149D01*
X469907Y310134D01*
X469788Y310127D01*
X469750Y310114D01*
X469709Y310109D01*
X469599Y310066D01*
X469486Y310029D01*
X469451Y310007D01*
X469414Y309992D01*
X469318Y309923D01*
X469217Y309859D01*
X469189Y309829D01*
X469156Y309806D01*
X469080Y309714D01*
X468999Y309627D01*
X468979Y309592D01*
X468954Y309561D01*
X468903Y309453D01*
X468845Y309349D01*
X468835Y309309D01*
X468818Y309273D01*
X468796Y309156D01*
X468766Y309041D01*
X468762Y308981D01*
X468758Y308961D01*
X468760Y308940D01*
X468756Y308880D01*
X468756Y308698D01*
X467267Y307209D01*
X447133Y307209D01*
X445644Y308698D01*
X445644Y322750D01*
X445627Y322887D01*
X445614Y323026D01*
X445607Y323045D01*
X445604Y323065D01*
X445553Y323194D01*
X445506Y323325D01*
X445495Y323342D01*
X445487Y323361D01*
X445406Y323473D01*
X445328Y323588D01*
X445312Y323602D01*
X445301Y323618D01*
X445193Y323707D01*
X445089Y323799D01*
X445071Y323808D01*
X445056Y323821D01*
X444930Y323880D01*
X444806Y323943D01*
X444786Y323948D01*
X444768Y323956D01*
X444632Y323983D01*
X444496Y324013D01*
X444475Y324012D01*
X444456Y324016D01*
X444317Y324008D01*
X444178Y324003D01*
X444158Y323998D01*
X444138Y323996D01*
X444006Y323954D01*
X443872Y323915D01*
X443855Y323905D01*
X443836Y323898D01*
X443718Y323824D01*
X443598Y323753D01*
X443577Y323735D01*
X443567Y323728D01*
X443553Y323713D01*
X443478Y323647D01*
X422378Y302547D01*
X422293Y302438D01*
X422204Y302331D01*
X422195Y302312D01*
X422183Y302296D01*
X422128Y302168D01*
X422069Y302043D01*
X422065Y302023D01*
X422057Y302004D01*
X422035Y301866D01*
X422009Y301730D01*
X422010Y301710D01*
X422007Y301690D01*
X422020Y301551D01*
X422029Y301413D01*
X422035Y301394D01*
X422037Y301374D01*
X422084Y301242D01*
X422127Y301111D01*
X422137Y301093D01*
X422144Y301074D01*
X422222Y300959D01*
X422297Y300842D01*
X422311Y300828D01*
X422323Y300811D01*
X422427Y300719D01*
X422528Y300624D01*
X422546Y300614D01*
X422561Y300601D01*
X422685Y300537D01*
X422807Y300470D01*
X422826Y300465D01*
X422844Y300456D01*
X422980Y300426D01*
X423115Y300391D01*
X423143Y300389D01*
X423155Y300386D01*
X423175Y300387D01*
X423275Y300381D01*
X520859Y300381D01*
X520996Y300398D01*
G37*
%LPC*%
G36*
X609018Y132759D02*
X609018Y132759D01*
X607529Y134248D01*
X607529Y155658D01*
X607526Y155687D01*
X607528Y155717D01*
X607506Y155845D01*
X607489Y155974D01*
X607479Y156001D01*
X607474Y156030D01*
X607420Y156149D01*
X607372Y156269D01*
X607355Y156293D01*
X607343Y156320D01*
X607262Y156422D01*
X607186Y156527D01*
X607163Y156546D01*
X607144Y156569D01*
X607041Y156647D01*
X606941Y156730D01*
X606914Y156742D01*
X606890Y156760D01*
X606746Y156831D01*
X604324Y157834D01*
X602334Y159824D01*
X601257Y162423D01*
X601257Y165237D01*
X602334Y167836D01*
X604324Y169826D01*
X606923Y170903D01*
X609737Y170903D01*
X611465Y170187D01*
X611494Y170179D01*
X611520Y170165D01*
X611647Y170137D01*
X611772Y170103D01*
X611802Y170102D01*
X611831Y170096D01*
X611960Y170100D01*
X612090Y170098D01*
X612119Y170105D01*
X612148Y170105D01*
X612273Y170142D01*
X612399Y170172D01*
X612426Y170186D01*
X612454Y170194D01*
X612566Y170260D01*
X612681Y170321D01*
X612702Y170340D01*
X612728Y170355D01*
X612849Y170462D01*
X614438Y172051D01*
X622542Y172051D01*
X624031Y170562D01*
X624031Y165740D01*
X624032Y165731D01*
X624031Y165722D01*
X624052Y165573D01*
X624071Y165424D01*
X624074Y165416D01*
X624075Y165407D01*
X624079Y165397D01*
X624079Y156368D01*
X623228Y154314D01*
X622482Y153569D01*
X622422Y153491D01*
X622354Y153418D01*
X622325Y153365D01*
X622288Y153318D01*
X622248Y153227D01*
X622200Y153140D01*
X622185Y153081D01*
X622161Y153026D01*
X622146Y152928D01*
X622121Y152832D01*
X622115Y152732D01*
X622111Y152712D01*
X622113Y152699D01*
X622111Y152671D01*
X622111Y134248D01*
X620622Y132759D01*
X609018Y132759D01*
G37*
%LPD*%
D10*
X372110Y261590D03*
X372110Y289590D03*
X199390Y234920D03*
X199390Y262920D03*
X543560Y261590D03*
X543560Y289590D03*
D11*
X250190Y257286D03*
X250190Y316754D03*
X262890Y257286D03*
X275590Y257286D03*
X262890Y316754D03*
X275590Y316754D03*
X288290Y257286D03*
X288290Y316754D03*
X478790Y257286D03*
X478790Y316754D03*
X491490Y257286D03*
X504190Y257286D03*
X491490Y316754D03*
X504190Y316754D03*
X516890Y257286D03*
X516890Y316754D03*
X651510Y257286D03*
X651510Y316754D03*
X664210Y257286D03*
X676910Y257286D03*
X664210Y316754D03*
X676910Y316754D03*
X689610Y257286D03*
X689610Y316754D03*
D12*
X237490Y208270D03*
X250190Y208270D03*
X262890Y208270D03*
X275590Y208270D03*
X237490Y238770D03*
X250190Y238770D03*
X262890Y238770D03*
X275590Y238770D03*
X478790Y208270D03*
X491490Y208270D03*
X504190Y208270D03*
X516890Y208270D03*
X478790Y238770D03*
X491490Y238770D03*
X504190Y238770D03*
X516890Y238770D03*
X651510Y208270D03*
X664210Y208270D03*
X676910Y208270D03*
X689610Y208270D03*
X651510Y238770D03*
X664210Y238770D03*
X676910Y238770D03*
X689610Y238770D03*
D13*
X157480Y50800D03*
X229870Y50800D03*
X302260Y50800D03*
D14*
X374650Y50800D03*
X447040Y50800D03*
X519430Y50800D03*
X591820Y50800D03*
X664210Y50800D03*
X736600Y50800D03*
D15*
X252870Y144800D03*
X229870Y144800D03*
X206870Y144800D03*
D16*
X229870Y83800D03*
D17*
X262230Y186260D03*
X243230Y186260D03*
X252730Y164260D03*
D15*
X180480Y144800D03*
X157480Y144800D03*
X134480Y144800D03*
D16*
X157480Y83800D03*
D17*
X189840Y186260D03*
X170840Y186260D03*
X180340Y164260D03*
D15*
X325260Y144800D03*
X302260Y144800D03*
X279260Y144800D03*
D16*
X302260Y83800D03*
D17*
X334620Y186260D03*
X315620Y186260D03*
X325120Y164260D03*
D15*
X470040Y144800D03*
X447040Y144800D03*
X424040Y144800D03*
D16*
X447040Y83800D03*
D17*
X479400Y186260D03*
X460400Y186260D03*
X469900Y164260D03*
D15*
X397650Y144800D03*
X374650Y144800D03*
X351650Y144800D03*
D16*
X374650Y83800D03*
D17*
X410820Y187530D03*
X391820Y187530D03*
X401320Y165530D03*
D15*
X542430Y144800D03*
X519430Y144800D03*
X496430Y144800D03*
D16*
X519430Y83800D03*
D17*
X551790Y186260D03*
X532790Y186260D03*
X542290Y164260D03*
D15*
X687210Y144800D03*
X664210Y144800D03*
X641210Y144800D03*
D16*
X664210Y83800D03*
D17*
X696570Y186260D03*
X677570Y186260D03*
X687070Y164260D03*
D15*
X614820Y144800D03*
X591820Y144800D03*
X568820Y144800D03*
D16*
X591820Y83800D03*
D17*
X627990Y186260D03*
X608990Y186260D03*
X618490Y164260D03*
D15*
X759600Y144800D03*
X736600Y144800D03*
X713600Y144800D03*
D16*
X736600Y83800D03*
D17*
X749910Y187530D03*
X730910Y187530D03*
X740410Y165530D03*
D14*
X755650Y274320D03*
X148590Y311150D03*
X148590Y260350D03*
X148590Y210820D03*
D18*
X345220Y209550D03*
X345220Y222250D03*
X345220Y234950D03*
X345220Y247650D03*
X345220Y260350D03*
X317720Y260350D03*
X317720Y247650D03*
X317720Y234950D03*
X317720Y222250D03*
X317720Y209550D03*
X430310Y212090D03*
X430310Y224790D03*
X430310Y237490D03*
X430310Y250190D03*
X430310Y262890D03*
X402810Y262890D03*
X402810Y250190D03*
X402810Y237490D03*
X402810Y224790D03*
X402810Y212090D03*
X600490Y208280D03*
X600490Y220980D03*
X600490Y233680D03*
X600490Y246380D03*
X600490Y259080D03*
X572990Y259080D03*
X572990Y246380D03*
X572990Y233680D03*
X572990Y220980D03*
X572990Y208280D03*
D19*
X223520Y291850D03*
X223520Y320290D03*
X198120Y293120D03*
X198120Y321560D03*
X457200Y289310D03*
X457200Y317750D03*
X624840Y288040D03*
X624840Y316480D03*
X716280Y285500D03*
X716280Y313940D03*
D14*
X755650Y223520D03*
D20*
X227990Y291490D02*
X196850Y260350D01*
X148590Y260350D01*
X374010Y291490D02*
X416560Y291490D01*
X374010Y291490D02*
X326390Y291490D01*
X227990Y291490D01*
X588010Y291490D02*
X627380Y291490D01*
X588010Y291490D02*
X545460Y291490D01*
X454660Y291490D01*
X416560Y291490D01*
X543560Y289590D02*
X545460Y291490D01*
X374010Y291490D02*
X372110Y289590D01*
D21*
X325120Y209550D02*
X317720Y209550D01*
X325120Y209550D02*
X331470Y215900D01*
X331470Y260350D01*
X331470Y286410D01*
X326390Y291490D01*
X331470Y260350D02*
X345220Y260350D01*
X402810Y212090D02*
X411480Y212090D01*
X416560Y217170D01*
X416560Y262890D01*
X416560Y291490D01*
X416560Y262890D02*
X430310Y262890D01*
X572990Y208280D02*
X580390Y208280D01*
X586740Y290220D02*
X588010Y291490D01*
X586740Y214630D02*
X580390Y208280D01*
X586740Y214630D02*
X586740Y260350D01*
X586740Y290220D01*
X588010Y259080D02*
X600490Y259080D01*
X588010Y259080D02*
X586740Y260350D01*
D22*
X199390Y262920D02*
X199390Y262890D01*
X196850Y260350D01*
X624840Y288040D02*
X627380Y290580D01*
X627380Y291490D01*
X457200Y289310D02*
X455020Y291490D01*
X454660Y291490D01*
X227630Y291850D02*
X223520Y291850D01*
X227630Y291850D02*
X227990Y291490D01*
D23*
X171450Y127000D03*
X304800Y276860D03*
X344170Y276860D03*
X232410Y195580D03*
X251460Y196850D03*
X220980Y195580D03*
X232410Y184150D03*
X687070Y185420D03*
X709930Y190500D03*
X701040Y200660D03*
X678180Y290830D03*
X278130Y276860D03*
X408940Y320040D03*
X533400Y321310D03*
X292100Y276860D03*
X392430Y276860D03*
X356870Y276860D03*
X403860Y276860D03*
X429260Y276860D03*
X440690Y276860D03*
X473710Y275590D03*
X664210Y290830D03*
X273050Y196850D03*
X284480Y196850D03*
X273050Y185420D03*
X284480Y185420D03*
X220980Y184150D03*
X439420Y199390D03*
X450850Y199390D03*
X462280Y199390D03*
X438150Y307340D03*
X220980Y207010D03*
X209550Y184150D03*
X379730Y195580D03*
X379730Y184150D03*
X368300Y195580D03*
X368300Y184150D03*
X379730Y172720D03*
X368300Y172720D03*
X356870Y172720D03*
X356870Y184150D03*
X182880Y127000D03*
X171450Y115570D03*
X171450Y104140D03*
X182880Y115570D03*
X182880Y104140D03*
X194310Y127000D03*
X205740Y127000D03*
X217170Y127000D03*
X194310Y115570D03*
X205740Y115570D03*
X217170Y115570D03*
X217170Y104140D03*
X194310Y104140D03*
X205740Y104140D03*
X243840Y127000D03*
X255270Y127000D03*
X243840Y115570D03*
X243840Y104140D03*
X255270Y115570D03*
X255270Y104140D03*
X266700Y127000D03*
X278130Y127000D03*
X289560Y127000D03*
X266700Y115570D03*
X278130Y115570D03*
X289560Y115570D03*
X289560Y104140D03*
X266700Y104140D03*
X278130Y104140D03*
X316230Y127000D03*
X327660Y127000D03*
X316230Y115570D03*
X316230Y104140D03*
X327660Y115570D03*
X327660Y104140D03*
X339090Y127000D03*
X350520Y127000D03*
X361950Y127000D03*
X339090Y115570D03*
X350520Y115570D03*
X361950Y115570D03*
X361950Y104140D03*
X339090Y104140D03*
X350520Y104140D03*
X388620Y127000D03*
X400050Y127000D03*
X388620Y115570D03*
X388620Y104140D03*
X400050Y115570D03*
X400050Y104140D03*
X411480Y127000D03*
X422910Y127000D03*
X434340Y127000D03*
X411480Y115570D03*
X422910Y115570D03*
X434340Y115570D03*
X434340Y104140D03*
X411480Y104140D03*
X422910Y104140D03*
X461010Y127000D03*
X472440Y127000D03*
X461010Y115570D03*
X461010Y104140D03*
X472440Y115570D03*
X472440Y104140D03*
X483870Y127000D03*
X495300Y127000D03*
X506730Y127000D03*
X483870Y115570D03*
X495300Y115570D03*
X506730Y115570D03*
X506730Y104140D03*
X483870Y104140D03*
X495300Y104140D03*
X533400Y127000D03*
X544830Y127000D03*
X533400Y115570D03*
X533400Y104140D03*
X544830Y115570D03*
X544830Y104140D03*
X556260Y127000D03*
X567690Y127000D03*
X579120Y127000D03*
X556260Y115570D03*
X567690Y115570D03*
X579120Y115570D03*
X579120Y104140D03*
X556260Y104140D03*
X567690Y104140D03*
X605790Y127000D03*
X617220Y127000D03*
X605790Y115570D03*
X605790Y104140D03*
X617220Y115570D03*
X617220Y104140D03*
X628650Y127000D03*
X640080Y127000D03*
X651510Y127000D03*
X628650Y115570D03*
X640080Y115570D03*
X651510Y115570D03*
X651510Y104140D03*
X628650Y104140D03*
X640080Y104140D03*
X678180Y127000D03*
X689610Y127000D03*
X678180Y115570D03*
X678180Y104140D03*
X689610Y115570D03*
X689610Y104140D03*
X701040Y127000D03*
X712470Y127000D03*
X723900Y127000D03*
X701040Y115570D03*
X712470Y115570D03*
X723900Y115570D03*
X723900Y104140D03*
X701040Y104140D03*
X712470Y104140D03*
X750570Y127000D03*
X762000Y127000D03*
X750570Y115570D03*
X762000Y115570D03*
X762000Y104140D03*
X750570Y104140D03*
X144780Y125730D03*
X144780Y114300D03*
X144780Y102870D03*
X650240Y276860D03*
X664210Y276860D03*
X678180Y276860D03*
X692150Y276860D03*
X318770Y276860D03*
X300990Y261620D03*
X577850Y321310D03*
X306070Y321310D03*
X181610Y280670D03*
X177800Y330200D03*
X518160Y194310D03*
X518160Y182880D03*
X506730Y194310D03*
X506730Y184150D03*
X495300Y184150D03*
X593090Y166370D03*
X580390Y166370D03*
X567690Y166370D03*
X567690Y177800D03*
X580390Y177800D03*
X664210Y185420D03*
X652780Y185420D03*
X641350Y185420D03*
X641350Y198120D03*
X709930Y179070D03*
X721360Y173990D03*
X567690Y189230D03*
X264160Y276860D03*
X250190Y276860D03*
X182880Y233680D03*
X527050Y275590D03*
X514350Y275590D03*
X500380Y275590D03*
X486410Y275590D03*
X543560Y243840D03*
X561340Y275590D03*
X373380Y245110D03*
X196850Y218440D03*
X215900Y241300D03*
X459740Y242570D03*
X628650Y238760D03*
D24*
X157480Y144800D02*
X157480Y83800D01*
X157480Y50800D01*
X229870Y83800D02*
X229870Y144800D01*
X229870Y83800D02*
X229870Y50800D01*
X302260Y83800D02*
X302260Y144800D01*
X302260Y83800D02*
X302260Y50800D01*
D21*
X275590Y316754D02*
X275590Y325644D01*
X263164Y338070D01*
X212090Y338070D01*
X198120Y324100D01*
X198120Y321560D01*
X232324Y316754D02*
X250190Y316754D01*
D22*
X228788Y320290D02*
X223520Y320290D01*
X228788Y320290D02*
X232324Y316754D01*
X250190Y257286D02*
X250190Y238770D01*
X262890Y238770D02*
X262890Y257286D01*
X275590Y257286D02*
X275590Y238770D01*
X478790Y238770D02*
X478790Y257286D01*
X491490Y257286D02*
X491490Y238770D01*
X504190Y238770D02*
X504190Y257286D01*
X651510Y257286D02*
X651510Y238770D01*
X664210Y238770D02*
X664210Y257286D01*
X676910Y257286D02*
X676910Y238770D01*
D21*
X527574Y306070D02*
X516890Y316754D01*
X585470Y306070D02*
X612140Y332740D01*
X585470Y306070D02*
X527574Y306070D01*
X676910Y316754D02*
X676910Y325120D01*
X669290Y332740D01*
X612140Y332740D01*
X298974Y306070D02*
X288290Y316754D01*
X416560Y306070D02*
X444500Y334010D01*
X496570Y334010D01*
X416560Y306070D02*
X298974Y306070D01*
X504190Y316754D02*
X504190Y326390D01*
X496570Y334010D01*
D24*
X374650Y144800D02*
X374650Y83800D01*
X374650Y50800D01*
X447040Y83800D02*
X447040Y144800D01*
X447040Y83800D02*
X447040Y50800D01*
X519430Y83800D02*
X519430Y144800D01*
X519430Y83800D02*
X519430Y50800D01*
X591820Y83800D02*
X591820Y144800D01*
X591820Y83800D02*
X591820Y50800D01*
X664210Y83800D02*
X664210Y144800D01*
X664210Y83800D02*
X664210Y50800D01*
X736600Y83800D02*
X736600Y144800D01*
X736600Y83800D02*
X736600Y50800D01*
D22*
X189840Y186260D02*
X189840Y193650D01*
X223520Y227330D01*
X251460Y227330D01*
X250190Y226060D02*
X250190Y208270D01*
X250190Y226060D02*
X251460Y227330D01*
X288290Y227330D01*
X309880Y248920D01*
X316450Y248920D02*
X317720Y247650D01*
X316450Y248920D02*
X309880Y248920D01*
X262890Y208270D02*
X262230Y207610D01*
X262230Y186260D01*
X262890Y208270D02*
X262890Y212090D01*
X269240Y218440D01*
X293370Y218440D02*
X309880Y234950D01*
X317720Y234950D01*
X293370Y218440D02*
X269240Y218440D01*
X275590Y208270D02*
X288475Y208270D01*
X297170Y208270D01*
X311150Y222250D02*
X317720Y222250D01*
X311150Y222250D02*
X297170Y208270D01*
X322760Y198120D02*
X334620Y186260D01*
X322760Y198120D02*
X298625Y198120D01*
X288475Y208270D01*
X504190Y208270D02*
X504190Y228600D01*
X551790Y203860D02*
X551790Y186260D01*
X527050Y228600D02*
X504190Y228600D01*
X527050Y228600D02*
X551790Y203860D01*
X504190Y228600D02*
X448310Y228600D01*
X439420Y237490D02*
X430310Y237490D01*
X439420Y237490D02*
X448310Y228600D01*
X676910Y227330D02*
X676910Y208270D01*
X676910Y227330D02*
X689610Y227330D01*
X734670Y202770D02*
X749910Y187530D01*
X734670Y202770D02*
X714170Y202770D01*
X689610Y227330D01*
X676910Y227330D02*
X614680Y227330D01*
X608330Y233680D02*
X600490Y233680D01*
X608330Y233680D02*
X614680Y227330D01*
X696570Y190070D02*
X696570Y186260D01*
X696570Y190070D02*
X689180Y197460D01*
X670560Y197460D01*
X664210Y203810D01*
X664210Y208270D01*
X664210Y213360D01*
X659130Y218440D01*
X609600Y218440D01*
X607060Y220980D02*
X600490Y220980D01*
X607060Y220980D02*
X609600Y218440D01*
X492100Y207660D02*
X491490Y208270D01*
X492100Y207660D02*
X492100Y198960D01*
X479400Y186260D01*
X491490Y212090D02*
X483870Y219710D01*
X491490Y212090D02*
X491490Y208270D01*
X483870Y219710D02*
X443840Y219710D01*
X438760Y224790D02*
X430310Y224790D01*
X438760Y224790D02*
X443840Y219710D01*
X476250Y208270D02*
X478790Y208270D01*
X476250Y208270D02*
X473710Y210810D01*
X436230Y210810D01*
X434950Y212090D02*
X430310Y212090D01*
X434950Y212090D02*
X436230Y210810D01*
X430310Y212090D02*
X430310Y207020D01*
X410820Y187530D01*
X627380Y208270D02*
X651510Y208270D01*
X627380Y208270D02*
X600500Y208270D01*
X600490Y208280D01*
X627990Y207660D02*
X627990Y186260D01*
X627990Y207660D02*
X627380Y208270D01*
D21*
X478790Y316754D02*
X460924Y316754D01*
D22*
X459928Y317750D02*
X457200Y317750D01*
X459928Y317750D02*
X460924Y316754D01*
D21*
X633644Y316754D02*
X651510Y316754D01*
D22*
X633370Y316480D02*
X624840Y316480D01*
X633370Y316480D02*
X633644Y316754D01*
X252730Y164260D02*
X252730Y144940D01*
X252870Y144800D01*
X252730Y164260D02*
X265430Y164260D01*
D23*
X359410Y234950D03*
D22*
X345220Y234950D01*
D23*
X265430Y164260D03*
D22*
X180480Y164120D02*
X180340Y164260D01*
X180480Y164120D02*
X180480Y144800D01*
X180340Y164260D02*
X239800Y164260D01*
X345220Y247650D02*
X359410Y247650D01*
D23*
X359410Y247650D03*
X239800Y164260D03*
D22*
X322580Y161720D02*
X325120Y164260D01*
X322580Y161720D02*
X314960Y161720D01*
X325120Y164260D02*
X325120Y144940D01*
X325260Y144800D01*
X359410Y222250D02*
X359498Y222338D01*
X359410Y222250D02*
X345220Y222250D01*
D23*
X359498Y222338D03*
X314960Y161720D03*
D22*
X469900Y164260D02*
X469900Y144940D01*
X470040Y144800D01*
X402810Y237490D02*
X387350Y237490D01*
D23*
X387350Y237490D03*
X457200Y165100D03*
D22*
X469060Y165100D01*
X469900Y164260D01*
X401320Y165530D02*
X401320Y156640D01*
X397650Y152970D01*
X397650Y144800D01*
X401750Y165100D02*
X441960Y165100D01*
X401750Y165100D02*
X401320Y165530D01*
D23*
X441960Y165100D03*
X387350Y224790D03*
D22*
X402810Y224790D01*
X542290Y144940D02*
X542430Y144800D01*
X542290Y144940D02*
X542290Y164260D01*
X402810Y250190D02*
X388620Y250190D01*
D23*
X388620Y250190D03*
X481330Y165100D03*
D22*
X482600Y163830D02*
X541860Y163830D01*
X482600Y163830D02*
X481330Y165100D01*
X541860Y163830D02*
X542290Y164260D01*
X687070Y164260D02*
X687070Y144940D01*
X687210Y144800D01*
X572990Y233680D02*
X560070Y233680D01*
D23*
X560070Y233680D03*
X671830Y163830D03*
D22*
X686640Y163830D01*
X687070Y164260D01*
X618490Y164260D02*
X618490Y157480D01*
X614680Y153670D01*
X614680Y144940D01*
X614820Y144800D01*
X572990Y220980D02*
X560070Y220980D01*
D23*
X560070Y220980D03*
X608330Y163830D03*
D22*
X608760Y164260D01*
X618490Y164260D01*
X741680Y164260D02*
X747600Y164260D01*
X741680Y164260D02*
X740410Y165530D01*
X759600Y152260D02*
X759600Y144800D01*
X759600Y152260D02*
X747600Y164260D01*
X572990Y246380D02*
X560070Y246380D01*
D23*
X560070Y246380D03*
X708660Y163830D03*
D22*
X738710Y163830D01*
X740410Y165530D01*
D24*
X735080Y274320D02*
X755650Y274320D01*
X723900Y285500D02*
X716280Y285500D01*
X723900Y285500D02*
X735080Y274320D01*
X198120Y293120D02*
X197870Y293370D01*
X175260Y293370D02*
X157480Y311150D01*
X148590Y311150D01*
X175260Y293370D02*
X197870Y293370D01*
D21*
X689610Y316754D02*
X716280Y316754D01*
X716280Y313940D01*
M02*
