G04 EAGLE Gerber RS-274X export*
G75*
%MOMM*%
%FSLAX34Y34*%
%LPD*%
%INSilkscreen Top*%
%IPPOS*%
%AMOC8*
5,1,8,0,0,1.08239X$1,22.5*%
G01*
%ADD10C,0.152400*%
%ADD11C,0.279400*%
%ADD12C,0.050800*%
%ADD13C,0.100000*%
%ADD14C,0.200000*%
%ADD15C,0.200000*%


D10*
X757428Y301752D02*
X748792Y301752D01*
X748792Y304151D01*
X748794Y304248D01*
X748800Y304344D01*
X748809Y304440D01*
X748823Y304536D01*
X748840Y304631D01*
X748862Y304725D01*
X748887Y304818D01*
X748915Y304911D01*
X748948Y305002D01*
X748984Y305091D01*
X749024Y305179D01*
X749067Y305266D01*
X749113Y305351D01*
X749163Y305433D01*
X749217Y305514D01*
X749273Y305592D01*
X749333Y305668D01*
X749395Y305742D01*
X749461Y305813D01*
X749529Y305881D01*
X749600Y305947D01*
X749674Y306009D01*
X749750Y306069D01*
X749828Y306125D01*
X749909Y306179D01*
X749992Y306229D01*
X750076Y306275D01*
X750163Y306318D01*
X750251Y306358D01*
X750340Y306394D01*
X750431Y306427D01*
X750524Y306455D01*
X750617Y306480D01*
X750711Y306502D01*
X750806Y306519D01*
X750902Y306533D01*
X750998Y306542D01*
X751094Y306548D01*
X751191Y306550D01*
X755029Y306550D01*
X755126Y306548D01*
X755222Y306542D01*
X755318Y306533D01*
X755414Y306519D01*
X755509Y306502D01*
X755603Y306480D01*
X755696Y306455D01*
X755789Y306427D01*
X755880Y306394D01*
X755969Y306358D01*
X756057Y306318D01*
X756144Y306275D01*
X756229Y306229D01*
X756311Y306179D01*
X756392Y306125D01*
X756470Y306069D01*
X756546Y306009D01*
X756620Y305947D01*
X756691Y305881D01*
X756759Y305813D01*
X756825Y305742D01*
X756887Y305668D01*
X756947Y305592D01*
X757003Y305514D01*
X757057Y305433D01*
X757107Y305351D01*
X757153Y305266D01*
X757196Y305179D01*
X757236Y305091D01*
X757272Y305002D01*
X757305Y304911D01*
X757333Y304818D01*
X757358Y304725D01*
X757380Y304631D01*
X757397Y304536D01*
X757411Y304440D01*
X757420Y304344D01*
X757426Y304248D01*
X757428Y304151D01*
X757428Y301752D01*
X755029Y311201D02*
X751191Y311201D01*
X751094Y311203D01*
X750998Y311209D01*
X750902Y311218D01*
X750806Y311232D01*
X750711Y311249D01*
X750617Y311271D01*
X750524Y311296D01*
X750431Y311324D01*
X750340Y311357D01*
X750251Y311393D01*
X750163Y311433D01*
X750076Y311476D01*
X749992Y311522D01*
X749909Y311572D01*
X749828Y311626D01*
X749750Y311682D01*
X749674Y311742D01*
X749600Y311804D01*
X749529Y311870D01*
X749461Y311938D01*
X749395Y312009D01*
X749333Y312083D01*
X749273Y312159D01*
X749217Y312237D01*
X749163Y312318D01*
X749113Y312401D01*
X749067Y312485D01*
X749024Y312572D01*
X748984Y312660D01*
X748948Y312749D01*
X748915Y312840D01*
X748887Y312933D01*
X748862Y313026D01*
X748840Y313120D01*
X748823Y313215D01*
X748809Y313311D01*
X748800Y313407D01*
X748794Y313503D01*
X748792Y313600D01*
X748794Y313697D01*
X748800Y313793D01*
X748809Y313889D01*
X748823Y313985D01*
X748840Y314080D01*
X748862Y314174D01*
X748887Y314267D01*
X748915Y314360D01*
X748948Y314451D01*
X748984Y314540D01*
X749024Y314628D01*
X749067Y314715D01*
X749113Y314800D01*
X749163Y314882D01*
X749217Y314963D01*
X749273Y315041D01*
X749333Y315117D01*
X749395Y315191D01*
X749461Y315262D01*
X749529Y315330D01*
X749600Y315396D01*
X749674Y315458D01*
X749750Y315518D01*
X749828Y315574D01*
X749909Y315628D01*
X749992Y315678D01*
X750076Y315724D01*
X750163Y315767D01*
X750251Y315807D01*
X750340Y315843D01*
X750431Y315876D01*
X750524Y315904D01*
X750617Y315929D01*
X750711Y315951D01*
X750806Y315968D01*
X750902Y315982D01*
X750998Y315991D01*
X751094Y315997D01*
X751191Y315999D01*
X755029Y315999D01*
X755126Y315997D01*
X755222Y315991D01*
X755318Y315982D01*
X755414Y315968D01*
X755509Y315951D01*
X755603Y315929D01*
X755696Y315904D01*
X755789Y315876D01*
X755880Y315843D01*
X755969Y315807D01*
X756057Y315767D01*
X756144Y315724D01*
X756229Y315678D01*
X756311Y315628D01*
X756392Y315574D01*
X756470Y315518D01*
X756546Y315458D01*
X756620Y315396D01*
X756691Y315330D01*
X756759Y315262D01*
X756825Y315191D01*
X756887Y315117D01*
X756947Y315041D01*
X757003Y314963D01*
X757057Y314882D01*
X757107Y314800D01*
X757153Y314715D01*
X757196Y314628D01*
X757236Y314540D01*
X757272Y314451D01*
X757305Y314360D01*
X757333Y314267D01*
X757358Y314174D01*
X757380Y314080D01*
X757397Y313985D01*
X757411Y313889D01*
X757420Y313793D01*
X757426Y313697D01*
X757428Y313600D01*
X757426Y313503D01*
X757420Y313407D01*
X757411Y313311D01*
X757397Y313215D01*
X757380Y313120D01*
X757358Y313026D01*
X757333Y312933D01*
X757305Y312840D01*
X757272Y312749D01*
X757236Y312660D01*
X757196Y312572D01*
X757153Y312485D01*
X757107Y312401D01*
X757057Y312318D01*
X757003Y312237D01*
X756947Y312159D01*
X756887Y312083D01*
X756825Y312009D01*
X756759Y311938D01*
X756691Y311870D01*
X756620Y311804D01*
X756546Y311742D01*
X756470Y311682D01*
X756392Y311626D01*
X756311Y311572D01*
X756229Y311522D01*
X756144Y311476D01*
X756057Y311433D01*
X755969Y311393D01*
X755880Y311357D01*
X755789Y311324D01*
X755696Y311296D01*
X755603Y311271D01*
X755509Y311249D01*
X755414Y311232D01*
X755318Y311218D01*
X755222Y311209D01*
X755126Y311203D01*
X755029Y311201D01*
X755029Y320650D02*
X748792Y320650D01*
X755029Y320649D02*
X755126Y320651D01*
X755222Y320657D01*
X755318Y320666D01*
X755414Y320680D01*
X755509Y320697D01*
X755603Y320719D01*
X755696Y320744D01*
X755789Y320772D01*
X755880Y320805D01*
X755969Y320841D01*
X756057Y320881D01*
X756144Y320924D01*
X756229Y320970D01*
X756311Y321020D01*
X756392Y321074D01*
X756470Y321130D01*
X756546Y321190D01*
X756620Y321252D01*
X756691Y321318D01*
X756759Y321386D01*
X756825Y321457D01*
X756887Y321531D01*
X756947Y321607D01*
X757003Y321685D01*
X757057Y321766D01*
X757107Y321849D01*
X757153Y321933D01*
X757196Y322020D01*
X757236Y322108D01*
X757272Y322197D01*
X757305Y322288D01*
X757333Y322381D01*
X757358Y322474D01*
X757380Y322568D01*
X757397Y322663D01*
X757411Y322759D01*
X757420Y322855D01*
X757426Y322951D01*
X757428Y323048D01*
X757426Y323145D01*
X757420Y323241D01*
X757411Y323337D01*
X757397Y323433D01*
X757380Y323528D01*
X757358Y323622D01*
X757333Y323715D01*
X757305Y323808D01*
X757272Y323899D01*
X757236Y323988D01*
X757196Y324076D01*
X757153Y324163D01*
X757107Y324248D01*
X757057Y324330D01*
X757003Y324411D01*
X756947Y324489D01*
X756887Y324565D01*
X756825Y324639D01*
X756759Y324710D01*
X756691Y324778D01*
X756620Y324844D01*
X756546Y324906D01*
X756470Y324966D01*
X756392Y325022D01*
X756311Y325076D01*
X756229Y325126D01*
X756144Y325172D01*
X756057Y325215D01*
X755969Y325255D01*
X755880Y325291D01*
X755789Y325324D01*
X755696Y325352D01*
X755603Y325377D01*
X755509Y325399D01*
X755414Y325416D01*
X755318Y325430D01*
X755222Y325439D01*
X755126Y325445D01*
X755029Y325447D01*
X748792Y325447D01*
X748792Y331888D02*
X757428Y331888D01*
X748792Y334286D02*
X748792Y329489D01*
X182118Y301780D02*
X173482Y301780D01*
X173482Y304179D01*
X173484Y304276D01*
X173490Y304372D01*
X173499Y304468D01*
X173513Y304564D01*
X173530Y304659D01*
X173552Y304753D01*
X173577Y304846D01*
X173605Y304939D01*
X173638Y305030D01*
X173674Y305119D01*
X173714Y305207D01*
X173757Y305294D01*
X173803Y305379D01*
X173853Y305461D01*
X173907Y305542D01*
X173963Y305620D01*
X174023Y305696D01*
X174085Y305770D01*
X174151Y305841D01*
X174219Y305909D01*
X174290Y305975D01*
X174364Y306037D01*
X174440Y306097D01*
X174518Y306153D01*
X174599Y306207D01*
X174682Y306257D01*
X174766Y306303D01*
X174853Y306346D01*
X174941Y306386D01*
X175030Y306422D01*
X175121Y306455D01*
X175214Y306483D01*
X175307Y306508D01*
X175401Y306530D01*
X175496Y306547D01*
X175592Y306561D01*
X175688Y306570D01*
X175784Y306576D01*
X175881Y306578D01*
X179719Y306578D01*
X179816Y306576D01*
X179912Y306570D01*
X180008Y306561D01*
X180104Y306547D01*
X180199Y306530D01*
X180293Y306508D01*
X180386Y306483D01*
X180479Y306455D01*
X180570Y306422D01*
X180659Y306386D01*
X180747Y306346D01*
X180834Y306303D01*
X180919Y306257D01*
X181001Y306207D01*
X181082Y306153D01*
X181160Y306097D01*
X181236Y306037D01*
X181310Y305975D01*
X181381Y305909D01*
X181449Y305841D01*
X181515Y305770D01*
X181577Y305696D01*
X181637Y305620D01*
X181693Y305542D01*
X181747Y305461D01*
X181797Y305379D01*
X181843Y305294D01*
X181886Y305207D01*
X181926Y305119D01*
X181962Y305030D01*
X181995Y304939D01*
X182023Y304846D01*
X182048Y304753D01*
X182070Y304659D01*
X182087Y304564D01*
X182101Y304468D01*
X182110Y304372D01*
X182116Y304276D01*
X182118Y304179D01*
X182118Y301780D01*
X182118Y311799D02*
X173482Y311799D01*
X182118Y310840D02*
X182118Y312759D01*
X173482Y312759D02*
X173482Y310840D01*
X173482Y317020D02*
X182118Y317020D01*
X182118Y321818D02*
X173482Y317020D01*
X173482Y321818D02*
X182118Y321818D01*
X177320Y207061D02*
X177320Y205622D01*
X177320Y207061D02*
X182118Y207061D01*
X182118Y204182D01*
X182116Y204096D01*
X182110Y204010D01*
X182101Y203924D01*
X182087Y203839D01*
X182070Y203755D01*
X182049Y203671D01*
X182024Y203589D01*
X181996Y203508D01*
X181964Y203428D01*
X181928Y203349D01*
X181889Y203273D01*
X181846Y203198D01*
X181801Y203125D01*
X181752Y203054D01*
X181699Y202986D01*
X181644Y202919D01*
X181586Y202856D01*
X181525Y202795D01*
X181462Y202737D01*
X181395Y202682D01*
X181327Y202630D01*
X181256Y202580D01*
X181183Y202535D01*
X181108Y202492D01*
X181032Y202453D01*
X180953Y202417D01*
X180873Y202385D01*
X180792Y202357D01*
X180710Y202332D01*
X180626Y202311D01*
X180542Y202294D01*
X180457Y202280D01*
X180371Y202271D01*
X180285Y202265D01*
X180199Y202263D01*
X175401Y202263D01*
X175315Y202265D01*
X175229Y202271D01*
X175143Y202280D01*
X175058Y202294D01*
X174974Y202311D01*
X174890Y202332D01*
X174808Y202357D01*
X174727Y202385D01*
X174647Y202417D01*
X174568Y202453D01*
X174492Y202492D01*
X174417Y202535D01*
X174344Y202580D01*
X174273Y202629D01*
X174205Y202682D01*
X174138Y202737D01*
X174075Y202795D01*
X174014Y202856D01*
X173956Y202919D01*
X173901Y202986D01*
X173849Y203054D01*
X173799Y203125D01*
X173754Y203198D01*
X173711Y203273D01*
X173672Y203349D01*
X173636Y203428D01*
X173604Y203508D01*
X173576Y203589D01*
X173551Y203671D01*
X173530Y203755D01*
X173513Y203839D01*
X173499Y203924D01*
X173490Y204010D01*
X173484Y204096D01*
X173482Y204182D01*
X173482Y207061D01*
X173482Y212017D02*
X182118Y212017D01*
X182118Y216814D02*
X173482Y212017D01*
X173482Y216814D02*
X182118Y216814D01*
X182118Y221770D02*
X173482Y221770D01*
X173482Y224169D01*
X173484Y224266D01*
X173490Y224362D01*
X173499Y224458D01*
X173513Y224554D01*
X173530Y224649D01*
X173552Y224743D01*
X173577Y224836D01*
X173605Y224929D01*
X173638Y225020D01*
X173674Y225109D01*
X173714Y225197D01*
X173757Y225284D01*
X173803Y225369D01*
X173853Y225451D01*
X173907Y225532D01*
X173963Y225610D01*
X174023Y225686D01*
X174085Y225760D01*
X174151Y225831D01*
X174219Y225899D01*
X174290Y225965D01*
X174364Y226027D01*
X174440Y226087D01*
X174518Y226143D01*
X174599Y226197D01*
X174682Y226247D01*
X174766Y226293D01*
X174853Y226336D01*
X174941Y226376D01*
X175030Y226412D01*
X175121Y226445D01*
X175214Y226473D01*
X175307Y226498D01*
X175401Y226520D01*
X175496Y226537D01*
X175592Y226551D01*
X175688Y226560D01*
X175784Y226566D01*
X175881Y226568D01*
X179719Y226568D01*
X179816Y226566D01*
X179912Y226560D01*
X180008Y226551D01*
X180104Y226537D01*
X180199Y226520D01*
X180293Y226498D01*
X180386Y226473D01*
X180479Y226445D01*
X180570Y226412D01*
X180659Y226376D01*
X180747Y226336D01*
X180834Y226293D01*
X180919Y226247D01*
X181001Y226197D01*
X181082Y226143D01*
X181160Y226087D01*
X181236Y226027D01*
X181310Y225965D01*
X181381Y225899D01*
X181449Y225831D01*
X181515Y225760D01*
X181577Y225686D01*
X181637Y225610D01*
X181693Y225532D01*
X181747Y225451D01*
X181797Y225369D01*
X181843Y225284D01*
X181886Y225197D01*
X181926Y225109D01*
X181962Y225020D01*
X181995Y224929D01*
X182023Y224836D01*
X182048Y224743D01*
X182070Y224649D01*
X182087Y224554D01*
X182101Y224458D01*
X182110Y224362D01*
X182116Y224266D01*
X182118Y224169D01*
X182118Y221770D01*
X178760Y242903D02*
X178760Y248660D01*
X181638Y245782D02*
X175881Y245782D01*
X175401Y253136D02*
X173482Y255535D01*
X182118Y255535D01*
X182118Y253136D02*
X182118Y257934D01*
X173482Y264919D02*
X173484Y265011D01*
X173490Y265102D01*
X173499Y265193D01*
X173513Y265284D01*
X173530Y265374D01*
X173552Y265463D01*
X173577Y265551D01*
X173605Y265638D01*
X173638Y265724D01*
X173674Y265808D01*
X173713Y265891D01*
X173756Y265972D01*
X173803Y266051D01*
X173852Y266128D01*
X173905Y266203D01*
X173961Y266275D01*
X174020Y266345D01*
X174082Y266413D01*
X174147Y266478D01*
X174215Y266540D01*
X174285Y266599D01*
X174357Y266655D01*
X174432Y266708D01*
X174509Y266757D01*
X174588Y266804D01*
X174669Y266847D01*
X174752Y266886D01*
X174836Y266922D01*
X174922Y266955D01*
X175009Y266983D01*
X175097Y267008D01*
X175186Y267030D01*
X175276Y267047D01*
X175367Y267061D01*
X175458Y267070D01*
X175549Y267076D01*
X175641Y267078D01*
X173482Y264919D02*
X173484Y264816D01*
X173490Y264714D01*
X173499Y264612D01*
X173512Y264510D01*
X173529Y264409D01*
X173550Y264308D01*
X173574Y264209D01*
X173603Y264110D01*
X173634Y264013D01*
X173670Y263916D01*
X173708Y263821D01*
X173751Y263728D01*
X173797Y263636D01*
X173846Y263546D01*
X173898Y263458D01*
X173954Y263371D01*
X174013Y263287D01*
X174074Y263206D01*
X174139Y263126D01*
X174207Y263049D01*
X174278Y262974D01*
X174351Y262903D01*
X174427Y262834D01*
X174505Y262767D01*
X174586Y262704D01*
X174669Y262644D01*
X174754Y262587D01*
X174841Y262533D01*
X174931Y262482D01*
X175022Y262435D01*
X175114Y262391D01*
X175209Y262350D01*
X175304Y262313D01*
X175401Y262280D01*
X177320Y266358D02*
X177254Y266425D01*
X177185Y266489D01*
X177114Y266550D01*
X177040Y266608D01*
X176964Y266663D01*
X176886Y266715D01*
X176806Y266764D01*
X176724Y266810D01*
X176640Y266852D01*
X176554Y266891D01*
X176467Y266926D01*
X176379Y266957D01*
X176289Y266985D01*
X176199Y267010D01*
X176107Y267031D01*
X176015Y267048D01*
X175922Y267061D01*
X175829Y267070D01*
X175735Y267076D01*
X175641Y267078D01*
X177320Y266359D02*
X182118Y262280D01*
X182118Y267078D01*
X182118Y272909D02*
X176361Y270990D01*
X176361Y274828D02*
X182118Y272909D01*
X724690Y218491D02*
X724690Y217052D01*
X724690Y218491D02*
X729488Y218491D01*
X729488Y215612D01*
X729486Y215526D01*
X729480Y215440D01*
X729471Y215354D01*
X729457Y215269D01*
X729440Y215185D01*
X729419Y215101D01*
X729394Y215019D01*
X729366Y214938D01*
X729334Y214858D01*
X729298Y214779D01*
X729259Y214703D01*
X729216Y214628D01*
X729171Y214555D01*
X729122Y214484D01*
X729069Y214416D01*
X729014Y214349D01*
X728956Y214286D01*
X728895Y214225D01*
X728832Y214167D01*
X728765Y214112D01*
X728697Y214060D01*
X728626Y214010D01*
X728553Y213965D01*
X728478Y213922D01*
X728402Y213883D01*
X728323Y213847D01*
X728243Y213815D01*
X728162Y213787D01*
X728080Y213762D01*
X727996Y213741D01*
X727912Y213724D01*
X727827Y213710D01*
X727741Y213701D01*
X727655Y213695D01*
X727569Y213693D01*
X722771Y213693D01*
X722685Y213695D01*
X722599Y213701D01*
X722513Y213710D01*
X722428Y213724D01*
X722344Y213741D01*
X722260Y213762D01*
X722178Y213787D01*
X722097Y213815D01*
X722017Y213847D01*
X721938Y213883D01*
X721862Y213922D01*
X721787Y213965D01*
X721714Y214010D01*
X721643Y214059D01*
X721575Y214112D01*
X721508Y214167D01*
X721445Y214225D01*
X721384Y214286D01*
X721326Y214349D01*
X721271Y214416D01*
X721219Y214484D01*
X721169Y214555D01*
X721124Y214628D01*
X721081Y214703D01*
X721042Y214779D01*
X721006Y214858D01*
X720974Y214938D01*
X720946Y215019D01*
X720921Y215101D01*
X720900Y215185D01*
X720883Y215269D01*
X720869Y215354D01*
X720860Y215440D01*
X720854Y215526D01*
X720852Y215612D01*
X720852Y218491D01*
X720852Y223447D02*
X729488Y223447D01*
X729488Y228244D02*
X720852Y223447D01*
X720852Y228244D02*
X729488Y228244D01*
X729488Y233200D02*
X720852Y233200D01*
X720852Y235599D01*
X720854Y235696D01*
X720860Y235792D01*
X720869Y235888D01*
X720883Y235984D01*
X720900Y236079D01*
X720922Y236173D01*
X720947Y236266D01*
X720975Y236359D01*
X721008Y236450D01*
X721044Y236539D01*
X721084Y236627D01*
X721127Y236714D01*
X721173Y236799D01*
X721223Y236881D01*
X721277Y236962D01*
X721333Y237040D01*
X721393Y237116D01*
X721455Y237190D01*
X721521Y237261D01*
X721589Y237329D01*
X721660Y237395D01*
X721734Y237457D01*
X721810Y237517D01*
X721888Y237573D01*
X721969Y237627D01*
X722052Y237677D01*
X722136Y237723D01*
X722223Y237766D01*
X722311Y237806D01*
X722400Y237842D01*
X722491Y237875D01*
X722584Y237903D01*
X722677Y237928D01*
X722771Y237950D01*
X722866Y237967D01*
X722962Y237981D01*
X723058Y237990D01*
X723154Y237996D01*
X723251Y237998D01*
X727089Y237998D01*
X727186Y237996D01*
X727282Y237990D01*
X727378Y237981D01*
X727474Y237967D01*
X727569Y237950D01*
X727663Y237928D01*
X727756Y237903D01*
X727849Y237875D01*
X727940Y237842D01*
X728029Y237806D01*
X728117Y237766D01*
X728204Y237723D01*
X728289Y237677D01*
X728371Y237627D01*
X728452Y237573D01*
X728530Y237517D01*
X728606Y237457D01*
X728680Y237395D01*
X728751Y237329D01*
X728819Y237261D01*
X728885Y237190D01*
X728947Y237116D01*
X729007Y237040D01*
X729063Y236962D01*
X729117Y236881D01*
X729167Y236799D01*
X729213Y236714D01*
X729256Y236627D01*
X729296Y236539D01*
X729332Y236450D01*
X729365Y236359D01*
X729393Y236266D01*
X729418Y236173D01*
X729440Y236079D01*
X729457Y235984D01*
X729471Y235888D01*
X729480Y235792D01*
X729486Y235696D01*
X729488Y235599D01*
X729488Y233200D01*
X179832Y88138D02*
X179832Y79502D01*
X179832Y88138D02*
X182231Y88138D01*
X182328Y88136D01*
X182424Y88130D01*
X182520Y88121D01*
X182616Y88107D01*
X182711Y88090D01*
X182805Y88068D01*
X182898Y88043D01*
X182991Y88015D01*
X183082Y87982D01*
X183171Y87946D01*
X183259Y87906D01*
X183346Y87863D01*
X183431Y87817D01*
X183513Y87767D01*
X183594Y87713D01*
X183672Y87657D01*
X183748Y87597D01*
X183822Y87535D01*
X183893Y87469D01*
X183961Y87401D01*
X184027Y87330D01*
X184089Y87256D01*
X184149Y87180D01*
X184205Y87102D01*
X184259Y87021D01*
X184309Y86938D01*
X184355Y86854D01*
X184398Y86767D01*
X184438Y86679D01*
X184474Y86590D01*
X184507Y86499D01*
X184535Y86406D01*
X184560Y86313D01*
X184582Y86219D01*
X184599Y86124D01*
X184613Y86028D01*
X184622Y85932D01*
X184628Y85836D01*
X184630Y85739D01*
X184628Y85642D01*
X184622Y85546D01*
X184613Y85450D01*
X184599Y85354D01*
X184582Y85259D01*
X184560Y85165D01*
X184535Y85072D01*
X184507Y84979D01*
X184474Y84888D01*
X184438Y84799D01*
X184398Y84711D01*
X184355Y84624D01*
X184309Y84539D01*
X184259Y84457D01*
X184205Y84376D01*
X184149Y84298D01*
X184089Y84222D01*
X184027Y84148D01*
X183961Y84077D01*
X183893Y84009D01*
X183822Y83943D01*
X183748Y83881D01*
X183672Y83821D01*
X183594Y83765D01*
X183513Y83711D01*
X183431Y83661D01*
X183346Y83615D01*
X183259Y83572D01*
X183171Y83532D01*
X183082Y83496D01*
X182991Y83463D01*
X182898Y83435D01*
X182805Y83410D01*
X182711Y83388D01*
X182616Y83371D01*
X182520Y83357D01*
X182424Y83348D01*
X182328Y83342D01*
X182231Y83340D01*
X179832Y83340D01*
X182711Y83340D02*
X184630Y79502D01*
X255580Y83030D02*
X257020Y83030D01*
X257020Y78232D01*
X254141Y78232D01*
X254055Y78234D01*
X253969Y78240D01*
X253883Y78249D01*
X253798Y78263D01*
X253714Y78280D01*
X253630Y78301D01*
X253548Y78326D01*
X253467Y78354D01*
X253387Y78386D01*
X253308Y78422D01*
X253232Y78461D01*
X253157Y78504D01*
X253084Y78549D01*
X253013Y78598D01*
X252945Y78651D01*
X252878Y78706D01*
X252815Y78764D01*
X252754Y78825D01*
X252696Y78888D01*
X252641Y78955D01*
X252588Y79023D01*
X252539Y79094D01*
X252494Y79167D01*
X252451Y79242D01*
X252412Y79318D01*
X252376Y79397D01*
X252344Y79477D01*
X252316Y79558D01*
X252291Y79640D01*
X252270Y79724D01*
X252253Y79808D01*
X252239Y79893D01*
X252230Y79979D01*
X252224Y80065D01*
X252222Y80151D01*
X252222Y84949D01*
X252224Y85035D01*
X252230Y85121D01*
X252239Y85207D01*
X252253Y85292D01*
X252270Y85376D01*
X252291Y85460D01*
X252316Y85542D01*
X252344Y85623D01*
X252376Y85703D01*
X252412Y85782D01*
X252451Y85858D01*
X252494Y85933D01*
X252539Y86006D01*
X252588Y86077D01*
X252641Y86145D01*
X252696Y86212D01*
X252754Y86275D01*
X252815Y86336D01*
X252878Y86394D01*
X252945Y86449D01*
X253013Y86501D01*
X253084Y86551D01*
X253157Y86596D01*
X253232Y86639D01*
X253308Y86678D01*
X253387Y86714D01*
X253467Y86746D01*
X253548Y86774D01*
X253630Y86799D01*
X253714Y86820D01*
X253798Y86837D01*
X253883Y86851D01*
X253969Y86860D01*
X254055Y86866D01*
X254141Y86868D01*
X257020Y86868D01*
X324612Y83030D02*
X327011Y83030D01*
X327108Y83028D01*
X327204Y83022D01*
X327300Y83013D01*
X327396Y82999D01*
X327491Y82982D01*
X327585Y82960D01*
X327678Y82935D01*
X327771Y82907D01*
X327862Y82874D01*
X327951Y82838D01*
X328039Y82798D01*
X328126Y82755D01*
X328211Y82709D01*
X328293Y82659D01*
X328374Y82605D01*
X328452Y82549D01*
X328528Y82489D01*
X328602Y82427D01*
X328673Y82361D01*
X328741Y82293D01*
X328807Y82222D01*
X328869Y82148D01*
X328929Y82072D01*
X328985Y81994D01*
X329039Y81913D01*
X329089Y81830D01*
X329135Y81746D01*
X329178Y81659D01*
X329218Y81571D01*
X329254Y81482D01*
X329287Y81391D01*
X329315Y81298D01*
X329340Y81205D01*
X329362Y81111D01*
X329379Y81016D01*
X329393Y80920D01*
X329402Y80824D01*
X329408Y80728D01*
X329410Y80631D01*
X329408Y80534D01*
X329402Y80438D01*
X329393Y80342D01*
X329379Y80246D01*
X329362Y80151D01*
X329340Y80057D01*
X329315Y79964D01*
X329287Y79871D01*
X329254Y79780D01*
X329218Y79691D01*
X329178Y79603D01*
X329135Y79516D01*
X329089Y79431D01*
X329039Y79349D01*
X328985Y79268D01*
X328929Y79190D01*
X328869Y79114D01*
X328807Y79040D01*
X328741Y78969D01*
X328673Y78901D01*
X328602Y78835D01*
X328528Y78773D01*
X328452Y78713D01*
X328374Y78657D01*
X328293Y78603D01*
X328211Y78553D01*
X328126Y78507D01*
X328039Y78464D01*
X327951Y78424D01*
X327862Y78388D01*
X327771Y78355D01*
X327678Y78327D01*
X327585Y78302D01*
X327491Y78280D01*
X327396Y78263D01*
X327300Y78249D01*
X327204Y78240D01*
X327108Y78234D01*
X327011Y78232D01*
X324612Y78232D01*
X324612Y86868D01*
X327011Y86868D01*
X327097Y86866D01*
X327183Y86860D01*
X327269Y86851D01*
X327354Y86837D01*
X327438Y86820D01*
X327522Y86799D01*
X327604Y86774D01*
X327685Y86746D01*
X327765Y86714D01*
X327844Y86678D01*
X327920Y86639D01*
X327995Y86596D01*
X328068Y86551D01*
X328139Y86502D01*
X328207Y86449D01*
X328274Y86394D01*
X328337Y86336D01*
X328398Y86275D01*
X328456Y86212D01*
X328511Y86145D01*
X328564Y86077D01*
X328613Y86006D01*
X328658Y85933D01*
X328701Y85858D01*
X328740Y85782D01*
X328776Y85703D01*
X328808Y85623D01*
X328836Y85542D01*
X328861Y85460D01*
X328882Y85376D01*
X328899Y85292D01*
X328913Y85207D01*
X328922Y85121D01*
X328928Y85035D01*
X328930Y84949D01*
X328928Y84863D01*
X328922Y84777D01*
X328913Y84691D01*
X328899Y84606D01*
X328882Y84522D01*
X328861Y84438D01*
X328836Y84356D01*
X328808Y84275D01*
X328776Y84195D01*
X328740Y84116D01*
X328701Y84040D01*
X328658Y83965D01*
X328613Y83892D01*
X328564Y83821D01*
X328511Y83753D01*
X328456Y83686D01*
X328398Y83623D01*
X328337Y83562D01*
X328274Y83504D01*
X328207Y83449D01*
X328139Y83396D01*
X328068Y83347D01*
X327995Y83302D01*
X327920Y83259D01*
X327844Y83220D01*
X327765Y83184D01*
X327685Y83152D01*
X327604Y83124D01*
X327522Y83099D01*
X327438Y83078D01*
X327354Y83061D01*
X327269Y83047D01*
X327183Y83038D01*
X327097Y83032D01*
X327011Y83030D01*
X397002Y86868D02*
X397002Y78232D01*
X397002Y86868D02*
X399401Y86868D01*
X399498Y86866D01*
X399594Y86860D01*
X399690Y86851D01*
X399786Y86837D01*
X399881Y86820D01*
X399975Y86798D01*
X400068Y86773D01*
X400161Y86745D01*
X400252Y86712D01*
X400341Y86676D01*
X400429Y86636D01*
X400516Y86593D01*
X400601Y86547D01*
X400683Y86497D01*
X400764Y86443D01*
X400842Y86387D01*
X400918Y86327D01*
X400992Y86265D01*
X401063Y86199D01*
X401131Y86131D01*
X401197Y86060D01*
X401259Y85986D01*
X401319Y85910D01*
X401375Y85832D01*
X401429Y85751D01*
X401479Y85668D01*
X401525Y85584D01*
X401568Y85497D01*
X401608Y85409D01*
X401644Y85320D01*
X401677Y85229D01*
X401705Y85136D01*
X401730Y85043D01*
X401752Y84949D01*
X401769Y84854D01*
X401783Y84758D01*
X401792Y84662D01*
X401798Y84566D01*
X401800Y84469D01*
X401798Y84372D01*
X401792Y84276D01*
X401783Y84180D01*
X401769Y84084D01*
X401752Y83989D01*
X401730Y83895D01*
X401705Y83802D01*
X401677Y83709D01*
X401644Y83618D01*
X401608Y83529D01*
X401568Y83441D01*
X401525Y83354D01*
X401479Y83269D01*
X401429Y83187D01*
X401375Y83106D01*
X401319Y83028D01*
X401259Y82952D01*
X401197Y82878D01*
X401131Y82807D01*
X401063Y82739D01*
X400992Y82673D01*
X400918Y82611D01*
X400842Y82551D01*
X400764Y82495D01*
X400683Y82441D01*
X400601Y82391D01*
X400516Y82345D01*
X400429Y82302D01*
X400341Y82262D01*
X400252Y82226D01*
X400161Y82193D01*
X400068Y82165D01*
X399975Y82140D01*
X399881Y82118D01*
X399786Y82101D01*
X399690Y82087D01*
X399594Y82078D01*
X399498Y82072D01*
X399401Y82070D01*
X397002Y82070D01*
X399881Y82070D02*
X401800Y78232D01*
X472750Y84300D02*
X474190Y84300D01*
X474190Y79502D01*
X471311Y79502D01*
X471225Y79504D01*
X471139Y79510D01*
X471053Y79519D01*
X470968Y79533D01*
X470884Y79550D01*
X470800Y79571D01*
X470718Y79596D01*
X470637Y79624D01*
X470557Y79656D01*
X470478Y79692D01*
X470402Y79731D01*
X470327Y79774D01*
X470254Y79819D01*
X470183Y79868D01*
X470115Y79921D01*
X470048Y79976D01*
X469985Y80034D01*
X469924Y80095D01*
X469866Y80158D01*
X469811Y80225D01*
X469758Y80293D01*
X469709Y80364D01*
X469664Y80437D01*
X469621Y80512D01*
X469582Y80588D01*
X469546Y80667D01*
X469514Y80747D01*
X469486Y80828D01*
X469461Y80910D01*
X469440Y80994D01*
X469423Y81078D01*
X469409Y81163D01*
X469400Y81249D01*
X469394Y81335D01*
X469392Y81421D01*
X469392Y86219D01*
X469394Y86305D01*
X469400Y86391D01*
X469409Y86477D01*
X469423Y86562D01*
X469440Y86646D01*
X469461Y86730D01*
X469486Y86812D01*
X469514Y86893D01*
X469546Y86973D01*
X469582Y87052D01*
X469621Y87128D01*
X469664Y87203D01*
X469709Y87276D01*
X469758Y87347D01*
X469811Y87415D01*
X469866Y87482D01*
X469924Y87545D01*
X469985Y87606D01*
X470048Y87664D01*
X470115Y87719D01*
X470183Y87771D01*
X470254Y87821D01*
X470327Y87866D01*
X470402Y87909D01*
X470478Y87948D01*
X470557Y87984D01*
X470637Y88016D01*
X470718Y88044D01*
X470800Y88069D01*
X470884Y88090D01*
X470968Y88107D01*
X471053Y88121D01*
X471139Y88130D01*
X471225Y88136D01*
X471311Y88138D01*
X474190Y88138D01*
X541782Y83030D02*
X544181Y83030D01*
X544278Y83028D01*
X544374Y83022D01*
X544470Y83013D01*
X544566Y82999D01*
X544661Y82982D01*
X544755Y82960D01*
X544848Y82935D01*
X544941Y82907D01*
X545032Y82874D01*
X545121Y82838D01*
X545209Y82798D01*
X545296Y82755D01*
X545381Y82709D01*
X545463Y82659D01*
X545544Y82605D01*
X545622Y82549D01*
X545698Y82489D01*
X545772Y82427D01*
X545843Y82361D01*
X545911Y82293D01*
X545977Y82222D01*
X546039Y82148D01*
X546099Y82072D01*
X546155Y81994D01*
X546209Y81913D01*
X546259Y81830D01*
X546305Y81746D01*
X546348Y81659D01*
X546388Y81571D01*
X546424Y81482D01*
X546457Y81391D01*
X546485Y81298D01*
X546510Y81205D01*
X546532Y81111D01*
X546549Y81016D01*
X546563Y80920D01*
X546572Y80824D01*
X546578Y80728D01*
X546580Y80631D01*
X546578Y80534D01*
X546572Y80438D01*
X546563Y80342D01*
X546549Y80246D01*
X546532Y80151D01*
X546510Y80057D01*
X546485Y79964D01*
X546457Y79871D01*
X546424Y79780D01*
X546388Y79691D01*
X546348Y79603D01*
X546305Y79516D01*
X546259Y79431D01*
X546209Y79349D01*
X546155Y79268D01*
X546099Y79190D01*
X546039Y79114D01*
X545977Y79040D01*
X545911Y78969D01*
X545843Y78901D01*
X545772Y78835D01*
X545698Y78773D01*
X545622Y78713D01*
X545544Y78657D01*
X545463Y78603D01*
X545381Y78553D01*
X545296Y78507D01*
X545209Y78464D01*
X545121Y78424D01*
X545032Y78388D01*
X544941Y78355D01*
X544848Y78327D01*
X544755Y78302D01*
X544661Y78280D01*
X544566Y78263D01*
X544470Y78249D01*
X544374Y78240D01*
X544278Y78234D01*
X544181Y78232D01*
X541782Y78232D01*
X541782Y86868D01*
X544181Y86868D01*
X544267Y86866D01*
X544353Y86860D01*
X544439Y86851D01*
X544524Y86837D01*
X544608Y86820D01*
X544692Y86799D01*
X544774Y86774D01*
X544855Y86746D01*
X544935Y86714D01*
X545014Y86678D01*
X545090Y86639D01*
X545165Y86596D01*
X545238Y86551D01*
X545309Y86502D01*
X545377Y86449D01*
X545444Y86394D01*
X545507Y86336D01*
X545568Y86275D01*
X545626Y86212D01*
X545681Y86145D01*
X545734Y86077D01*
X545783Y86006D01*
X545828Y85933D01*
X545871Y85858D01*
X545910Y85782D01*
X545946Y85703D01*
X545978Y85623D01*
X546006Y85542D01*
X546031Y85460D01*
X546052Y85376D01*
X546069Y85292D01*
X546083Y85207D01*
X546092Y85121D01*
X546098Y85035D01*
X546100Y84949D01*
X546098Y84863D01*
X546092Y84777D01*
X546083Y84691D01*
X546069Y84606D01*
X546052Y84522D01*
X546031Y84438D01*
X546006Y84356D01*
X545978Y84275D01*
X545946Y84195D01*
X545910Y84116D01*
X545871Y84040D01*
X545828Y83965D01*
X545783Y83892D01*
X545734Y83821D01*
X545681Y83753D01*
X545626Y83686D01*
X545568Y83623D01*
X545507Y83562D01*
X545444Y83504D01*
X545377Y83449D01*
X545309Y83396D01*
X545238Y83347D01*
X545165Y83302D01*
X545090Y83259D01*
X545014Y83220D01*
X544935Y83184D01*
X544855Y83152D01*
X544774Y83124D01*
X544692Y83099D01*
X544608Y83078D01*
X544524Y83061D01*
X544439Y83047D01*
X544353Y83038D01*
X544267Y83032D01*
X544181Y83030D01*
X615442Y86868D02*
X615442Y78232D01*
X615442Y86868D02*
X617841Y86868D01*
X617938Y86866D01*
X618034Y86860D01*
X618130Y86851D01*
X618226Y86837D01*
X618321Y86820D01*
X618415Y86798D01*
X618508Y86773D01*
X618601Y86745D01*
X618692Y86712D01*
X618781Y86676D01*
X618869Y86636D01*
X618956Y86593D01*
X619041Y86547D01*
X619123Y86497D01*
X619204Y86443D01*
X619282Y86387D01*
X619358Y86327D01*
X619432Y86265D01*
X619503Y86199D01*
X619571Y86131D01*
X619637Y86060D01*
X619699Y85986D01*
X619759Y85910D01*
X619815Y85832D01*
X619869Y85751D01*
X619919Y85668D01*
X619965Y85584D01*
X620008Y85497D01*
X620048Y85409D01*
X620084Y85320D01*
X620117Y85229D01*
X620145Y85136D01*
X620170Y85043D01*
X620192Y84949D01*
X620209Y84854D01*
X620223Y84758D01*
X620232Y84662D01*
X620238Y84566D01*
X620240Y84469D01*
X620238Y84372D01*
X620232Y84276D01*
X620223Y84180D01*
X620209Y84084D01*
X620192Y83989D01*
X620170Y83895D01*
X620145Y83802D01*
X620117Y83709D01*
X620084Y83618D01*
X620048Y83529D01*
X620008Y83441D01*
X619965Y83354D01*
X619919Y83269D01*
X619869Y83187D01*
X619815Y83106D01*
X619759Y83028D01*
X619699Y82952D01*
X619637Y82878D01*
X619571Y82807D01*
X619503Y82739D01*
X619432Y82673D01*
X619358Y82611D01*
X619282Y82551D01*
X619204Y82495D01*
X619123Y82441D01*
X619041Y82391D01*
X618956Y82345D01*
X618869Y82302D01*
X618781Y82262D01*
X618692Y82226D01*
X618601Y82193D01*
X618508Y82165D01*
X618415Y82140D01*
X618321Y82118D01*
X618226Y82101D01*
X618130Y82087D01*
X618034Y82078D01*
X617938Y82072D01*
X617841Y82070D01*
X615442Y82070D01*
X618321Y82070D02*
X620240Y78232D01*
X689920Y83030D02*
X691360Y83030D01*
X691360Y78232D01*
X688481Y78232D01*
X688395Y78234D01*
X688309Y78240D01*
X688223Y78249D01*
X688138Y78263D01*
X688054Y78280D01*
X687970Y78301D01*
X687888Y78326D01*
X687807Y78354D01*
X687727Y78386D01*
X687648Y78422D01*
X687572Y78461D01*
X687497Y78504D01*
X687424Y78549D01*
X687353Y78598D01*
X687285Y78651D01*
X687218Y78706D01*
X687155Y78764D01*
X687094Y78825D01*
X687036Y78888D01*
X686981Y78955D01*
X686928Y79023D01*
X686879Y79094D01*
X686834Y79167D01*
X686791Y79242D01*
X686752Y79318D01*
X686716Y79397D01*
X686684Y79477D01*
X686656Y79558D01*
X686631Y79640D01*
X686610Y79724D01*
X686593Y79808D01*
X686579Y79893D01*
X686570Y79979D01*
X686564Y80065D01*
X686562Y80151D01*
X686562Y84949D01*
X686564Y85035D01*
X686570Y85121D01*
X686579Y85207D01*
X686593Y85292D01*
X686610Y85376D01*
X686631Y85460D01*
X686656Y85542D01*
X686684Y85623D01*
X686716Y85703D01*
X686752Y85782D01*
X686791Y85858D01*
X686834Y85933D01*
X686879Y86006D01*
X686928Y86077D01*
X686981Y86145D01*
X687036Y86212D01*
X687094Y86275D01*
X687155Y86336D01*
X687218Y86394D01*
X687285Y86449D01*
X687353Y86501D01*
X687424Y86551D01*
X687497Y86596D01*
X687572Y86639D01*
X687648Y86678D01*
X687727Y86714D01*
X687807Y86746D01*
X687888Y86774D01*
X687970Y86799D01*
X688054Y86820D01*
X688138Y86837D01*
X688223Y86851D01*
X688309Y86860D01*
X688395Y86866D01*
X688481Y86868D01*
X691360Y86868D01*
X760222Y83030D02*
X762621Y83030D01*
X762718Y83028D01*
X762814Y83022D01*
X762910Y83013D01*
X763006Y82999D01*
X763101Y82982D01*
X763195Y82960D01*
X763288Y82935D01*
X763381Y82907D01*
X763472Y82874D01*
X763561Y82838D01*
X763649Y82798D01*
X763736Y82755D01*
X763821Y82709D01*
X763903Y82659D01*
X763984Y82605D01*
X764062Y82549D01*
X764138Y82489D01*
X764212Y82427D01*
X764283Y82361D01*
X764351Y82293D01*
X764417Y82222D01*
X764479Y82148D01*
X764539Y82072D01*
X764595Y81994D01*
X764649Y81913D01*
X764699Y81830D01*
X764745Y81746D01*
X764788Y81659D01*
X764828Y81571D01*
X764864Y81482D01*
X764897Y81391D01*
X764925Y81298D01*
X764950Y81205D01*
X764972Y81111D01*
X764989Y81016D01*
X765003Y80920D01*
X765012Y80824D01*
X765018Y80728D01*
X765020Y80631D01*
X765018Y80534D01*
X765012Y80438D01*
X765003Y80342D01*
X764989Y80246D01*
X764972Y80151D01*
X764950Y80057D01*
X764925Y79964D01*
X764897Y79871D01*
X764864Y79780D01*
X764828Y79691D01*
X764788Y79603D01*
X764745Y79516D01*
X764699Y79431D01*
X764649Y79349D01*
X764595Y79268D01*
X764539Y79190D01*
X764479Y79114D01*
X764417Y79040D01*
X764351Y78969D01*
X764283Y78901D01*
X764212Y78835D01*
X764138Y78773D01*
X764062Y78713D01*
X763984Y78657D01*
X763903Y78603D01*
X763821Y78553D01*
X763736Y78507D01*
X763649Y78464D01*
X763561Y78424D01*
X763472Y78388D01*
X763381Y78355D01*
X763288Y78327D01*
X763195Y78302D01*
X763101Y78280D01*
X763006Y78263D01*
X762910Y78249D01*
X762814Y78240D01*
X762718Y78234D01*
X762621Y78232D01*
X760222Y78232D01*
X760222Y86868D01*
X762621Y86868D01*
X762707Y86866D01*
X762793Y86860D01*
X762879Y86851D01*
X762964Y86837D01*
X763048Y86820D01*
X763132Y86799D01*
X763214Y86774D01*
X763295Y86746D01*
X763375Y86714D01*
X763454Y86678D01*
X763530Y86639D01*
X763605Y86596D01*
X763678Y86551D01*
X763749Y86502D01*
X763817Y86449D01*
X763884Y86394D01*
X763947Y86336D01*
X764008Y86275D01*
X764066Y86212D01*
X764121Y86145D01*
X764174Y86077D01*
X764223Y86006D01*
X764268Y85933D01*
X764311Y85858D01*
X764350Y85782D01*
X764386Y85703D01*
X764418Y85623D01*
X764446Y85542D01*
X764471Y85460D01*
X764492Y85376D01*
X764509Y85292D01*
X764523Y85207D01*
X764532Y85121D01*
X764538Y85035D01*
X764540Y84949D01*
X764538Y84863D01*
X764532Y84777D01*
X764523Y84691D01*
X764509Y84606D01*
X764492Y84522D01*
X764471Y84438D01*
X764446Y84356D01*
X764418Y84275D01*
X764386Y84195D01*
X764350Y84116D01*
X764311Y84040D01*
X764268Y83965D01*
X764223Y83892D01*
X764174Y83821D01*
X764121Y83753D01*
X764066Y83686D01*
X764008Y83623D01*
X763947Y83562D01*
X763884Y83504D01*
X763817Y83449D01*
X763749Y83396D01*
X763678Y83347D01*
X763605Y83302D01*
X763530Y83259D01*
X763454Y83220D01*
X763375Y83184D01*
X763295Y83152D01*
X763214Y83124D01*
X763132Y83099D01*
X763048Y83078D01*
X762964Y83061D01*
X762879Y83047D01*
X762793Y83038D01*
X762707Y83032D01*
X762621Y83030D01*
D11*
X320872Y324767D02*
X320870Y324653D01*
X320864Y324540D01*
X320855Y324426D01*
X320841Y324314D01*
X320824Y324201D01*
X320802Y324089D01*
X320777Y323979D01*
X320749Y323869D01*
X320716Y323760D01*
X320680Y323652D01*
X320640Y323545D01*
X320596Y323440D01*
X320549Y323337D01*
X320499Y323235D01*
X320445Y323135D01*
X320387Y323037D01*
X320326Y322941D01*
X320263Y322847D01*
X320195Y322755D01*
X320125Y322665D01*
X320052Y322579D01*
X319976Y322494D01*
X319897Y322412D01*
X319815Y322333D01*
X319731Y322257D01*
X319644Y322184D01*
X319554Y322114D01*
X319462Y322047D01*
X319368Y321983D01*
X319272Y321922D01*
X319174Y321864D01*
X319074Y321810D01*
X318972Y321760D01*
X318869Y321713D01*
X318764Y321669D01*
X318657Y321629D01*
X318549Y321593D01*
X318440Y321560D01*
X318330Y321532D01*
X318220Y321507D01*
X318108Y321485D01*
X317995Y321468D01*
X317883Y321454D01*
X317769Y321445D01*
X317656Y321439D01*
X317542Y321437D01*
X317374Y321439D01*
X317206Y321445D01*
X317038Y321455D01*
X316870Y321469D01*
X316702Y321487D01*
X316536Y321509D01*
X316369Y321535D01*
X316204Y321565D01*
X316039Y321599D01*
X315875Y321637D01*
X315712Y321679D01*
X315550Y321725D01*
X315389Y321775D01*
X315229Y321828D01*
X315071Y321885D01*
X314914Y321946D01*
X314759Y322011D01*
X314605Y322079D01*
X314453Y322152D01*
X314303Y322227D01*
X314154Y322307D01*
X314007Y322389D01*
X313863Y322476D01*
X313721Y322565D01*
X313580Y322659D01*
X313442Y322755D01*
X313307Y322855D01*
X313174Y322958D01*
X313043Y323064D01*
X312915Y323173D01*
X312789Y323285D01*
X312667Y323400D01*
X312547Y323518D01*
X312964Y333093D02*
X312966Y333207D01*
X312972Y333320D01*
X312981Y333434D01*
X312995Y333546D01*
X313012Y333659D01*
X313034Y333771D01*
X313059Y333881D01*
X313087Y333991D01*
X313120Y334100D01*
X313156Y334208D01*
X313196Y334315D01*
X313240Y334420D01*
X313287Y334523D01*
X313337Y334625D01*
X313391Y334725D01*
X313449Y334823D01*
X313510Y334919D01*
X313573Y335013D01*
X313641Y335105D01*
X313711Y335195D01*
X313784Y335281D01*
X313860Y335366D01*
X313939Y335448D01*
X314021Y335527D01*
X314106Y335603D01*
X314192Y335676D01*
X314282Y335746D01*
X314374Y335814D01*
X314468Y335877D01*
X314564Y335938D01*
X314662Y335996D01*
X314762Y336050D01*
X314864Y336100D01*
X314967Y336147D01*
X315072Y336191D01*
X315179Y336231D01*
X315287Y336267D01*
X315396Y336300D01*
X315506Y336328D01*
X315616Y336353D01*
X315728Y336375D01*
X315841Y336392D01*
X315953Y336406D01*
X316067Y336415D01*
X316180Y336421D01*
X316294Y336423D01*
X316449Y336421D01*
X316603Y336415D01*
X316757Y336406D01*
X316911Y336392D01*
X317065Y336375D01*
X317218Y336354D01*
X317370Y336330D01*
X317522Y336301D01*
X317673Y336269D01*
X317824Y336233D01*
X317973Y336193D01*
X318121Y336150D01*
X318269Y336103D01*
X318415Y336052D01*
X318559Y335998D01*
X318703Y335940D01*
X318844Y335878D01*
X318985Y335814D01*
X319123Y335745D01*
X319260Y335674D01*
X319395Y335598D01*
X319528Y335520D01*
X319660Y335438D01*
X319789Y335353D01*
X319916Y335265D01*
X320040Y335174D01*
X314628Y330179D02*
X314531Y330238D01*
X314437Y330301D01*
X314344Y330366D01*
X314254Y330435D01*
X314166Y330506D01*
X314081Y330581D01*
X313998Y330658D01*
X313918Y330738D01*
X313840Y330820D01*
X313766Y330906D01*
X313694Y330993D01*
X313625Y331083D01*
X313559Y331175D01*
X313497Y331270D01*
X313437Y331366D01*
X313381Y331464D01*
X313328Y331565D01*
X313279Y331667D01*
X313233Y331770D01*
X313190Y331875D01*
X313151Y331981D01*
X313115Y332089D01*
X313084Y332198D01*
X313056Y332307D01*
X313031Y332418D01*
X313010Y332529D01*
X312993Y332641D01*
X312980Y332754D01*
X312971Y332867D01*
X312965Y332980D01*
X312963Y333093D01*
X319207Y327681D02*
X319304Y327622D01*
X319398Y327559D01*
X319491Y327494D01*
X319581Y327425D01*
X319669Y327354D01*
X319754Y327279D01*
X319837Y327202D01*
X319917Y327122D01*
X319995Y327040D01*
X320069Y326954D01*
X320141Y326867D01*
X320210Y326777D01*
X320276Y326685D01*
X320338Y326590D01*
X320398Y326494D01*
X320454Y326396D01*
X320507Y326295D01*
X320556Y326193D01*
X320603Y326090D01*
X320645Y325985D01*
X320684Y325879D01*
X320720Y325771D01*
X320751Y325662D01*
X320779Y325553D01*
X320804Y325442D01*
X320825Y325331D01*
X320842Y325219D01*
X320855Y325106D01*
X320864Y324993D01*
X320870Y324880D01*
X320872Y324767D01*
X319207Y327681D02*
X314628Y330179D01*
X328316Y336423D02*
X328316Y321437D01*
X328316Y336423D02*
X332479Y336423D01*
X332607Y336421D01*
X332735Y336415D01*
X332863Y336405D01*
X332991Y336391D01*
X333118Y336374D01*
X333244Y336352D01*
X333370Y336327D01*
X333494Y336297D01*
X333618Y336264D01*
X333741Y336227D01*
X333863Y336186D01*
X333983Y336142D01*
X334102Y336094D01*
X334219Y336042D01*
X334335Y335987D01*
X334448Y335928D01*
X334561Y335865D01*
X334671Y335799D01*
X334778Y335730D01*
X334884Y335658D01*
X334988Y335582D01*
X335089Y335503D01*
X335188Y335421D01*
X335284Y335336D01*
X335377Y335249D01*
X335468Y335158D01*
X335555Y335065D01*
X335640Y334969D01*
X335722Y334870D01*
X335801Y334769D01*
X335877Y334665D01*
X335949Y334559D01*
X336018Y334452D01*
X336084Y334342D01*
X336147Y334229D01*
X336206Y334116D01*
X336261Y334000D01*
X336313Y333883D01*
X336361Y333764D01*
X336405Y333644D01*
X336446Y333522D01*
X336483Y333399D01*
X336516Y333275D01*
X336546Y333151D01*
X336571Y333025D01*
X336593Y332899D01*
X336610Y332772D01*
X336624Y332644D01*
X336634Y332516D01*
X336640Y332388D01*
X336642Y332260D01*
X336640Y332132D01*
X336634Y332004D01*
X336624Y331876D01*
X336610Y331748D01*
X336593Y331621D01*
X336571Y331495D01*
X336546Y331369D01*
X336516Y331245D01*
X336483Y331121D01*
X336446Y330998D01*
X336405Y330876D01*
X336361Y330756D01*
X336313Y330637D01*
X336261Y330520D01*
X336206Y330404D01*
X336147Y330291D01*
X336084Y330179D01*
X336018Y330068D01*
X335949Y329961D01*
X335877Y329855D01*
X335801Y329751D01*
X335722Y329650D01*
X335640Y329551D01*
X335555Y329455D01*
X335468Y329362D01*
X335377Y329271D01*
X335284Y329184D01*
X335188Y329099D01*
X335089Y329017D01*
X334988Y328938D01*
X334884Y328862D01*
X334778Y328790D01*
X334671Y328721D01*
X334561Y328655D01*
X334448Y328592D01*
X334335Y328533D01*
X334219Y328478D01*
X334102Y328426D01*
X333983Y328378D01*
X333863Y328334D01*
X333741Y328293D01*
X333618Y328256D01*
X333494Y328223D01*
X333370Y328193D01*
X333244Y328168D01*
X333118Y328146D01*
X332991Y328129D01*
X332863Y328115D01*
X332735Y328105D01*
X332607Y328099D01*
X332479Y328097D01*
X328316Y328097D01*
X333312Y328097D02*
X336642Y321437D01*
X348389Y336424D02*
X348509Y336422D01*
X348629Y336416D01*
X348749Y336407D01*
X348868Y336393D01*
X348987Y336376D01*
X349105Y336355D01*
X349223Y336330D01*
X349339Y336301D01*
X349455Y336269D01*
X349570Y336233D01*
X349683Y336193D01*
X349795Y336150D01*
X349906Y336103D01*
X350015Y336053D01*
X350122Y335999D01*
X350228Y335942D01*
X350331Y335881D01*
X350433Y335817D01*
X350533Y335750D01*
X350630Y335680D01*
X350725Y335607D01*
X350818Y335530D01*
X350908Y335451D01*
X350996Y335369D01*
X351081Y335284D01*
X351163Y335196D01*
X351242Y335106D01*
X351319Y335013D01*
X351392Y334918D01*
X351462Y334821D01*
X351529Y334721D01*
X351593Y334619D01*
X351654Y334516D01*
X351711Y334410D01*
X351765Y334303D01*
X351815Y334194D01*
X351862Y334083D01*
X351905Y333971D01*
X351945Y333858D01*
X351981Y333743D01*
X352013Y333627D01*
X352042Y333511D01*
X352067Y333393D01*
X352088Y333275D01*
X352105Y333156D01*
X352119Y333037D01*
X352128Y332917D01*
X352134Y332797D01*
X352136Y332677D01*
X348389Y336423D02*
X348251Y336421D01*
X348114Y336415D01*
X347977Y336405D01*
X347840Y336392D01*
X347704Y336374D01*
X347568Y336352D01*
X347432Y336327D01*
X347298Y336298D01*
X347165Y336265D01*
X347032Y336228D01*
X346901Y336187D01*
X346770Y336143D01*
X346642Y336095D01*
X346514Y336043D01*
X346388Y335987D01*
X346264Y335928D01*
X346141Y335866D01*
X346021Y335800D01*
X345902Y335731D01*
X345785Y335658D01*
X345671Y335582D01*
X345558Y335502D01*
X345448Y335420D01*
X345340Y335334D01*
X345235Y335246D01*
X345133Y335154D01*
X345033Y335060D01*
X344935Y334962D01*
X344841Y334862D01*
X344750Y334759D01*
X344661Y334654D01*
X344576Y334546D01*
X344493Y334436D01*
X344414Y334324D01*
X344338Y334209D01*
X344265Y334092D01*
X344196Y333973D01*
X344130Y333853D01*
X344068Y333730D01*
X344009Y333606D01*
X343954Y333480D01*
X343902Y333352D01*
X343854Y333223D01*
X343810Y333093D01*
X350886Y329763D02*
X350976Y329851D01*
X351062Y329942D01*
X351146Y330035D01*
X351227Y330131D01*
X351305Y330229D01*
X351379Y330329D01*
X351451Y330432D01*
X351519Y330537D01*
X351584Y330645D01*
X351646Y330754D01*
X351704Y330865D01*
X351759Y330978D01*
X351810Y331092D01*
X351857Y331208D01*
X351901Y331325D01*
X351941Y331444D01*
X351978Y331564D01*
X352011Y331685D01*
X352040Y331807D01*
X352065Y331929D01*
X352086Y332053D01*
X352104Y332177D01*
X352117Y332302D01*
X352127Y332427D01*
X352133Y332552D01*
X352135Y332677D01*
X350886Y329763D02*
X343809Y321437D01*
X352135Y321437D01*
X359440Y328930D02*
X359444Y329225D01*
X359454Y329519D01*
X359472Y329814D01*
X359496Y330108D01*
X359528Y330401D01*
X359566Y330693D01*
X359612Y330984D01*
X359665Y331274D01*
X359724Y331563D01*
X359790Y331850D01*
X359863Y332136D01*
X359943Y332420D01*
X360030Y332702D01*
X360123Y332981D01*
X360223Y333259D01*
X360330Y333533D01*
X360443Y333806D01*
X360563Y334075D01*
X360689Y334342D01*
X360727Y334445D01*
X360768Y334546D01*
X360812Y334645D01*
X360860Y334744D01*
X360911Y334840D01*
X360966Y334934D01*
X361024Y335027D01*
X361085Y335117D01*
X361150Y335205D01*
X361217Y335291D01*
X361288Y335374D01*
X361361Y335455D01*
X361437Y335533D01*
X361516Y335609D01*
X361598Y335681D01*
X361682Y335751D01*
X361769Y335817D01*
X361857Y335881D01*
X361948Y335941D01*
X362042Y335998D01*
X362137Y336052D01*
X362234Y336102D01*
X362332Y336149D01*
X362432Y336192D01*
X362534Y336232D01*
X362637Y336268D01*
X362741Y336300D01*
X362847Y336329D01*
X362953Y336354D01*
X363060Y336375D01*
X363168Y336392D01*
X363276Y336406D01*
X363385Y336415D01*
X363494Y336421D01*
X363603Y336423D01*
X363712Y336421D01*
X363821Y336415D01*
X363930Y336406D01*
X364038Y336392D01*
X364146Y336375D01*
X364253Y336354D01*
X364359Y336329D01*
X364465Y336300D01*
X364569Y336268D01*
X364672Y336232D01*
X364774Y336192D01*
X364874Y336149D01*
X364972Y336102D01*
X365069Y336052D01*
X365164Y335998D01*
X365258Y335941D01*
X365349Y335881D01*
X365437Y335817D01*
X365524Y335751D01*
X365608Y335681D01*
X365690Y335609D01*
X365769Y335533D01*
X365845Y335455D01*
X365918Y335374D01*
X365989Y335291D01*
X366056Y335205D01*
X366121Y335117D01*
X366182Y335027D01*
X366240Y334934D01*
X366295Y334840D01*
X366346Y334744D01*
X366394Y334645D01*
X366438Y334546D01*
X366479Y334445D01*
X366517Y334342D01*
X366518Y334342D02*
X366644Y334075D01*
X366764Y333806D01*
X366877Y333533D01*
X366984Y333259D01*
X367084Y332981D01*
X367177Y332702D01*
X367264Y332420D01*
X367344Y332136D01*
X367417Y331850D01*
X367483Y331563D01*
X367542Y331274D01*
X367595Y330984D01*
X367641Y330693D01*
X367679Y330401D01*
X367711Y330108D01*
X367735Y329814D01*
X367753Y329519D01*
X367763Y329225D01*
X367767Y328930D01*
X359441Y328930D02*
X359445Y328635D01*
X359455Y328341D01*
X359473Y328046D01*
X359497Y327752D01*
X359529Y327459D01*
X359567Y327167D01*
X359613Y326876D01*
X359666Y326586D01*
X359725Y326297D01*
X359791Y326010D01*
X359864Y325724D01*
X359944Y325440D01*
X360031Y325158D01*
X360124Y324879D01*
X360224Y324601D01*
X360331Y324327D01*
X360444Y324054D01*
X360564Y323785D01*
X360690Y323518D01*
X360689Y323518D02*
X360727Y323415D01*
X360768Y323314D01*
X360812Y323215D01*
X360860Y323116D01*
X360911Y323020D01*
X360966Y322926D01*
X361024Y322833D01*
X361085Y322743D01*
X361150Y322655D01*
X361217Y322569D01*
X361288Y322486D01*
X361361Y322405D01*
X361437Y322327D01*
X361516Y322251D01*
X361598Y322179D01*
X361682Y322109D01*
X361769Y322043D01*
X361857Y321979D01*
X361948Y321919D01*
X362042Y321862D01*
X362137Y321808D01*
X362234Y321758D01*
X362332Y321711D01*
X362432Y321668D01*
X362534Y321628D01*
X362637Y321592D01*
X362741Y321560D01*
X362847Y321531D01*
X362953Y321506D01*
X363060Y321485D01*
X363168Y321468D01*
X363276Y321454D01*
X363385Y321445D01*
X363494Y321439D01*
X363603Y321437D01*
X366517Y323518D02*
X366643Y323785D01*
X366763Y324054D01*
X366876Y324327D01*
X366983Y324601D01*
X367083Y324879D01*
X367176Y325158D01*
X367263Y325440D01*
X367343Y325724D01*
X367416Y326010D01*
X367482Y326297D01*
X367541Y326586D01*
X367594Y326876D01*
X367640Y327167D01*
X367678Y327459D01*
X367710Y327752D01*
X367734Y328046D01*
X367752Y328341D01*
X367762Y328635D01*
X367766Y328930D01*
X366517Y323518D02*
X366479Y323415D01*
X366438Y323314D01*
X366394Y323215D01*
X366346Y323116D01*
X366295Y323020D01*
X366240Y322926D01*
X366182Y322833D01*
X366121Y322743D01*
X366056Y322655D01*
X365989Y322569D01*
X365918Y322486D01*
X365845Y322405D01*
X365769Y322327D01*
X365690Y322251D01*
X365608Y322179D01*
X365524Y322109D01*
X365437Y322043D01*
X365349Y321979D01*
X365257Y321919D01*
X365164Y321862D01*
X365069Y321808D01*
X364972Y321758D01*
X364874Y321711D01*
X364774Y321668D01*
X364672Y321628D01*
X364569Y321592D01*
X364465Y321560D01*
X364359Y321531D01*
X364253Y321506D01*
X364146Y321485D01*
X364038Y321468D01*
X363930Y321454D01*
X363821Y321445D01*
X363712Y321439D01*
X363603Y321437D01*
X360273Y324767D02*
X366934Y333093D01*
X375072Y333093D02*
X379235Y336423D01*
X379235Y321437D01*
X383397Y321437D02*
X375072Y321437D01*
X394033Y328097D02*
X399029Y328097D01*
X394033Y328098D02*
X393919Y328100D01*
X393806Y328106D01*
X393692Y328115D01*
X393580Y328129D01*
X393467Y328146D01*
X393355Y328168D01*
X393245Y328193D01*
X393135Y328221D01*
X393026Y328254D01*
X392918Y328290D01*
X392811Y328330D01*
X392706Y328374D01*
X392603Y328421D01*
X392501Y328471D01*
X392401Y328525D01*
X392303Y328583D01*
X392207Y328644D01*
X392113Y328707D01*
X392021Y328775D01*
X391931Y328845D01*
X391845Y328918D01*
X391760Y328994D01*
X391678Y329073D01*
X391599Y329155D01*
X391523Y329240D01*
X391450Y329326D01*
X391380Y329416D01*
X391312Y329508D01*
X391249Y329602D01*
X391188Y329698D01*
X391130Y329796D01*
X391076Y329896D01*
X391026Y329998D01*
X390979Y330101D01*
X390935Y330206D01*
X390895Y330313D01*
X390859Y330421D01*
X390826Y330530D01*
X390798Y330640D01*
X390773Y330750D01*
X390751Y330862D01*
X390734Y330975D01*
X390720Y331087D01*
X390711Y331201D01*
X390705Y331314D01*
X390703Y331428D01*
X390703Y332260D01*
X390705Y332388D01*
X390711Y332516D01*
X390721Y332644D01*
X390735Y332772D01*
X390752Y332899D01*
X390774Y333025D01*
X390799Y333151D01*
X390829Y333275D01*
X390862Y333399D01*
X390899Y333522D01*
X390940Y333644D01*
X390984Y333764D01*
X391032Y333883D01*
X391084Y334000D01*
X391139Y334116D01*
X391198Y334229D01*
X391261Y334342D01*
X391327Y334452D01*
X391396Y334559D01*
X391468Y334665D01*
X391544Y334769D01*
X391623Y334870D01*
X391705Y334969D01*
X391790Y335065D01*
X391877Y335158D01*
X391968Y335249D01*
X392061Y335336D01*
X392157Y335421D01*
X392256Y335503D01*
X392357Y335582D01*
X392461Y335658D01*
X392567Y335730D01*
X392674Y335799D01*
X392785Y335865D01*
X392897Y335928D01*
X393010Y335987D01*
X393126Y336042D01*
X393243Y336094D01*
X393362Y336142D01*
X393482Y336186D01*
X393604Y336227D01*
X393727Y336264D01*
X393851Y336297D01*
X393975Y336327D01*
X394101Y336352D01*
X394227Y336374D01*
X394354Y336391D01*
X394482Y336405D01*
X394610Y336415D01*
X394738Y336421D01*
X394866Y336423D01*
X394994Y336421D01*
X395122Y336415D01*
X395250Y336405D01*
X395378Y336391D01*
X395505Y336374D01*
X395631Y336352D01*
X395757Y336327D01*
X395881Y336297D01*
X396005Y336264D01*
X396128Y336227D01*
X396250Y336186D01*
X396370Y336142D01*
X396489Y336094D01*
X396606Y336042D01*
X396722Y335987D01*
X396835Y335928D01*
X396948Y335865D01*
X397058Y335799D01*
X397165Y335730D01*
X397271Y335658D01*
X397375Y335582D01*
X397476Y335503D01*
X397575Y335421D01*
X397671Y335336D01*
X397764Y335249D01*
X397855Y335158D01*
X397942Y335065D01*
X398027Y334969D01*
X398109Y334870D01*
X398188Y334769D01*
X398264Y334665D01*
X398336Y334559D01*
X398405Y334452D01*
X398471Y334342D01*
X398534Y334229D01*
X398593Y334116D01*
X398648Y334000D01*
X398700Y333883D01*
X398748Y333764D01*
X398792Y333644D01*
X398833Y333522D01*
X398870Y333399D01*
X398903Y333275D01*
X398933Y333151D01*
X398958Y333025D01*
X398980Y332899D01*
X398997Y332772D01*
X399011Y332644D01*
X399021Y332516D01*
X399027Y332388D01*
X399029Y332260D01*
X399029Y328097D01*
X399028Y328097D02*
X399026Y327936D01*
X399020Y327775D01*
X399011Y327615D01*
X398997Y327454D01*
X398979Y327294D01*
X398958Y327135D01*
X398933Y326976D01*
X398904Y326817D01*
X398871Y326660D01*
X398834Y326503D01*
X398794Y326347D01*
X398750Y326193D01*
X398702Y326039D01*
X398650Y325886D01*
X398595Y325735D01*
X398536Y325586D01*
X398474Y325437D01*
X398408Y325290D01*
X398338Y325145D01*
X398265Y325002D01*
X398189Y324860D01*
X398109Y324721D01*
X398025Y324583D01*
X397939Y324447D01*
X397849Y324314D01*
X397756Y324182D01*
X397660Y324053D01*
X397561Y323927D01*
X397458Y323802D01*
X397353Y323681D01*
X397245Y323561D01*
X397134Y323445D01*
X397020Y323331D01*
X396904Y323220D01*
X396784Y323112D01*
X396663Y323007D01*
X396538Y322904D01*
X396412Y322805D01*
X396283Y322709D01*
X396151Y322616D01*
X396018Y322526D01*
X395882Y322440D01*
X395744Y322356D01*
X395605Y322276D01*
X395463Y322200D01*
X395320Y322127D01*
X395175Y322057D01*
X395028Y321991D01*
X394879Y321929D01*
X394730Y321870D01*
X394579Y321815D01*
X394426Y321763D01*
X394272Y321715D01*
X394118Y321671D01*
X393962Y321631D01*
X393805Y321594D01*
X393648Y321561D01*
X393489Y321532D01*
X393330Y321507D01*
X393171Y321486D01*
X393011Y321468D01*
X392850Y321454D01*
X392690Y321445D01*
X392529Y321439D01*
X392368Y321437D01*
D10*
X290830Y306578D02*
X247650Y306578D01*
X290830Y267462D02*
X290952Y267464D01*
X291074Y267470D01*
X291196Y267480D01*
X291317Y267493D01*
X291438Y267511D01*
X291558Y267532D01*
X291678Y267558D01*
X291796Y267587D01*
X291914Y267619D01*
X292031Y267656D01*
X292146Y267696D01*
X292260Y267740D01*
X292372Y267788D01*
X292483Y267839D01*
X292592Y267894D01*
X292700Y267952D01*
X292805Y268014D01*
X292908Y268079D01*
X293010Y268147D01*
X293109Y268219D01*
X293205Y268293D01*
X293300Y268371D01*
X293391Y268452D01*
X293481Y268535D01*
X293567Y268621D01*
X293650Y268711D01*
X293731Y268802D01*
X293809Y268897D01*
X293883Y268993D01*
X293955Y269092D01*
X294023Y269194D01*
X294088Y269297D01*
X294150Y269402D01*
X294208Y269510D01*
X294263Y269619D01*
X294314Y269730D01*
X294362Y269842D01*
X294406Y269956D01*
X294446Y270071D01*
X294483Y270188D01*
X294515Y270306D01*
X294544Y270424D01*
X294570Y270544D01*
X294591Y270664D01*
X294609Y270785D01*
X294622Y270906D01*
X294632Y271028D01*
X294638Y271150D01*
X294640Y271272D01*
X247650Y306578D02*
X247528Y306576D01*
X247406Y306570D01*
X247284Y306560D01*
X247163Y306547D01*
X247042Y306529D01*
X246922Y306508D01*
X246802Y306482D01*
X246684Y306453D01*
X246566Y306421D01*
X246449Y306384D01*
X246334Y306344D01*
X246220Y306300D01*
X246108Y306252D01*
X245997Y306201D01*
X245888Y306146D01*
X245780Y306088D01*
X245675Y306026D01*
X245572Y305961D01*
X245470Y305893D01*
X245371Y305821D01*
X245275Y305747D01*
X245180Y305669D01*
X245089Y305588D01*
X244999Y305505D01*
X244913Y305419D01*
X244830Y305329D01*
X244749Y305238D01*
X244671Y305143D01*
X244597Y305047D01*
X244525Y304948D01*
X244457Y304846D01*
X244392Y304743D01*
X244330Y304638D01*
X244272Y304530D01*
X244217Y304421D01*
X244166Y304310D01*
X244118Y304198D01*
X244074Y304084D01*
X244034Y303969D01*
X243997Y303852D01*
X243965Y303734D01*
X243936Y303616D01*
X243910Y303496D01*
X243889Y303376D01*
X243871Y303255D01*
X243858Y303134D01*
X243848Y303012D01*
X243842Y302890D01*
X243840Y302768D01*
X290830Y306578D02*
X290952Y306576D01*
X291074Y306570D01*
X291196Y306560D01*
X291317Y306547D01*
X291438Y306529D01*
X291558Y306508D01*
X291678Y306482D01*
X291796Y306453D01*
X291914Y306421D01*
X292031Y306384D01*
X292146Y306344D01*
X292260Y306300D01*
X292372Y306252D01*
X292483Y306201D01*
X292592Y306146D01*
X292700Y306088D01*
X292805Y306026D01*
X292908Y305961D01*
X293010Y305893D01*
X293109Y305821D01*
X293205Y305747D01*
X293300Y305669D01*
X293391Y305588D01*
X293481Y305505D01*
X293567Y305419D01*
X293650Y305329D01*
X293731Y305238D01*
X293809Y305143D01*
X293883Y305047D01*
X293955Y304948D01*
X294023Y304846D01*
X294088Y304743D01*
X294150Y304638D01*
X294208Y304530D01*
X294263Y304421D01*
X294314Y304310D01*
X294362Y304198D01*
X294406Y304084D01*
X294446Y303969D01*
X294483Y303852D01*
X294515Y303734D01*
X294544Y303616D01*
X294570Y303496D01*
X294591Y303376D01*
X294609Y303255D01*
X294622Y303134D01*
X294632Y303012D01*
X294638Y302890D01*
X294640Y302768D01*
X247650Y267462D02*
X247528Y267464D01*
X247406Y267470D01*
X247284Y267480D01*
X247163Y267493D01*
X247042Y267511D01*
X246922Y267532D01*
X246802Y267558D01*
X246684Y267587D01*
X246566Y267619D01*
X246449Y267656D01*
X246334Y267696D01*
X246220Y267740D01*
X246108Y267788D01*
X245997Y267839D01*
X245888Y267894D01*
X245780Y267952D01*
X245675Y268014D01*
X245572Y268079D01*
X245470Y268147D01*
X245371Y268219D01*
X245275Y268293D01*
X245180Y268371D01*
X245089Y268452D01*
X244999Y268535D01*
X244913Y268621D01*
X244830Y268711D01*
X244749Y268802D01*
X244671Y268897D01*
X244597Y268993D01*
X244525Y269092D01*
X244457Y269194D01*
X244392Y269297D01*
X244330Y269402D01*
X244272Y269510D01*
X244217Y269619D01*
X244166Y269730D01*
X244118Y269842D01*
X244074Y269956D01*
X244034Y270071D01*
X243997Y270188D01*
X243965Y270306D01*
X243936Y270424D01*
X243910Y270544D01*
X243889Y270664D01*
X243871Y270785D01*
X243858Y270906D01*
X243848Y271028D01*
X243842Y271150D01*
X243840Y271272D01*
X247650Y267462D02*
X290830Y267462D01*
X294640Y271272D02*
X294640Y302768D01*
X243840Y302768D02*
X243840Y271272D01*
X243840Y281940D02*
X243981Y281942D01*
X244122Y281948D01*
X244263Y281958D01*
X244404Y281971D01*
X244544Y281989D01*
X244683Y282011D01*
X244822Y282036D01*
X244961Y282065D01*
X245098Y282098D01*
X245234Y282135D01*
X245369Y282176D01*
X245504Y282220D01*
X245636Y282268D01*
X245768Y282320D01*
X245898Y282375D01*
X246026Y282434D01*
X246153Y282497D01*
X246277Y282563D01*
X246400Y282632D01*
X246521Y282705D01*
X246640Y282781D01*
X246757Y282861D01*
X246871Y282944D01*
X246984Y283029D01*
X247093Y283118D01*
X247201Y283210D01*
X247305Y283305D01*
X247407Y283403D01*
X247506Y283504D01*
X247603Y283607D01*
X247696Y283713D01*
X247786Y283821D01*
X247874Y283932D01*
X247958Y284045D01*
X248039Y284161D01*
X248117Y284279D01*
X248192Y284399D01*
X248263Y284521D01*
X248331Y284645D01*
X248395Y284771D01*
X248456Y284898D01*
X248513Y285027D01*
X248566Y285158D01*
X248616Y285290D01*
X248663Y285423D01*
X248705Y285558D01*
X248744Y285694D01*
X248779Y285831D01*
X248810Y285968D01*
X248837Y286107D01*
X248861Y286246D01*
X248880Y286386D01*
X248896Y286526D01*
X248908Y286667D01*
X248916Y286808D01*
X248920Y286949D01*
X248920Y287091D01*
X248916Y287232D01*
X248908Y287373D01*
X248896Y287514D01*
X248880Y287654D01*
X248861Y287794D01*
X248837Y287933D01*
X248810Y288072D01*
X248779Y288209D01*
X248744Y288346D01*
X248705Y288482D01*
X248663Y288617D01*
X248616Y288750D01*
X248566Y288882D01*
X248513Y289013D01*
X248456Y289142D01*
X248395Y289269D01*
X248331Y289395D01*
X248263Y289519D01*
X248192Y289641D01*
X248117Y289761D01*
X248039Y289879D01*
X247958Y289995D01*
X247874Y290108D01*
X247786Y290219D01*
X247696Y290327D01*
X247603Y290433D01*
X247506Y290536D01*
X247407Y290637D01*
X247305Y290735D01*
X247201Y290830D01*
X247093Y290922D01*
X246984Y291011D01*
X246871Y291096D01*
X246757Y291179D01*
X246640Y291259D01*
X246521Y291335D01*
X246400Y291408D01*
X246277Y291477D01*
X246153Y291543D01*
X246026Y291606D01*
X245898Y291665D01*
X245768Y291720D01*
X245636Y291772D01*
X245504Y291820D01*
X245369Y291864D01*
X245234Y291905D01*
X245098Y291942D01*
X244961Y291975D01*
X244822Y292004D01*
X244683Y292029D01*
X244544Y292051D01*
X244404Y292069D01*
X244263Y292082D01*
X244122Y292092D01*
X243981Y292098D01*
X243840Y292100D01*
D12*
X243840Y271018D02*
X294640Y271018D01*
D10*
X476250Y306578D02*
X519430Y306578D01*
X523240Y271272D02*
X523238Y271150D01*
X523232Y271028D01*
X523222Y270906D01*
X523209Y270785D01*
X523191Y270664D01*
X523170Y270544D01*
X523144Y270424D01*
X523115Y270306D01*
X523083Y270188D01*
X523046Y270071D01*
X523006Y269956D01*
X522962Y269842D01*
X522914Y269730D01*
X522863Y269619D01*
X522808Y269510D01*
X522750Y269402D01*
X522688Y269297D01*
X522623Y269194D01*
X522555Y269092D01*
X522483Y268993D01*
X522409Y268897D01*
X522331Y268802D01*
X522250Y268711D01*
X522167Y268621D01*
X522081Y268535D01*
X521991Y268452D01*
X521900Y268371D01*
X521805Y268293D01*
X521709Y268219D01*
X521610Y268147D01*
X521508Y268079D01*
X521405Y268014D01*
X521300Y267952D01*
X521192Y267894D01*
X521083Y267839D01*
X520972Y267788D01*
X520860Y267740D01*
X520746Y267696D01*
X520631Y267656D01*
X520514Y267619D01*
X520396Y267587D01*
X520278Y267558D01*
X520158Y267532D01*
X520038Y267511D01*
X519917Y267493D01*
X519796Y267480D01*
X519674Y267470D01*
X519552Y267464D01*
X519430Y267462D01*
X476250Y306578D02*
X476128Y306576D01*
X476006Y306570D01*
X475884Y306560D01*
X475763Y306547D01*
X475642Y306529D01*
X475522Y306508D01*
X475402Y306482D01*
X475284Y306453D01*
X475166Y306421D01*
X475049Y306384D01*
X474934Y306344D01*
X474820Y306300D01*
X474708Y306252D01*
X474597Y306201D01*
X474488Y306146D01*
X474380Y306088D01*
X474275Y306026D01*
X474172Y305961D01*
X474070Y305893D01*
X473971Y305821D01*
X473875Y305747D01*
X473780Y305669D01*
X473689Y305588D01*
X473599Y305505D01*
X473513Y305419D01*
X473430Y305329D01*
X473349Y305238D01*
X473271Y305143D01*
X473197Y305047D01*
X473125Y304948D01*
X473057Y304846D01*
X472992Y304743D01*
X472930Y304638D01*
X472872Y304530D01*
X472817Y304421D01*
X472766Y304310D01*
X472718Y304198D01*
X472674Y304084D01*
X472634Y303969D01*
X472597Y303852D01*
X472565Y303734D01*
X472536Y303616D01*
X472510Y303496D01*
X472489Y303376D01*
X472471Y303255D01*
X472458Y303134D01*
X472448Y303012D01*
X472442Y302890D01*
X472440Y302768D01*
X519430Y306578D02*
X519552Y306576D01*
X519674Y306570D01*
X519796Y306560D01*
X519917Y306547D01*
X520038Y306529D01*
X520158Y306508D01*
X520278Y306482D01*
X520396Y306453D01*
X520514Y306421D01*
X520631Y306384D01*
X520746Y306344D01*
X520860Y306300D01*
X520972Y306252D01*
X521083Y306201D01*
X521192Y306146D01*
X521300Y306088D01*
X521405Y306026D01*
X521508Y305961D01*
X521610Y305893D01*
X521709Y305821D01*
X521805Y305747D01*
X521900Y305669D01*
X521991Y305588D01*
X522081Y305505D01*
X522167Y305419D01*
X522250Y305329D01*
X522331Y305238D01*
X522409Y305143D01*
X522483Y305047D01*
X522555Y304948D01*
X522623Y304846D01*
X522688Y304743D01*
X522750Y304638D01*
X522808Y304530D01*
X522863Y304421D01*
X522914Y304310D01*
X522962Y304198D01*
X523006Y304084D01*
X523046Y303969D01*
X523083Y303852D01*
X523115Y303734D01*
X523144Y303616D01*
X523170Y303496D01*
X523191Y303376D01*
X523209Y303255D01*
X523222Y303134D01*
X523232Y303012D01*
X523238Y302890D01*
X523240Y302768D01*
X476250Y267462D02*
X476128Y267464D01*
X476006Y267470D01*
X475884Y267480D01*
X475763Y267493D01*
X475642Y267511D01*
X475522Y267532D01*
X475402Y267558D01*
X475284Y267587D01*
X475166Y267619D01*
X475049Y267656D01*
X474934Y267696D01*
X474820Y267740D01*
X474708Y267788D01*
X474597Y267839D01*
X474488Y267894D01*
X474380Y267952D01*
X474275Y268014D01*
X474172Y268079D01*
X474070Y268147D01*
X473971Y268219D01*
X473875Y268293D01*
X473780Y268371D01*
X473689Y268452D01*
X473599Y268535D01*
X473513Y268621D01*
X473430Y268711D01*
X473349Y268802D01*
X473271Y268897D01*
X473197Y268993D01*
X473125Y269092D01*
X473057Y269194D01*
X472992Y269297D01*
X472930Y269402D01*
X472872Y269510D01*
X472817Y269619D01*
X472766Y269730D01*
X472718Y269842D01*
X472674Y269956D01*
X472634Y270071D01*
X472597Y270188D01*
X472565Y270306D01*
X472536Y270424D01*
X472510Y270544D01*
X472489Y270664D01*
X472471Y270785D01*
X472458Y270906D01*
X472448Y271028D01*
X472442Y271150D01*
X472440Y271272D01*
X476250Y267462D02*
X519430Y267462D01*
X523240Y271272D02*
X523240Y302768D01*
X472440Y302768D02*
X472440Y271272D01*
X472440Y281940D02*
X472581Y281942D01*
X472722Y281948D01*
X472863Y281958D01*
X473004Y281971D01*
X473144Y281989D01*
X473283Y282011D01*
X473422Y282036D01*
X473561Y282065D01*
X473698Y282098D01*
X473834Y282135D01*
X473969Y282176D01*
X474104Y282220D01*
X474236Y282268D01*
X474368Y282320D01*
X474498Y282375D01*
X474626Y282434D01*
X474753Y282497D01*
X474877Y282563D01*
X475000Y282632D01*
X475121Y282705D01*
X475240Y282781D01*
X475357Y282861D01*
X475471Y282944D01*
X475584Y283029D01*
X475693Y283118D01*
X475801Y283210D01*
X475905Y283305D01*
X476007Y283403D01*
X476106Y283504D01*
X476203Y283607D01*
X476296Y283713D01*
X476386Y283821D01*
X476474Y283932D01*
X476558Y284045D01*
X476639Y284161D01*
X476717Y284279D01*
X476792Y284399D01*
X476863Y284521D01*
X476931Y284645D01*
X476995Y284771D01*
X477056Y284898D01*
X477113Y285027D01*
X477166Y285158D01*
X477216Y285290D01*
X477263Y285423D01*
X477305Y285558D01*
X477344Y285694D01*
X477379Y285831D01*
X477410Y285968D01*
X477437Y286107D01*
X477461Y286246D01*
X477480Y286386D01*
X477496Y286526D01*
X477508Y286667D01*
X477516Y286808D01*
X477520Y286949D01*
X477520Y287091D01*
X477516Y287232D01*
X477508Y287373D01*
X477496Y287514D01*
X477480Y287654D01*
X477461Y287794D01*
X477437Y287933D01*
X477410Y288072D01*
X477379Y288209D01*
X477344Y288346D01*
X477305Y288482D01*
X477263Y288617D01*
X477216Y288750D01*
X477166Y288882D01*
X477113Y289013D01*
X477056Y289142D01*
X476995Y289269D01*
X476931Y289395D01*
X476863Y289519D01*
X476792Y289641D01*
X476717Y289761D01*
X476639Y289879D01*
X476558Y289995D01*
X476474Y290108D01*
X476386Y290219D01*
X476296Y290327D01*
X476203Y290433D01*
X476106Y290536D01*
X476007Y290637D01*
X475905Y290735D01*
X475801Y290830D01*
X475693Y290922D01*
X475584Y291011D01*
X475471Y291096D01*
X475357Y291179D01*
X475240Y291259D01*
X475121Y291335D01*
X475000Y291408D01*
X474877Y291477D01*
X474753Y291543D01*
X474626Y291606D01*
X474498Y291665D01*
X474368Y291720D01*
X474236Y291772D01*
X474104Y291820D01*
X473969Y291864D01*
X473834Y291905D01*
X473698Y291942D01*
X473561Y291975D01*
X473422Y292004D01*
X473283Y292029D01*
X473144Y292051D01*
X473004Y292069D01*
X472863Y292082D01*
X472722Y292092D01*
X472581Y292098D01*
X472440Y292100D01*
D12*
X472440Y271018D02*
X523240Y271018D01*
D10*
X648970Y306578D02*
X692150Y306578D01*
X695960Y271272D02*
X695958Y271150D01*
X695952Y271028D01*
X695942Y270906D01*
X695929Y270785D01*
X695911Y270664D01*
X695890Y270544D01*
X695864Y270424D01*
X695835Y270306D01*
X695803Y270188D01*
X695766Y270071D01*
X695726Y269956D01*
X695682Y269842D01*
X695634Y269730D01*
X695583Y269619D01*
X695528Y269510D01*
X695470Y269402D01*
X695408Y269297D01*
X695343Y269194D01*
X695275Y269092D01*
X695203Y268993D01*
X695129Y268897D01*
X695051Y268802D01*
X694970Y268711D01*
X694887Y268621D01*
X694801Y268535D01*
X694711Y268452D01*
X694620Y268371D01*
X694525Y268293D01*
X694429Y268219D01*
X694330Y268147D01*
X694228Y268079D01*
X694125Y268014D01*
X694020Y267952D01*
X693912Y267894D01*
X693803Y267839D01*
X693692Y267788D01*
X693580Y267740D01*
X693466Y267696D01*
X693351Y267656D01*
X693234Y267619D01*
X693116Y267587D01*
X692998Y267558D01*
X692878Y267532D01*
X692758Y267511D01*
X692637Y267493D01*
X692516Y267480D01*
X692394Y267470D01*
X692272Y267464D01*
X692150Y267462D01*
X648970Y306578D02*
X648848Y306576D01*
X648726Y306570D01*
X648604Y306560D01*
X648483Y306547D01*
X648362Y306529D01*
X648242Y306508D01*
X648122Y306482D01*
X648004Y306453D01*
X647886Y306421D01*
X647769Y306384D01*
X647654Y306344D01*
X647540Y306300D01*
X647428Y306252D01*
X647317Y306201D01*
X647208Y306146D01*
X647100Y306088D01*
X646995Y306026D01*
X646892Y305961D01*
X646790Y305893D01*
X646691Y305821D01*
X646595Y305747D01*
X646500Y305669D01*
X646409Y305588D01*
X646319Y305505D01*
X646233Y305419D01*
X646150Y305329D01*
X646069Y305238D01*
X645991Y305143D01*
X645917Y305047D01*
X645845Y304948D01*
X645777Y304846D01*
X645712Y304743D01*
X645650Y304638D01*
X645592Y304530D01*
X645537Y304421D01*
X645486Y304310D01*
X645438Y304198D01*
X645394Y304084D01*
X645354Y303969D01*
X645317Y303852D01*
X645285Y303734D01*
X645256Y303616D01*
X645230Y303496D01*
X645209Y303376D01*
X645191Y303255D01*
X645178Y303134D01*
X645168Y303012D01*
X645162Y302890D01*
X645160Y302768D01*
X692150Y306578D02*
X692272Y306576D01*
X692394Y306570D01*
X692516Y306560D01*
X692637Y306547D01*
X692758Y306529D01*
X692878Y306508D01*
X692998Y306482D01*
X693116Y306453D01*
X693234Y306421D01*
X693351Y306384D01*
X693466Y306344D01*
X693580Y306300D01*
X693692Y306252D01*
X693803Y306201D01*
X693912Y306146D01*
X694020Y306088D01*
X694125Y306026D01*
X694228Y305961D01*
X694330Y305893D01*
X694429Y305821D01*
X694525Y305747D01*
X694620Y305669D01*
X694711Y305588D01*
X694801Y305505D01*
X694887Y305419D01*
X694970Y305329D01*
X695051Y305238D01*
X695129Y305143D01*
X695203Y305047D01*
X695275Y304948D01*
X695343Y304846D01*
X695408Y304743D01*
X695470Y304638D01*
X695528Y304530D01*
X695583Y304421D01*
X695634Y304310D01*
X695682Y304198D01*
X695726Y304084D01*
X695766Y303969D01*
X695803Y303852D01*
X695835Y303734D01*
X695864Y303616D01*
X695890Y303496D01*
X695911Y303376D01*
X695929Y303255D01*
X695942Y303134D01*
X695952Y303012D01*
X695958Y302890D01*
X695960Y302768D01*
X648970Y267462D02*
X648848Y267464D01*
X648726Y267470D01*
X648604Y267480D01*
X648483Y267493D01*
X648362Y267511D01*
X648242Y267532D01*
X648122Y267558D01*
X648004Y267587D01*
X647886Y267619D01*
X647769Y267656D01*
X647654Y267696D01*
X647540Y267740D01*
X647428Y267788D01*
X647317Y267839D01*
X647208Y267894D01*
X647100Y267952D01*
X646995Y268014D01*
X646892Y268079D01*
X646790Y268147D01*
X646691Y268219D01*
X646595Y268293D01*
X646500Y268371D01*
X646409Y268452D01*
X646319Y268535D01*
X646233Y268621D01*
X646150Y268711D01*
X646069Y268802D01*
X645991Y268897D01*
X645917Y268993D01*
X645845Y269092D01*
X645777Y269194D01*
X645712Y269297D01*
X645650Y269402D01*
X645592Y269510D01*
X645537Y269619D01*
X645486Y269730D01*
X645438Y269842D01*
X645394Y269956D01*
X645354Y270071D01*
X645317Y270188D01*
X645285Y270306D01*
X645256Y270424D01*
X645230Y270544D01*
X645209Y270664D01*
X645191Y270785D01*
X645178Y270906D01*
X645168Y271028D01*
X645162Y271150D01*
X645160Y271272D01*
X648970Y267462D02*
X692150Y267462D01*
X695960Y271272D02*
X695960Y302768D01*
X645160Y302768D02*
X645160Y271272D01*
X645160Y281940D02*
X645301Y281942D01*
X645442Y281948D01*
X645583Y281958D01*
X645724Y281971D01*
X645864Y281989D01*
X646003Y282011D01*
X646142Y282036D01*
X646281Y282065D01*
X646418Y282098D01*
X646554Y282135D01*
X646689Y282176D01*
X646824Y282220D01*
X646956Y282268D01*
X647088Y282320D01*
X647218Y282375D01*
X647346Y282434D01*
X647473Y282497D01*
X647597Y282563D01*
X647720Y282632D01*
X647841Y282705D01*
X647960Y282781D01*
X648077Y282861D01*
X648191Y282944D01*
X648304Y283029D01*
X648413Y283118D01*
X648521Y283210D01*
X648625Y283305D01*
X648727Y283403D01*
X648826Y283504D01*
X648923Y283607D01*
X649016Y283713D01*
X649106Y283821D01*
X649194Y283932D01*
X649278Y284045D01*
X649359Y284161D01*
X649437Y284279D01*
X649512Y284399D01*
X649583Y284521D01*
X649651Y284645D01*
X649715Y284771D01*
X649776Y284898D01*
X649833Y285027D01*
X649886Y285158D01*
X649936Y285290D01*
X649983Y285423D01*
X650025Y285558D01*
X650064Y285694D01*
X650099Y285831D01*
X650130Y285968D01*
X650157Y286107D01*
X650181Y286246D01*
X650200Y286386D01*
X650216Y286526D01*
X650228Y286667D01*
X650236Y286808D01*
X650240Y286949D01*
X650240Y287091D01*
X650236Y287232D01*
X650228Y287373D01*
X650216Y287514D01*
X650200Y287654D01*
X650181Y287794D01*
X650157Y287933D01*
X650130Y288072D01*
X650099Y288209D01*
X650064Y288346D01*
X650025Y288482D01*
X649983Y288617D01*
X649936Y288750D01*
X649886Y288882D01*
X649833Y289013D01*
X649776Y289142D01*
X649715Y289269D01*
X649651Y289395D01*
X649583Y289519D01*
X649512Y289641D01*
X649437Y289761D01*
X649359Y289879D01*
X649278Y289995D01*
X649194Y290108D01*
X649106Y290219D01*
X649016Y290327D01*
X648923Y290433D01*
X648826Y290536D01*
X648727Y290637D01*
X648625Y290735D01*
X648521Y290830D01*
X648413Y290922D01*
X648304Y291011D01*
X648191Y291096D01*
X648077Y291179D01*
X647960Y291259D01*
X647841Y291335D01*
X647720Y291408D01*
X647597Y291477D01*
X647473Y291543D01*
X647346Y291606D01*
X647218Y291665D01*
X647088Y291720D01*
X646956Y291772D01*
X646824Y291820D01*
X646689Y291864D01*
X646554Y291905D01*
X646418Y291942D01*
X646281Y291975D01*
X646142Y292004D01*
X646003Y292029D01*
X645864Y292051D01*
X645724Y292069D01*
X645583Y292082D01*
X645442Y292092D01*
X645301Y292098D01*
X645160Y292100D01*
D12*
X645160Y271018D02*
X695960Y271018D01*
D13*
X231140Y239520D02*
X231140Y208270D01*
X281940Y208270D02*
X281940Y239520D01*
D14*
X236540Y200520D03*
D15*
X236542Y200582D01*
X236548Y200643D01*
X236557Y200704D01*
X236570Y200764D01*
X236587Y200823D01*
X236608Y200881D01*
X236632Y200938D01*
X236659Y200993D01*
X236690Y201046D01*
X236724Y201098D01*
X236761Y201147D01*
X236801Y201194D01*
X236844Y201238D01*
X236889Y201279D01*
X236937Y201318D01*
X236988Y201354D01*
X237040Y201386D01*
X237094Y201415D01*
X237150Y201441D01*
X237208Y201463D01*
X237266Y201482D01*
X237326Y201497D01*
X237387Y201508D01*
X237448Y201516D01*
X237509Y201520D01*
X237571Y201520D01*
X237632Y201516D01*
X237693Y201508D01*
X237754Y201497D01*
X237814Y201482D01*
X237872Y201463D01*
X237930Y201441D01*
X237986Y201415D01*
X238040Y201386D01*
X238092Y201354D01*
X238143Y201318D01*
X238191Y201279D01*
X238236Y201238D01*
X238279Y201194D01*
X238319Y201147D01*
X238356Y201098D01*
X238390Y201046D01*
X238421Y200993D01*
X238448Y200938D01*
X238472Y200881D01*
X238493Y200823D01*
X238510Y200764D01*
X238523Y200704D01*
X238532Y200643D01*
X238538Y200582D01*
X238540Y200520D01*
D14*
X238540Y200520D03*
D15*
X238538Y200458D01*
X238532Y200397D01*
X238523Y200336D01*
X238510Y200276D01*
X238493Y200217D01*
X238472Y200159D01*
X238448Y200102D01*
X238421Y200047D01*
X238390Y199994D01*
X238356Y199942D01*
X238319Y199893D01*
X238279Y199846D01*
X238236Y199802D01*
X238191Y199761D01*
X238143Y199722D01*
X238092Y199686D01*
X238040Y199654D01*
X237986Y199625D01*
X237930Y199599D01*
X237872Y199577D01*
X237814Y199558D01*
X237754Y199543D01*
X237693Y199532D01*
X237632Y199524D01*
X237571Y199520D01*
X237509Y199520D01*
X237448Y199524D01*
X237387Y199532D01*
X237326Y199543D01*
X237266Y199558D01*
X237208Y199577D01*
X237150Y199599D01*
X237094Y199625D01*
X237040Y199654D01*
X236988Y199686D01*
X236937Y199722D01*
X236889Y199761D01*
X236844Y199802D01*
X236801Y199846D01*
X236761Y199893D01*
X236724Y199942D01*
X236690Y199994D01*
X236659Y200047D01*
X236632Y200102D01*
X236608Y200159D01*
X236587Y200217D01*
X236570Y200276D01*
X236557Y200336D01*
X236548Y200397D01*
X236542Y200458D01*
X236540Y200520D01*
D13*
X472440Y208270D02*
X472440Y239520D01*
X523240Y239520D02*
X523240Y208270D01*
D14*
X477840Y200520D03*
D15*
X477842Y200582D01*
X477848Y200643D01*
X477857Y200704D01*
X477870Y200764D01*
X477887Y200823D01*
X477908Y200881D01*
X477932Y200938D01*
X477959Y200993D01*
X477990Y201046D01*
X478024Y201098D01*
X478061Y201147D01*
X478101Y201194D01*
X478144Y201238D01*
X478189Y201279D01*
X478237Y201318D01*
X478288Y201354D01*
X478340Y201386D01*
X478394Y201415D01*
X478450Y201441D01*
X478508Y201463D01*
X478566Y201482D01*
X478626Y201497D01*
X478687Y201508D01*
X478748Y201516D01*
X478809Y201520D01*
X478871Y201520D01*
X478932Y201516D01*
X478993Y201508D01*
X479054Y201497D01*
X479114Y201482D01*
X479172Y201463D01*
X479230Y201441D01*
X479286Y201415D01*
X479340Y201386D01*
X479392Y201354D01*
X479443Y201318D01*
X479491Y201279D01*
X479536Y201238D01*
X479579Y201194D01*
X479619Y201147D01*
X479656Y201098D01*
X479690Y201046D01*
X479721Y200993D01*
X479748Y200938D01*
X479772Y200881D01*
X479793Y200823D01*
X479810Y200764D01*
X479823Y200704D01*
X479832Y200643D01*
X479838Y200582D01*
X479840Y200520D01*
D14*
X479840Y200520D03*
D15*
X479838Y200458D01*
X479832Y200397D01*
X479823Y200336D01*
X479810Y200276D01*
X479793Y200217D01*
X479772Y200159D01*
X479748Y200102D01*
X479721Y200047D01*
X479690Y199994D01*
X479656Y199942D01*
X479619Y199893D01*
X479579Y199846D01*
X479536Y199802D01*
X479491Y199761D01*
X479443Y199722D01*
X479392Y199686D01*
X479340Y199654D01*
X479286Y199625D01*
X479230Y199599D01*
X479172Y199577D01*
X479114Y199558D01*
X479054Y199543D01*
X478993Y199532D01*
X478932Y199524D01*
X478871Y199520D01*
X478809Y199520D01*
X478748Y199524D01*
X478687Y199532D01*
X478626Y199543D01*
X478566Y199558D01*
X478508Y199577D01*
X478450Y199599D01*
X478394Y199625D01*
X478340Y199654D01*
X478288Y199686D01*
X478237Y199722D01*
X478189Y199761D01*
X478144Y199802D01*
X478101Y199846D01*
X478061Y199893D01*
X478024Y199942D01*
X477990Y199994D01*
X477959Y200047D01*
X477932Y200102D01*
X477908Y200159D01*
X477887Y200217D01*
X477870Y200276D01*
X477857Y200336D01*
X477848Y200397D01*
X477842Y200458D01*
X477840Y200520D01*
D13*
X645160Y208270D02*
X645160Y239520D01*
X695960Y239520D02*
X695960Y208270D01*
D14*
X650560Y200520D03*
D15*
X650562Y200582D01*
X650568Y200643D01*
X650577Y200704D01*
X650590Y200764D01*
X650607Y200823D01*
X650628Y200881D01*
X650652Y200938D01*
X650679Y200993D01*
X650710Y201046D01*
X650744Y201098D01*
X650781Y201147D01*
X650821Y201194D01*
X650864Y201238D01*
X650909Y201279D01*
X650957Y201318D01*
X651008Y201354D01*
X651060Y201386D01*
X651114Y201415D01*
X651170Y201441D01*
X651228Y201463D01*
X651286Y201482D01*
X651346Y201497D01*
X651407Y201508D01*
X651468Y201516D01*
X651529Y201520D01*
X651591Y201520D01*
X651652Y201516D01*
X651713Y201508D01*
X651774Y201497D01*
X651834Y201482D01*
X651892Y201463D01*
X651950Y201441D01*
X652006Y201415D01*
X652060Y201386D01*
X652112Y201354D01*
X652163Y201318D01*
X652211Y201279D01*
X652256Y201238D01*
X652299Y201194D01*
X652339Y201147D01*
X652376Y201098D01*
X652410Y201046D01*
X652441Y200993D01*
X652468Y200938D01*
X652492Y200881D01*
X652513Y200823D01*
X652530Y200764D01*
X652543Y200704D01*
X652552Y200643D01*
X652558Y200582D01*
X652560Y200520D01*
D14*
X652560Y200520D03*
D15*
X652558Y200458D01*
X652552Y200397D01*
X652543Y200336D01*
X652530Y200276D01*
X652513Y200217D01*
X652492Y200159D01*
X652468Y200102D01*
X652441Y200047D01*
X652410Y199994D01*
X652376Y199942D01*
X652339Y199893D01*
X652299Y199846D01*
X652256Y199802D01*
X652211Y199761D01*
X652163Y199722D01*
X652112Y199686D01*
X652060Y199654D01*
X652006Y199625D01*
X651950Y199599D01*
X651892Y199577D01*
X651834Y199558D01*
X651774Y199543D01*
X651713Y199532D01*
X651652Y199524D01*
X651591Y199520D01*
X651529Y199520D01*
X651468Y199524D01*
X651407Y199532D01*
X651346Y199543D01*
X651286Y199558D01*
X651228Y199577D01*
X651170Y199599D01*
X651114Y199625D01*
X651060Y199654D01*
X651008Y199686D01*
X650957Y199722D01*
X650909Y199761D01*
X650864Y199802D01*
X650821Y199846D01*
X650781Y199893D01*
X650744Y199942D01*
X650710Y199994D01*
X650679Y200047D01*
X650652Y200102D01*
X650628Y200159D01*
X650607Y200217D01*
X650590Y200276D01*
X650577Y200336D01*
X650568Y200397D01*
X650562Y200458D01*
X650560Y200520D01*
D10*
X138430Y69850D02*
X138430Y63500D01*
X138430Y69850D02*
X144780Y69850D01*
X170180Y69850D02*
X176530Y69850D01*
X176530Y63500D01*
X176530Y38100D02*
X176530Y31750D01*
X170180Y31750D01*
X144780Y31750D02*
X138430Y31750D01*
X138430Y38100D01*
X210820Y63500D02*
X210820Y69850D01*
X217170Y69850D01*
X242570Y69850D02*
X248920Y69850D01*
X248920Y63500D01*
X248920Y38100D02*
X248920Y31750D01*
X242570Y31750D01*
X217170Y31750D02*
X210820Y31750D01*
X210820Y38100D01*
X283210Y63500D02*
X283210Y69850D01*
X289560Y69850D01*
X314960Y69850D02*
X321310Y69850D01*
X321310Y63500D01*
X321310Y38100D02*
X321310Y31750D01*
X314960Y31750D01*
X289560Y31750D02*
X283210Y31750D01*
X283210Y38100D01*
X393700Y38100D02*
X393700Y31750D01*
X387350Y31750D01*
X361950Y31750D02*
X355600Y31750D01*
X355600Y38100D01*
X355600Y63500D02*
X355600Y69850D01*
X361950Y69850D01*
X387350Y69850D02*
X393700Y69850D01*
X393700Y63500D01*
X466090Y38100D02*
X466090Y31750D01*
X459740Y31750D01*
X434340Y31750D02*
X427990Y31750D01*
X427990Y38100D01*
X427990Y63500D02*
X427990Y69850D01*
X434340Y69850D01*
X459740Y69850D02*
X466090Y69850D01*
X466090Y63500D01*
X538480Y38100D02*
X538480Y31750D01*
X532130Y31750D01*
X506730Y31750D02*
X500380Y31750D01*
X500380Y38100D01*
X500380Y63500D02*
X500380Y69850D01*
X506730Y69850D01*
X532130Y69850D02*
X538480Y69850D01*
X538480Y63500D01*
X610870Y38100D02*
X610870Y31750D01*
X604520Y31750D01*
X579120Y31750D02*
X572770Y31750D01*
X572770Y38100D01*
X572770Y63500D02*
X572770Y69850D01*
X579120Y69850D01*
X604520Y69850D02*
X610870Y69850D01*
X610870Y63500D01*
X683260Y38100D02*
X683260Y31750D01*
X676910Y31750D01*
X651510Y31750D02*
X645160Y31750D01*
X645160Y38100D01*
X645160Y63500D02*
X645160Y69850D01*
X651510Y69850D01*
X676910Y69850D02*
X683260Y69850D01*
X683260Y63500D01*
X755650Y38100D02*
X755650Y31750D01*
X749300Y31750D01*
X723900Y31750D02*
X717550Y31750D01*
X717550Y38100D01*
X717550Y63500D02*
X717550Y69850D01*
X723900Y69850D01*
X749300Y69850D02*
X755650Y69850D01*
X755650Y63500D01*
D15*
X262370Y96800D02*
X262370Y131800D01*
X262370Y96800D02*
X197370Y96800D01*
X197370Y131800D01*
X262370Y131800D01*
X261120Y135300D02*
X261120Y154300D01*
X267230Y173010D02*
X267230Y177510D01*
X267230Y173010D02*
X238230Y173010D01*
X238230Y177510D01*
X267230Y177510D01*
X267730Y181010D02*
X267730Y191510D01*
X189980Y131800D02*
X189980Y96800D01*
X124980Y96800D01*
X124980Y131800D01*
X189980Y131800D01*
X188730Y135300D02*
X188730Y154300D01*
X194840Y173010D02*
X194840Y177510D01*
X194840Y173010D02*
X165840Y173010D01*
X165840Y177510D01*
X194840Y177510D01*
X195340Y181010D02*
X195340Y191510D01*
X334760Y131800D02*
X334760Y96800D01*
X269760Y96800D01*
X269760Y131800D01*
X334760Y131800D01*
X333510Y135300D02*
X333510Y154300D01*
X339620Y173010D02*
X339620Y177510D01*
X339620Y173010D02*
X310620Y173010D01*
X310620Y177510D01*
X339620Y177510D01*
X340120Y181010D02*
X340120Y191510D01*
X479540Y131800D02*
X479540Y96800D01*
X414540Y96800D01*
X414540Y131800D01*
X479540Y131800D01*
X478290Y135300D02*
X478290Y154300D01*
X484400Y173010D02*
X484400Y177510D01*
X484400Y173010D02*
X455400Y173010D01*
X455400Y177510D01*
X484400Y177510D01*
X484900Y181010D02*
X484900Y191510D01*
X407150Y131800D02*
X407150Y96800D01*
X342150Y96800D01*
X342150Y131800D01*
X407150Y131800D01*
X405900Y135300D02*
X405900Y154300D01*
X415820Y174280D02*
X415820Y178780D01*
X415820Y174280D02*
X386820Y174280D01*
X386820Y178780D01*
X415820Y178780D01*
X416320Y182280D02*
X416320Y192780D01*
X551930Y131800D02*
X551930Y96800D01*
X486930Y96800D01*
X486930Y131800D01*
X551930Y131800D01*
X550680Y135300D02*
X550680Y154300D01*
X556790Y173010D02*
X556790Y177510D01*
X556790Y173010D02*
X527790Y173010D01*
X527790Y177510D01*
X556790Y177510D01*
X557290Y181010D02*
X557290Y191510D01*
X696710Y131800D02*
X696710Y96800D01*
X631710Y96800D01*
X631710Y131800D01*
X696710Y131800D01*
X695460Y135300D02*
X695460Y154300D01*
X701570Y173010D02*
X701570Y177510D01*
X701570Y173010D02*
X672570Y173010D01*
X672570Y177510D01*
X701570Y177510D01*
X702070Y181010D02*
X702070Y191510D01*
X624320Y131800D02*
X624320Y96800D01*
X559320Y96800D01*
X559320Y131800D01*
X624320Y131800D01*
X623070Y135300D02*
X623070Y154300D01*
X632990Y173010D02*
X632990Y177510D01*
X632990Y173010D02*
X603990Y173010D01*
X603990Y177510D01*
X632990Y177510D01*
X633490Y181010D02*
X633490Y191510D01*
X769100Y131800D02*
X769100Y96800D01*
X704100Y96800D01*
X704100Y131800D01*
X769100Y131800D01*
X767850Y135300D02*
X767850Y154300D01*
X754910Y174280D02*
X754910Y178780D01*
X754910Y174280D02*
X725910Y174280D01*
X725910Y178780D01*
X754910Y178780D01*
X755410Y182280D02*
X755410Y192780D01*
D10*
X774700Y255270D02*
X774700Y261620D01*
X774700Y255270D02*
X768350Y255270D01*
X742950Y255270D02*
X736600Y255270D01*
X736600Y261620D01*
X736600Y287020D02*
X736600Y293370D01*
X742950Y293370D01*
X768350Y293370D02*
X774700Y293370D01*
X774700Y287020D01*
X167640Y292100D02*
X167640Y298450D01*
X167640Y292100D02*
X161290Y292100D01*
X135890Y292100D02*
X129540Y292100D01*
X129540Y298450D01*
X129540Y323850D02*
X129540Y330200D01*
X135890Y330200D01*
X161290Y330200D02*
X167640Y330200D01*
X167640Y323850D01*
X167640Y247650D02*
X167640Y241300D01*
X161290Y241300D01*
X135890Y241300D02*
X129540Y241300D01*
X129540Y247650D01*
X129540Y273050D02*
X129540Y279400D01*
X135890Y279400D01*
X161290Y279400D02*
X167640Y279400D01*
X167640Y273050D01*
X167640Y198120D02*
X167640Y191770D01*
X161290Y191770D01*
X135890Y191770D02*
X129540Y191770D01*
X129540Y198120D01*
X129540Y223520D02*
X129540Y229870D01*
X135890Y229870D01*
X161290Y229870D02*
X167640Y229870D01*
X167640Y223520D01*
D15*
X315470Y202950D02*
X347470Y202950D01*
X347470Y266950D02*
X315470Y266950D01*
X355160Y209680D02*
X355162Y209711D01*
X355168Y209742D01*
X355178Y209772D01*
X355191Y209800D01*
X355208Y209827D01*
X355228Y209851D01*
X355251Y209873D01*
X355276Y209891D01*
X355304Y209906D01*
X355333Y209918D01*
X355363Y209926D01*
X355394Y209930D01*
X355426Y209930D01*
X355457Y209926D01*
X355487Y209918D01*
X355516Y209906D01*
X355544Y209891D01*
X355569Y209873D01*
X355592Y209851D01*
X355612Y209827D01*
X355629Y209800D01*
X355642Y209772D01*
X355652Y209742D01*
X355658Y209711D01*
X355660Y209680D01*
X355658Y209649D01*
X355652Y209618D01*
X355642Y209588D01*
X355629Y209560D01*
X355612Y209533D01*
X355592Y209509D01*
X355569Y209487D01*
X355544Y209469D01*
X355516Y209454D01*
X355487Y209442D01*
X355457Y209434D01*
X355426Y209430D01*
X355394Y209430D01*
X355363Y209434D01*
X355333Y209442D01*
X355304Y209454D01*
X355276Y209469D01*
X355251Y209487D01*
X355228Y209509D01*
X355208Y209533D01*
X355191Y209560D01*
X355178Y209588D01*
X355168Y209618D01*
X355162Y209649D01*
X355160Y209680D01*
X400560Y205490D02*
X432560Y205490D01*
X432560Y269490D02*
X400560Y269490D01*
X440250Y212220D02*
X440252Y212251D01*
X440258Y212282D01*
X440268Y212312D01*
X440281Y212340D01*
X440298Y212367D01*
X440318Y212391D01*
X440341Y212413D01*
X440366Y212431D01*
X440394Y212446D01*
X440423Y212458D01*
X440453Y212466D01*
X440484Y212470D01*
X440516Y212470D01*
X440547Y212466D01*
X440577Y212458D01*
X440606Y212446D01*
X440634Y212431D01*
X440659Y212413D01*
X440682Y212391D01*
X440702Y212367D01*
X440719Y212340D01*
X440732Y212312D01*
X440742Y212282D01*
X440748Y212251D01*
X440750Y212220D01*
X440748Y212189D01*
X440742Y212158D01*
X440732Y212128D01*
X440719Y212100D01*
X440702Y212073D01*
X440682Y212049D01*
X440659Y212027D01*
X440634Y212009D01*
X440606Y211994D01*
X440577Y211982D01*
X440547Y211974D01*
X440516Y211970D01*
X440484Y211970D01*
X440453Y211974D01*
X440423Y211982D01*
X440394Y211994D01*
X440366Y212009D01*
X440341Y212027D01*
X440318Y212049D01*
X440298Y212073D01*
X440281Y212100D01*
X440268Y212128D01*
X440258Y212158D01*
X440252Y212189D01*
X440250Y212220D01*
X570740Y201680D02*
X602740Y201680D01*
X602740Y265680D02*
X570740Y265680D01*
X610430Y208410D02*
X610432Y208441D01*
X610438Y208472D01*
X610448Y208502D01*
X610461Y208530D01*
X610478Y208557D01*
X610498Y208581D01*
X610521Y208603D01*
X610546Y208621D01*
X610574Y208636D01*
X610603Y208648D01*
X610633Y208656D01*
X610664Y208660D01*
X610696Y208660D01*
X610727Y208656D01*
X610757Y208648D01*
X610786Y208636D01*
X610814Y208621D01*
X610839Y208603D01*
X610862Y208581D01*
X610882Y208557D01*
X610899Y208530D01*
X610912Y208502D01*
X610922Y208472D01*
X610928Y208441D01*
X610930Y208410D01*
X610928Y208379D01*
X610922Y208348D01*
X610912Y208318D01*
X610899Y208290D01*
X610882Y208263D01*
X610862Y208239D01*
X610839Y208217D01*
X610814Y208199D01*
X610786Y208184D01*
X610757Y208172D01*
X610727Y208164D01*
X610696Y208160D01*
X610664Y208160D01*
X610633Y208164D01*
X610603Y208172D01*
X610574Y208184D01*
X610546Y208199D01*
X610521Y208217D01*
X610498Y208239D01*
X610478Y208263D01*
X610461Y208290D01*
X610448Y208318D01*
X610438Y208348D01*
X610432Y208379D01*
X610430Y208410D01*
D10*
X774700Y210820D02*
X774700Y204470D01*
X768350Y204470D01*
X742950Y204470D02*
X736600Y204470D01*
X736600Y210820D01*
X736600Y236220D02*
X736600Y242570D01*
X742950Y242570D01*
X768350Y242570D02*
X774700Y242570D01*
X774700Y236220D01*
M02*
