G04 EAGLE Gerber RS-274X export*
G75*
%MOMM*%
%FSLAX34Y34*%
%LPD*%
%INSoldermask Top*%
%IPPOS*%
%AMOC8*
5,1,8,0,0,1.08239X$1,22.5*%
G01*
%ADD10R,2.003200X1.803200*%
%ADD11R,0.863600X1.727200*%
%ADD12R,0.913200X1.053200*%
%ADD13P,4.343848X8X202.500000*%
%ADD14P,4.343848X8X22.500000*%
%ADD15R,1.153200X2.103200*%
%ADD16R,3.453200X2.103200*%
%ADD17R,0.803200X1.253200*%
%ADD18R,1.353200X1.103200*%
%ADD19R,2.006200X1.803200*%


D10*
X372110Y261590D03*
X372110Y289590D03*
X199390Y234920D03*
X199390Y262920D03*
X543560Y261590D03*
X543560Y289590D03*
D11*
X250190Y257286D03*
X250190Y316754D03*
X262890Y257286D03*
X275590Y257286D03*
X262890Y316754D03*
X275590Y316754D03*
X288290Y257286D03*
X288290Y316754D03*
X478790Y257286D03*
X478790Y316754D03*
X491490Y257286D03*
X504190Y257286D03*
X491490Y316754D03*
X504190Y316754D03*
X516890Y257286D03*
X516890Y316754D03*
X651510Y257286D03*
X651510Y316754D03*
X664210Y257286D03*
X676910Y257286D03*
X664210Y316754D03*
X676910Y316754D03*
X689610Y257286D03*
X689610Y316754D03*
D12*
X237490Y208270D03*
X250190Y208270D03*
X262890Y208270D03*
X275590Y208270D03*
X237490Y238770D03*
X250190Y238770D03*
X262890Y238770D03*
X275590Y238770D03*
X478790Y208270D03*
X491490Y208270D03*
X504190Y208270D03*
X516890Y208270D03*
X478790Y238770D03*
X491490Y238770D03*
X504190Y238770D03*
X516890Y238770D03*
X651510Y208270D03*
X664210Y208270D03*
X676910Y208270D03*
X689610Y208270D03*
X651510Y238770D03*
X664210Y238770D03*
X676910Y238770D03*
X689610Y238770D03*
D13*
X157480Y50800D03*
X229870Y50800D03*
X302260Y50800D03*
D14*
X374650Y50800D03*
X447040Y50800D03*
X519430Y50800D03*
X591820Y50800D03*
X664210Y50800D03*
X736600Y50800D03*
D15*
X252870Y144800D03*
X229870Y144800D03*
X206870Y144800D03*
D16*
X229870Y83800D03*
D17*
X262230Y186260D03*
X243230Y186260D03*
X252730Y164260D03*
D15*
X180480Y144800D03*
X157480Y144800D03*
X134480Y144800D03*
D16*
X157480Y83800D03*
D17*
X189840Y186260D03*
X170840Y186260D03*
X180340Y164260D03*
D15*
X325260Y144800D03*
X302260Y144800D03*
X279260Y144800D03*
D16*
X302260Y83800D03*
D17*
X334620Y186260D03*
X315620Y186260D03*
X325120Y164260D03*
D15*
X470040Y144800D03*
X447040Y144800D03*
X424040Y144800D03*
D16*
X447040Y83800D03*
D17*
X479400Y186260D03*
X460400Y186260D03*
X469900Y164260D03*
D15*
X397650Y144800D03*
X374650Y144800D03*
X351650Y144800D03*
D16*
X374650Y83800D03*
D17*
X410820Y187530D03*
X391820Y187530D03*
X401320Y165530D03*
D15*
X542430Y144800D03*
X519430Y144800D03*
X496430Y144800D03*
D16*
X519430Y83800D03*
D17*
X551790Y186260D03*
X532790Y186260D03*
X542290Y164260D03*
D15*
X687210Y144800D03*
X664210Y144800D03*
X641210Y144800D03*
D16*
X664210Y83800D03*
D17*
X696570Y186260D03*
X677570Y186260D03*
X687070Y164260D03*
D15*
X614820Y144800D03*
X591820Y144800D03*
X568820Y144800D03*
D16*
X591820Y83800D03*
D17*
X627990Y186260D03*
X608990Y186260D03*
X618490Y164260D03*
D15*
X759600Y144800D03*
X736600Y144800D03*
X713600Y144800D03*
D16*
X736600Y83800D03*
D17*
X749910Y187530D03*
X730910Y187530D03*
X740410Y165530D03*
D14*
X755650Y274320D03*
X148590Y311150D03*
X148590Y260350D03*
X148590Y210820D03*
D18*
X345220Y209550D03*
X345220Y222250D03*
X345220Y234950D03*
X345220Y247650D03*
X345220Y260350D03*
X317720Y260350D03*
X317720Y247650D03*
X317720Y234950D03*
X317720Y222250D03*
X317720Y209550D03*
X430310Y212090D03*
X430310Y224790D03*
X430310Y237490D03*
X430310Y250190D03*
X430310Y262890D03*
X402810Y262890D03*
X402810Y250190D03*
X402810Y237490D03*
X402810Y224790D03*
X402810Y212090D03*
X600490Y208280D03*
X600490Y220980D03*
X600490Y233680D03*
X600490Y246380D03*
X600490Y259080D03*
X572990Y259080D03*
X572990Y246380D03*
X572990Y233680D03*
X572990Y220980D03*
X572990Y208280D03*
D19*
X223520Y291850D03*
X223520Y320290D03*
X198120Y293120D03*
X198120Y321560D03*
X457200Y289310D03*
X457200Y317750D03*
X624840Y288040D03*
X624840Y316480D03*
X716280Y285500D03*
X716280Y313940D03*
D14*
X755650Y223520D03*
M02*
