M48
;GenerationSoftware,Autodesk,EAGLE,9.4.2*%
;CreationDate,2019-09-01T15:32:08Z*%
FMAT,2
ICI,OFF
METRIC,TZ,000.000
T7C0.500
T6C0.550
T5C0.914
T4C1.016
T3C1.300
T2C1.321
T1C2.800
%
G90
M71
T1
X67000Y41000
X18000Y99000
X67000Y99000
X18000Y41000
T2
X38608Y17526
X38608Y9144
T3
X59436Y9144
X54356Y9144
X67056Y29464
X56896Y29464
X46736Y29464
X46736Y9144
T4
X37846Y81788
X35560Y59944
X38100Y59944
X35560Y57404
X38100Y57404
X35560Y54864
X38100Y54864
X35306Y86868
X17526Y65024
X17526Y62484
X17526Y59944
X17526Y57404
X54610Y99822
X57150Y99822
X59690Y99822
X17526Y92456
X17526Y89916
X17526Y87376
X17526Y48514
X17526Y51054
X37846Y84328
X17526Y70104
X35306Y84328
X37846Y86868
X17526Y84836
X35306Y81788
X17526Y67564
T5
X68270Y83970
X65730Y86510
X65730Y61110
X65730Y89050
X68270Y89050
X65730Y91590
X68270Y91590
X65730Y94130
X68270Y94130
X68270Y86510
X68270Y45870
X68270Y56030
X65730Y45870
X65730Y48410
X68270Y48410
X65730Y50950
X68270Y50950
X65730Y53490
X68270Y53490
X65730Y56030
X65730Y58570
X68270Y58570
X68270Y61110
X65730Y63650
X68270Y63650
X65730Y66190
X68270Y66190
X65730Y68730
X68270Y68730
X68270Y73810
X65730Y71270
X68270Y71270
X65730Y73810
X65730Y76350
X68270Y76350
X65730Y78890
X68270Y78890
X65730Y81430
X68270Y81430
X65730Y83970
T6
X43434Y91186
X43714Y63780
X26162Y94488
T7
X34544Y64770
X55118Y85852
X36576Y70104
X32766Y64770
X53594Y85598
X36068Y71374
X53086Y41402
X52070Y85344
X36576Y72644
X45974Y58166
X40386Y52070
X17780Y80518
X21336Y82550
X56134Y45974
X59690Y38354
X49276Y94742
X42926Y86360
X45720Y68072
X55372Y68326
X49784Y68326
X41656Y39624
X56642Y52832
X43434Y39624
X32004Y49784
X32258Y53594
X24892Y90932
X24384Y92202
X37846Y94742
X35814Y74930
X37846Y92964
X44450Y86360
X45974Y86360
X26162Y88392
X51562Y68326
X53594Y68326
X47244Y39624
X45466Y39624
X53848Y43180
X52324Y43180
X60198Y45720
X60198Y42926
X53086Y38862
X32512Y45974
X33020Y43942
X32766Y55626
X40386Y54864
X41148Y56896
X25908Y61976
X25908Y58928
X25908Y60452
X31750Y79502
X31750Y76454
X26416Y82550
X21590Y72390
X19304Y82804
X24130Y94488
X60452Y90424
X44450Y46736
X52578Y75438
X59944Y82804
X59944Y81280
X59944Y79756
X59944Y78232
X55118Y52832
X53594Y52832
X53594Y51562
X55118Y51562
X23114Y39878
X19050Y45974
X16256Y54102
X61976Y53594
X55372Y49022
X56896Y94488
X40386Y84836
X43434Y58420
X29972Y57404
X27178Y46990
X27178Y51308
X27178Y53594
X35814Y77978
X28194Y80518
X60452Y57658
X63246Y57658
X60452Y55372
X61722Y83566
X61722Y93726
X17780Y74930
X24384Y82550
X17780Y77724
X22860Y82550
X46482Y56896
X41910Y51816
X56642Y86106
X37084Y68834
M30