G04 EAGLE Gerber RS-274X export*
G75*
%MOMM*%
%FSLAX34Y34*%
%LPD*%
%INSolderpaste Top*%
%IPPOS*%
%AMOC8*
5,1,8,0,0,1.08239X$1,22.5*%
G01*
%ADD10R,1.524000X0.660400*%
%ADD11R,1.800000X1.600000*%
%ADD12R,0.850000X0.710000*%
%ADD13R,1.900000X0.950000*%
%ADD14R,1.900000X3.250000*%
%ADD15R,1.050000X0.600000*%
%ADD16R,0.900000X1.150000*%
%ADD17R,1.803000X1.600000*%


D10*
X171974Y95250D03*
X112506Y95250D03*
X171974Y107950D03*
X171974Y120650D03*
X112506Y107950D03*
X112506Y120650D03*
X171974Y133350D03*
X112506Y133350D03*
D11*
X139700Y72420D03*
X139700Y44420D03*
D12*
X223530Y100330D03*
X223530Y113030D03*
X223530Y125730D03*
X223530Y138430D03*
X193030Y100330D03*
X193030Y113030D03*
X193030Y125730D03*
X193030Y138430D03*
D13*
X294620Y50940D03*
X294620Y27940D03*
X294620Y4940D03*
D14*
X355620Y27940D03*
D13*
X294620Y123330D03*
X294620Y100330D03*
X294620Y77330D03*
D14*
X355620Y100330D03*
D13*
X294620Y195720D03*
X294620Y172720D03*
X294620Y149720D03*
D14*
X355620Y172720D03*
D15*
X244270Y64110D03*
X244270Y45110D03*
X266270Y54610D03*
X245540Y119990D03*
X245540Y100990D03*
X267540Y110490D03*
X250620Y175870D03*
X250620Y156870D03*
X272620Y166370D03*
D16*
X168910Y53560D03*
X181610Y53560D03*
X194310Y53560D03*
X207010Y53560D03*
X219710Y53560D03*
X219710Y81060D03*
X207010Y81060D03*
X194310Y81060D03*
X181610Y81060D03*
X168910Y81060D03*
D17*
X113030Y72640D03*
X113030Y44200D03*
X135890Y154690D03*
X135890Y183130D03*
X113030Y154690D03*
X113030Y183130D03*
M02*
